<svg width="449" height="420" viewBox="0 0 449 420" fill="none" xmlns="http://www.w3.org/2000/svg">
<path d="M12.7583 206.405L12.5923 206.407C8.45392 206.449 4.42996 206.491 0.501953 206.611V174.049C4.41367 173.934 8.25606 173.888 12.0127 173.844L12.18 173.842C32.6433 173.636 50.2717 173.43 67.3331 163.846C84.3944 154.262 93.7756 139.319 104.6 122.006L104.646 121.932C116.181 103.504 129.219 82.6728 153.516 69.0363C166.351 61.8225 180.113 57.7004 196.969 56L200.268 88.4104C187.845 89.6471 178.361 92.4295 169.495 97.4276C152.402 107.001 143.074 121.92 132.266 139.207L132.228 139.267C120.734 157.714 107.641 178.582 83.312 192.237C59.0446 205.857 34.4696 206.148 12.7583 206.405Z" fill="#00A979"/>
<path d="M295.445 180.254C277.606 180.649 250.22 182.249 229.375 193.931C206.147 206.975 193.681 226.901 182.654 244.529L182.61 244.599L182.574 244.657C172.241 261.194 163.323 275.465 146.981 284.622C130.67 293.789 113.817 293.987 94.2531 294.184L94.0943 294.186C73.3376 294.432 49.8432 294.71 26.6429 307.738C16.2108 313.596 7.93964 320.843 0.998169 328.646V381.137C2.33075 379.045 3.62933 376.969 4.9086 374.924L4.95865 374.844C15.3071 358.283 24.2759 343.989 40.5378 334.822C56.7332 325.719 73.4631 325.509 92.8499 325.265L93.2658 325.26L93.4245 325.258C114.181 325.012 137.676 324.734 160.876 311.705C184.136 298.644 196.652 278.682 207.642 261.037C217.99 244.476 226.959 230.182 243.27 221.014C257.746 212.878 272.649 211.807 289.495 211.531C291.63 211.496 293.797 211.474 295.998 211.452L296.157 211.45C316.913 211.204 340.408 210.926 363.608 197.898C380.372 188.484 391.53 175.485 400.588 162.352L383.96 130.668L383.924 130.725L383.924 130.725C373.591 147.262 364.673 161.533 348.332 170.69C332.02 179.858 315.167 180.055 295.604 180.252L295.445 180.254Z" fill="#00A979"/>
<path d="M74.9856 394.78C58.9485 403.79 50.1305 417.839 39.9559 434.115L39.9126 434.184C30.1269 449.822 19.1897 467.299 0.35968 479.983V438.18C5.16309 432.02 9.46201 425.154 14.0349 417.839L14.0782 417.769C24.9204 400.444 37.1762 380.86 60.0144 368.039C82.8248 355.235 105.924 354.961 126.332 354.719L126.488 354.717C145.675 354.524 162.245 354.33 178.282 345.32C194.319 336.309 203.137 322.261 213.311 305.984L213.355 305.915C224.197 288.589 236.453 269.005 259.291 256.185C282.101 243.38 305.201 243.106 325.609 242.865L325.765 242.863C333.695 242.783 341.178 242.703 348.361 242L357.361 271.74C346.574 273.284 336.078 273.408 326.212 273.525L326.056 273.527C306.869 273.721 290.299 273.915 274.262 282.925C258.225 291.935 249.407 305.984 239.232 322.261C228.428 339.603 216.122 359.223 193.253 372.06C170.443 384.865 147.343 385.138 126.935 385.38L126.779 385.382C107.593 385.576 91.0226 385.769 74.9856 394.78Z" fill="#00A979"/>
<path d="M1.00195 241.828L1.00192 276.169C1.00192 276.169 29.176 269.589 49.5878 269.383C71.3398 269.125 95.9783 268.867 120.307 255.213C144.637 241.558 157.729 220.69 169.224 202.243C180.048 184.93 189.429 169.987 206.491 160.403C223.552 150.819 241.18 150.613 261.592 150.407C283.344 150.149 307.983 149.892 332.312 136.237C356.641 122.582 369.734 101.714 381.228 83.2675C392.053 65.9544 401.382 51.0116 418.495 41.4276C427.361 36.4295 436.845 33.6471 449.268 32.4104L445.969 0C429.113 1.70039 415.351 5.82254 402.516 13.0363C378.187 26.6909 365.146 47.5593 353.6 66.006C342.776 83.319 333.394 98.2618 316.333 107.846C299.272 117.43 281.643 117.636 261.18 117.842C239.428 118.1 214.789 118.357 190.46 132.012C166.131 145.667 153.09 166.535 141.544 184.982C130.72 202.295 121.338 217.237 104.277 226.821C87.2156 236.405 69.5872 236.611 49.1754 236.818C34.1833 237.013 17.7643 237.209 1.00195 241.828Z" fill="#00A979"/>
</svg>
