<svg width="392" height="659" viewBox="0 0 392 659" fill="none" xmlns="http://www.w3.org/2000/svg">
<path d="M569.905 578.486L566.201 605.56C565.853 605.509 565.463 605.451 565.115 605.4C546.825 602.482 526.103 599.204 507.166 584.828C488.229 570.451 479.62 551.48 471.994 534.708C464.847 518.969 458.646 505.38 445.411 495.297C432.132 485.208 417.303 482.888 400.097 480.13C381.807 477.211 361.085 473.934 342.148 459.557C323.211 445.181 314.559 426.203 306.976 409.438C299.829 393.699 293.628 380.109 280.349 370.02C267.07 359.931 252.247 357.568 235.036 354.853C216.746 351.935 196.024 348.657 177.087 334.281C158.15 319.904 149.541 300.933 141.915 284.161C134.768 268.422 128.567 254.833 115.288 244.744C103.455 235.742 89.8103 232.854 76.9087 230.687L81.1776 203.697C96.8458 206.359 115.007 210.22 131.981 223.083C150.918 237.46 159.527 256.431 167.153 273.202C174.3 288.942 180.458 302.525 193.78 312.62C207.059 322.709 221.883 325.072 239.094 327.787C257.384 330.706 278.106 333.983 297.043 348.36C315.98 362.737 324.632 381.714 332.215 398.479C339.362 414.218 345.563 427.808 358.842 437.897C372.121 447.986 386.95 450.306 404.155 453.064C422.446 455.982 443.167 459.26 462.104 473.636C481.041 488.013 489.65 506.984 497.276 523.756C504.423 539.495 510.581 553.078 523.903 563.174C537.182 573.263 552.006 575.626 569.173 578.334C569.39 578.366 569.645 578.448 569.905 578.486Z" fill="#00A979"/>
<path d="M408.471 422.572L408.452 422.711C399.113 419.744 389.697 415.41 380.715 408.518C361.979 394.152 353.447 375.203 345.899 358.439L345.869 358.373C338.788 342.626 332.644 329.03 319.489 318.935C306.334 308.84 291.649 306.475 274.643 303.764L274.504 303.741C256.419 300.826 235.948 297.526 217.236 283.177C198.475 268.793 189.902 249.806 182.39 233.033C177.201 221.459 172.511 211.053 165.178 202.352L183.658 182.197C195.028 194.681 201.502 209.053 207.366 222.072L207.409 222.168C214.48 237.892 220.582 251.462 233.765 261.551C246.92 271.646 261.605 274.011 278.611 276.723L278.75 276.745C296.835 279.661 317.306 282.961 336.018 297.309C340.247 300.552 343.957 304.028 347.252 307.66L347.432 307.464C358.802 319.948 365.275 334.32 371.14 347.34L371.183 347.436C378.254 363.159 384.356 376.729 397.539 386.819C410.694 396.913 425.378 399.278 442.385 401.99L442.524 402.012C460.609 404.928 481.079 408.228 499.792 422.576C518.528 436.942 527.06 455.891 534.608 472.654L534.663 472.775C541.733 488.499 547.835 502.069 561.018 512.159C565.796 515.757 570.744 518.419 575.957 520.421L572.225 547.978C562.887 545.011 553.471 540.677 544.489 533.785C525.753 519.419 517.221 500.47 509.673 483.707L509.643 483.64C502.562 467.893 496.418 454.297 483.263 444.202C470.108 434.108 455.423 431.742 438.416 429.031L438.278 429.009C428.799 427.48 418.664 425.847 408.471 422.572Z" fill="#00A979"/>
<path d="M588.903 446.421L584.131 481.298C566.451 467.105 558.144 448.83 550.751 432.615C543.603 416.872 537.401 403.28 524.121 393.189C510.841 383.098 496.016 380.734 478.846 378.025C460.554 375.106 439.83 371.828 420.891 357.448C401.952 343.068 393.342 324.094 385.715 307.319C378.568 291.576 372.366 277.984 359.085 267.893C345.805 257.802 330.98 255.439 313.811 252.729C295.519 249.81 274.795 246.532 255.856 232.152C236.917 217.773 228.263 198.792 220.68 182.023C213.532 166.281 207.33 152.689 194.05 142.598C180.77 132.507 165.945 130.143 148.732 127.427C130.44 124.508 109.716 121.23 90.7771 106.85C71.838 92.4707 63.1844 73.4897 55.6012 56.7212C54.0002 53.2065 52.3993 49.6917 50.7433 46.2563L75.6694 34.6806C77.4698 38.3559 79.1716 42.1041 80.8735 45.8523C88.0213 61.5949 94.2231 75.187 107.504 85.278C120.784 95.3691 135.609 97.7325 152.778 100.442C171.07 103.361 191.794 106.639 210.733 121.019C229.672 135.399 238.326 154.38 245.909 171.148C253.057 186.89 259.259 200.483 272.539 210.574C285.819 220.665 300.65 222.985 317.814 225.738C336.112 228.614 356.829 231.935 375.769 246.314C394.708 260.694 403.318 279.669 410.944 296.444C418.092 312.186 424.294 325.778 437.574 335.869C450.855 345.96 465.68 348.324 482.849 351.033C501.147 353.91 521.865 357.23 540.804 371.61C559.743 385.99 568.353 404.964 575.98 421.739C580.114 430.699 583.889 439.037 588.903 446.421Z" fill="#00A979"/>
<path d="M602.647 346.085L596.006 394.597C593.742 390.113 591.7 385.618 589.766 381.314C582.621 365.583 576.422 352.001 563.146 341.917C549.871 331.833 535.051 329.472 517.888 326.765C499.602 323.849 478.886 320.574 459.954 306.205C441.022 291.836 432.416 272.875 424.792 256.112C417.647 240.381 411.448 226.798 398.173 216.715C384.897 206.631 370.078 204.27 352.914 201.563C334.629 198.646 313.912 195.371 294.981 181.002C276.049 166.633 267.399 147.666 259.819 130.909C252.674 115.178 246.475 101.596 233.199 91.5123C219.924 81.4288 205.104 79.0675 187.941 76.3604C169.655 73.4439 148.939 70.1689 130.007 55.7999C124.194 51.3604 119.078 46.3683 114.437 40.4854L136.119 23.7657C139.29 27.7718 142.766 31.1677 146.653 34.1437C159.929 44.2273 174.748 46.5886 191.911 49.2957C210.197 52.2121 230.913 55.4871 249.845 69.8561C268.777 84.2251 277.384 103.186 285.007 119.949C292.152 135.68 298.351 149.263 311.627 159.346C324.902 169.43 339.722 171.791 356.885 174.498C375.171 177.414 395.887 180.689 414.819 195.058C433.751 209.427 442.357 228.388 449.981 245.151C457.126 260.883 463.325 274.465 476.6 284.548C489.876 294.632 504.695 296.993 521.859 299.7C540.144 302.617 560.861 305.892 579.792 320.261C589.854 327.948 597.001 336.866 602.647 346.085Z" fill="#00A979"/>
</svg>
