<svg width="1436" height="218" viewBox="0 0 1436 218" fill="none" xmlns="http://www.w3.org/2000/svg">
<path d="M1440 0V151.356H994.775C981.275 151.356 970.325 153.811 970.325 167.317V185.5C970.325 220.09 942.35 217.652 907.7 217.652L826.051 217.077H824.851H822.751H821.626H820.201H819.076H817.201H813.826H812.026H810.226H808.576H807.076H805.726H805.126H804.526H803.551C803.551 217.077 801.676 217.077 803.101 217.077H802.726C802.726 217.077 800.926 217.077 801.676 217.077H799.126H797.401H795.301H793.651H790.876H781.726H777.751H776.326H773.401H770.401H769.201H766.801H765.601H762.301H758.851H753.526C753.526 217.077 753.526 217.077 747.976 217.077C747.976 217.077 747.976 217.077 744.151 217.077C744.151 217.077 728.326 217.077 719.851 217.077C711.151 217.077 695.451 217.077 695.451 217.077H694.176H686.751C681.426 217.077 681.426 217.077 681.426 217.077H677.976H676.326C673.101 217.077 673.101 217.077 673.101 217.077H668.451C666.951 217.077 666.951 217.077 666.951 217.077C664.026 217.077 664.026 217.077 664.026 217.077H662.601H658.626H649.476H646.701H645.051H642.951H641.226H638.677H638.602H638.452H637.927H637.627H637.252H636.802H635.827H635.227H634.627H633.277H631.777H630.127H628.327H626.527H623.152H621.277H620.152H618.727H617.602H616C615.625 217.077 614.302 217.077 614.302 217.077L527.727 217.577C493.152 217.577 465.102 220.015 465.102 185.5V167.242C465.102 153.736 454.152 151.281 440.652 151.281H0.00219726L0 0C0 0 16.3357 2.10091 42.1357 0H119.386C119.386 0 157.636 1.72574 179.16 0H235.635H308.91H386.16H445.935H474.173H502.41H575.685H652.935H712.71H769.185H842.46H919.709H979.484H992.684H1061.83H1061.91L1045.56 0.00161362L1061.83 0H1109.53H1186.78H1246.56H1303.03H0H1440Z" fill="#00A97A"/>
</svg>
