<svg width="1440" height="479" viewBox="0 0 1440 479" fill="none" xmlns="http://www.w3.org/2000/svg">
<path fill-rule="evenodd" clip-rule="evenodd" d="M823.5 129.868V479L-616.5 478.925V267.498C-598.8 256.243 -578.7 245.364 -552.9 243.263C-522.319 240.788 -497.505 251.878 -475.69 261.628L-475.65 261.646L-475.279 261.811C-454.886 270.895 -437.27 278.742 -415.875 277.027C-394.425 275.301 -378.15 264.647 -359.4 252.266L-359.131 252.09C-339.172 239.002 -316.588 224.193 -286.125 221.728C-255.525 219.252 -230.7 230.282 -208.875 240.111L-208.504 240.277C-188.111 249.361 -170.495 257.208 -149.1 255.493C-127.65 253.767 -111.375 243.113 -92.625 230.732L-92.3557 230.556C-72.3969 217.468 -49.8129 202.659 -19.35 200.194C11.2499 197.718 36.075 208.748 57.9 218.577L58.2717 218.743C78.6638 227.827 96.2798 235.674 117.675 233.959C139.125 232.233 155.4 221.578 174.15 209.198L174.419 209.021C194.378 195.934 216.962 181.125 247.425 178.66C278.025 176.184 302.85 187.213 324.675 197.043L325.046 197.208C345.438 206.292 363.055 214.14 384.45 212.424C389.1 212.049 393.45 211.299 397.65 210.173C408.3 207.322 418.05 202.22 427.725 196.292C428.389 195.905 429.053 195.477 429.687 195.068L429.688 195.067C429.913 194.922 430.134 194.779 430.35 194.642C431.17 194.14 431.991 193.611 432.828 193.071C433.369 192.722 433.916 192.369 434.475 192.016C434.961 191.679 435.467 191.36 435.972 191.042L435.975 191.04C436.481 190.721 436.988 190.402 437.475 190.065L437.478 190.063C438.077 189.688 438.676 189.314 439.2 188.939C439.8 188.564 440.4 188.189 441 187.739C441.637 187.326 442.256 186.913 442.875 186.501C443.494 186.088 444.113 185.675 444.75 185.263C445.088 185.037 445.406 184.831 445.725 184.625C446.044 184.418 446.363 184.212 446.7 183.987L450.525 181.511C455.7 178.21 461.1 174.908 466.875 171.907L466.8 171.757C483.225 162.978 498.375 158.251 514.5 156.975C545.082 154.501 569.895 165.591 591.71 175.341L592.122 175.524C612.514 184.608 630.13 192.455 651.525 190.74C672.975 189.014 689.25 178.36 708 165.979C713.086 162.644 718.341 158.548 723.853 154.252C740.043 141.633 758.447 127.288 781.275 125.441C796.8 124.016 810.675 126.191 823.5 129.868Z" fill="#00A97A"/>
<path fill-rule="evenodd" clip-rule="evenodd" d="M2178.5 5.36802L2178.63 479L738.627 478.925L738.504 142.998C756.204 131.743 776.304 120.864 802.104 118.763C832.685 116.288 857.499 127.378 879.314 137.128L879.354 137.146L879.725 137.311C900.118 146.395 917.734 154.242 939.129 152.527C960.579 150.801 976.854 140.147 995.604 127.766L995.873 127.59C1015.83 114.502 1038.42 99.6933 1068.88 97.2283C1099.48 94.7522 1124.3 105.782 1146.13 115.611L1146.5 115.777C1166.89 124.861 1184.51 132.708 1205.9 130.993C1227.35 129.267 1243.63 118.613 1262.38 106.232L1262.65 106.056C1282.61 92.968 1305.19 78.159 1335.65 75.694C1366.25 73.218 1391.08 84.2477 1412.9 94.0769L1413.28 94.2425C1433.67 103.327 1451.28 111.174 1472.68 109.459C1494.13 107.733 1510.4 97.0782 1529.15 84.6979L1529.42 84.5212C1549.38 71.4336 1571.97 56.6247 1602.43 54.1597C1633.03 51.6837 1657.85 62.7134 1679.68 72.5427L1680.05 72.708C1700.44 81.7921 1718.06 89.6396 1739.45 87.9243C1744.1 87.5491 1748.45 86.7988 1752.65 85.6733C1763.3 82.8221 1773.05 77.7199 1782.73 71.7923C1783.39 71.4049 1784.06 70.9766 1784.69 70.5677L1784.69 70.5669C1784.92 70.4218 1785.14 70.2791 1785.35 70.1416C1786.17 69.64 1786.99 69.1107 1787.83 68.5705C1788.37 68.2219 1788.92 67.8687 1789.48 67.5155C1789.97 67.1786 1790.47 66.8604 1790.98 66.5422L1790.98 66.5401C1791.49 66.2212 1791.99 65.9023 1792.48 65.5647L1792.48 65.5628C1793.08 65.1883 1793.68 64.8137 1794.2 64.4392C1794.8 64.064 1795.4 63.6889 1796 63.2387C1796.64 62.826 1797.26 62.4133 1797.88 62.0006C1798.5 61.5879 1799.12 61.1753 1799.75 60.7626C1800.09 60.5375 1800.41 60.3312 1800.73 60.1248C1801.05 59.9185 1801.37 59.7121 1801.7 59.487L1805.53 57.011C1810.7 53.7095 1816.1 50.4081 1821.88 47.4068L1821.8 47.2568C1838.23 38.478 1853.38 33.7509 1869.5 32.4754C1900.09 30.0008 1924.9 41.0907 1946.71 50.8407L1947.13 51.0239C1967.52 60.1079 1985.13 67.9553 2006.53 66.24C2027.98 64.5142 2044.25 53.8596 2063 41.4793C2068.09 38.1443 2073.35 34.048 2078.86 29.7517C2095.05 17.1327 2113.45 2.7883 2136.28 0.941116C2151.8 -0.484499 2165.68 1.69144 2178.5 5.36802Z" fill="#00A97A"/>
<path d="M636.5 331.17V294.035C647.018 297.411 657.612 299.287 669.265 298.311C690.982 296.586 707.326 285.933 726.319 273.555C746.523 260.426 769.375 245.497 800.248 243.021C831.121 240.546 856.168 251.649 878.188 261.401C886.889 265.227 895.062 268.903 903.234 271.679V271.604C911.482 274.38 918.822 276.03 925.859 276.705C926.843 276.78 927.902 276.856 928.961 276.931C932.14 277.081 935.318 277.006 938.496 276.78C940.539 276.63 942.506 276.405 944.398 276.105C945.684 275.88 946.971 275.655 948.181 275.355C950.678 274.83 953.176 274.155 955.597 273.405C956.202 273.18 956.808 273.03 957.413 272.804C963.391 270.779 969.066 268.003 974.741 264.852C975.876 264.252 977.011 263.577 978.146 262.902C978.752 262.602 979.281 262.227 979.887 261.851C981.022 261.176 982.157 260.501 983.292 259.826C987.302 257.35 991.313 254.725 995.475 252.024C1006.83 244.597 1019.01 236.72 1033.08 230.718C1043.98 226.067 1056.01 222.616 1069.48 221.491C1073.26 221.191 1076.97 221.116 1080.6 221.191C1084.99 221.266 1089.46 221.641 1093.92 222.241C1094.45 222.316 1094.98 222.391 1095.51 222.466C1096.27 222.541 1096.95 222.691 1097.7 222.841C1097.78 222.841 1097.86 222.841 1098.01 222.916C1116.47 226.142 1132.66 233.269 1147.49 239.871C1168.23 249.023 1186.09 256.975 1207.8 255.25C1229.44 253.524 1245.86 242.871 1264.78 230.493C1284.99 217.365 1307.84 202.436 1338.79 199.96C1369.66 197.484 1394.71 208.512 1416.73 218.34C1437.46 227.492 1455.32 235.444 1477.03 233.719C1498.68 231.993 1515.1 221.341 1534.01 208.962C1554.22 195.834 1577.07 180.905 1607.94 178.429C1638.81 175.954 1663.86 187.057 1685.88 196.809C1706.61 205.962 1724.47 213.914 1746.19 212.188C1767.83 210.463 1784.25 199.81 1803.17 187.432C1823.37 174.303 1846.22 159.374 1877.1 156.899C1878.69 156.749 1880.27 156.673 1881.86 156.598C1882.54 156.598 1883.15 156.523 1883.83 156.523C1911.68 155.998 1934.68 166.126 1955.11 175.203C1973.95 183.531 1990.45 190.883 2009.59 190.808C2010.05 190.808 2010.43 190.808 2010.88 190.808C2012.47 190.808 2014.06 190.732 2015.72 190.582C2028.21 189.607 2038.95 185.631 2049.4 180.08C2057.11 176.029 2064.68 171.077 2072.7 165.826C2078.07 162.3 2083.6 158.699 2089.5 155.248V197.859C2070.05 210.463 2047.96 224.041 2018.67 226.367C2016.33 226.592 2013.98 226.667 2011.71 226.667C2011.03 226.667 2010.43 226.667 2009.74 226.667C1982.88 226.592 1960.64 216.764 1940.73 207.987C1921.44 199.435 1904.56 191.933 1884.74 192.383C1884.29 192.383 1883.91 192.383 1883.45 192.458C1882.32 192.458 1881.26 192.533 1880.12 192.608C1873.54 193.133 1867.41 194.484 1861.51 196.509C1848.19 201.01 1836.31 208.812 1823.07 217.365C1802.87 230.493 1780.01 245.422 1749.14 247.898C1718.27 250.373 1693.22 239.27 1671.2 229.518C1650.47 220.365 1632.61 212.413 1610.89 214.139C1589.25 215.864 1572.83 226.517 1553.91 238.895C1533.71 252.024 1510.86 266.953 1479.91 269.429C1449.04 271.904 1423.99 260.876 1401.97 251.049C1381.24 241.896 1363.38 233.944 1341.66 235.67C1320.02 237.395 1303.6 248.048 1284.61 260.426C1264.4 273.555 1241.55 288.484 1210.68 290.959C1179.8 293.435 1154.76 282.407 1132.74 272.579C1118.44 266.278 1105.5 260.501 1091.73 258.176V258.251C1085.14 257.125 1078.79 256.825 1072.43 257.275C1064.33 257.95 1056.92 259.826 1049.88 262.602C1038.15 267.253 1027.26 274.305 1015.38 282.032C1014.09 282.857 1012.88 283.682 1011.59 284.508C1010.91 284.958 1010.31 285.333 1009.62 285.783C1008.34 286.608 1007.05 287.433 1005.77 288.259C996.534 294.11 986.621 299.812 975.574 304.313C974.741 304.613 973.985 304.913 973.152 305.288C970.353 306.338 967.477 307.314 964.526 308.214C964.072 308.364 963.694 308.439 963.24 308.589C961.121 309.189 959.002 309.714 956.808 310.239C956.278 310.389 955.748 310.464 955.143 310.614C954.462 310.765 953.705 310.915 952.949 311.065C952.268 311.215 951.511 311.29 950.83 311.44C950.224 311.515 949.619 311.665 949.014 311.74C947.273 312.04 945.457 312.265 943.717 312.415C942.96 312.49 942.204 312.565 941.447 312.64C940.009 312.79 938.572 312.865 937.134 312.865C934.712 312.94 932.367 313.015 930.097 312.94C928.659 312.94 927.146 312.865 925.708 312.715C924.724 312.64 923.74 312.565 922.832 312.49C922 312.415 921.243 312.34 920.411 312.265C919.73 312.19 919.049 312.115 918.443 312.04C918.292 312.04 918.141 312.04 917.99 311.965C917.308 311.89 916.552 311.74 915.871 311.665C915.795 311.665 915.719 311.665 915.644 311.665C914.963 311.59 914.282 311.44 913.601 311.365C913.525 311.365 913.374 311.29 913.298 311.29C912.768 311.215 912.239 311.14 911.709 310.99C911.406 310.915 911.028 310.84 910.725 310.84C910.347 310.765 909.969 310.689 909.59 310.614C908.985 310.464 908.379 310.389 907.85 310.239C907.698 310.239 907.623 310.164 907.471 310.164C906.79 310.014 906.109 309.864 905.504 309.714C905.277 309.639 905.05 309.639 904.747 309.564C903.991 309.414 903.234 309.189 902.402 308.964C901.569 308.739 900.661 308.514 899.753 308.214C898.845 307.989 898.013 307.689 897.105 307.464C896.197 307.164 895.289 306.939 894.456 306.638C893.548 306.338 892.64 306.038 891.732 305.738C881.744 302.362 872.437 298.236 863.659 294.335C842.926 285.183 825.068 277.231 803.351 278.956C781.709 280.682 765.289 291.334 746.372 303.713C726.168 316.841 703.316 331.77 672.443 334.246C659.352 335.071 647.472 333.721 636.5 331.17Z" fill="#FFF7E1"/>
<path d="M-709.5 438.922V401.787C-698.982 405.163 -688.388 407.039 -676.735 406.063C-655.018 404.338 -638.674 393.685 -619.681 381.307C-599.477 368.178 -576.625 353.249 -545.752 350.773C-514.879 348.298 -489.832 359.401 -467.813 369.153C-459.111 372.979 -450.938 376.655 -442.766 379.431V379.356C-434.518 382.132 -427.178 383.782 -420.141 384.457C-419.157 384.532 -418.098 384.607 -417.039 384.682C-413.86 384.833 -410.682 384.757 -407.504 384.532C-405.461 384.382 -403.494 384.157 -401.602 383.857C-400.316 383.632 -399.029 383.407 -397.819 383.107C-395.321 382.582 -392.824 381.907 -390.403 381.157C-389.798 380.931 -389.192 380.781 -388.587 380.556C-382.609 378.531 -376.934 375.755 -371.259 372.604C-370.124 372.004 -368.989 371.329 -367.854 370.654C-367.248 370.354 -366.719 369.979 -366.113 369.603C-364.978 368.928 -363.843 368.253 -362.708 367.578C-358.698 365.102 -354.687 362.477 -350.525 359.776C-339.175 352.349 -326.992 344.472 -312.918 338.47C-302.021 333.819 -289.99 330.368 -276.521 329.243C-272.737 328.943 -269.03 328.868 -265.397 328.943C-261.009 329.018 -256.544 329.393 -252.08 329.993C-251.55 330.068 -251.02 330.143 -250.491 330.218C-249.734 330.293 -249.053 330.443 -248.296 330.593C-248.221 330.593 -248.145 330.593 -247.993 330.668C-229.53 333.894 -213.337 341.021 -198.506 347.623C-177.773 356.775 -159.915 364.727 -138.198 363.002C-116.556 361.276 -100.136 350.623 -81.2186 338.245C-61.015 325.117 -38.1628 310.188 -7.21411 307.712C23.6589 305.236 48.7054 316.264 70.7252 326.092C91.4585 335.244 109.317 343.196 131.034 341.471C152.675 339.745 169.095 329.093 188.012 316.714C208.216 303.586 231.068 288.657 261.941 286.181C292.814 283.706 317.861 294.809 339.881 304.561C360.614 313.714 378.472 321.666 400.189 319.94C421.83 318.215 438.25 307.562 457.168 295.184C477.372 282.055 500.224 267.126 531.097 264.65C532.686 264.5 534.275 264.425 535.864 264.35C536.545 264.35 537.15 264.275 537.831 264.275C565.677 263.75 588.681 273.878 609.112 282.955C627.953 291.283 644.449 298.635 663.593 298.56C664.047 298.56 664.426 298.56 664.88 298.56C666.469 298.56 668.058 298.484 669.723 298.334C682.208 297.359 692.953 293.383 703.395 287.832C711.114 283.781 718.681 278.829 726.702 273.578C732.074 270.052 737.598 266.451 743.5 263V305.611C724.053 318.215 701.958 331.793 672.674 334.119C670.328 334.344 667.982 334.419 665.712 334.419C665.031 334.419 664.426 334.419 663.745 334.419C636.882 334.344 614.635 324.516 594.734 315.739C575.439 307.187 558.564 299.685 538.739 300.135C538.285 300.135 537.907 300.135 537.453 300.21C536.318 300.21 535.258 300.285 534.123 300.36C527.54 300.885 521.411 302.235 515.509 304.261C502.191 308.762 490.311 316.564 477.069 325.117C456.865 338.245 434.013 353.174 403.14 355.65C372.267 358.125 347.22 347.022 325.201 337.27C304.467 328.117 286.609 320.165 264.892 321.891C243.251 323.616 226.831 334.269 207.913 346.647C187.71 359.776 164.858 374.705 133.909 377.181C103.036 379.656 77.9894 368.628 55.9697 358.801C35.2363 349.648 17.3784 341.696 -4.33868 343.422C-25.9801 345.147 -42.4003 355.8 -61.3932 368.178C-81.5969 381.307 -104.449 396.236 -135.322 398.711C-166.195 401.187 -191.242 390.159 -213.261 380.331C-227.563 374.03 -240.502 368.253 -254.274 365.927V366.003C-260.857 364.877 -267.214 364.577 -273.57 365.027C-281.666 365.702 -289.082 367.578 -296.119 370.354C-307.848 375.005 -318.744 382.057 -330.624 389.784C-331.911 390.609 -333.121 391.434 -334.408 392.26C-335.089 392.71 -335.694 393.085 -336.375 393.535C-337.662 394.36 -338.948 395.185 -340.234 396.01C-349.466 401.862 -359.379 407.564 -370.426 412.065C-371.259 412.365 -372.015 412.665 -372.848 413.04C-375.647 414.09 -378.523 415.066 -381.474 415.966C-381.928 416.116 -382.306 416.191 -382.76 416.341C-384.879 416.941 -386.998 417.466 -389.192 417.991C-389.722 418.141 -390.252 418.216 -390.857 418.366C-391.538 418.516 -392.295 418.667 -393.051 418.817C-393.732 418.967 -394.489 419.042 -395.17 419.192C-395.775 419.267 -396.381 419.417 -396.986 419.492C-398.727 419.792 -400.543 420.017 -402.283 420.167C-403.04 420.242 -403.796 420.317 -404.553 420.392C-405.991 420.542 -407.429 420.617 -408.866 420.617C-411.288 420.692 -413.633 420.767 -415.903 420.692C-417.341 420.692 -418.855 420.617 -420.292 420.467C-421.276 420.392 -422.26 420.317 -423.168 420.242C-424 420.167 -424.757 420.092 -425.589 420.017C-426.27 419.942 -426.951 419.867 -427.557 419.792C-427.708 419.792 -427.859 419.792 -428.011 419.717C-428.692 419.642 -429.448 419.492 -430.129 419.417C-430.205 419.417 -430.281 419.417 -430.356 419.417C-431.037 419.342 -431.718 419.192 -432.399 419.117C-432.475 419.117 -432.626 419.042 -432.702 419.042C-433.232 418.967 -433.761 418.892 -434.291 418.742C-434.594 418.667 -434.972 418.592 -435.275 418.592C-435.653 418.516 -436.031 418.441 -436.41 418.366C-437.015 418.216 -437.621 418.141 -438.15 417.991C-438.302 417.991 -438.377 417.916 -438.529 417.916C-439.21 417.766 -439.891 417.616 -440.496 417.466C-440.723 417.391 -440.95 417.391 -441.253 417.316C-442.009 417.166 -442.766 416.941 -443.598 416.716C-444.431 416.491 -445.339 416.266 -446.247 415.966C-447.155 415.741 -447.987 415.441 -448.895 415.216C-449.803 414.916 -450.711 414.69 -451.544 414.39C-452.452 414.09 -453.36 413.79 -454.268 413.49C-464.256 410.114 -473.563 405.988 -482.341 402.087C-503.074 392.935 -520.932 384.983 -542.649 386.708C-564.291 388.433 -580.711 399.086 -599.628 411.465C-619.832 424.593 -642.684 439.522 -673.557 441.998C-686.648 442.823 -698.528 441.473 -709.5 438.922Z" fill="#FFF7E1"/>
<path d="M634.5 257.173V220.564C642.824 222.664 651.299 223.639 660.455 222.889C682.096 221.164 698.516 210.511 717.509 198.133C731.13 189.28 745.961 179.603 763.592 173.526C772.823 170.3 781.979 168.425 791.438 167.674C822.311 165.199 847.357 176.302 869.377 186.054C890.111 195.207 907.969 203.159 929.686 201.433C930.367 201.358 931.048 201.283 931.729 201.283C932.41 201.208 933.091 201.133 933.696 201.058C934.982 200.908 936.269 200.683 937.555 200.458C938.842 200.233 940.052 199.933 941.339 199.633C943.836 199.033 946.257 198.283 948.679 197.457C949.738 197.082 950.873 196.707 951.932 196.257C952.613 195.957 953.294 195.732 953.975 195.432C958.516 193.556 962.98 191.306 967.369 188.755C969.715 187.405 972.136 185.979 974.482 184.479C975.617 183.804 976.752 183.053 977.887 182.378C980.762 180.578 983.638 178.702 986.589 176.752C1000.44 167.674 1015.65 157.847 1033.81 151.77C1034.94 151.395 1036.08 151.02 1037.29 150.645C1037.44 150.57 1037.59 150.57 1037.82 150.495C1040.69 149.67 1043.64 148.844 1046.67 148.244C1047.58 148.094 1048.41 147.869 1049.32 147.719C1049.77 147.644 1050.23 147.569 1050.76 147.494C1051.66 147.344 1052.57 147.194 1053.48 147.044C1054.39 146.894 1055.37 146.819 1056.28 146.669C1057.72 146.519 1059.16 146.369 1060.59 146.219C1091.47 143.743 1116.51 154.771 1138.53 164.599C1159.27 173.751 1177.12 181.703 1198.84 179.978C1220.48 178.252 1236.9 167.599 1255.82 155.221C1276.02 142.093 1298.88 127.164 1329.75 124.688C1360.62 122.212 1385.67 133.315 1407.69 143.068C1428.42 152.22 1446.28 160.172 1468 158.447C1489.64 156.721 1506.06 146.069 1524.98 133.69C1545.18 120.562 1568.03 105.633 1598.9 103.157C1629.78 100.682 1654.82 111.785 1676.84 121.537C1697.58 130.69 1715.43 138.642 1737.15 136.916C1758.79 135.191 1775.21 124.538 1794.21 112.16C1814.41 99.0311 1837.26 84.1022 1868.14 81.6265C1899.01 79.1508 1924.05 90.1788 1946.07 100.006C1966.81 109.159 1984.67 117.111 2006.38 115.386C2028.02 113.66 2044.44 103.007 2063.36 90.6289C2070.85 85.7526 2078.72 80.6512 2087.27 76V118.011C2085.91 118.836 2084.62 119.737 2083.26 120.637C2063.06 133.765 2040.21 148.694 2009.33 151.17C1978.46 153.646 1953.41 142.543 1931.39 132.79C1910.66 123.638 1892.8 115.686 1871.09 117.411C1849.44 119.136 1833.02 129.789 1814.11 142.168C1793.9 155.296 1771.05 170.225 1740.18 172.701C1709.31 175.176 1684.26 164.073 1662.24 154.321C1641.51 145.168 1623.65 137.216 1601.93 138.942C1580.29 140.667 1563.87 151.32 1544.95 163.698C1524.75 176.827 1501.9 191.756 1471.02 194.232C1440.15 196.707 1415.1 185.604 1393.08 175.852C1372.35 166.699 1354.49 158.747 1332.78 160.473C1311.13 162.198 1294.71 172.851 1275.72 185.229C1255.52 198.358 1232.67 213.287 1201.79 215.762C1177.58 217.713 1157 211.336 1138.61 203.759C1133.61 201.733 1128.7 199.558 1123.85 197.382C1103.12 188.23 1085.26 180.278 1063.54 182.003C1062.86 182.078 1062.18 182.153 1061.5 182.153C1056.13 182.753 1051.13 183.879 1046.29 185.379C1045.08 185.754 1043.95 186.204 1042.74 186.579C1042.13 186.804 1041.52 187.03 1040.92 187.255C1029.19 191.906 1018.37 198.958 1006.49 206.685C1000.81 210.361 994.912 214.262 988.708 217.863C982.503 221.539 975.919 224.99 968.958 227.991C966.612 228.966 964.266 229.941 961.769 230.841C960.937 231.141 960.18 231.441 959.348 231.667C958.137 232.042 956.851 232.492 955.64 232.867C955.186 233.017 954.808 233.092 954.354 233.242C953.521 233.467 952.689 233.692 951.857 233.917C950.116 234.367 948.376 234.817 946.56 235.192C945.803 235.342 944.971 235.492 944.214 235.643C943.533 235.793 942.776 235.868 942.095 236.018C941.49 236.093 940.885 236.243 940.279 236.318C938.539 236.618 936.723 236.843 934.982 236.993C934.226 237.068 933.469 237.143 932.712 237.218C901.839 239.694 876.793 228.591 854.773 218.838C834.04 209.686 816.182 201.733 794.465 203.459C793.103 203.534 791.816 203.684 790.53 203.909C790.454 203.909 790.454 203.909 790.379 203.909C789.092 204.059 787.806 204.284 786.595 204.509C785.99 204.659 785.309 204.734 784.703 204.884C784.098 205.034 783.568 205.109 782.963 205.259C782.509 205.409 781.979 205.484 781.525 205.635C779.558 206.16 777.59 206.76 775.623 207.435C762.457 211.936 750.577 219.663 737.486 228.216C717.282 241.344 694.43 256.273 663.481 258.749C653.115 259.424 643.58 258.749 634.5 257.173Z" fill="#FFF7E1"/>
<path d="M-711.5 364.673V328.064C-703.176 330.164 -694.701 331.139 -685.545 330.389C-663.904 328.664 -647.484 318.011 -628.491 305.633C-614.87 296.78 -600.039 287.103 -582.408 281.026C-573.177 277.8 -564.021 275.925 -554.562 275.174C-523.689 272.699 -498.643 283.802 -476.623 293.554C-455.889 302.707 -438.031 310.659 -416.314 308.933C-415.633 308.858 -414.952 308.783 -414.271 308.783C-413.59 308.708 -412.909 308.633 -412.304 308.558C-411.018 308.408 -409.731 308.183 -408.445 307.958C-407.158 307.733 -405.948 307.433 -404.661 307.133C-402.164 306.533 -399.743 305.783 -397.321 304.957C-396.262 304.582 -395.127 304.207 -394.068 303.757C-393.387 303.457 -392.706 303.232 -392.025 302.932C-387.484 301.056 -383.02 298.806 -378.631 296.255C-376.285 294.905 -373.864 293.479 -371.518 291.979C-370.383 291.304 -369.248 290.553 -368.113 289.878C-365.238 288.078 -362.362 286.202 -359.411 284.252C-345.564 275.174 -330.354 265.347 -312.194 259.27C-311.059 258.895 -309.924 258.52 -308.713 258.145C-308.561 258.07 -308.41 258.07 -308.183 257.995C-305.308 257.17 -302.357 256.344 -299.33 255.744C-298.422 255.594 -297.589 255.369 -296.681 255.219C-296.227 255.144 -295.773 255.069 -295.244 254.994C-294.336 254.844 -293.428 254.694 -292.52 254.544C-291.612 254.394 -290.628 254.319 -289.72 254.169C-288.282 254.019 -286.844 253.869 -285.407 253.719C-254.534 251.243 -229.487 262.271 -207.467 272.099C-186.734 281.251 -168.876 289.203 -147.159 287.478C-125.518 285.752 -109.097 275.099 -90.1802 262.721C-69.9765 249.593 -47.1244 234.664 -16.2513 232.188C14.6217 229.712 39.6682 240.815 61.6879 250.568C82.4213 259.72 100.279 267.672 121.996 265.947C143.638 264.221 160.058 253.569 178.975 241.19C199.179 228.062 222.031 213.133 252.904 210.657C283.777 208.182 308.824 219.285 330.843 229.037C351.577 238.19 369.435 246.142 391.152 244.416C412.793 242.691 429.213 232.038 448.206 219.66C468.41 206.531 491.262 191.602 522.135 189.127C553.008 186.651 578.055 197.679 600.074 207.506C620.808 216.659 638.666 224.611 660.383 222.885C682.024 221.16 698.444 210.507 717.362 198.129C724.853 193.253 732.722 188.151 741.273 183.5V225.511C739.911 226.336 738.625 227.237 737.263 228.137C717.059 241.265 694.207 256.194 663.334 258.67C632.461 261.146 607.414 250.043 585.395 240.29C564.661 231.138 546.803 223.186 525.086 224.911C503.445 226.636 487.025 237.289 468.107 249.668C447.904 262.796 425.051 277.725 394.178 280.201C363.305 282.676 338.259 271.573 316.239 261.821C295.506 252.668 277.648 244.716 255.931 246.442C234.289 248.167 217.869 258.82 198.952 271.198C178.748 284.327 155.896 299.256 125.023 301.732C94.15 304.207 69.1035 293.104 47.0838 283.352C26.3504 274.199 8.49249 266.247 -13.2246 267.973C-34.866 269.698 -51.2862 280.351 -70.2791 292.729C-90.4828 305.858 -113.335 320.787 -144.208 323.262C-168.422 325.213 -189.004 318.836 -207.392 311.259C-212.386 309.233 -217.304 307.058 -222.147 304.882C-242.881 295.73 -260.739 287.778 -282.456 289.503C-283.137 289.578 -283.818 289.653 -284.499 289.653C-289.871 290.253 -294.865 291.379 -299.708 292.879C-300.919 293.254 -302.054 293.704 -303.265 294.079C-303.87 294.304 -304.475 294.53 -305.081 294.755C-316.809 299.406 -327.63 306.458 -339.51 314.185C-345.185 317.861 -351.088 321.762 -357.292 325.363C-363.497 329.039 -370.081 332.49 -377.042 335.491C-379.388 336.466 -381.734 337.441 -384.231 338.341C-385.063 338.641 -385.82 338.941 -386.652 339.167C-387.863 339.542 -389.149 339.992 -390.36 340.367C-390.814 340.517 -391.192 340.592 -391.646 340.742C-392.479 340.967 -393.311 341.192 -394.143 341.417C-395.884 341.867 -397.624 342.317 -399.44 342.692C-400.197 342.842 -401.029 342.992 -401.786 343.143C-402.467 343.293 -403.224 343.368 -403.905 343.518C-404.51 343.593 -405.115 343.743 -405.721 343.818C-407.461 344.118 -409.277 344.343 -411.018 344.493C-411.774 344.568 -412.531 344.643 -413.288 344.718C-444.161 347.194 -469.207 336.091 -491.227 326.338C-511.96 317.186 -529.818 309.233 -551.535 310.959C-552.897 311.034 -554.184 311.184 -555.47 311.409C-555.546 311.409 -555.546 311.409 -555.621 311.409C-556.908 311.559 -558.194 311.784 -559.405 312.009C-560.01 312.159 -560.691 312.234 -561.297 312.384C-561.902 312.534 -562.432 312.609 -563.037 312.759C-563.491 312.909 -564.021 312.984 -564.475 313.135C-566.442 313.66 -568.41 314.26 -570.377 314.935C-583.543 319.436 -595.423 327.163 -608.514 335.716C-628.718 348.844 -651.57 363.773 -682.519 366.249C-692.885 366.924 -702.42 366.249 -711.5 364.673Z" fill="#FFF7E1"/>
</svg>
