<svg width="364" height="331" viewBox="0 0 364 331" fill="none" xmlns="http://www.w3.org/2000/svg">
<path d="M364.122 307.327V330.354C361.104 326.667 357.679 323.504 353.303 321C344.306 315.883 335.009 315.773 324.245 315.663C312.774 315.525 299.781 315.388 286.951 308.098C274.121 300.807 267.216 289.665 261.155 279.817C255.446 270.573 250.499 262.595 241.502 257.478C239.354 256.267 237.207 255.332 235.032 254.617L245.008 239.871C246.639 240.586 248.297 241.384 249.928 242.32C262.758 249.61 269.663 260.752 275.724 270.6C281.433 279.844 286.38 287.822 295.377 292.939C304.375 298.056 313.671 298.166 324.435 298.276C335.906 298.414 348.899 298.551 361.73 305.842C362.518 306.337 363.333 306.832 364.122 307.327Z" fill="#00A979"/>
<path d="M364.122 264.354V282.126C357.789 280.476 351.156 280.393 343.817 280.338C332.346 280.201 319.353 280.063 306.523 272.773C293.693 265.482 286.788 254.341 280.726 244.492C275.018 235.248 270.071 227.27 261.074 222.153C252.076 217.036 242.78 216.926 232.016 216.816C220.545 216.678 207.551 216.541 194.721 209.251C181.891 201.96 174.987 190.818 168.925 180.97C164.848 174.395 161.178 168.452 156.149 163.72L165.908 149.277C173.736 155.99 178.847 164.243 183.468 171.754C189.176 180.997 194.123 188.975 203.121 194.092C212.118 199.209 221.414 199.319 232.179 199.429C243.65 199.567 256.643 199.704 269.473 206.995C282.303 214.285 289.18 225.427 295.269 235.276C300.977 244.519 305.925 252.497 314.922 257.614C323.919 262.731 333.216 262.841 343.98 262.951C350.341 263.006 357.136 263.089 364.122 264.354Z" fill="#00A979"/>
<path d="M364.122 227.601V244.988C363.904 244.988 363.66 244.988 363.442 244.988C351.971 244.85 338.978 244.713 326.148 237.422C313.318 230.132 306.441 218.99 300.352 209.142C294.643 199.898 289.696 191.92 280.726 186.803C271.729 181.686 262.432 181.603 251.641 181.466C240.17 181.328 227.177 181.191 214.347 173.9C201.516 166.61 194.612 155.468 188.55 145.619C182.842 136.376 177.895 128.398 168.898 123.281C159.9 118.164 150.604 118.054 139.812 117.944C128.341 117.806 115.348 117.669 102.518 110.378C89.6879 103.088 82.8108 91.9461 76.7219 82.0973C71.0136 72.8537 66.0664 64.8756 57.069 59.7586C49.0502 55.1918 40.4334 54.6416 32.333 54.4766L32.6864 37.0898C42.5264 37.3099 53.9974 38.0527 65.4956 44.5727C78.3257 51.8631 85.2028 63.0049 91.2917 72.8537C97 82.0973 101.92 90.0754 110.945 95.1923C119.942 100.309 129.238 100.419 140.03 100.529C151.501 100.667 164.494 100.805 177.324 108.095C190.154 115.385 197.059 126.527 203.12 136.376C208.829 145.619 213.776 153.597 222.773 158.714C231.771 163.831 241.067 163.914 251.858 164.052C263.329 164.189 276.323 164.327 289.153 171.617C301.983 178.907 308.86 190.049 314.949 199.898C320.657 209.141 325.577 217.12 334.602 222.237C343.599 227.354 352.895 227.464 363.66 227.574C363.796 227.574 363.959 227.601 364.122 227.601Z" fill="#00A979"/>
<path d="M364.122 190.706V208.396C358.087 207.405 351.89 205.562 345.746 202.068C332.916 194.778 326.039 183.636 319.95 173.787C314.242 164.544 309.295 156.566 300.297 151.449C291.3 146.332 282.004 146.222 271.239 146.111C259.768 145.974 246.775 145.836 233.945 138.546C221.115 131.256 214.211 120.114 208.149 110.265C203.963 103.47 200.185 97.3626 194.911 92.5757L204.67 78.1602C212.77 84.9553 217.989 93.4011 222.719 101.049C228.427 110.293 233.347 118.271 242.372 123.388C251.369 128.505 260.665 128.615 271.43 128.725C282.901 128.862 295.894 129 308.724 136.29C321.554 143.581 328.431 154.722 334.52 164.571C340.228 173.815 345.148 181.793 354.173 186.91C357.435 188.726 360.724 189.936 364.122 190.706Z" fill="#00A979"/>
<path d="M364.122 143.584V165.977C352.08 158.687 345.448 147.958 339.549 138.439C333.841 129.196 328.893 121.217 319.896 116.101C310.899 110.984 301.602 110.874 290.838 110.763C279.367 110.626 266.374 110.488 253.544 103.198C240.714 95.9077 233.836 84.7659 227.748 74.9171C222.039 65.6735 217.092 57.6954 208.095 52.5784C199.097 47.4614 189.801 47.3514 179.037 47.2413C167.566 47.1038 154.572 46.9662 141.742 39.6759C128.912 32.3856 122.008 21.2438 115.946 11.3949C110.238 2.15136 105.291 -5.82674 96.2934 -10.9437C87.296 -16.0607 77.9996 -16.1707 67.2082 -16.2808C55.7372 -16.4183 42.744 -16.5559 29.9139 -23.8462C17.0837 -31.1365 10.1794 -42.2784 4.11772 -52.1272C2.84015 -54.1905 1.56257 -56.2538 0.257812 -58.2621L14.583 -67.8633C15.9964 -65.7174 17.3556 -63.5166 18.7147 -61.3157C24.423 -52.0722 29.3702 -44.0941 38.3676 -38.9771C47.365 -33.8601 56.6614 -33.7501 67.4256 -33.64C78.8966 -33.5025 91.8898 -33.3649 104.72 -26.0746C117.55 -18.7843 124.454 -7.64243 130.516 2.20638C136.224 11.45 141.172 19.4281 150.169 24.545C159.166 29.662 168.463 29.7446 179.227 29.8821C190.698 29.9922 203.691 30.1572 216.521 37.4475C229.351 44.7379 236.229 55.8797 242.317 65.7285C248.026 74.9721 252.973 82.9502 261.97 88.0672C270.968 93.1842 280.264 93.2942 291.028 93.4042C302.499 93.5143 315.493 93.6793 328.323 100.97C341.153 108.26 348.03 119.402 354.119 129.251C357.408 134.505 360.425 139.402 364.122 143.584Z" fill="#00A979"/>
<path d="M364.122 79.6796V110.849C362.355 108.236 360.724 105.595 359.174 103.064C353.466 93.8201 348.519 85.8419 339.522 80.725C330.524 75.608 321.228 75.4979 310.464 75.3879C298.993 75.2503 285.999 75.1128 273.169 67.8224C260.339 60.5321 253.462 49.3903 247.373 39.5415C241.665 30.2979 236.718 22.3198 227.72 17.2028C218.723 12.0858 209.426 11.9758 198.662 11.8658C187.191 11.7282 174.198 11.5907 161.368 4.30033C148.538 -2.98999 141.633 -14.1318 135.572 -23.9806C129.863 -33.2242 124.916 -41.2023 115.919 -46.3193C106.921 -51.4363 97.625 -51.5463 86.8608 -51.6564C75.3898 -51.7939 62.3966 -51.9315 49.5665 -59.2218C45.625 -61.4777 42.0641 -64.1462 38.7207 -67.42L50.6266 -79.9648C52.9099 -77.7365 55.3292 -75.9208 57.9659 -74.4077C66.9633 -69.2907 76.2596 -69.1807 87.0239 -69.0706C98.4949 -68.9331 111.488 -68.7955 124.318 -61.5052C137.148 -54.2149 144.025 -43.073 150.114 -33.2242C155.823 -23.9806 160.77 -16.0025 169.767 -10.8856C178.765 -5.76857 188.061 -5.65853 198.825 -5.54849C210.296 -5.41093 223.289 -5.27338 236.12 2.01694C248.95 9.30727 255.827 20.4491 261.916 30.2979C267.624 39.5415 272.571 47.5196 281.569 52.6366C290.566 57.7536 299.862 57.8636 310.627 57.9736C322.098 58.1112 335.091 58.2487 347.921 65.5391C354.744 69.4456 359.881 74.3975 364.122 79.6796Z" fill="#00A979"/>
<path d="M364.122 28.4234V48.7813C362.6 47.5158 360.942 46.3604 359.121 45.3425C350.123 40.2255 340.827 40.1155 330.063 40.0054C318.592 39.8679 305.598 39.7303 292.768 32.44C279.938 25.1497 273.034 14.0079 266.972 4.15903C261.264 -5.08455 256.317 -13.0626 247.319 -18.1796C238.322 -23.2966 229.026 -23.4066 218.261 -23.5167C206.79 -23.6542 193.797 -23.7918 180.967 -31.0821C168.137 -38.3724 161.233 -49.5143 155.171 -59.3631C149.463 -68.6067 144.543 -76.5848 135.518 -81.7017C130.843 -84.3703 125.841 -85.8558 119.29 -86.5161L121.03 -103.82C129.918 -102.912 137.176 -100.712 143.945 -96.8601C156.775 -89.5698 163.652 -78.428 169.741 -68.5792C175.449 -59.3356 180.396 -51.3575 189.394 -46.2405C198.391 -41.1235 207.687 -41.0135 218.479 -40.9034C229.95 -40.7659 242.943 -40.6283 255.773 -33.338C268.603 -26.0477 275.48 -14.9059 281.569 -5.05704C287.278 4.18654 292.225 12.1646 301.222 17.2816C310.219 22.3986 319.516 22.5086 330.28 22.6187C340.691 22.7562 352.407 22.8938 364.122 28.4234Z" fill="#00A979"/>
</svg>
