<svg width="744" height="54" viewBox="0 0 744 54" fill="none" xmlns="http://www.w3.org/2000/svg">
<path d="M348.555 0.000920296L322.391 49.4297C325.51 50.7603 328.93 51.6955 332.859 51.6609C340.559 51.6861 346.608 48.07 351.954 44.8743L352.027 44.8311C357.051 41.805 361.41 39.204 366.832 39.2246C372.239 39.2467 376.449 41.8576 381.322 44.8799L381.411 44.9352L381.42 44.9411C386.632 48.1833 392.561 51.8712 400.291 51.8965C404.366 51.918 408.288 50.9502 412.635 48.8779L412.62 48.8341C414.146 48.1294 415.586 47.3319 416.97 46.529L417.994 45.9256C418.175 45.8154 418.335 45.7244 418.516 45.6142C418.687 45.5137 418.852 45.4128 419.018 45.3119C419.184 45.2108 419.35 45.1097 419.521 45.009C419.683 44.897 419.843 44.8061 420.004 44.7151C420.145 44.6224 420.305 44.5314 420.466 44.4405C420.597 44.3574 420.732 44.28 420.867 44.2026C421.002 44.1252 421.138 44.0478 421.269 43.9647C421.418 43.8791 421.564 43.7931 421.709 43.7082C421.933 43.5766 422.153 43.4475 422.372 43.3263C422.429 43.2929 422.488 43.2582 422.548 43.2229C422.718 43.1232 422.896 43.0187 423.073 42.9257C425.653 41.4932 428.231 40.2936 430.975 39.7454C432.057 39.5289 433.167 39.421 434.343 39.4252C439.751 39.4473 443.96 42.0583 448.833 45.0807L448.922 45.1357C454.135 48.4004 460.068 52.0717 467.802 52.097C475.503 52.1222 481.552 48.5061 486.898 45.3104L486.97 45.2673C491.994 42.2412 496.353 39.6401 501.775 39.6607C507.183 39.6829 511.392 42.2938 516.265 45.3162L516.354 45.3712C521.567 48.6359 527.5 52.3073 535.235 52.3326C542.935 52.3578 548.984 48.7417 554.33 45.546L554.402 45.5029C559.427 42.4768 563.786 39.8757 569.207 39.8963C574.615 39.9184 578.824 42.5294 583.697 45.5517L583.786 45.6068C588.999 48.8715 594.932 52.5428 602.667 52.5681C610.367 52.5934 616.416 48.9773 621.762 45.7816L621.834 45.7384C626.859 42.7123 631.217 40.1113 636.639 40.1318C642.047 40.154 646.257 42.7649 651.13 45.7873L651.218 45.8424L651.228 45.8483C656.44 49.0906 662.369 52.7784 670.099 52.8037C671.502 52.8075 672.849 52.6914 674.148 52.4795C680.346 51.6745 685.436 48.6318 690.011 45.897L690.083 45.8539C695.108 42.8278 699.467 40.2267 704.888 40.2473C710.296 40.2694 714.506 42.8803 719.378 45.9026L719.468 45.9578L719.477 45.9637C724.689 49.2059 730.618 52.8938 738.348 52.9191C742.423 52.9407 746.345 51.9729 750.692 49.9006L750.677 49.8568C752.203 49.1521 753.643 48.3545 755.027 47.5517L756.051 46.9483C756.121 46.9056 756.188 46.8658 756.254 46.8267C756.359 46.7648 756.462 46.7044 756.573 46.6369C756.744 46.5363 756.909 46.4353 757.075 46.3343C757.241 46.2333 757.407 46.1322 757.578 46.0317C757.663 45.973 757.747 45.9201 757.832 45.8699C757.908 45.8244 757.984 45.7811 758.06 45.7378C758.202 45.6451 758.362 45.5541 758.522 45.4632C758.653 45.3801 758.789 45.3027 758.924 45.2253C759.059 45.1479 759.194 45.0705 759.325 44.9874C759.475 44.9017 759.621 44.8157 759.766 44.7308C759.99 44.5992 760.209 44.4702 760.428 44.349C760.649 44.2213 760.89 44.0744 761.13 43.9484C763.71 42.516 766.288 41.3163 769.032 40.7681C770.114 40.5516 771.224 40.4437 772.4 40.4478C777.807 40.47 782.017 43.0809 786.89 46.1033L786.979 46.1584C792.191 49.4231 798.124 53.0944 805.859 53.1198C813.559 53.145 819.609 49.5289 824.954 46.3332L825.027 46.29C830.051 43.2639 834.41 40.6628 839.832 40.6834C845.24 40.7055 849.449 43.3165 854.322 46.3389L854.411 46.3939C859.623 49.6586 865.557 53.33 873.291 53.3553C880.992 53.3805 887.041 49.7644 892.387 46.5687L892.459 46.5256C897.483 43.4995 901.842 40.8984 907.264 40.919C912.672 40.9411 916.881 43.5521 921.754 46.5744L921.843 46.6295C927.056 49.8942 932.989 53.5655 940.724 53.5908C948.424 53.6161 954.473 49.9999 959.819 46.8041L959.891 46.7611C964.915 43.735 969.274 41.1339 974.696 41.1545C980.104 41.1766 984.313 43.7876 989.186 46.81L989.275 46.8651L989.285 46.871C994.497 50.1133 1000.43 53.8011 1008.16 53.8264C1014.68 53.844 1020 51.2699 1024.73 48.5342V0L348.555 0.000920296Z" fill="#00A979"/>
<path d="M-284.36 0V49.4379C-281.242 50.7686 -277.822 51.7037 -273.893 51.6692C-266.193 51.6944 -260.143 48.0782 -254.797 44.8825L-254.725 44.8394C-249.701 41.8133 -245.342 39.2123 -239.92 39.2328C-234.513 39.255 -230.303 41.8659 -225.43 44.8882L-225.341 44.9434L-225.332 44.9493C-220.119 48.1915 -214.191 51.8793 -206.461 51.9047C-202.385 51.9262 -198.464 50.9585 -194.117 48.8862L-194.132 48.8424C-192.605 48.1376 -191.165 47.3401 -189.782 46.5372L-188.758 45.9338C-188.577 45.8236 -188.417 45.7326 -188.236 45.6224C-188.065 45.522 -187.9 45.4211 -187.734 45.3202C-187.568 45.2191 -187.402 45.1179 -187.231 45.0172C-187.069 44.9053 -186.908 44.8143 -186.748 44.7233C-186.607 44.6306 -186.447 44.5397 -186.286 44.4487C-186.155 44.3656 -186.02 44.2883 -185.885 44.2109C-185.749 44.1335 -185.614 44.0561 -185.483 43.973C-185.102 43.7543 -184.74 43.5339 -184.38 43.3345C-184.322 43.301 -184.263 43.2661 -184.203 43.2307C-184.033 43.1311 -183.856 43.0268 -183.679 42.9339C-181.098 41.5015 -178.521 40.3019 -175.777 39.7536C-174.694 39.5371 -173.584 39.4292 -172.409 39.4334C-167.001 39.4556 -162.792 42.0665 -157.919 45.089L-157.83 45.144C-152.617 48.4087 -146.684 52.0799 -138.949 52.1053C-131.249 52.1305 -125.2 48.5145 -119.854 45.3187L-119.782 45.2755C-114.757 42.2494 -110.399 39.6484 -104.977 39.6689C-99.5691 39.6911 -95.3595 42.3021 -90.4865 45.3244L-90.3977 45.3795C-85.1852 48.6442 -79.2521 52.3155 -71.5173 52.3409C-63.817 52.3661 -57.7678 48.7499 -52.4217 45.5542L-52.3497 45.5111C-47.3253 42.485 -42.9664 39.884 -37.5447 39.9046C-32.137 39.9267 -27.9274 42.5376 -23.0545 45.5599L-22.9656 45.6151C-17.753 48.8797 -11.8199 52.5511 -4.08511 52.5764C3.61511 52.6016 9.66431 48.9855 15.0103 45.7897L15.0824 45.7467C20.1069 42.7205 24.4657 40.1195 29.8874 40.14C35.2952 40.1622 39.5048 42.7732 44.3779 45.7957L44.4666 45.8506L44.4761 45.8566C49.6883 49.0988 55.6168 52.7866 63.347 52.812C64.7501 52.8157 66.0978 52.6996 67.396 52.4876C73.5948 51.6826 78.6845 48.64 83.2594 45.9052L83.3316 45.8621C88.356 42.8359 92.7149 40.2349 98.1366 40.2555C103.544 40.2776 107.754 42.8886 112.627 45.9109L112.716 45.9661L112.725 45.9719C117.937 49.2142 123.866 52.902 131.596 52.9273C135.671 52.9489 139.593 51.9812 143.94 49.9089L143.925 49.865C145.451 49.1603 146.891 48.3628 148.275 47.5599L149.299 46.9565C149.388 46.9024 149.472 46.8529 149.555 46.8035C149.642 46.7523 149.729 46.7012 149.821 46.6451C149.992 46.5444 150.158 46.4432 150.324 46.3421C150.49 46.2412 150.656 46.1403 150.826 46.0399C150.988 45.9281 151.148 45.8373 151.308 45.7465C151.449 45.6538 151.61 45.5624 151.771 45.4714C151.902 45.3883 152.037 45.3109 152.172 45.2334C152.307 45.1561 152.443 45.0787 152.574 44.9957C152.723 44.91 152.869 44.8241 153.013 44.7393C153.238 44.6076 153.458 44.4785 153.677 44.3572C153.784 44.295 153.897 44.2281 154.011 44.1614C154.132 44.0913 154.255 44.0212 154.378 43.9566C156.958 42.5242 159.536 41.3245 162.28 40.7763C163.362 40.5598 164.473 40.4519 165.648 40.4561C171.055 40.4782 175.265 43.0891 180.138 46.1114L180.227 46.1666C185.44 49.4314 191.373 53.1026 199.107 53.1279C206.808 53.1532 212.857 49.5371 218.203 46.3414L218.275 46.2982C223.299 43.2721 227.658 40.6711 233.08 40.6916C238.488 40.7138 242.697 43.3247 247.57 46.347L247.659 46.4022C252.872 49.6669 258.805 53.3382 266.54 53.3635C274.24 53.3887 280.289 49.7726 285.635 46.5768L285.707 46.5338C290.732 43.5077 295.09 40.9067 300.512 40.9272C305.92 40.9494 310.129 43.5603 315.002 46.5827L315.091 46.6378C320.304 49.9024 326.237 53.5737 333.972 53.599C341.672 53.6242 347.721 50.0081 353.067 46.8123L353.139 46.7693C358.164 43.7432 362.522 41.1422 367.944 41.1628C373.352 41.185 377.562 43.7959 382.435 46.8184L382.523 46.8733C383.84 47.6921 384.94 48.5149 385.973 49.2879C389.034 51.5775 391.512 53.4306 397.294 53.4496C403.816 53.4672 409.14 50.893 413.871 48.1574L439.134 0H-284.36Z" fill="#00A979"/>
<path d="M-279.831 21.4462L-279.133 13.9943C-277.12 14.7763 -275.041 15.2467 -272.746 15.2497C-267.324 15.2703 -262.966 12.6692 -257.922 9.64489C-254.306 7.4829 -250.368 5.11801 -245.828 3.82669C-243.45 3.1382 -241.126 2.82609 -238.757 2.83617C-231.022 2.86151 -225.091 6.5538 -219.876 9.79749C-214.966 12.8432 -210.738 15.4858 -205.297 15.5081C-205.126 15.5029 -204.955 15.4978 -204.786 15.5136C-204.615 15.5085 -204.443 15.5033 -204.291 15.4964C-203.968 15.4843 -203.642 15.4512 -203.317 15.4181C-202.991 15.385 -202.682 15.3292 -202.355 15.2751C-201.719 15.1651 -201.098 15.0114 -200.474 14.8367C-200.201 14.7563 -199.91 14.6777 -199.635 14.5763C-199.458 14.5081 -199.282 14.4609 -199.105 14.3928C-197.928 13.9732 -196.76 13.4469 -195.603 12.8347C-194.985 12.5112 -194.346 12.1684 -193.724 11.8028C-193.424 11.6401 -193.122 11.4565 -192.822 11.2938C-192.061 10.8565 -191.297 10.3982 -190.513 9.9207C-186.835 7.70097 -182.798 5.30287 -178.127 4.02389C-177.835 3.94526 -177.543 3.86664 -177.233 3.78978C-177.193 3.77229 -177.156 3.7758 -177.097 3.76007C-176.361 3.59591 -175.606 3.4335 -174.839 3.33589C-174.609 3.31501 -174.397 3.27136 -174.167 3.25048C-174.052 3.24004 -173.938 3.22959 -173.804 3.22091C-173.574 3.20003 -173.345 3.17915 -173.115 3.15827C-172.886 3.13739 -172.64 3.13928 -172.41 3.1184C-172.049 3.10985 -171.688 3.1013 -171.327 3.09275C-163.592 3.11808 -157.659 6.78937 -152.446 10.0541C-147.535 13.0997 -143.308 15.7423 -137.867 15.7646C-132.445 15.7852 -128.087 13.1841 -123.062 10.158C-117.698 6.95178 -111.629 3.30295 -103.895 3.32829C-96.1597 3.35362 -90.2287 7.04592 -85.0141 10.2896C-80.1034 13.3353 -75.8755 15.9779 -70.435 16.0002C-65.0133 16.0207 -60.6544 13.4197 -55.63 10.3936C-50.2662 7.18733 -44.1973 3.53852 -36.4625 3.56386C-28.7276 3.58919 -22.7965 7.28149 -17.582 10.5252C-12.6713 13.5708 -8.44342 16.2134 -3.0029 16.2357C2.41879 16.2563 6.77765 13.6553 11.8209 10.6309C17.1846 7.42465 23.2536 3.77585 30.9885 3.80119C38.7233 3.82652 44.6563 7.49781 49.8689 10.7625C54.7796 13.8082 59.0206 16.3108 64.4611 16.3331C69.8828 16.3536 74.2942 13.1925 79.3186 10.1664C81.3076 8.97518 83.3835 7.86978 85.6298 6.76627L84.8161 15.4507C84.4561 15.6501 84.1129 15.8723 83.7509 16.0927C78.3871 19.2989 72.2394 23.7878 64.5046 23.7625C56.7697 23.7372 50.8387 20.0449 45.6242 16.8012C40.7135 13.7555 36.4856 11.1129 31.0451 11.0906C25.6234 11.0701 21.2645 13.6711 16.2401 16.6972C10.8763 19.9035 4.80734 23.5523 -2.92749 23.5269C-10.6624 23.5016 -16.5934 19.8093 -21.808 16.5656C-26.7187 13.5199 -30.9465 10.8774 -36.3871 10.855C-41.8088 10.8345 -46.1676 13.4355 -51.1921 16.4616C-56.5558 19.6679 -62.6248 23.3167 -70.3596 23.2914C-78.0945 23.2661 -84.0255 19.5738 -89.2401 16.3301C-94.1508 13.2844 -98.3786 10.6418 -103.819 10.6195C-109.241 10.599 -113.6 13.2 -118.643 16.2243C-124.007 19.4306 -130.076 23.0794 -137.811 23.0541C-143.877 23.0367 -148.823 20.7718 -153.193 18.2219C-154.38 17.5385 -155.545 16.8147 -156.691 16.0927C-161.602 13.0471 -165.83 10.4045 -171.27 10.3822C-171.441 10.3873 -171.612 10.3925 -171.782 10.3767C-173.132 10.4197 -174.402 10.6185 -175.645 10.926C-175.955 11.0028 -176.249 11.1025 -176.56 11.1793C-176.716 11.2283 -176.872 11.2772 -177.029 11.3261C-180.065 12.3557 -182.938 14.0786 -186.092 15.966C-187.598 16.8633 -189.167 17.8184 -190.803 18.6824C-192.441 19.5674 -194.167 20.3806 -195.975 21.0589C-196.583 21.2774 -197.192 21.4959 -197.836 21.6899C-198.05 21.7545 -198.246 21.821 -198.459 21.8646C-198.77 21.9415 -199.101 22.0376 -199.412 22.1144C-199.528 22.1459 -199.624 22.1581 -199.741 22.1895C-199.954 22.2332 -200.166 22.2769 -200.379 22.3205C-200.823 22.406 -201.268 22.4916 -201.729 22.5543C-201.92 22.5788 -202.131 22.6014 -202.323 22.6258C-202.496 22.652 -202.686 22.6554 -202.859 22.6815C-203.012 22.6884 -203.166 22.7164 -203.318 22.7233C-203.759 22.7668 -204.216 22.7876 -204.652 22.7891C-204.842 22.7925 -205.032 22.7959 -205.222 22.7992C-212.957 22.7739 -218.888 19.0816 -224.102 15.8379C-229.013 12.7923 -233.241 10.1497 -238.681 10.1274C-239.022 10.1167 -239.345 10.1288 -239.671 10.1618C-239.69 10.1601 -239.69 10.1601 -239.708 10.1583C-240.032 10.1704 -240.357 10.2035 -240.664 10.2383C-240.818 10.2662 -240.99 10.2714 -241.144 10.2993C-241.298 10.3273 -241.432 10.3359 -241.586 10.3639C-241.703 10.3953 -241.836 10.404 -241.953 10.4354C-242.456 10.5367 -242.96 10.659 -243.467 10.8023C-246.856 11.7563 -250.01 13.6437 -253.486 15.734C-258.85 18.9402 -264.919 22.589 -272.673 22.5619C-275.266 22.5097 -277.617 22.0987 -279.831 21.4462Z" fill="#FFF7E1"/>
<path d="M-280.784 39.1537L-280.086 31.7018C-278.073 32.4838 -275.993 32.9542 -273.699 32.9572C-268.277 32.9778 -263.918 30.3767 -258.875 27.3524C-255.259 25.1904 -251.321 22.8255 -246.781 21.5342C-244.403 20.8457 -242.079 20.5336 -239.71 20.5437C-231.975 20.569 -226.044 24.2613 -220.829 27.505C-215.918 30.5506 -211.691 33.1932 -206.25 33.2155C-206.079 33.2104 -205.908 33.2052 -205.739 33.2211C-205.567 33.2159 -205.396 33.2108 -205.244 33.2038C-204.92 33.1918 -204.595 33.1587 -204.269 33.1256C-203.944 33.0925 -203.635 33.0367 -203.308 32.9826C-202.672 32.8726 -202.05 32.7189 -201.427 32.5442C-201.154 32.4638 -200.862 32.3852 -200.587 32.2838C-200.41 32.2156 -200.235 32.1684 -200.058 32.1002C-198.881 31.6807 -197.713 31.1543 -196.556 30.5422C-195.937 30.2186 -195.299 29.8759 -194.676 29.5103C-194.377 29.3476 -194.075 29.1639 -193.775 29.0013C-193.014 28.564 -192.25 28.1057 -191.466 27.6282C-187.787 25.4085 -183.751 23.0104 -179.08 21.7314C-178.788 21.6527 -178.496 21.5741 -178.186 21.4973C-178.146 21.4798 -178.108 21.4833 -178.05 21.4676C-177.314 21.3034 -176.559 21.141 -175.792 21.0434C-175.562 21.0225 -175.349 20.9788 -175.12 20.958C-175.005 20.9475 -174.89 20.9371 -174.757 20.9284C-174.527 20.9075 -174.298 20.8866 -174.068 20.8658C-173.839 20.8449 -173.592 20.8468 -173.363 20.8259C-173.002 20.8173 -172.641 20.8088 -172.28 20.8002C-164.545 20.8256 -158.612 24.4968 -153.399 27.7615C-148.488 30.8072 -144.26 33.4498 -138.82 33.4721C-133.398 33.4927 -129.039 30.8916 -124.015 27.8655C-118.651 24.6593 -112.582 21.0104 -104.847 21.0358C-97.1126 21.0611 -91.1815 24.7534 -85.9669 27.9971C-81.0562 31.0428 -76.8284 33.6854 -71.3878 33.7077C-65.9661 33.7282 -61.6073 31.1272 -56.5828 28.1011C-51.2191 24.8948 -45.1501 21.246 -37.4153 21.2713C-29.6805 21.2967 -23.7494 24.989 -18.5348 28.2327C-13.6241 31.2783 -9.39627 33.9209 -3.95575 33.9432C1.46597 33.9638 5.8248 31.3627 10.8681 28.3384C16.2318 25.1321 22.3008 21.4833 30.0356 21.5087C37.7704 21.534 43.7035 25.2053 48.9161 28.47C53.8268 31.5157 58.0546 34.1583 63.4951 34.1806C68.9169 34.2011 73.3019 31.32 78.3264 28.2939C80.3155 27.1027 82.4044 25.8573 84.6507 24.7538L83.8239 33.5782C83.4639 33.7776 83.1206 33.9998 82.7586 34.2202C77.3949 37.4265 71.2866 41.4953 63.5518 41.47C55.8169 41.4447 49.8859 37.7524 44.6713 34.5087C39.7606 31.463 35.5327 28.8204 30.0922 28.7981C24.6705 28.7776 20.3117 31.3786 15.2872 34.4047C9.92346 37.611 3.85452 41.2598 -3.88034 41.2344C-11.6152 41.2091 -17.5463 37.5168 -22.7608 34.2731C-27.6715 31.2274 -31.8994 28.5848 -37.3399 28.5625C-42.7616 28.542 -47.1204 31.143 -52.1449 34.1691C-57.5087 37.3754 -63.5776 41.0242 -71.3124 40.9989C-79.0473 40.9735 -84.9784 37.2812 -90.1929 34.0376C-95.1036 30.9919 -99.3315 28.3493 -104.772 28.327C-110.194 28.3064 -114.553 30.9075 -119.596 33.9318C-124.96 37.1381 -131.029 40.7869 -138.763 40.7615C-144.83 40.7441 -149.776 38.4793 -154.145 35.9294C-155.333 35.2459 -156.498 34.5222 -157.644 33.8002C-162.555 30.7546 -166.782 28.112 -172.223 28.0897C-172.394 28.0948 -172.565 28.1 -172.734 28.0841C-174.085 28.1271 -175.355 28.326 -176.598 28.6335C-176.908 28.7103 -177.202 28.81 -177.513 28.8868C-177.669 28.9358 -177.825 28.9847 -177.982 29.0336C-181.017 30.0632 -183.891 31.7861 -187.045 33.6735C-188.551 34.5708 -190.12 35.5259 -191.756 36.3899C-193.394 37.2749 -195.12 38.088 -196.928 38.7664C-197.536 38.9849 -198.145 39.2034 -198.789 39.3973C-199.003 39.462 -199.199 39.5284 -199.412 39.5721C-199.722 39.649 -200.054 39.7451 -200.365 39.8219C-200.481 39.8534 -200.577 39.8656 -200.694 39.897C-200.907 39.9407 -201.119 39.9843 -201.332 40.028C-201.776 40.1135 -202.22 40.1991 -202.681 40.2618C-202.873 40.2862 -203.084 40.3089 -203.276 40.3333C-203.449 40.3594 -203.639 40.3628 -203.812 40.389C-203.965 40.3959 -204.119 40.4239 -204.271 40.4308C-204.711 40.4743 -205.169 40.4951 -205.605 40.4966C-205.795 40.5 -205.985 40.5033 -206.175 40.5067C-213.91 40.4814 -219.841 36.7891 -225.055 33.5454C-229.966 30.4997 -234.194 27.8571 -239.634 27.8348C-239.975 27.8242 -240.298 27.8362 -240.624 27.8693C-240.642 27.8676 -240.642 27.8676 -240.661 27.8658C-240.985 27.8779 -241.31 27.9109 -241.617 27.9458C-241.771 27.9737 -241.942 27.9789 -242.097 28.0068C-242.251 28.0347 -242.385 28.0434 -242.539 28.0713C-242.656 28.1028 -242.789 28.1115 -242.906 28.1429C-243.408 28.2442 -243.913 28.3665 -244.419 28.5097C-247.809 29.4638 -250.963 31.3512 -254.439 33.4414C-259.803 36.6477 -265.872 40.2965 -273.626 40.2694C-276.219 40.2172 -278.57 39.8062 -280.784 39.1537Z" fill="#FFF7E1"/>
<path d="M56.4315 22.0191L57.0903 14.9873C59.1031 15.7693 61.183 16.2397 63.4773 16.2427C68.899 16.2632 73.2578 13.6622 78.3011 10.6379C81.9171 8.47587 85.8557 6.11098 90.3952 4.81967C92.7733 4.13117 95.0971 3.81907 97.4667 3.82915C105.202 3.85448 111.133 7.54678 116.347 10.7905C121.258 13.8361 125.486 16.4787 130.926 16.501C131.097 16.4959 131.269 16.4907 131.438 16.5066C131.609 16.5014 131.78 16.4963 131.932 16.4893C132.256 16.4773 132.581 16.4442 132.907 16.4111C133.232 16.378 133.541 16.3222 133.868 16.2681C134.505 16.1581 135.126 16.0044 135.749 15.8297C136.022 15.7493 136.314 15.6707 136.589 15.5693C136.766 15.5011 136.941 15.4539 137.118 15.3857C138.295 14.9662 139.463 14.4398 140.621 13.8277C141.239 13.5041 141.878 13.1613 142.5 12.7958C142.8 12.6331 143.101 12.4494 143.401 12.2868C144.163 11.8495 144.926 11.3912 145.711 10.9137C149.389 8.69394 153.425 6.29585 158.096 5.01686C158.388 4.93824 158.68 4.85961 158.991 4.78275C159.03 4.76526 159.068 4.76877 159.126 4.75304C159.862 4.58888 160.617 4.42648 161.385 4.32886C161.614 4.30798 161.827 4.26434 162.056 4.24345C162.171 4.23301 162.286 4.22256 162.42 4.21388C162.649 4.193 162.879 4.17213 163.108 4.15125C163.338 4.13036 163.584 4.13225 163.813 4.11137C164.175 4.10282 164.536 4.09427 164.897 4.08572C172.632 4.11106 178.565 7.78234 183.777 11.047C188.688 14.0927 192.916 16.7353 198.356 16.7576C203.778 16.7781 208.137 14.1771 213.161 11.151C218.525 7.94476 224.594 4.29592 232.329 4.32126C240.064 4.3466 245.995 8.03889 251.209 11.2826C256.12 14.3282 260.348 16.9708 265.788 16.9931C271.21 17.0137 275.569 14.4127 280.594 11.3866C285.957 8.1803 292.026 4.53149 299.761 4.55683C307.496 4.58217 313.427 8.27446 318.642 11.5181C323.552 14.5638 327.78 17.4924 333.221 17.5147C338.642 17.5353 343.001 14.6482 348.044 11.6239C353.408 8.41763 359.477 4.76883 367.212 4.79416C374.947 4.8195 380.88 8.49078 386.092 11.7555C391.003 14.8011 395.231 17.4437 400.672 17.466C406.093 17.4866 410.452 14.8856 415.477 11.8594C417.466 10.6683 419.555 9.42284 421.801 8.31933L420.961 17.2838C420.601 17.4832 420.258 17.7054 419.896 17.9258C414.532 21.132 408.463 24.7808 400.728 24.7555C392.993 24.7301 387.062 21.0378 381.848 17.7942C376.937 14.7485 372.709 12.1059 367.269 12.0836C361.847 12.063 357.488 14.6641 352.464 17.6902C347.1 20.8964 341.031 24.5452 333.296 24.5199C325.561 24.4946 319.63 20.8023 314.416 17.5586C309.505 14.5129 305.277 11.8703 299.836 11.848C294.415 11.8275 290.056 14.4285 285.031 17.4546C279.668 20.6609 273.599 24.3097 265.864 24.2844C258.129 24.259 252.198 20.5667 246.983 17.3231C242.073 14.2774 237.845 11.6348 232.404 11.6125C226.983 11.5919 222.624 14.193 217.581 17.2173C212.217 20.4236 206.148 24.0724 198.413 24.047C192.346 24.0296 187.4 21.7648 183.031 19.2149C181.843 18.5314 180.679 17.8077 179.533 17.0857C174.622 14.0401 170.394 11.3975 164.953 11.3751C164.782 11.3803 164.611 11.3855 164.442 11.3696C163.091 11.4126 161.821 11.6115 160.579 11.919C160.268 11.9958 159.974 12.0954 159.664 12.1723C159.507 12.2212 159.351 12.2702 159.195 12.3191C156.159 13.3487 153.286 15.0716 150.132 16.959C148.625 17.8563 147.057 18.8114 145.421 19.6754C143.783 20.5604 142.057 21.3735 140.248 22.0518C139.64 22.2704 139.032 22.4889 138.388 22.6828C138.173 22.7475 137.977 22.8139 137.764 22.8576C137.454 22.9345 137.122 23.0306 136.812 23.1074C136.695 23.1389 136.599 23.1511 136.482 23.1825C136.27 23.2262 136.057 23.2698 135.844 23.3135C135.4 23.399 134.956 23.4846 134.495 23.5473C134.303 23.5717 134.092 23.5944 133.9 23.6188C133.727 23.6449 133.537 23.6483 133.364 23.6745C133.212 23.6814 133.057 23.7093 132.905 23.7163C132.465 23.7598 132.008 23.7805 131.572 23.7821C131.382 23.7854 131.192 23.7888 131.002 23.7922C123.267 23.7669 117.336 20.0746 112.121 16.8309C107.21 13.7852 102.983 11.1426 97.5421 11.1203C97.2017 11.1096 96.8782 11.1217 96.5527 11.1548C96.5339 11.1531 96.5339 11.1531 96.5151 11.1513C96.1916 11.1634 95.8661 11.1964 95.5594 11.2313C95.4051 11.2592 95.234 11.2644 95.0797 11.2923C94.9253 11.3202 94.7917 11.3289 94.6374 11.3568C94.5207 11.3883 94.3871 11.397 94.2704 11.4284C93.7679 11.5297 93.2633 11.652 92.7569 11.7952C89.3678 12.7493 86.2137 14.6367 82.7371 16.7269C77.3733 19.9332 71.3044 23.582 63.5508 23.5549C60.9576 23.5027 58.646 22.6716 56.4315 22.0191Z" fill="#FFF7E1"/>
<path d="M55.9992 40.1999L56.6974 32.748C58.7102 33.53 60.7901 34.0004 63.0844 34.0034C68.5061 34.024 72.865 31.4229 77.9082 28.3986C81.5243 26.2366 85.4628 23.8717 90.0023 22.5804C92.3804 21.8919 94.7043 21.5798 97.0738 21.5899C104.809 21.6152 110.74 25.3075 115.954 28.5512C120.865 31.5968 125.093 34.2394 130.533 34.2617C130.704 34.2566 130.876 34.2514 131.045 34.2673C131.216 34.2621 131.387 34.257 131.54 34.25C131.863 34.238 132.189 34.2049 132.514 34.1718C132.839 34.1387 133.148 34.0829 133.476 34.0288C134.112 33.9188 134.733 33.7651 135.356 33.5904C135.629 33.51 135.921 33.4314 136.196 33.33C136.373 33.2618 136.548 33.2146 136.725 33.1464C137.902 32.7269 139.071 32.2005 140.228 31.5884C140.846 31.2649 141.485 30.9221 142.107 30.5565C142.407 30.3938 142.708 30.2101 143.008 30.0475C143.77 29.6102 144.533 29.1519 145.318 28.6744C148.996 26.4547 153.032 24.0566 157.704 22.7776C157.995 22.6989 158.287 22.6203 158.598 22.5435C158.637 22.526 158.675 22.5295 158.733 22.5138C159.469 22.3496 160.224 22.1872 160.992 22.0896C161.221 22.0687 161.434 22.025 161.664 22.0042C161.778 21.9937 161.893 21.9833 162.027 21.9746C162.256 21.9537 162.486 21.9328 162.715 21.912C162.945 21.8911 163.191 21.893 163.421 21.8721C163.782 21.8635 164.143 21.855 164.504 21.8464C172.239 21.8718 178.172 25.543 183.384 28.8077C188.295 31.8534 192.523 34.496 197.963 34.5183C203.385 34.5389 207.744 31.9378 212.769 28.9117C218.132 25.7055 224.201 22.0566 231.936 22.082C239.671 22.1073 245.602 25.7996 250.817 29.0433C255.727 32.089 259.955 34.7316 265.396 34.7539C270.817 34.7744 275.176 32.1734 280.201 29.1473C285.564 25.941 291.633 22.2922 299.368 22.3175C307.103 22.3429 313.034 26.0352 318.249 29.2789C323.159 32.3245 327.387 34.9671 332.828 34.9894C338.249 35.01 342.608 32.4089 347.651 29.3846C353.015 26.1783 359.084 22.5295 366.819 22.5549C374.554 22.5802 380.487 26.2515 385.7 29.5162C390.61 32.5619 394.838 35.2045 400.279 35.2268C405.7 35.2473 410.059 32.6463 415.084 29.6202C417.073 28.429 419.162 27.1836 421.408 26.08L420.568 35.0445C420.208 35.2439 419.865 35.4661 419.503 35.6865C414.139 38.8927 408.07 42.5415 400.335 42.5162C392.6 42.4909 386.669 38.7986 381.455 35.5549C376.544 32.5092 372.316 29.8666 366.876 29.8443C361.454 29.8238 357.095 32.4248 352.071 35.4509C346.707 38.6572 340.638 42.306 332.903 42.2806C325.168 42.2553 319.237 38.563 314.023 35.3193C309.112 32.2736 304.884 29.631 299.444 29.6087C294.022 29.5882 289.663 32.1892 284.639 35.2153C279.275 38.4216 273.206 42.0704 265.471 42.0451C257.736 42.0197 251.805 38.3274 246.591 35.0838C241.68 32.0381 237.452 29.3955 232.011 29.3732C226.59 29.3526 222.231 31.9537 217.188 34.978C211.824 38.1843 205.755 41.8331 198.02 41.8077C191.953 41.7903 187.007 39.5255 182.638 36.9756C181.451 36.2922 180.286 35.5684 179.14 34.8464C174.229 31.8008 170.001 29.1582 164.561 29.1359C164.389 29.141 164.218 29.1462 164.049 29.1303C162.699 29.1733 161.428 29.3722 160.186 29.6797C159.875 29.7565 159.581 29.8562 159.271 29.933C159.115 29.982 158.958 30.0309 158.802 30.0798C155.766 31.1094 152.893 32.8323 149.739 34.7197C148.232 35.617 146.664 36.5721 145.028 37.4361C143.39 38.3211 141.664 39.1342 139.855 39.8126C139.247 40.0311 138.639 40.2496 137.995 40.4435C137.78 40.5082 137.584 40.5746 137.372 40.6183C137.061 40.6952 136.73 40.7913 136.419 40.8681C136.302 40.8996 136.206 40.9118 136.09 40.9432C135.877 40.9869 135.664 41.0305 135.451 41.0742C135.007 41.1597 134.563 41.2453 134.102 41.308C133.91 41.3324 133.699 41.3551 133.508 41.3795C133.334 41.4056 133.144 41.409 132.971 41.4352C132.819 41.4421 132.665 41.4701 132.512 41.477C132.072 41.5205 131.615 41.5413 131.179 41.5428C130.989 41.5462 130.799 41.5495 130.609 41.5529C122.874 41.5276 116.943 37.8353 111.728 34.5916C106.818 31.546 102.59 28.9034 97.1492 28.881C96.8089 28.8704 96.4854 28.8824 96.1599 28.9155C96.1411 28.9138 96.1411 28.9138 96.1223 28.912C95.7987 28.9241 95.4733 28.9572 95.1666 28.992C95.0122 29.0199 94.8411 29.0251 94.6868 29.053C94.5324 29.0809 94.3989 29.0896 94.2446 29.1175C94.1278 29.149 93.9943 29.1577 93.8775 29.1891C93.375 29.2904 92.8705 29.4127 92.364 29.5559C88.9749 30.51 85.8207 32.3974 82.3441 34.4876C76.9804 37.6939 70.9115 41.3427 63.1579 41.3156C60.5647 41.2634 58.2137 40.8524 55.9992 40.1999Z" fill="#FFF7E1"/>
<path d="M326.747 23.5758L327.446 16.4099C329.458 17.1919 331.538 17.3763 333.833 17.3793C339.254 17.3999 343.613 14.5128 348.656 11.4884C352.272 9.32646 356.211 6.96157 360.75 5.67025C363.129 4.98176 365.452 4.66965 367.822 4.67973C375.557 4.70507 381.488 8.39736 386.702 11.641C391.613 14.6867 395.841 17.3293 401.281 17.3516C401.453 17.3465 401.624 17.3413 401.793 17.3572C401.964 17.352 402.135 17.3468 402.288 17.3399C402.611 17.3278 402.937 17.2948 403.262 17.2617C403.588 17.2286 403.896 17.1727 404.224 17.1186C404.86 17.0087 405.481 16.855 406.104 16.6802C406.377 16.5999 406.669 16.5212 406.944 16.4198C407.121 16.3517 407.296 16.3045 407.473 16.2363C408.65 15.8168 409.819 15.2904 410.976 14.6783C411.594 14.3547 412.233 14.0119 412.855 13.6464C413.155 13.4837 413.456 13.3 413.756 13.1374C414.518 12.7001 415.281 12.2418 416.066 11.7643C419.744 9.54453 423.781 7.14643 428.452 5.86744C428.743 5.78882 429.035 5.7102 429.346 5.63333C429.385 5.61585 429.423 5.61935 429.481 5.60363C430.217 5.43946 430.972 5.27706 431.74 5.17944C431.969 5.15856 432.182 5.11492 432.412 5.09404C432.526 5.0836 432.641 5.07315 432.775 5.06447C433.004 5.04358 433.234 5.02271 433.463 5.00183C433.693 4.98095 433.939 4.98284 434.169 4.96195C434.53 4.9534 434.891 4.94485 435.252 4.9363C442.987 4.96164 448.92 8.63292 454.133 11.8976C459.043 14.9433 463.271 17.5859 468.712 17.6082C474.133 17.6287 478.492 15.0277 483.517 12.0016C488.88 8.79534 494.949 5.14651 502.684 5.17184C510.419 5.19718 516.35 8.88948 521.565 12.1332C526.475 15.1788 530.703 17.8214 536.144 17.8437C541.565 17.8643 545.924 15.2632 550.949 12.2371C556.312 9.03088 562.381 5.38208 570.116 5.40741C577.851 5.43275 583.782 9.12504 588.997 12.3687C593.907 15.4144 598.135 18.057 603.576 18.0793C608.997 18.0998 613.356 15.4988 618.4 12.4745C623.763 9.26821 629.832 5.61941 637.567 5.64474C645.302 5.67008 651.235 9.34136 656.448 12.6061C661.358 15.6517 665.599 18.1543 671.04 18.1766C676.462 18.1971 680.873 15.036 685.897 12.0099C687.886 10.8187 689.962 9.71334 692.208 8.60983L691.395 17.2943C691.035 17.4937 690.692 17.7158 690.33 17.9362C684.966 21.1425 678.818 25.6314 671.083 25.6061C663.348 25.5807 657.417 21.8884 652.203 18.6447C647.292 15.5991 643.064 12.9565 637.624 12.9342C632.202 12.9136 627.843 15.5147 622.819 18.5408C617.455 21.747 611.386 25.3958 603.651 25.3705C595.916 25.3452 589.985 21.6529 584.771 18.4092C579.86 15.3635 575.632 12.7209 570.192 12.6986C564.77 12.6781 560.411 15.2791 555.387 18.3052C550.023 21.5115 543.954 25.1603 536.219 25.1349C528.484 25.1096 522.553 21.4173 517.339 18.1736C512.428 15.128 508.2 12.4854 502.76 12.4631C497.338 12.4425 492.979 15.0436 487.936 18.0679C482.572 21.2742 476.503 24.923 468.768 24.8976C462.701 24.8802 457.755 22.6154 453.386 20.0655C452.199 19.382 451.034 18.6583 449.888 17.9363C444.977 14.8906 440.749 12.248 435.309 12.2257C435.137 12.2309 434.966 12.2361 434.797 12.2202C433.447 12.2632 432.176 12.4621 430.934 12.7695C430.623 12.8464 430.33 12.946 430.019 13.0229C429.863 13.0718 429.706 13.1208 429.55 13.1697C426.514 14.1992 423.641 15.9222 420.487 17.8096C418.98 18.7069 417.412 19.662 415.776 20.526C414.138 21.411 412.412 22.2241 410.604 22.9024C409.995 23.1209 409.387 23.3394 408.743 23.5334C408.528 23.5981 408.332 23.6645 408.12 23.7082C407.809 23.785 407.478 23.8811 407.167 23.958C407.05 23.9894 406.954 24.0017 406.838 24.0331C406.625 24.0768 406.412 24.1204 406.2 24.1641C405.755 24.2496 405.311 24.3351 404.85 24.3979C404.658 24.4223 404.448 24.445 404.256 24.4694C404.082 24.4955 403.893 24.4989 403.719 24.5251C403.567 24.532 403.413 24.5599 403.26 24.5668C402.82 24.6104 402.363 24.6311 401.927 24.6326C401.737 24.636 401.547 24.6394 401.357 24.6428C393.622 24.6175 387.691 20.9252 382.476 17.6815C377.566 14.6358 373.338 11.9932 367.897 11.9709C367.557 11.9602 367.233 11.9723 366.908 12.0054C366.889 12.0036 366.889 12.0036 366.87 12.0019C366.547 12.014 366.221 12.047 365.915 12.0819C365.76 12.1098 365.589 12.115 365.435 12.1429C365.281 12.1708 365.147 12.1795 364.993 12.2074C364.876 12.2389 364.742 12.2475 364.626 12.279C364.123 12.3803 363.619 12.5025 363.112 12.6458C359.723 13.5999 356.569 15.4872 353.092 17.5775C347.729 20.7838 341.66 24.4326 333.906 24.4055C331.313 24.3533 328.962 24.2283 326.747 23.5758Z" fill="#FFF7E1"/>
<path d="M325.794 40.9961L326.493 33.8303C328.505 34.6123 330.585 35.0826 332.88 35.0857C338.301 35.1062 342.66 32.2192 347.703 29.1948C351.32 27.0328 355.258 24.6679 359.798 23.3766C362.176 22.6881 364.5 22.376 366.869 22.3861C374.604 22.4114 380.535 26.1037 385.75 29.3474C390.66 32.3931 394.888 35.0357 400.329 35.058C400.5 35.0528 400.671 35.0477 400.84 35.0635C401.011 35.0584 401.182 35.0532 401.335 35.0463C401.658 35.0342 401.984 35.0011 402.309 34.968C402.635 34.935 402.943 34.8791 403.271 34.825C403.907 34.7151 404.528 34.5613 405.151 34.3866C405.424 34.3062 405.716 34.2276 405.991 34.1262C406.168 34.058 406.343 34.0109 406.52 33.9427C407.698 33.5231 408.866 32.9968 410.023 32.3846C410.641 32.0611 411.28 31.7183 411.902 31.3527C412.202 31.1901 412.504 31.0064 412.803 30.8437C413.565 30.4064 414.328 29.9482 415.113 29.4706C418.791 27.2509 422.828 24.8528 427.499 23.5738C427.791 23.4952 428.082 23.4166 428.393 23.3397C428.433 23.3222 428.47 23.3257 428.529 23.31C429.265 23.1458 430.019 22.9834 430.787 22.8858C431.017 22.8649 431.229 22.8213 431.459 22.8004C431.574 22.79 431.688 22.7795 431.822 22.7708C432.051 22.7499 432.281 22.7291 432.51 22.7082C432.74 22.6873 432.986 22.6892 433.216 22.6683C433.577 22.6598 433.938 22.6512 434.299 22.6427C442.034 22.668 447.967 26.3393 453.18 29.604C458.09 32.6497 462.318 35.2923 467.759 35.3146C473.18 35.3351 477.539 32.7341 482.564 29.708C487.927 26.5017 493.996 22.8529 501.731 22.8782C509.466 22.9035 515.397 26.5958 520.612 29.8395C525.522 32.8852 529.75 35.5278 535.191 35.5501C540.613 35.5706 544.971 32.9696 549.996 29.9435C555.36 26.7372 561.429 23.0884 569.163 23.1138C576.898 23.1391 582.829 26.8314 588.044 30.0751C592.955 33.1208 597.182 35.7634 602.623 35.7857C608.045 35.8062 612.403 33.2052 617.447 30.1808C622.81 26.9746 628.879 23.3258 636.614 23.3511C644.349 23.3764 650.282 27.0477 655.495 30.3124C660.405 33.3581 664.633 36.0007 670.074 36.023C675.496 36.0435 679.881 33.1625 684.905 30.1364C686.894 28.9452 688.983 27.6997 691.229 26.5962L690.403 35.4207C690.043 35.6201 689.699 35.8422 689.337 36.0626C683.974 39.2689 677.865 43.3378 670.13 43.3124C662.396 43.2871 656.465 39.5948 651.25 36.3511C646.339 33.3054 642.111 30.6628 636.671 30.6405C631.249 30.62 626.89 33.221 621.866 36.2471C616.502 39.4534 610.433 43.1022 602.698 43.0769C594.964 43.0515 589.032 39.3592 583.818 36.1155C578.907 33.0699 574.679 30.4273 569.239 30.405C563.817 30.3844 559.458 32.9855 554.434 36.0116C549.07 39.2178 543.001 42.8666 535.266 42.8413C527.531 42.816 521.6 39.1237 516.386 35.88C511.475 32.8343 507.247 30.1917 501.807 30.1694C496.385 30.1489 492.026 32.7499 486.983 35.7743C481.619 38.9805 475.55 42.6293 467.815 42.604C461.749 42.5866 456.803 40.3218 452.433 37.7719C451.246 37.0884 450.081 36.3646 448.935 35.6427C444.024 32.597 439.796 29.9544 434.356 29.9321C434.185 29.9373 434.013 29.9424 433.844 29.9266C432.494 29.9696 431.224 30.1685 429.981 30.4759C429.67 30.5528 429.377 30.6524 429.066 30.7293C428.91 30.7782 428.753 30.8271 428.597 30.8761C425.561 31.9056 422.688 33.6286 419.534 35.5159C418.028 36.4133 416.459 37.3683 414.823 38.2323C413.185 39.1173 411.459 39.9305 409.651 40.6088C409.042 40.8273 408.434 41.0458 407.79 41.2398C407.575 41.3044 407.38 41.3709 407.167 41.4145C406.856 41.4914 406.525 41.5875 406.214 41.6644C406.097 41.6958 406.002 41.708 405.885 41.7395C405.672 41.7831 405.459 41.8268 405.247 41.8704C404.802 41.956 404.358 42.0415 403.897 42.1043C403.705 42.1287 403.495 42.1513 403.303 42.1757C403.13 42.2019 402.94 42.2053 402.766 42.2314C402.614 42.2384 402.46 42.2663 402.307 42.2732C401.867 42.3167 401.41 42.3375 400.974 42.339C400.784 42.3424 400.594 42.3458 400.404 42.3492C392.669 42.3238 386.738 38.6315 381.523 35.3879C376.613 32.3422 372.385 29.6996 366.944 29.6773C366.604 29.6666 366.281 29.6787 365.955 29.7118C365.936 29.71 365.936 29.71 365.917 29.7082C365.594 29.7203 365.268 29.7534 364.962 29.7882C364.807 29.8162 364.636 29.8213 364.482 29.8492C364.328 29.8772 364.194 29.8858 364.04 29.9138C363.923 29.9452 363.789 29.9539 363.673 29.9854C363.17 30.0866 362.666 30.2089 362.159 30.3522C358.77 31.3062 355.616 33.1936 352.139 35.2839C346.776 38.4901 340.707 42.139 332.953 42.1119C330.36 42.0596 328.009 41.6486 325.794 40.9961Z" fill="#FFF7E1"/>
<path d="M662.991 24.066L663.65 17.0342C665.663 17.8162 667.742 18.2866 670.037 18.2896C675.459 18.3101 679.817 15.7091 684.861 12.6848C688.477 10.5228 692.415 8.15789 696.955 6.86657C699.333 6.17808 701.657 5.86597 704.026 5.87605C711.761 5.90139 717.692 9.59368 722.907 12.8374C727.817 15.883 732.045 18.5256 737.486 18.5479C737.657 18.5428 737.828 18.5376 737.997 18.5535C738.168 18.5483 738.34 18.5432 738.492 18.5362C738.815 18.5242 739.141 18.4911 739.466 18.458C739.792 18.4249 740.101 18.3691 740.428 18.315C741.064 18.205 741.685 18.0513 742.309 17.8766C742.582 17.7962 742.873 17.7176 743.148 17.6162C743.325 17.548 743.5 17.5008 743.678 17.4326C744.855 17.0131 746.023 16.4867 747.18 15.8746C747.798 15.551 748.437 15.2083 749.059 14.8427C749.359 14.68 749.661 14.4963 749.96 14.3337C750.722 13.8964 751.486 13.4381 752.27 12.9606C755.948 10.7409 759.985 8.34275 764.656 7.06377C764.948 6.98514 765.24 6.90652 765.55 6.82966C765.59 6.81217 765.627 6.81568 765.686 6.79995C766.422 6.63579 767.177 6.47338 767.944 6.37577C768.174 6.35488 768.386 6.31124 768.616 6.29036C768.731 6.27992 768.845 6.26947 768.979 6.26079C769.208 6.23991 769.438 6.21903 769.668 6.19815C769.897 6.17727 770.143 6.17916 770.373 6.15828C770.734 6.14973 771.095 6.14118 771.456 6.13263C779.191 6.15796 785.124 9.82925 790.337 13.0939C795.247 16.1396 799.475 18.7822 804.916 18.8045C810.338 18.8251 814.696 16.224 819.721 13.1979C825.085 9.99166 831.154 6.34283 838.888 6.36817C846.623 6.3935 852.554 10.0858 857.769 13.3295C862.68 16.3752 866.907 19.0178 872.348 19.0401C877.77 19.0606 882.129 16.4596 887.153 13.4335C892.517 10.2272 898.586 6.5784 906.321 6.60374C914.055 6.62907 919.986 10.3214 925.201 13.5651C930.112 16.6107 934.339 19.2533 939.78 19.2756C945.202 19.2962 949.561 16.6951 954.604 13.6708C959.968 10.4645 966.036 6.81573 973.771 6.84107C981.506 6.8664 987.439 10.5377 992.652 13.8024C997.563 16.848 1001.79 19.4907 1007.23 19.513C1012.65 19.5335 1017.01 16.9325 1022.04 13.9064C1024.03 12.7152 1026.11 11.4697 1028.36 10.3662L1027.52 19.3307C1027.16 19.5301 1026.82 19.7523 1026.46 19.9727C1021.09 23.1789 1015.02 26.8277 1007.29 26.8024C999.553 26.777 993.622 23.0848 988.407 19.8411C983.496 16.7954 979.268 14.1528 973.828 14.1305C968.406 14.11 964.047 16.711 959.023 19.7371C953.659 22.9433 947.59 26.5921 939.855 26.5668C932.121 26.5415 926.19 22.8492 920.975 19.6055C916.064 16.5598 911.837 13.9172 906.396 13.8949C900.974 13.8744 896.615 16.4754 891.591 19.5015C886.227 22.7078 880.158 26.3566 872.423 26.3313C864.688 26.3059 858.757 22.6136 853.543 19.37C848.632 16.3243 844.404 13.6817 838.964 13.6594C833.542 13.6388 829.183 16.2399 824.14 19.2642C818.776 22.4705 812.707 26.1193 804.972 26.0939C798.906 26.0765 793.96 23.8117 789.59 21.2618C788.403 20.5783 787.238 19.8546 786.092 19.1326C781.181 16.087 776.953 13.4444 771.513 13.4221C771.342 13.4272 771.171 13.4324 771.001 13.4165C769.651 13.4595 768.381 13.6584 767.138 13.9659C766.828 14.0427 766.534 14.1424 766.223 14.2192C766.067 14.2682 765.911 14.3171 765.754 14.366C762.718 15.3956 759.845 17.1185 756.691 19.0059C755.185 19.9032 753.616 20.8583 751.98 21.7223C750.342 22.6073 748.616 23.4204 746.808 24.0988C746.199 24.3173 745.591 24.5358 744.947 24.7297C744.733 24.7944 744.537 24.8608 744.324 24.9045C744.013 24.9814 743.682 25.0775 743.371 25.1543C743.255 25.1858 743.159 25.198 743.042 25.2294C742.829 25.2731 742.617 25.3167 742.404 25.3604C741.96 25.4459 741.515 25.5315 741.054 25.5942C740.863 25.6186 740.652 25.6413 740.46 25.6657C740.287 25.6918 740.097 25.6952 739.924 25.7214C739.771 25.7283 739.617 25.7562 739.465 25.7632C739.024 25.8067 738.567 25.8275 738.131 25.829C737.941 25.8324 737.751 25.8357 737.561 25.8391C729.826 25.8138 723.895 22.1215 718.681 18.8778C713.77 15.8321 709.542 13.1895 704.102 13.1672C703.761 13.1565 703.438 13.1686 703.112 13.2017C703.093 13.2 703.093 13.2 703.075 13.1982C702.751 13.2103 702.426 13.2433 702.119 13.2782C701.965 13.3061 701.793 13.3113 701.639 13.3392C701.485 13.3671 701.351 13.3758 701.197 13.4037C701.08 13.4352 700.947 13.4439 700.83 13.4753C700.327 13.5766 699.823 13.6989 699.316 13.8421C695.927 14.7962 692.773 16.6836 689.297 18.7738C683.933 21.9801 677.864 25.6289 670.11 25.6018C667.517 25.5496 665.206 24.7185 662.991 24.066Z" fill="#FFF7E1"/>
<path d="M662.559 42.2468L663.257 34.7949C665.27 35.5769 667.35 36.0473 669.644 36.0503C675.066 36.0709 679.424 33.4698 684.468 30.4455C688.084 28.2835 692.022 25.9186 696.562 24.6273C698.94 23.9388 701.264 23.6267 703.633 23.6368C711.368 23.6621 717.299 27.3544 722.514 30.5981C727.424 33.6437 731.652 36.2863 737.093 36.3086C737.264 36.3035 737.435 36.2983 737.604 36.3142C737.776 36.309 737.947 36.3039 738.099 36.297C738.423 36.2849 738.748 36.2518 739.074 36.2187C739.399 36.1856 739.708 36.1298 740.035 36.0757C740.671 35.9657 741.292 35.812 741.916 35.6373C742.189 35.5569 742.48 35.4783 742.755 35.3769C742.933 35.3087 743.108 35.2615 743.285 35.1933C744.462 34.7738 745.63 34.2475 746.787 33.6353C747.406 33.3118 748.044 32.969 748.667 32.6034C748.966 32.4407 749.268 32.2571 749.568 32.0944C750.329 31.6571 751.093 31.1988 751.877 30.7213C755.555 28.5016 759.592 26.1035 764.263 24.8245C764.555 24.7459 764.847 24.6672 765.157 24.5904C765.197 24.5729 765.234 24.5764 765.293 24.5607C766.029 24.3965 766.784 24.2341 767.551 24.1365C767.781 24.1156 767.994 24.072 768.223 24.0511C768.338 24.0406 768.453 24.0302 768.586 24.0215C768.816 24.0006 769.045 23.9797 769.275 23.9589C769.504 23.938 769.751 23.9399 769.98 23.919C770.341 23.9104 770.702 23.9019 771.063 23.8933C778.798 23.9187 784.731 27.59 789.944 30.8546C794.855 33.9003 799.083 36.5429 804.523 36.5652C809.945 36.5858 814.304 33.9847 819.328 30.9586C824.692 27.7524 830.761 24.1035 838.496 24.1289C846.23 24.1542 852.161 27.8465 857.376 31.0902C862.287 34.1359 866.515 36.7785 871.955 36.8008C877.377 36.8213 881.736 34.2203 886.76 31.1942C892.124 27.9879 898.193 24.3391 905.928 24.3644C913.663 24.3898 919.594 28.0821 924.808 31.3258C929.719 34.3714 933.947 37.014 939.387 37.0363C944.809 37.0569 949.168 34.4558 954.211 31.4315C959.575 28.2252 965.644 24.5764 973.379 24.6018C981.113 24.6271 987.047 28.2984 992.259 31.5631C997.17 34.6088 1001.4 37.2514 1006.84 37.2737C1012.26 37.2942 1016.62 34.6932 1021.64 31.6671C1023.63 30.4759 1025.72 29.2305 1027.97 28.1269L1027.13 37.0914C1026.77 37.2908 1026.42 37.513 1026.06 37.7334C1020.7 40.9396 1014.63 44.5884 1006.89 44.5631C999.16 44.5378 993.229 40.8455 988.014 37.6018C983.104 34.5561 978.876 31.9135 973.435 31.8912C968.013 31.8707 963.655 34.4717 958.63 37.4978C953.266 40.7041 947.197 44.3529 939.463 44.3275C931.728 44.3022 925.797 40.6099 920.582 37.3662C915.671 34.3205 911.444 31.6779 906.003 31.6556C900.581 31.6351 896.222 34.2361 891.198 37.2622C885.834 40.4685 879.765 44.1173 872.031 44.092C864.296 44.0666 858.365 40.3744 853.15 37.1307C848.239 34.085 844.011 31.4424 838.571 31.4201C833.149 31.3996 828.79 34.0006 823.747 37.0249C818.383 40.2312 812.314 43.88 804.58 43.8547C798.513 43.8373 793.567 41.5724 789.198 39.0225C788.01 38.3391 786.845 37.6153 785.699 36.8933C780.788 33.8477 776.561 31.2051 771.12 31.1828C770.949 31.1879 770.778 31.1931 770.609 31.1772C769.258 31.2203 767.988 31.4191 766.745 31.7266C766.435 31.8034 766.141 31.9031 765.83 31.9799C765.674 32.0289 765.518 32.0778 765.361 32.1267C762.326 33.1563 759.452 34.8792 756.298 36.7666C754.792 37.6639 753.223 38.619 751.587 39.483C749.949 40.368 748.223 41.1812 746.415 41.8595C745.807 42.078 745.198 42.2965 744.554 42.4905C744.34 42.5551 744.144 42.6216 743.931 42.6652C743.62 42.7421 743.289 42.8382 742.978 42.915C742.862 42.9465 742.766 42.9587 742.649 42.9901C742.436 43.0338 742.224 43.0774 742.011 43.1211C741.567 43.2066 741.123 43.2922 740.662 43.3549C740.47 43.3793 740.259 43.402 740.067 43.4264C739.894 43.4526 739.704 43.4559 739.531 43.4821C739.378 43.489 739.224 43.517 739.072 43.5239C738.631 43.5674 738.174 43.5882 737.738 43.5897C737.548 43.5931 737.358 43.5964 737.168 43.5998C729.433 43.5745 723.502 39.8822 718.288 36.6385C713.377 33.5929 709.149 30.9503 703.709 30.928C703.368 30.9173 703.045 30.9294 702.719 30.9624C702.701 30.9607 702.701 30.9607 702.682 30.9589C702.358 30.971 702.033 31.0041 701.726 31.0389C701.572 31.0668 701.401 31.072 701.246 31.0999C701.092 31.1278 700.958 31.1365 700.804 31.1644C700.687 31.1959 700.554 31.2046 700.437 31.236C699.935 31.3373 699.43 31.4596 698.923 31.6029C695.534 32.5569 692.38 34.4443 688.904 36.5345C683.54 39.7408 677.471 43.3896 669.717 43.3625C667.124 43.3103 664.773 42.8993 662.559 42.2468Z" fill="#FFF7E1"/>
</svg>
