<svg width="595" height="584" viewBox="0 0 595 584" fill="none" xmlns="http://www.w3.org/2000/svg">
<path d="M594.825 546.596V583.761C589.893 577.811 584.294 572.704 577.139 568.664C562.431 560.405 547.234 560.227 529.637 560.05C510.885 559.828 489.644 559.606 468.67 547.839C447.696 536.072 436.409 518.089 426.5 502.193C417.169 487.274 409.081 474.397 394.373 466.138C390.862 464.185 387.352 462.675 383.797 461.52L400.105 437.721C402.771 438.875 405.482 440.163 408.148 441.673C429.122 453.439 440.409 471.422 450.318 487.318C459.65 502.238 467.737 515.114 482.446 523.373C497.154 531.632 512.351 531.81 529.948 531.987C548.7 532.209 569.941 532.431 590.915 544.198C592.203 544.997 593.536 545.796 594.825 546.596Z" fill="#302D97"/>
<path d="M594.824 477.24V505.924C584.47 503.26 573.628 503.126 561.63 503.038C542.878 502.816 521.637 502.594 500.664 490.827C479.69 479.06 468.403 461.077 458.493 445.181C449.162 430.262 441.074 417.385 426.366 409.126C411.658 400.867 396.46 400.69 378.864 400.512C360.111 400.29 338.871 400.068 317.897 388.301C296.923 376.535 285.636 358.552 275.727 342.656C269.061 332.043 263.063 322.452 254.842 314.815L270.794 291.504C283.592 302.338 291.946 315.659 299.5 327.781C308.832 342.7 316.919 355.577 331.628 363.836C346.336 372.094 361.533 372.272 379.13 372.45C397.882 372.672 419.123 372.894 440.097 384.66C461.071 396.427 472.313 414.41 482.267 430.306C491.598 445.226 499.686 458.102 514.394 466.361C529.103 474.62 544.3 474.798 561.897 474.975C572.295 475.064 583.404 475.197 594.824 477.24Z" fill="#302D97"/>
<path d="M594.824 417.917V445.98C594.469 445.98 594.069 445.98 593.713 445.98C574.961 445.758 553.721 445.536 532.747 433.769C511.773 422.002 500.53 404.019 490.577 388.123C481.245 373.204 473.158 360.327 458.494 352.068C443.785 343.809 428.588 343.676 410.947 343.454C392.195 343.232 370.954 343.01 349.98 331.243C329.006 319.477 317.719 301.494 307.81 285.598C298.478 270.678 290.391 257.802 275.683 249.543C260.974 241.284 245.777 241.106 228.136 240.929C209.384 240.707 188.143 240.485 167.169 228.718C146.195 216.951 134.953 198.968 124.999 183.072C115.667 168.153 107.58 155.276 92.8716 147.017C79.7629 139.647 65.6766 138.758 52.4346 138.492L53.0123 110.43C69.0982 110.785 87.8503 111.984 106.647 122.507C127.621 134.274 138.863 152.257 148.817 168.153C158.149 183.072 166.192 195.949 180.944 204.208C195.653 212.467 210.85 212.644 228.491 212.822C247.243 213.044 268.484 213.266 289.458 225.033C310.432 236.799 321.719 254.782 331.628 270.678C340.96 285.598 349.047 298.474 363.755 306.733C378.464 314.992 393.661 315.125 411.302 315.347C430.054 315.569 451.295 315.791 472.269 327.558C493.243 339.325 504.485 357.308 514.439 373.204C523.771 388.123 531.814 401 546.566 409.259C561.275 417.518 576.472 417.695 594.069 417.873C594.291 417.873 594.558 417.917 594.824 417.917Z" fill="#302D97"/>
<path d="M594.825 358.373V386.924C584.96 385.326 574.829 382.351 564.786 376.712C543.812 364.945 532.57 346.962 522.616 331.066C513.284 316.147 505.197 303.27 490.489 295.011C475.78 286.752 460.583 286.575 442.986 286.397C424.234 286.175 402.993 285.953 382.02 274.186C361.046 262.42 349.759 244.437 339.849 228.54C333.006 217.573 326.83 207.716 318.209 199.99L334.162 176.723C347.404 187.69 355.935 201.322 363.667 213.666C372.999 228.585 381.042 241.462 395.795 249.72C410.503 257.979 425.7 258.157 443.297 258.335C462.049 258.557 483.29 258.779 504.264 270.545C525.238 282.312 536.48 300.295 546.434 316.191C555.766 331.11 563.809 343.987 578.561 352.246C583.894 355.176 589.271 357.13 594.825 358.373Z" fill="#302D97"/>
<path d="M594.825 282.311V318.455C575.139 306.688 564.297 289.371 554.654 274.008C545.323 259.089 537.235 246.212 522.527 237.953C507.818 229.694 492.621 229.517 475.024 229.339C456.272 229.117 435.032 228.895 414.058 217.128C393.084 205.362 381.841 187.378 371.888 171.482C362.556 156.563 354.469 143.686 339.76 135.428C325.052 127.169 309.854 126.991 292.258 126.813C273.506 126.591 252.265 126.369 231.291 114.603C210.317 102.836 199.03 84.853 189.121 68.9569C179.789 54.0377 171.702 41.1609 156.994 32.902C142.285 24.6432 127.088 24.4656 109.447 24.288C90.6945 24.0659 69.454 23.8439 48.48 12.0773C27.5061 0.31059 16.2193 -17.6724 6.30996 -33.5685C4.22146 -36.8987 2.13294 -40.2289 0 -43.4703L23.4179 -58.9668C25.7286 -55.5034 27.9504 -51.9512 30.1723 -48.399C39.5039 -33.4797 47.5913 -20.603 62.2997 -12.3441C77.0081 -4.08526 92.2054 -3.90765 109.802 -3.73004C128.554 -3.50803 149.795 -3.28602 170.769 8.48065C191.743 20.2473 203.03 38.2304 212.939 54.1265C222.27 69.0457 230.358 81.9224 245.066 90.1813C259.775 98.4402 274.972 98.5734 292.569 98.7954C311.321 98.973 332.561 99.2394 353.535 111.006C374.509 122.773 385.752 140.756 395.705 156.652C405.037 171.571 413.124 184.448 427.833 192.707C442.541 200.966 457.739 201.143 475.335 201.321C494.087 201.498 515.328 201.765 536.302 213.532C557.276 225.298 568.518 243.281 578.472 259.177C583.849 267.658 588.781 275.562 594.825 282.311Z" fill="#302D97"/>
<path d="M594.824 179.164V229.472C591.936 225.254 589.27 220.991 586.737 216.906C577.405 201.987 569.318 189.11 554.609 180.851C539.901 172.592 524.704 172.415 507.107 172.237C488.355 172.015 467.114 171.793 446.14 160.027C425.166 148.26 413.924 130.277 403.97 114.381C394.639 99.4615 386.551 86.5847 371.843 78.3259C357.134 70.067 341.937 69.8894 324.34 69.7118C305.588 69.4898 284.348 69.2678 263.374 57.5011C242.4 45.7344 231.113 27.7514 221.204 11.8553C211.872 -3.06399 203.785 -15.9407 189.076 -24.1996C174.368 -32.4585 159.17 -32.6361 141.574 -32.8137C122.822 -33.0357 101.581 -33.2577 80.607 -45.0244C74.1638 -48.6654 68.3426 -52.9724 62.877 -58.2563L82.3401 -78.5039C86.0727 -74.9073 90.0276 -71.9767 94.3379 -69.5346C109.046 -61.2757 124.244 -61.0981 141.84 -60.9205C160.592 -60.6985 181.833 -60.4765 202.807 -48.7098C223.781 -36.9431 235.023 -18.9601 244.977 -3.06399C254.309 11.8553 262.396 24.732 277.104 32.9909C291.813 41.2497 307.01 41.4274 324.607 41.605C343.359 41.827 364.6 42.049 385.574 53.8157C406.547 65.5823 417.79 83.5654 427.744 99.4615C437.075 114.381 445.163 127.257 459.871 135.516C474.58 143.775 489.777 143.953 507.373 144.13C526.126 144.352 547.366 144.574 568.34 156.341C579.494 162.646 587.892 170.639 594.824 179.164Z" fill="#302D97"/>
<path d="M594.825 96.443V129.301C592.336 127.258 589.626 125.393 586.649 123.751C571.94 115.492 556.743 115.314 539.146 115.136C520.394 114.914 499.153 114.692 478.18 102.926C457.206 91.1591 445.919 73.1761 436.009 57.28C426.678 42.3607 418.59 29.484 403.882 21.2251C389.174 12.9662 373.976 12.7886 356.38 12.611C337.627 12.389 316.387 12.167 295.413 0.400318C274.439 -11.3664 263.152 -29.3494 253.243 -45.2455C243.911 -60.1647 235.868 -73.0415 221.115 -81.3004C213.472 -85.6074 205.296 -88.0051 194.587 -89.0708L197.431 -117C211.962 -115.535 223.826 -111.983 234.891 -105.766C255.865 -93.9995 267.107 -76.0165 277.061 -60.1203C286.392 -45.2011 294.48 -32.3244 309.188 -24.0655C323.897 -15.8066 339.094 -15.629 356.735 -15.4514C375.487 -15.2294 396.728 -15.0074 417.702 -3.2407C438.676 8.52598 449.918 26.509 459.872 42.4051C469.203 57.3244 477.291 70.2011 491.999 78.46C506.708 86.7188 521.905 86.8964 539.502 87.074C556.521 87.2961 575.673 87.5181 594.825 96.443Z" fill="#302D97"/>
</svg>
