<svg width="302" height="209" viewBox="0 0 302 209" fill="none" xmlns="http://www.w3.org/2000/svg">
<path d="M82.0016 145.445C72.9759 150.646 68.0709 158.481 63.7581 165.418C59.6463 172.008 56.0828 177.697 49.602 181.345C43.1211 184.994 36.4248 185.072 28.6712 185.151L28.6082 185.151C20.361 185.249 11.026 185.36 1.80786 190.545C1.52385 190.721 1.23494 190.898 0.946045 191.075C0.657333 191.251 0.368637 191.428 0.0848389 191.604V208.022C2.25818 205.394 4.72523 203.138 7.87758 201.353C14.3585 197.704 21.0547 197.626 28.8083 197.548L28.8714 197.547C37.1186 197.449 46.4536 197.338 55.6717 192.153C64.9133 186.955 69.8866 179.011 74.2528 171.989C78.3646 165.398 81.9281 159.709 88.409 156.061C88.6219 155.942 88.8348 155.827 89.0478 155.716C95.2697 152.511 101.722 152.436 109.143 152.361L109.206 152.36C117.453 152.262 126.788 152.151 136.006 146.966C145.248 141.768 150.221 133.824 154.587 126.802C158.699 120.211 162.262 114.523 168.743 110.874C170.29 110.011 171.837 109.344 173.403 108.834L166.218 98.3203C165.043 98.8303 163.848 99.3992 162.674 100.066C153.432 105.264 148.459 113.208 144.092 120.231C139.981 126.821 136.417 132.51 129.936 136.158C123.455 139.807 116.759 139.885 109.006 139.964L108.942 139.964C101.812 140.049 93.8687 140.143 85.8907 143.518L85.8832 143.507C84.8697 143.947 83.8416 144.431 82.8242 144.984C82.5968 145.105 82.3695 145.23 82.1422 145.358C82.0955 145.387 82.0486 145.416 82.0016 145.445Z" fill="#2F2C96"/>
<path d="M116.924 110.355C116.64 110.53 116.35 110.7 116.054 110.867C109.574 114.515 102.877 114.594 95.1237 114.672L95.0606 114.673C86.8134 114.771 77.4784 114.882 68.2603 120.066C59.031 125.258 54.0782 133.188 49.6967 140.203L49.6792 140.231C45.5674 146.822 42.0039 152.51 35.523 156.159C29.0421 159.807 22.3458 159.886 14.5923 159.964C10.0106 160.003 5.11569 160.062 0.0836945 160.964V173.636C4.64577 172.459 9.42322 172.4 14.7097 172.361L14.7728 172.36C23.02 172.262 32.355 172.152 41.5731 166.967C50.8148 161.769 55.788 153.824 60.1543 146.802C64.266 140.211 67.8295 134.523 74.3104 130.874C76.2234 129.798 78.1551 129.032 80.1272 128.485V128.652C84.6892 127.475 89.4667 127.417 94.7532 127.377L94.8163 127.377C103.063 127.279 112.398 127.168 121.617 121.983C122.265 121.618 122.892 121.24 123.5 120.85C131.857 115.66 136.544 108.171 140.686 101.51L140.749 101.409C143.661 96.7609 146.292 92.5608 149.888 89.2114L149.832 89.1285C151.183 87.9248 152.67 86.8389 154.354 85.8908C160.835 82.2423 167.531 82.1639 175.285 82.0854L175.348 82.0847C183.595 81.9868 192.93 81.876 202.148 76.6912C211.39 71.4931 216.363 63.5489 220.729 56.5266L220.793 56.4249C223.704 51.7773 226.336 47.5772 229.932 44.2277L222.903 33.9297C217.264 38.7158 213.583 44.6005 210.254 49.9554C206.142 56.5462 202.579 62.2347 196.098 65.8831C189.617 69.5316 182.921 69.61 175.167 69.6885L175.104 69.6893C166.857 69.7871 157.522 69.8979 148.304 75.0827C139.074 80.2739 134.122 88.2039 129.74 95.2192L129.723 95.2473C125.907 101.363 122.564 106.702 116.924 110.355Z" fill="#2F2C96"/>
<path d="M0.0852966 134.764V147.161C0.241943 147.161 0.418152 147.161 0.574799 147.161C8.83743 147.063 18.1965 146.965 27.4382 141.767C36.6798 136.569 41.6332 128.625 46.0191 121.602C50.1308 115.012 53.6944 109.323 60.1557 105.675C66.6366 102.026 73.3328 101.967 81.106 101.869C89.3686 101.771 98.7277 101.673 107.969 96.4752C117.211 91.2771 122.184 83.3329 126.55 76.3106C130.662 69.7198 134.226 64.0313 140.707 60.3829C147.188 56.7344 153.884 56.656 161.657 56.5775C169.92 56.4794 179.279 56.3813 188.52 51.1833C197.762 45.9852 202.716 38.041 207.102 31.0187C211.213 24.4279 214.777 18.7394 221.258 15.091C227.034 11.8348 233.241 11.4425 239.075 11.3248L238.821 -1.07211C231.733 -0.915184 223.47 -0.385582 215.188 4.26326C205.946 9.46133 200.993 17.4056 196.607 24.4279C192.495 31.0187 188.951 36.7071 182.451 40.3556C175.97 44.004 169.273 44.0825 161.5 44.161C153.238 44.259 143.879 44.3571 134.637 49.5552C125.395 54.7533 120.422 62.6975 116.056 69.7198C111.944 76.3106 108.38 81.999 101.9 85.6475C95.4187 89.2959 88.7225 89.3548 80.9493 89.4529C72.6867 89.5509 63.3276 89.649 54.0859 94.8471C44.8443 100.045 39.8907 107.989 35.5049 115.012C31.3932 121.602 27.8494 127.291 21.3489 130.939C14.868 134.588 8.17169 134.666 0.418121 134.745C0.320221 134.745 0.202789 134.764 0.0852966 134.764Z" fill="#2F2C96"/>
<path d="M80.0871 89.4232V101.82C80.2438 101.82 80.42 101.82 80.5766 101.82C88.8393 101.722 98.1984 101.624 107.44 96.4259C116.682 91.2278 121.635 83.2836 126.021 76.2613C130.133 69.6705 133.696 63.9821 140.158 60.3336C146.639 56.6852 153.335 56.6263 161.108 56.5282C169.371 56.4301 178.73 56.3321 187.972 51.134C197.213 45.9359 202.186 37.9917 206.553 30.9694C210.664 24.3786 214.228 18.6901 220.709 15.0417C227.19 11.3932 233.886 11.3148 241.659 11.2363C249.922 11.1382 259.281 11.0401 268.522 5.84208C277.764 0.644005 282.718 -7.30022 287.104 -14.3225C291.215 -20.9133 294.779 -26.6017 301.26 -30.2502L295.19 -41.0781C285.948 -35.8801 280.995 -27.9356 276.609 -20.9133C272.497 -14.3225 268.953 -8.63407 262.453 -4.98561C255.972 -1.33715 249.276 -1.25869 241.503 -1.18023C233.24 -1.08215 223.881 -0.984077 214.639 4.214C205.397 9.41207 200.424 17.3563 196.058 24.3786C191.946 30.9694 188.383 36.6579 181.902 40.3063C175.421 43.9548 168.725 44.0136 160.951 44.1117C152.689 44.2098 143.33 44.3079 134.088 49.5059C124.846 54.704 119.893 62.6482 115.507 69.6705C111.395 76.2613 107.851 81.9497 101.351 85.5982C94.8698 89.2467 88.1736 89.3251 80.42 89.4036C80.3221 89.4036 80.2046 89.4232 80.0871 89.4232Z" fill="#2F2C96"/>
<path d="M195.798 -17.1658L195.725 -17.272C189.897 -12.432 186.139 -6.41768 182.735 -0.969147L182.71 -0.929096C178.605 5.65196 175.061 11.3315 168.568 14.9757C163.066 18.0732 157.409 18.5975 151.081 18.7332C150.021 18.7546 148.942 18.7657 147.843 18.7768L147.779 18.7776C146.739 18.7899 145.682 18.8025 144.609 18.8254C137.124 18.9766 128.904 19.6027 120.774 24.1753C118.614 25.3904 116.688 26.7556 114.949 28.224L114.939 28.2096C109.11 33.0495 105.353 39.0639 101.949 44.5124L101.924 44.5525C98.4633 50.099 95.4026 55.0051 90.6389 58.5921C89.8245 59.1896 88.9606 59.7492 88.037 60.2676C87.3137 60.6661 86.5886 61.0593 85.8599 61.4286C84.2882 62.1035 82.6992 62.6059 81.0757 62.9703V63.078C76.6337 64.159 71.9731 64.2109 66.851 64.2627L66.788 64.2634C58.5408 64.3613 49.2058 64.4721 39.9876 69.6569C30.7583 74.8481 25.8055 82.7781 21.424 89.7935L21.3922 89.8443C17.2866 96.4254 13.7432 102.105 7.25034 105.749C4.90073 107.044 2.53162 107.907 0.084137 108.456V121.069C4.43082 120.363 8.89502 119.048 13.32 116.557C22.5494 111.366 27.5022 103.436 31.8837 96.4207L31.9012 96.3927C36.013 89.8019 39.5765 84.1134 46.0573 80.465C52.5382 76.8165 59.2345 76.7381 66.9881 76.6596L67.0511 76.6589C74.2544 76.5734 82.2875 76.4781 90.3479 73.0006C91.6698 72.4521 92.9924 71.814 94.3116 71.0714C103.541 65.8802 108.494 57.9502 112.875 50.9348L112.893 50.9068C117.004 44.316 120.568 38.6276 127.049 34.9791C132.551 31.8815 138.209 31.3573 144.537 31.2216C145.597 31.2003 146.675 31.1891 147.775 31.178L147.838 31.1773C148.878 31.1649 149.935 31.1524 151.007 31.1295C158.493 30.9783 166.713 30.3522 174.843 25.7795C176.341 24.9371 177.726 24.0226 179.015 23.0516C185.817 18.0142 189.945 11.4046 193.662 5.45316L193.679 5.42522C197.791 -1.16554 201.355 -6.85401 207.836 -10.5025C214.316 -14.1509 221.013 -14.2294 228.766 -14.3078L228.829 -14.3086C237.076 -14.4065 246.411 -14.5172 255.63 -19.7021C264.871 -24.9001 269.844 -32.8444 274.211 -39.8667C277.226 -44.7117 279.948 -49.0663 283.746 -52.4794L276.717 -62.7578C270.888 -57.9179 267.131 -51.9035 263.727 -46.455L263.702 -46.4149C259.596 -39.8339 256.053 -34.1544 249.56 -30.5102C243.079 -26.8617 236.383 -26.7832 228.629 -26.7048L228.566 -26.704C220.319 -26.6062 210.984 -26.4954 201.766 -21.3105C199.605 -20.0954 197.679 -18.7302 195.94 -17.2618L195.93 -17.2762C195.886 -17.2395 195.842 -17.2027 195.798 -17.1658Z" fill="#2F2C96"/>
<path d="M0.0854492 74.8575V90.8244C8.75928 85.6263 13.5367 77.9763 17.7855 71.1894C21.8973 64.5986 25.4608 58.9102 31.9417 55.2617C38.4225 51.6133 45.1188 51.5348 52.8724 51.4563C61.135 51.3583 70.4942 51.2602 79.7358 46.0621C88.9774 40.8641 93.9311 32.9198 98.3169 25.8975C102.429 19.3067 105.992 13.6183 112.473 9.96983C118.954 6.32138 125.65 6.24291 133.404 6.16445C141.666 6.06638 151.026 5.9683 160.267 0.770226C169.509 -4.42785 174.482 -12.3721 178.848 -19.3944C182.96 -25.9851 186.524 -31.6736 193.005 -35.3221C199.485 -38.9705 206.182 -39.049 213.955 -39.1274C222.217 -39.2255 231.577 -39.3236 240.818 -44.5217C250.06 -49.7197 255.033 -57.664 259.399 -64.6863C260.32 -66.1574 261.24 -67.6286 262.18 -69.0605L251.861 -75.9062C250.843 -74.3763 249.864 -72.807 248.885 -71.2378C244.773 -64.647 241.21 -58.9586 234.729 -55.3101C228.248 -51.6617 221.552 -51.5832 213.798 -51.5047C205.536 -51.4067 196.176 -51.3086 186.935 -46.1105C177.693 -40.9124 172.72 -32.9682 168.354 -25.9459C164.242 -19.3551 160.678 -13.6667 154.197 -10.0182C147.717 -6.36977 141.02 -6.31092 133.267 -6.21284C125.004 -6.13438 115.645 -6.01669 106.403 -0.818619C97.1617 4.37946 92.2081 12.3237 87.8222 19.346C83.7105 25.9367 80.147 31.6252 73.6661 35.2737C67.1852 38.9221 60.4889 39.0006 52.7354 39.079C44.4727 39.1575 35.1136 39.2752 25.8719 44.4733C16.6303 49.6713 11.6767 57.6156 7.2908 64.6379C4.92166 68.3844 2.74829 71.8759 0.0854492 74.8575Z" fill="#2F2C96"/>
<path d="M0.0856934 29.2889V51.5131C1.35837 49.6497 2.53314 47.7666 3.64919 45.962C7.76094 39.3712 11.3244 33.6828 17.8053 30.0343C24.2862 26.3858 30.9825 26.3074 38.7361 26.2289C46.9987 26.1308 56.3578 26.0328 65.5995 20.8347C74.8411 15.6366 79.7948 7.69241 84.1806 0.670105C88.2924 -5.92066 91.8559 -11.6091 98.3368 -15.2576C104.818 -18.906 111.514 -18.9845 119.267 -19.063C127.53 -19.161 136.889 -19.2591 146.131 -24.4572C155.373 -29.6553 160.346 -37.5995 164.712 -44.6218C168.824 -51.2125 172.387 -56.901 178.868 -60.5495C185.349 -64.1979 192.045 -64.2764 199.799 -64.3548C208.062 -64.4529 217.421 -64.551 226.662 -69.7491C229.501 -71.3575 232.066 -73.2602 234.475 -75.5945L225.899 -84.5391C224.254 -82.9502 222.511 -81.6556 220.612 -80.5768C214.131 -76.9283 207.435 -76.8498 199.681 -76.7714C191.419 -76.6733 182.06 -76.5752 172.818 -71.3771C163.576 -66.1791 158.623 -58.2349 154.237 -51.2126C150.125 -44.6218 146.562 -38.9333 140.081 -35.2849C133.6 -31.6364 126.904 -31.5579 119.15 -31.4795C110.887 -31.3814 101.528 -31.2833 92.2866 -26.0853C83.045 -20.8872 78.0913 -12.943 73.7055 -5.92065C69.5937 0.670105 66.0302 6.35857 59.5493 10.007C53.0684 13.6555 46.3722 13.7339 38.6186 13.8124C30.356 13.9105 20.9968 14.0086 11.7552 19.2066C6.8407 21.992 3.14012 25.5228 0.0856934 29.2889Z" fill="#2F2C96"/>
<path d="M0.0858154 -7.25581V7.25956C1.18228 6.35725 2.37665 5.53341 3.68849 4.80764C10.1694 1.15918 16.8657 1.08072 24.6192 1.00225C32.8819 0.904175 42.241 0.806099 51.4826 -4.39198C60.7242 -9.59004 65.6975 -17.5343 70.0638 -24.5566C74.1755 -31.1473 77.739 -36.8358 84.2199 -40.4842C90.7008 -44.1327 97.3971 -44.2112 105.151 -44.2896C113.413 -44.3877 122.772 -44.4858 132.014 -49.6838C141.256 -54.8819 146.229 -62.8261 150.595 -69.8484C154.707 -76.4392 158.251 -82.1277 164.751 -85.7761C168.119 -87.6788 171.722 -88.738 176.44 -89.2088L175.187 -101.547C168.785 -100.9 163.557 -99.3303 158.682 -96.5842C149.44 -91.3861 144.486 -83.4419 140.1 -76.4196C135.989 -69.8288 132.425 -64.1404 125.944 -60.4919C119.463 -56.8435 112.767 -56.765 104.994 -56.6865C96.7314 -56.5885 87.3722 -56.4904 78.1306 -51.2923C68.889 -46.0942 63.9353 -38.15 59.5494 -31.1277C55.4377 -24.5369 51.8742 -18.8485 45.3933 -15.2C38.9124 -11.5516 32.2162 -11.4731 24.4626 -11.3947C16.9635 -11.2966 8.52467 -11.1985 0.0858154 -7.25581Z" fill="#2F2C96"/>
</svg>
