<svg width="1440" height="211" viewBox="0 0 1440 211" fill="none" xmlns="http://www.w3.org/2000/svg">
<path d="M679.016 0.0016098L633.281 202.896C638.732 205.222 644.711 206.857 651.579 206.796C665.039 206.841 675.614 200.519 684.959 194.933L685.085 194.858C693.868 189.568 701.488 185.021 710.965 185.057C720.418 185.096 727.777 189.66 736.295 194.943L736.45 195.039L736.467 195.05C745.578 200.717 755.942 207.164 769.455 207.208C776.578 207.246 783.433 205.554 791.032 201.932L791.006 201.855C793.674 200.623 796.192 199.229 798.611 197.826L800.4 196.771C800.716 196.578 800.997 196.419 801.313 196.226C801.611 196.051 801.901 195.874 802.19 195.698C802.481 195.521 802.771 195.345 803.07 195.169C803.353 194.973 803.633 194.814 803.913 194.655C804.161 194.493 804.441 194.334 804.721 194.175C804.95 194.029 805.186 193.894 805.423 193.759C805.659 193.624 805.896 193.488 806.125 193.343C806.385 193.193 806.641 193.043 806.894 192.895C807.286 192.665 807.67 192.439 808.052 192.227C808.153 192.169 808.256 192.108 808.362 192.046C808.658 191.872 808.969 191.689 809.278 191.527C813.789 189.023 818.295 186.926 823.092 185.967C824.984 185.589 826.925 185.4 828.979 185.408C838.432 185.446 845.791 190.01 854.309 195.294L854.464 195.39C863.576 201.097 873.948 207.515 887.469 207.559C900.929 207.603 911.504 201.282 920.849 195.695L920.975 195.62C929.758 190.33 937.377 185.783 946.855 185.819C956.308 185.858 963.667 190.422 972.185 195.706L972.34 195.802C981.452 201.509 991.823 207.926 1005.34 207.971C1018.8 208.015 1029.38 201.694 1038.72 196.107L1038.85 196.032C1047.63 190.742 1055.25 186.195 1064.73 186.231C1074.18 186.27 1081.54 190.834 1090.06 196.117L1090.22 196.214C1099.33 201.92 1109.7 208.338 1123.22 208.382C1136.68 208.427 1147.25 202.105 1156.6 196.519L1156.73 196.444C1165.51 191.154 1173.13 186.607 1182.61 186.643C1192.06 186.682 1199.42 191.246 1207.94 196.529L1208.09 196.625L1208.11 196.636C1217.22 202.303 1227.58 208.75 1241.1 208.794C1243.55 208.801 1245.9 208.598 1248.17 208.227C1259.01 206.82 1267.91 201.501 1275.9 196.721L1276.03 196.645C1284.81 191.356 1292.43 186.809 1301.91 186.845C1311.36 186.883 1318.72 191.447 1327.24 196.731L1327.4 196.827L1327.41 196.837C1336.52 202.505 1346.89 208.952 1360.4 208.996C1367.52 209.034 1374.38 207.342 1381.98 203.719L1381.95 203.643C1384.62 202.411 1387.14 201.017 1389.56 199.613L1391.35 198.559C1391.47 198.484 1391.58 198.414 1391.7 198.346C1391.88 198.238 1392.06 198.132 1392.26 198.014C1392.56 197.838 1392.85 197.662 1393.14 197.485C1393.43 197.309 1393.72 197.132 1394.01 196.956C1394.16 196.854 1394.31 196.761 1394.46 196.673C1394.59 196.594 1394.73 196.518 1394.86 196.443C1395.11 196.281 1395.39 196.121 1395.67 195.962C1395.9 195.817 1396.13 195.682 1396.37 195.547C1396.6 195.411 1396.84 195.276 1397.07 195.131C1397.33 194.981 1397.59 194.831 1397.84 194.682C1398.23 194.452 1398.62 194.227 1399 194.015C1399.38 193.792 1399.81 193.535 1400.22 193.315C1404.73 190.811 1409.24 188.713 1414.04 187.755C1415.93 187.377 1417.87 187.188 1419.92 187.195C1429.38 187.234 1436.74 191.798 1445.25 197.082L1445.41 197.178C1454.52 202.885 1464.89 209.302 1478.41 209.347C1491.87 209.391 1502.45 203.07 1511.79 197.483L1511.92 197.408C1520.7 192.118 1528.32 187.571 1537.8 187.607C1547.25 187.646 1554.61 192.21 1563.13 197.493L1563.29 197.59C1572.4 203.296 1582.77 209.714 1596.29 209.758C1609.75 209.803 1620.32 203.481 1629.67 197.895L1629.8 197.82C1638.58 192.53 1646.2 187.983 1655.68 188.019C1665.13 188.058 1672.49 192.622 1681.01 197.905L1681.16 198.001C1690.27 203.708 1700.64 210.126 1714.17 210.17C1727.63 210.214 1738.2 203.893 1747.55 198.307L1747.67 198.231C1756.45 192.942 1764.07 188.395 1773.55 188.431C1783 188.469 1790.36 193.034 1798.88 198.317L1799.04 198.413L1799.05 198.423C1808.16 204.091 1818.53 210.538 1832.04 210.582C1843.44 210.613 1852.75 206.113 1861.02 201.331V0L679.016 0.0016098Z" fill="#FA492D"/>
<path d="M-427.361 0V202.911C-421.91 205.237 -415.93 206.871 -409.063 206.811C-395.602 206.855 -385.028 200.534 -375.683 194.947L-375.557 194.872C-366.773 189.582 -359.154 185.035 -349.676 185.071C-340.223 185.11 -332.865 189.674 -324.347 194.957L-324.191 195.054L-324.175 195.064C-315.063 200.732 -304.7 207.178 -291.187 207.223C-284.063 207.26 -277.208 205.569 -269.609 201.946L-269.635 201.87C-266.967 200.638 -264.45 199.243 -262.031 197.84L-260.241 196.785C-259.925 196.592 -259.645 196.434 -259.329 196.241C-259.031 196.065 -258.741 195.889 -258.451 195.713C-258.161 195.536 -257.871 195.359 -257.572 195.183C-257.288 194.987 -257.008 194.828 -256.728 194.669C-256.481 194.507 -256.201 194.348 -255.921 194.189C-255.692 194.044 -255.455 193.909 -255.219 193.773C-254.982 193.638 -254.746 193.503 -254.517 193.358C-253.851 192.975 -253.218 192.59 -252.589 192.241C-252.488 192.183 -252.384 192.122 -252.278 192.06C-251.982 191.886 -251.672 191.704 -251.363 191.541C-246.852 189.037 -242.346 186.94 -237.549 185.982C-235.657 185.603 -233.717 185.415 -231.662 185.422C-222.209 185.461 -214.851 190.025 -206.332 195.308L-206.177 195.405C-197.065 201.111 -186.694 207.529 -173.173 207.573C-159.712 207.617 -149.138 201.296 -139.793 195.71L-139.667 195.634C-130.884 190.345 -123.264 185.798 -113.787 185.834C-104.334 185.873 -96.9748 190.437 -88.4566 195.72L-88.3014 195.816C-79.1895 201.523 -68.8181 207.941 -55.2971 207.985C-41.8365 208.029 -31.2621 201.708 -21.9169 196.122L-21.791 196.046C-13.0079 190.756 -5.38831 186.21 4.0892 186.246C13.5421 186.284 20.9008 190.848 29.4189 196.132L29.5743 196.228C38.6862 201.935 49.0576 208.353 62.5787 208.397C76.0392 208.441 86.6136 202.12 95.9588 196.533L96.0848 196.458C104.868 191.168 112.487 186.621 121.965 186.657C131.418 186.696 138.777 191.26 147.295 196.544L147.45 196.64L147.467 196.65C156.578 202.318 166.942 208.764 180.454 208.809C182.907 208.815 185.263 208.612 187.532 208.242C198.368 206.834 207.265 201.516 215.263 196.735L215.389 196.66C224.172 191.37 231.791 186.823 241.269 186.859C250.722 186.898 258.08 191.462 266.599 196.745L266.754 196.842L266.771 196.852C275.882 202.519 286.245 208.966 299.758 209.01C306.882 209.048 313.737 207.356 321.336 203.734L321.31 203.657C323.978 202.425 326.495 201.031 328.914 199.628L330.704 198.573C330.859 198.478 331.006 198.392 331.152 198.306C331.304 198.216 331.456 198.127 331.617 198.029C331.915 197.852 332.206 197.676 332.496 197.499C332.786 197.323 333.075 197.146 333.373 196.971C333.656 196.775 333.936 196.616 334.216 196.458L334.217 196.457C334.464 196.295 334.744 196.136 335.024 195.977C335.254 195.832 335.49 195.696 335.727 195.561C335.963 195.426 336.199 195.29 336.428 195.145C336.689 194.995 336.945 194.845 337.197 194.697C337.589 194.467 337.973 194.241 338.356 194.029C338.544 193.92 338.741 193.804 338.941 193.687C339.152 193.564 339.368 193.442 339.582 193.329C344.093 190.825 348.599 188.728 353.396 187.77C355.288 187.391 357.228 187.202 359.283 187.21C368.736 187.248 376.094 191.812 384.612 197.096L384.768 197.192C393.88 202.899 404.251 209.317 417.772 209.361C431.233 209.405 441.807 203.084 451.152 197.498L451.278 197.422C460.062 192.132 467.681 187.586 477.159 187.621C486.612 187.66 493.97 192.224 502.488 197.508L502.644 197.604C511.756 203.311 522.127 209.729 535.648 209.773C549.109 209.817 559.683 203.496 569.028 197.909L569.154 197.834C577.937 192.544 585.557 187.997 595.034 188.033C604.487 188.072 611.846 192.636 620.364 197.919L620.52 198.016C629.631 203.723 640.003 210.14 653.524 210.184C666.984 210.229 677.559 203.907 686.904 198.321L687.03 198.246C695.813 192.956 703.432 188.409 712.91 188.445C722.363 188.484 729.722 193.048 738.24 198.332L738.395 198.428C740.696 199.859 742.619 201.297 744.426 202.648C749.777 206.651 754.108 209.89 764.216 209.923C775.616 209.954 784.922 205.454 793.194 200.672L837.354 0H-427.361Z" fill="#FA492D"/>
<path d="M-419.443 152.665L-418.223 139.638C-414.704 141.005 -411.068 141.828 -407.058 141.833C-397.58 141.869 -389.961 137.322 -381.145 132.035C-374.824 128.256 -367.939 124.122 -360.004 121.865C-355.846 120.661 -351.784 120.116 -347.642 120.133C-334.121 120.178 -323.753 126.632 -314.638 132.302C-306.054 137.626 -298.663 142.246 -289.153 142.284C-288.853 142.275 -288.554 142.266 -288.259 142.294C-287.959 142.285 -287.66 142.276 -287.394 142.264C-286.828 142.243 -286.259 142.185 -285.69 142.127C-285.121 142.069 -284.582 141.972 -284.009 141.877C-282.897 141.685 -281.811 141.416 -280.722 141.111C-280.245 140.97 -279.735 140.833 -279.254 140.656C-278.944 140.537 -278.638 140.454 -278.329 140.335C-276.271 139.601 -274.229 138.681 -272.206 137.611C-271.126 137.046 -270.009 136.447 -268.921 135.807C-268.397 135.523 -267.87 135.202 -267.346 134.918C-266.015 134.153 -264.68 133.352 -263.309 132.517C-256.879 128.637 -249.823 124.445 -241.657 122.209C-241.147 122.072 -240.637 121.935 -240.094 121.8C-240.025 121.77 -239.959 121.776 -239.857 121.748C-238.571 121.461 -237.251 121.177 -235.909 121.007C-235.508 120.97 -235.136 120.894 -234.735 120.857C-234.534 120.839 -234.334 120.821 -234.1 120.806C-233.699 120.769 -233.298 120.733 -232.897 120.696C-232.495 120.66 -232.065 120.663 -231.664 120.627C-231.032 120.612 -230.401 120.597 -229.77 120.582C-216.249 120.626 -205.878 127.044 -196.766 132.751C-188.181 138.075 -180.791 142.694 -171.28 142.733C-161.803 142.769 -154.183 138.222 -145.4 132.932C-136.024 127.328 -125.415 120.949 -111.894 120.993C-98.3732 121.038 -88.0053 127.492 -78.8899 133.162C-70.3057 138.486 -62.9151 143.106 -53.4047 143.145C-43.9272 143.181 -36.3077 138.634 -27.5246 133.344C-18.1484 127.739 -7.53955 121.361 5.98148 121.405C19.5025 121.45 29.8704 127.904 38.9858 133.574C47.57 138.898 54.9606 143.518 64.4709 143.557C73.9485 143.592 81.568 139.046 90.3839 133.759C99.7601 128.154 110.369 121.776 123.89 121.82C137.411 121.864 147.782 128.282 156.894 133.989C165.479 139.313 172.892 143.688 182.402 143.727C191.88 143.763 199.591 138.237 208.374 132.947C211.851 130.865 215.48 128.932 219.407 127.003L217.984 142.184C217.355 142.533 216.755 142.921 216.122 143.306C206.746 148.911 195.999 156.758 182.478 156.714C168.957 156.67 158.59 150.215 149.474 144.545C140.89 139.221 133.499 134.602 123.989 134.563C114.511 134.527 106.892 139.073 98.1089 144.363C88.7327 149.968 78.1238 156.346 64.6028 156.302C51.0818 156.258 40.7138 149.803 31.5985 144.133C23.0142 138.809 15.6237 134.19 6.11331 134.151C-3.3642 134.115 -10.9837 138.662 -19.7668 143.951C-29.143 149.556 -39.7519 155.935 -53.2729 155.89C-66.7939 155.846 -77.1618 149.392 -86.2772 143.721C-94.8615 138.397 -102.252 133.778 -111.762 133.739C-121.24 133.703 -128.859 138.25 -137.675 143.537C-147.052 149.141 -157.66 155.52 -171.181 155.475C-181.787 155.445 -190.432 151.486 -198.07 147.029C-200.146 145.834 -202.182 144.569 -204.186 143.307C-212.77 137.983 -220.161 133.363 -229.671 133.324C-229.97 133.333 -230.269 133.342 -230.565 133.314C-232.926 133.39 -235.146 133.737 -237.318 134.275C-237.861 134.409 -238.375 134.583 -238.918 134.718C-239.191 134.803 -239.464 134.889 -239.737 134.974C-245.044 136.774 -250.067 139.786 -255.581 143.085C-258.214 144.654 -260.956 146.323 -263.816 147.833C-266.679 149.38 -269.696 150.802 -272.857 151.988C-273.92 152.37 -274.984 152.752 -276.11 153.091C-276.485 153.204 -276.827 153.32 -277.199 153.396C-277.742 153.531 -278.321 153.699 -278.864 153.833C-279.068 153.888 -279.236 153.909 -279.44 153.964C-279.812 154.04 -280.184 154.117 -280.556 154.193C-281.332 154.343 -282.108 154.492 -282.914 154.602C-283.25 154.645 -283.618 154.684 -283.954 154.727C-284.256 154.773 -284.588 154.778 -284.891 154.824C-285.157 154.836 -285.427 154.885 -285.693 154.897C-286.463 154.973 -287.262 155.01 -288.025 155.012C-288.357 155.018 -288.689 155.024 -289.021 155.03C-302.542 154.986 -312.91 148.531 -322.025 142.861C-330.609 137.537 -338 132.918 -347.51 132.879C-348.105 132.86 -348.671 132.881 -349.24 132.939C-349.273 132.936 -349.273 132.936 -349.305 132.933C-349.871 132.954 -350.44 133.012 -350.976 133.073C-351.246 133.121 -351.545 133.13 -351.815 133.179C-352.085 133.228 -352.318 133.243 -352.588 133.292C-352.792 133.347 -353.025 133.362 -353.229 133.417C-354.108 133.594 -354.99 133.808 -355.875 134.058C-361.8 135.726 -367.313 139.025 -373.39 142.679C-382.767 148.284 -393.376 154.663 -406.929 154.615C-411.462 154.524 -415.572 153.805 -419.443 152.665Z" fill="#FFF7E1"/>
<path d="M-421.109 183.619L-419.888 170.592C-416.37 171.959 -412.734 172.781 -408.723 172.787C-399.246 172.823 -391.626 168.276 -382.81 162.989C-376.489 159.21 -369.605 155.076 -361.669 152.819C-357.512 151.615 -353.45 151.069 -349.308 151.087C-335.787 151.131 -325.419 157.586 -316.303 163.256C-307.719 168.58 -300.329 173.199 -290.818 173.238C-290.519 173.229 -290.22 173.22 -289.924 173.248C-289.625 173.239 -289.326 173.23 -289.059 173.218C-288.494 173.197 -287.925 173.139 -287.356 173.081C-286.787 173.023 -286.247 172.926 -285.675 172.831C-284.563 172.639 -283.477 172.37 -282.388 172.065C-281.91 171.924 -281.4 171.787 -280.92 171.61C-280.61 171.49 -280.304 171.408 -279.994 171.289C-277.937 170.555 -275.895 169.635 -273.872 168.565C-272.791 168 -271.674 167.4 -270.587 166.761C-270.063 166.477 -269.535 166.156 -269.012 165.872C-267.68 165.107 -266.345 164.306 -264.974 163.471C-258.544 159.591 -251.489 155.399 -243.323 153.163C-242.813 153.026 -242.303 152.888 -241.76 152.754C-241.691 152.723 -241.625 152.73 -241.523 152.702C-240.236 152.415 -238.917 152.131 -237.575 151.961C-237.174 151.924 -236.802 151.848 -236.401 151.811C-236.2 151.793 -235.999 151.775 -235.766 151.76C-235.365 151.723 -234.964 151.687 -234.562 151.65C-234.161 151.614 -233.73 151.617 -233.329 151.58C-232.698 151.565 -232.067 151.551 -231.436 151.536C-217.915 151.58 -207.543 157.997 -198.431 163.704C-189.847 169.028 -182.456 173.648 -172.946 173.687C-163.469 173.723 -155.849 169.176 -147.066 163.886C-137.69 158.281 -127.081 151.903 -113.56 151.947C-100.039 151.992 -89.6709 158.446 -80.5555 164.116C-71.9713 169.44 -64.5807 174.06 -55.0703 174.099C-45.5928 174.134 -37.9733 169.588 -29.1902 164.298C-19.814 158.693 -9.20517 152.315 4.31586 152.359C17.8369 152.403 28.2048 158.858 37.3202 164.528C45.9044 169.852 53.295 174.471 62.8053 174.51C72.2828 174.546 79.9023 170 88.7183 164.713C98.0945 159.108 108.703 152.73 122.224 152.774C135.745 152.818 146.117 159.236 155.229 164.943C163.813 170.267 171.203 174.886 180.714 174.925C190.191 174.961 197.857 169.925 206.64 164.635C210.117 162.553 213.768 160.376 217.695 158.447L216.25 173.872C215.62 174.221 215.021 174.609 214.388 174.995C205.012 180.599 194.334 187.712 180.813 187.668C167.292 187.623 156.924 181.169 147.809 175.499C139.224 170.175 131.834 165.555 122.323 165.516C112.846 165.48 105.226 170.027 96.4432 175.317C87.0671 180.922 76.4582 187.3 62.9372 187.256C49.4161 187.212 39.0482 180.757 29.9329 175.087C21.3486 169.763 13.9581 165.144 4.44769 165.105C-5.02982 165.069 -12.6494 169.615 -21.4325 174.905C-30.8086 180.51 -41.4175 186.888 -54.9385 186.844C-68.4596 186.8 -78.8275 180.345 -87.9428 174.675C-96.5271 169.351 -103.918 164.732 -113.428 164.693C-122.905 164.657 -130.525 169.204 -139.341 174.49C-148.717 180.095 -159.326 186.474 -172.847 186.429C-183.452 186.399 -192.098 182.44 -199.736 177.982C-201.812 176.788 -203.848 175.522 -205.851 174.26C-214.436 168.936 -221.826 164.317 -231.337 164.278C-231.636 164.287 -231.935 164.296 -232.231 164.268C-234.591 164.343 -236.812 164.691 -238.984 165.229C-239.527 165.363 -240.04 165.537 -240.583 165.671C-240.857 165.757 -241.13 165.843 -241.403 165.928C-246.71 167.728 -251.732 170.74 -257.246 174.039C-259.879 175.607 -262.621 177.277 -265.481 178.787C-268.344 180.334 -271.362 181.756 -274.523 182.942C-275.586 183.323 -276.649 183.705 -277.775 184.045C-278.15 184.158 -278.493 184.274 -278.865 184.35C-279.408 184.484 -279.987 184.652 -280.53 184.787C-280.734 184.842 -280.902 184.863 -281.106 184.918C-281.478 184.994 -281.849 185.071 -282.221 185.147C-282.998 185.296 -283.774 185.446 -284.58 185.556C-284.915 185.598 -285.284 185.638 -285.619 185.681C-285.922 185.726 -286.254 185.732 -286.557 185.778C-286.823 185.79 -287.093 185.839 -287.359 185.851C-288.129 185.927 -288.928 185.963 -289.69 185.966C-290.022 185.972 -290.354 185.978 -290.686 185.984C-304.207 185.94 -314.575 179.485 -323.691 173.815C-332.275 168.491 -339.666 163.872 -349.176 163.833C-349.771 163.814 -350.336 163.835 -350.905 163.893C-350.938 163.89 -350.938 163.89 -350.971 163.887C-351.537 163.908 -352.106 163.966 -352.642 164.026C-352.911 164.075 -353.211 164.084 -353.48 164.133C-353.75 164.182 -353.984 164.197 -354.253 164.246C-354.458 164.301 -354.691 164.316 -354.895 164.371C-355.774 164.548 -356.655 164.762 -357.541 165.012C-363.465 166.68 -368.979 169.979 -375.056 173.633C-384.432 179.238 -395.041 185.616 -408.595 185.569C-413.128 185.478 -417.238 184.759 -421.109 183.619Z" fill="#FFF7E1"/>
<path d="M168.366 153.666L169.518 141.374C173.036 142.741 176.672 143.563 180.683 143.569C190.16 143.605 197.78 139.058 206.596 133.771C212.917 129.992 219.801 125.858 227.737 123.6C231.894 122.397 235.956 121.851 240.098 121.869C253.619 121.913 263.987 128.368 273.103 134.038C281.687 139.362 289.077 143.981 298.588 144.02C298.887 144.011 299.186 144.002 299.482 144.03C299.781 144.021 300.08 144.012 300.347 144C300.912 143.979 301.481 143.921 302.05 143.863C302.619 143.805 303.159 143.708 303.731 143.613C304.843 143.421 305.929 143.152 307.018 142.847C307.496 142.706 308.006 142.569 308.486 142.391C308.796 142.272 309.102 142.19 309.412 142.071C311.469 141.337 313.511 140.417 315.534 139.347C316.615 138.782 317.732 138.182 318.819 137.543C319.343 137.259 319.871 136.938 320.394 136.653C321.726 135.889 323.061 135.088 324.432 134.253C330.862 130.373 337.917 126.181 346.083 123.945C346.593 123.808 347.103 123.67 347.646 123.536C347.715 123.505 347.781 123.512 347.883 123.484C349.17 123.197 350.489 122.913 351.831 122.743C352.232 122.706 352.604 122.63 353.005 122.593C353.206 122.575 353.407 122.557 353.64 122.542C354.041 122.505 354.442 122.469 354.844 122.432C355.245 122.396 355.676 122.399 356.077 122.362C356.708 122.347 357.339 122.332 357.971 122.318C371.492 122.362 381.863 128.779 390.975 134.486C399.559 139.81 406.95 144.43 416.46 144.469C425.938 144.505 433.557 139.958 442.34 134.668C451.716 129.063 462.325 122.685 475.846 122.729C489.367 122.774 499.735 129.228 508.851 134.898C517.435 140.222 524.825 144.842 534.336 144.881C543.813 144.916 551.433 140.37 560.216 135.08C569.592 129.475 580.201 123.097 593.722 123.141C607.243 123.185 617.611 129.64 626.726 135.31C635.31 140.634 642.701 145.753 652.211 145.792C661.689 145.828 669.308 140.781 678.124 135.495C687.501 129.89 698.11 123.512 711.631 123.556C725.152 123.6 735.523 130.018 744.635 135.725C753.219 141.049 760.61 145.668 770.12 145.707C779.597 145.743 787.217 141.196 796 135.906C799.477 133.824 803.129 131.647 807.055 129.718L805.587 145.389C804.958 145.737 804.358 146.126 803.725 146.511C794.349 152.116 783.74 158.494 770.219 158.45C756.698 158.405 746.33 151.951 737.215 146.281C728.63 140.957 721.24 136.337 711.729 136.298C702.252 136.262 694.632 140.809 685.849 146.099C676.473 151.704 665.864 158.082 652.343 158.038C638.822 157.994 628.454 151.539 619.339 145.869C610.755 140.545 603.364 135.926 593.854 135.887C584.376 135.851 576.757 140.397 567.974 145.687C558.597 151.292 547.989 157.67 534.468 157.626C520.947 157.582 510.579 151.127 501.463 145.457C492.879 140.133 485.488 135.514 475.978 135.475C466.5 135.439 458.881 139.986 450.065 145.272C440.689 150.877 430.08 157.255 416.559 157.211C405.954 157.181 397.308 153.222 389.67 148.764C387.594 147.57 385.558 146.304 383.555 145.042C374.97 139.718 367.58 135.099 358.07 135.06C357.77 135.069 357.471 135.078 357.175 135.05C354.815 135.125 352.594 135.473 350.422 136.011C349.879 136.145 349.366 136.319 348.823 136.453C348.549 136.539 348.276 136.624 348.003 136.71C342.696 138.51 337.674 141.522 332.16 144.821C329.527 146.389 326.785 148.059 323.925 149.569C321.062 151.116 318.044 152.538 314.883 153.723C313.82 154.105 312.757 154.487 311.631 154.826C311.256 154.94 310.913 155.056 310.541 155.132C309.998 155.266 309.419 155.434 308.876 155.569C308.672 155.624 308.504 155.645 308.3 155.7C307.928 155.776 307.557 155.853 307.185 155.929C306.409 156.078 305.632 156.228 304.826 156.338C304.491 156.38 304.122 156.42 303.787 156.463C303.484 156.508 303.152 156.514 302.849 156.56C302.583 156.572 302.313 156.621 302.047 156.633C301.277 156.709 300.478 156.745 299.716 156.748C299.384 156.754 299.052 156.76 298.72 156.766C285.199 156.721 274.831 150.267 265.715 144.597C257.131 139.273 249.74 134.653 240.23 134.614C239.635 134.596 239.07 134.617 238.501 134.675C238.468 134.672 238.468 134.672 238.435 134.669C237.869 134.69 237.3 134.748 236.764 134.808C236.495 134.857 236.195 134.866 235.926 134.915C235.656 134.964 235.422 134.979 235.153 135.028C234.949 135.083 234.715 135.098 234.511 135.153C233.633 135.33 232.751 135.544 231.865 135.794C225.941 137.462 220.427 140.761 214.35 144.415C204.974 150.02 194.365 156.398 180.811 156.351C176.278 156.26 172.237 154.807 168.366 153.666Z" fill="#FFF7E1"/>
<path d="M167.611 185.447L168.831 172.421C172.349 173.788 175.985 174.61 179.996 174.616C189.473 174.651 197.093 170.105 205.909 164.818C212.23 161.039 219.115 156.905 227.05 154.647C231.207 153.444 235.269 152.898 239.411 152.916C252.932 152.96 263.3 159.415 272.416 165.085C281 170.409 288.391 175.028 297.901 175.067C298.2 175.058 298.499 175.049 298.795 175.077C299.094 175.068 299.393 175.059 299.66 175.047C300.225 175.026 300.794 174.968 301.363 174.91C301.932 174.852 302.472 174.754 303.044 174.66C304.156 174.468 305.242 174.199 306.332 173.894C306.809 173.753 307.319 173.616 307.8 173.438C308.109 173.319 308.415 173.237 308.725 173.118C310.783 172.384 312.825 171.464 314.847 170.394C315.928 169.828 317.045 169.229 318.133 168.59C318.656 168.306 319.184 167.985 319.708 167.7C321.039 166.936 322.374 166.135 323.745 165.3C330.175 161.42 337.231 157.228 345.396 154.992C345.906 154.855 346.416 154.717 346.959 154.583C347.029 154.552 347.094 154.558 347.196 154.531C348.483 154.244 349.802 153.96 351.144 153.789C351.546 153.753 351.917 153.677 352.319 153.64C352.519 153.622 352.72 153.604 352.953 153.588C353.355 153.552 353.756 153.515 354.157 153.479C354.558 153.442 354.989 153.446 355.39 153.409C356.021 153.394 356.653 153.379 357.284 153.364C370.805 153.409 381.176 159.826 390.288 165.533C398.872 170.857 406.263 175.477 415.773 175.516C425.251 175.552 432.87 171.005 441.653 165.715C451.03 160.11 461.638 153.732 475.159 153.776C488.68 153.82 499.048 160.275 508.164 165.945C516.748 171.269 524.139 175.888 533.649 175.927C543.126 175.963 550.746 171.417 559.529 166.127C568.905 160.522 579.514 154.144 593.035 154.188C606.556 154.232 616.924 160.687 626.039 166.357C634.624 171.681 642.014 176.3 651.525 176.339C661.002 176.375 668.622 171.828 677.438 166.542C686.814 160.937 697.423 154.559 710.944 154.603C724.465 154.647 734.836 161.065 743.948 166.772C752.532 172.096 759.923 176.715 769.433 176.754C778.911 176.79 786.53 172.243 795.313 166.953C798.79 164.871 802.442 162.694 806.369 160.765L804.9 176.435C804.271 176.784 803.671 177.172 803.038 177.558C793.662 183.162 783.053 189.541 769.532 189.496C756.011 189.452 745.643 182.998 736.528 177.328C727.944 172.004 720.553 167.384 711.043 167.345C701.565 167.309 693.946 171.856 685.163 177.146C675.786 182.751 665.177 189.129 651.656 189.085C638.135 189.04 627.768 182.586 618.652 176.916C610.068 171.592 602.677 166.972 593.167 166.933C583.689 166.897 576.07 171.444 567.287 176.734C557.911 182.339 547.302 188.717 533.781 188.673C520.26 188.629 509.892 182.174 500.776 176.504C492.192 171.18 484.802 166.561 475.291 166.522C465.814 166.486 458.194 171.033 449.378 176.319C440.002 181.924 429.393 188.302 415.872 188.258C405.267 188.228 396.621 184.269 388.983 179.811C386.907 178.616 384.871 177.351 382.868 176.089C374.284 170.765 366.893 166.146 357.383 166.107C357.083 166.116 356.784 166.125 356.489 166.097C354.128 166.172 351.907 166.52 349.735 167.057C349.193 167.192 348.679 167.366 348.136 167.5C347.863 167.586 347.589 167.671 347.316 167.757C342.009 169.557 336.987 172.568 331.473 175.868C328.84 177.436 326.098 179.106 323.238 180.616C320.375 182.163 317.358 183.585 314.197 184.77C313.133 185.152 312.07 185.534 310.944 185.873C310.569 185.986 310.226 186.103 309.855 186.179C309.312 186.313 308.732 186.481 308.189 186.616C307.985 186.671 307.818 186.692 307.614 186.747C307.242 186.823 306.87 186.899 306.498 186.976C305.722 187.125 304.945 187.275 304.139 187.385C303.804 187.427 303.435 187.467 303.1 187.509C302.797 187.555 302.465 187.561 302.163 187.607C301.896 187.619 301.627 187.668 301.36 187.68C300.591 187.756 299.792 187.792 299.029 187.795C298.697 187.801 298.365 187.807 298.033 187.813C284.512 187.768 274.144 181.314 265.029 175.644C256.444 170.32 249.054 165.7 239.543 165.661C238.948 165.643 238.383 165.664 237.814 165.722C237.781 165.719 237.781 165.719 237.748 165.715C237.183 165.737 236.614 165.794 236.078 165.855C235.808 165.904 235.509 165.913 235.239 165.962C234.969 166.011 234.736 166.026 234.466 166.075C234.262 166.13 234.028 166.145 233.824 166.2C232.946 166.377 232.064 166.591 231.178 166.841C225.254 168.509 219.74 171.808 213.663 175.462C204.287 181.067 193.678 187.445 180.124 187.398C175.591 187.307 171.482 186.588 167.611 185.447Z" fill="#FFF7E1"/>
<path d="M640.896 156.387L642.116 143.861C645.635 145.228 649.27 145.55 653.281 145.556C662.759 145.591 670.378 140.545 679.194 135.258C685.515 131.479 692.4 127.345 700.335 125.087C704.492 123.884 708.555 123.338 712.697 123.356C726.218 123.4 736.586 129.855 745.701 135.525C754.285 140.849 761.676 145.468 771.186 145.507C771.485 145.498 771.785 145.489 772.08 145.517C772.38 145.508 772.679 145.499 772.945 145.487C773.511 145.466 774.08 145.408 774.648 145.35C775.217 145.292 775.757 145.194 776.329 145.1C777.441 144.908 778.527 144.639 779.617 144.334C780.094 144.193 780.604 144.056 781.085 143.878C781.394 143.759 781.7 143.677 782.01 143.558C784.068 142.824 786.11 141.904 788.133 140.834C789.213 140.268 790.33 139.669 791.418 139.03C791.942 138.746 792.469 138.425 792.993 138.14C794.324 137.376 795.659 136.575 797.03 135.74C803.46 131.86 810.516 127.668 818.681 125.432C819.192 125.295 819.702 125.157 820.245 125.023C820.314 124.992 820.379 124.998 820.482 124.971C821.768 124.684 823.088 124.4 824.43 124.229C824.831 124.193 825.203 124.117 825.604 124.08C825.804 124.062 826.005 124.044 826.238 124.028C826.64 123.992 827.041 123.955 827.442 123.919C827.843 123.882 828.274 123.886 828.675 123.849C829.306 123.834 829.938 123.819 830.569 123.804C844.09 123.849 854.461 130.266 863.573 135.973C872.158 141.297 879.548 145.917 889.058 145.956C898.536 145.992 906.155 141.445 914.939 136.155C924.315 130.55 934.924 124.172 948.445 124.216C961.966 124.26 972.334 130.715 981.449 136.385C990.033 141.709 997.424 146.328 1006.93 146.367C1016.41 146.403 1024.03 141.857 1032.81 136.567C1042.19 130.962 1052.8 124.584 1066.32 124.628C1079.84 124.672 1090.21 131.127 1099.32 136.797C1107.91 142.121 1115.3 146.74 1124.81 146.779C1134.29 146.815 1141.91 142.268 1150.72 136.982C1160.1 131.377 1170.71 124.999 1184.23 125.043C1197.75 125.087 1208.12 131.505 1217.23 137.212C1225.82 142.536 1233.23 146.91 1242.74 146.949C1252.22 146.985 1259.93 141.459 1268.71 136.17C1272.19 134.087 1275.82 132.155 1279.75 130.226L1278.32 145.407C1277.69 145.755 1277.09 146.144 1276.46 146.529C1267.08 152.134 1256.34 159.981 1242.82 159.936C1229.3 159.892 1218.93 153.438 1209.81 147.768C1201.23 142.444 1193.84 137.824 1184.33 137.785C1174.85 137.749 1167.23 142.296 1158.45 147.586C1149.07 153.191 1138.46 159.569 1124.94 159.525C1111.42 159.48 1101.05 153.026 1091.94 147.356C1083.35 142.032 1075.96 137.412 1066.45 137.373C1056.97 137.337 1049.36 141.884 1040.57 147.174C1031.2 152.779 1020.59 159.157 1007.07 159.113C993.545 159.069 983.177 152.614 974.062 146.944C965.477 141.62 958.087 137.001 948.576 136.962C939.099 136.926 931.479 141.473 922.664 146.759C913.287 152.364 902.678 158.742 889.157 158.698C878.552 158.668 869.906 154.709 862.269 150.251C860.193 149.056 858.156 147.791 856.153 146.529C847.569 141.205 840.178 136.586 830.668 136.547C830.369 136.556 830.07 136.565 829.774 136.537C827.413 136.612 825.193 136.96 823.021 137.497C822.478 137.632 821.964 137.806 821.421 137.94C821.148 138.026 820.875 138.111 820.602 138.197C815.295 139.997 810.272 143.008 804.758 146.308C802.125 147.876 799.383 149.546 796.523 151.056C793.66 152.603 790.643 154.025 787.482 155.21C786.418 155.592 785.355 155.974 784.229 156.313C783.854 156.426 783.512 156.543 783.14 156.619C782.597 156.753 782.018 156.921 781.475 157.056C781.27 157.111 781.103 157.132 780.899 157.187C780.527 157.263 780.155 157.339 779.783 157.416C779.007 157.565 778.23 157.715 777.424 157.825C777.089 157.867 776.721 157.907 776.385 157.949C776.083 157.995 775.751 158.001 775.448 158.047C775.182 158.059 774.912 158.108 774.645 158.12C773.876 158.196 773.077 158.232 772.314 158.235C771.982 158.241 771.65 158.247 771.318 158.253C757.797 158.208 747.429 151.754 738.314 146.084C729.73 140.76 722.339 136.14 712.829 136.101C712.234 136.083 711.668 136.104 711.099 136.162C711.066 136.159 711.066 136.159 711.033 136.155C710.468 136.177 709.899 136.234 709.363 136.295C709.093 136.344 708.794 136.353 708.524 136.402C708.254 136.451 708.021 136.466 707.751 136.515C707.547 136.57 707.314 136.585 707.109 136.64C706.231 136.817 705.349 137.031 704.464 137.281C698.539 138.949 693.026 142.248 686.948 145.902C677.572 151.507 666.963 157.885 653.409 157.838C648.877 157.747 644.767 157.528 640.896 156.387Z" fill="#FFF7E1"/>
<path d="M639.23 186.839L640.451 174.313C643.969 175.68 647.605 176.502 651.615 176.507C661.093 176.543 668.712 171.497 677.528 166.21C683.849 162.431 690.734 158.297 698.67 156.039C702.827 154.836 706.889 154.29 711.031 154.308C724.552 154.352 734.92 160.806 744.035 166.477C752.62 171.801 760.01 176.42 769.521 176.459C769.82 176.45 770.119 176.441 770.415 176.469C770.714 176.46 771.013 176.451 771.279 176.439C771.845 176.417 772.414 176.36 772.983 176.302C773.552 176.244 774.091 176.146 774.664 176.052C775.776 175.86 776.862 175.591 777.951 175.285C778.428 175.145 778.939 175.007 779.419 174.83C779.729 174.711 780.035 174.629 780.344 174.509C782.402 173.776 784.444 172.856 786.467 171.786C787.548 171.22 788.665 170.621 789.752 169.982C790.276 169.698 790.803 169.377 791.327 169.092C792.659 168.328 793.993 167.527 795.364 166.692C801.794 162.812 808.85 158.62 817.016 156.384C817.526 156.247 818.036 156.109 818.579 155.975C818.648 155.944 818.714 155.95 818.816 155.923C820.102 155.636 821.422 155.352 822.764 155.181C823.165 155.145 823.537 155.068 823.938 155.032C824.139 155.014 824.339 154.995 824.573 154.98C824.974 154.944 825.375 154.907 825.776 154.871C826.178 154.834 826.608 154.838 827.01 154.801C827.641 154.786 828.272 154.771 828.903 154.756C842.424 154.801 852.796 161.218 861.908 166.925C870.492 172.249 877.882 176.869 887.393 176.908C896.87 176.943 904.49 172.397 913.273 167.107C922.649 161.502 933.258 155.124 946.779 155.168C960.3 155.212 970.668 161.667 979.783 167.337C988.367 172.661 995.758 177.28 1005.27 177.319C1014.75 177.355 1022.37 172.808 1031.15 167.519C1040.52 161.914 1051.13 155.536 1064.65 155.58C1078.18 155.624 1088.54 162.078 1097.66 167.749C1106.24 173.073 1113.63 177.692 1123.14 177.731C1132.62 177.767 1140.24 173.22 1149.06 167.933C1158.43 162.329 1169.04 155.95 1182.56 155.995C1196.08 156.039 1206.46 162.457 1215.57 168.163C1224.15 173.488 1231.54 178.107 1241.05 178.146C1250.53 178.182 1258.2 173.146 1266.98 167.856C1270.46 165.773 1274.11 163.596 1278.03 161.667L1276.59 177.093C1275.96 177.442 1275.36 177.83 1274.73 178.215C1265.35 183.82 1254.67 190.933 1241.15 190.888C1227.63 190.844 1217.26 184.39 1208.15 178.72C1199.56 173.395 1192.17 168.776 1182.66 168.737C1173.18 168.701 1165.57 173.248 1156.78 178.538C1147.41 184.142 1136.8 190.521 1123.28 190.477C1109.75 190.432 1099.39 183.978 1090.27 178.308C1081.69 172.984 1074.3 168.364 1064.79 168.325C1055.31 168.289 1047.69 172.836 1038.91 178.126C1029.53 183.731 1018.92 190.109 1005.4 190.065C991.879 190.021 981.511 183.566 972.396 177.896C963.812 172.572 956.421 167.953 946.911 167.914C937.433 167.878 929.814 172.424 920.998 177.711C911.622 183.316 901.013 189.694 887.492 189.65C876.887 189.62 868.241 185.66 860.603 181.203C858.527 180.008 856.491 178.743 854.487 177.481C845.903 172.157 838.513 167.538 829.002 167.499C828.703 167.508 828.404 167.517 828.108 167.489C825.747 167.564 823.527 167.912 821.355 168.449C820.812 168.584 820.298 168.758 819.755 168.892C819.482 168.978 819.209 169.063 818.936 169.149C813.629 170.948 808.606 173.96 803.093 177.26C800.46 178.828 797.717 180.498 794.858 182.008C791.994 183.555 788.977 184.976 785.816 186.162C784.753 186.544 783.689 186.926 782.564 187.265C782.188 187.378 781.846 187.494 781.474 187.571C780.931 187.705 780.352 187.873 779.809 188.007C779.605 188.062 779.437 188.084 779.233 188.139C778.861 188.215 778.489 188.291 778.118 188.368C777.341 188.517 776.565 188.667 775.759 188.776C775.423 188.819 775.055 188.859 774.72 188.901C774.417 188.947 774.085 188.953 773.782 188.999C773.516 189.011 773.246 189.06 772.98 189.072C772.21 189.148 771.411 189.184 770.648 189.187C770.316 189.193 769.984 189.199 769.652 189.205C756.131 189.16 745.763 182.706 736.648 177.036C728.064 171.712 720.673 167.092 711.163 167.053C710.568 167.035 710.002 167.056 709.433 167.114C709.401 167.11 709.401 167.11 709.368 167.107C708.802 167.128 708.233 167.186 707.697 167.247C707.427 167.296 707.128 167.305 706.858 167.354C706.589 167.403 706.355 167.418 706.085 167.467C705.881 167.522 705.648 167.537 705.444 167.592C704.565 167.769 703.683 167.983 702.798 168.233C696.874 169.901 691.36 173.2 685.283 176.854C675.907 182.459 665.298 188.837 651.744 188.79C647.211 188.698 643.101 187.98 639.23 186.839Z" fill="#FFF7E1"/>
<path d="M1228.67 157.244L1229.82 144.952C1233.34 146.319 1236.98 147.142 1240.99 147.147C1250.47 147.183 1258.09 142.636 1266.9 137.349C1273.22 133.57 1280.11 129.436 1288.04 127.179C1292.2 125.975 1296.26 125.43 1300.4 125.447C1313.92 125.491 1324.29 131.946 1333.41 137.616C1341.99 142.94 1349.38 147.559 1358.89 147.598C1359.19 147.589 1359.49 147.58 1359.79 147.608C1360.09 147.599 1360.39 147.59 1360.65 147.578C1361.22 147.557 1361.79 147.499 1362.36 147.441C1362.92 147.383 1363.46 147.286 1364.04 147.191C1365.15 146.999 1366.23 146.73 1367.32 146.425C1367.8 146.284 1368.31 146.147 1368.79 145.97C1369.1 145.85 1369.41 145.768 1369.72 145.649C1371.77 144.915 1373.82 143.995 1375.84 142.925C1376.92 142.36 1378.04 141.76 1379.12 141.121C1379.65 140.837 1380.18 140.516 1380.7 140.232C1382.03 139.467 1383.37 138.666 1384.74 137.831C1391.17 133.951 1398.22 129.759 1406.39 127.523C1406.9 127.386 1407.41 127.248 1407.95 127.114C1408.02 127.084 1408.09 127.09 1408.19 127.062C1409.48 126.775 1410.79 126.491 1412.14 126.321C1412.54 126.284 1412.91 126.208 1413.31 126.171C1413.51 126.153 1413.71 126.135 1413.95 126.12C1414.35 126.083 1414.75 126.047 1415.15 126.01C1415.55 125.974 1415.98 125.977 1416.38 125.94C1417.01 125.926 1417.64 125.911 1418.28 125.896C1431.8 125.94 1442.17 132.358 1451.28 138.064C1459.86 143.388 1467.25 148.008 1476.77 148.047C1486.24 148.083 1493.86 143.536 1502.65 138.246C1512.02 132.641 1522.63 126.263 1536.15 126.307C1549.67 126.352 1560.04 132.806 1569.16 138.476C1577.74 143.8 1585.13 148.42 1594.64 148.459C1604.12 148.495 1611.74 143.948 1620.52 138.658C1629.9 133.053 1640.51 126.675 1654.03 126.719C1667.55 126.763 1677.92 133.218 1687.03 138.888C1695.62 144.212 1703.01 148.831 1712.52 148.87C1721.99 148.906 1729.61 144.36 1738.43 139.073C1747.81 133.468 1758.41 127.09 1771.94 127.134C1785.46 127.178 1795.83 133.596 1804.94 139.303C1813.52 144.627 1820.91 149.246 1830.43 149.285C1839.9 149.321 1847.52 144.774 1856.31 139.485C1859.78 137.402 1863.43 135.225 1867.36 133.296L1865.89 148.967C1865.26 149.315 1864.66 149.704 1864.03 150.089C1854.65 155.694 1844.05 162.072 1830.52 162.028C1817 161.983 1806.64 155.529 1797.52 149.859C1788.94 144.535 1781.55 139.915 1772.03 139.876C1762.56 139.841 1754.94 144.387 1746.15 149.677C1736.78 155.282 1726.17 161.66 1712.65 161.616C1699.13 161.572 1688.76 155.117 1679.64 149.447C1671.06 144.123 1663.67 139.504 1654.16 139.465C1644.68 139.429 1637.06 143.976 1628.28 149.265C1618.9 154.87 1608.29 161.248 1594.77 161.204C1581.25 161.16 1570.88 154.706 1561.77 149.035C1553.18 143.711 1545.79 139.092 1536.28 139.053C1526.81 139.017 1519.19 143.564 1510.37 148.851C1500.99 154.455 1490.39 160.834 1476.86 160.789C1466.26 160.759 1457.61 156.8 1449.98 152.342C1447.9 151.148 1445.86 149.883 1443.86 148.62C1435.28 143.296 1427.89 138.677 1418.37 138.638C1418.08 138.647 1417.78 138.656 1417.48 138.628C1415.12 138.704 1412.9 139.051 1410.73 139.589C1410.18 139.723 1409.67 139.897 1409.13 140.032C1408.85 140.117 1408.58 140.203 1408.31 140.288C1403 142.088 1397.98 145.1 1392.47 148.399C1389.83 149.968 1387.09 151.637 1384.23 153.147C1381.37 154.694 1378.35 156.116 1375.19 157.302C1374.13 157.684 1373.06 158.066 1371.94 158.405C1371.56 158.518 1371.22 158.634 1370.85 158.71C1370.3 158.844 1369.72 159.012 1369.18 159.147C1368.98 159.202 1368.81 159.223 1368.61 159.278C1368.23 159.354 1367.86 159.431 1367.49 159.507C1366.71 159.657 1365.94 159.806 1365.13 159.916C1364.8 159.958 1364.43 159.998 1364.09 160.041C1363.79 160.086 1363.46 160.092 1363.15 160.138C1362.89 160.15 1362.62 160.199 1362.35 160.211C1361.58 160.287 1360.78 160.323 1360.02 160.326C1359.69 160.332 1359.36 160.338 1359.02 160.344C1345.5 160.3 1335.14 153.845 1326.02 148.175C1317.44 142.851 1310.05 138.232 1300.54 138.193C1299.94 138.174 1299.37 138.195 1298.81 138.253C1298.77 138.25 1298.77 138.25 1298.74 138.247C1298.17 138.268 1297.61 138.326 1297.07 138.387C1296.8 138.435 1296.5 138.444 1296.23 138.493C1295.96 138.542 1295.73 138.557 1295.46 138.606C1295.25 138.661 1295.02 138.676 1294.82 138.731C1293.94 138.908 1293.06 139.122 1292.17 139.372C1286.25 141.04 1280.73 144.339 1274.66 147.993C1265.28 153.598 1254.67 159.976 1241.12 159.929C1236.58 159.838 1232.54 158.385 1228.67 157.244Z" fill="#FFF7E1"/>
<path d="M1227.92 189.025L1229.14 175.999C1232.65 177.366 1236.29 178.188 1240.3 178.194C1249.78 178.23 1257.4 173.683 1266.21 168.396C1272.54 164.617 1279.42 160.483 1287.36 158.225C1291.51 157.022 1295.57 156.476 1299.72 156.494C1313.24 156.538 1323.61 162.993 1332.72 168.663C1341.31 173.987 1348.7 178.606 1358.21 178.645C1358.51 178.636 1358.8 178.627 1359.1 178.655C1359.4 178.646 1359.7 178.637 1359.97 178.625C1360.53 178.604 1361.1 178.546 1361.67 178.488C1362.24 178.43 1362.78 178.333 1363.35 178.238C1364.46 178.046 1365.55 177.777 1366.64 177.472C1367.11 177.331 1367.62 177.194 1368.1 177.016C1368.41 176.897 1368.72 176.815 1369.03 176.696C1371.09 175.962 1373.13 175.042 1375.15 173.972C1376.23 173.407 1377.35 172.807 1378.44 172.168C1378.96 171.884 1379.49 171.563 1380.01 171.278C1381.34 170.514 1382.68 169.713 1384.05 168.878C1390.48 164.998 1397.54 160.806 1405.7 158.57C1406.21 158.433 1406.72 158.295 1407.26 158.161C1407.33 158.13 1407.4 158.137 1407.5 158.109C1408.79 157.822 1410.11 157.538 1411.45 157.368C1411.85 157.331 1412.22 157.255 1412.62 157.218C1412.82 157.2 1413.03 157.182 1413.26 157.167C1413.66 157.13 1414.06 157.094 1414.46 157.057C1414.86 157.021 1415.29 157.024 1415.7 156.987C1416.33 156.972 1416.96 156.957 1417.59 156.943C1431.11 156.987 1441.48 163.404 1450.59 169.111C1459.18 174.435 1466.57 179.055 1476.08 179.094C1485.56 179.13 1493.18 174.583 1501.96 169.293C1511.33 163.688 1521.94 157.31 1535.46 157.354C1548.99 157.399 1559.35 163.853 1568.47 169.523C1577.05 174.847 1584.44 179.467 1593.95 179.506C1603.43 179.541 1611.05 174.995 1619.83 169.705C1629.21 164.1 1639.82 157.722 1653.34 157.766C1666.86 157.81 1677.23 164.265 1686.34 169.935C1694.93 175.259 1702.32 179.878 1711.83 179.917C1721.31 179.953 1728.93 175.406 1737.74 170.12C1747.12 164.515 1757.73 158.137 1771.25 158.181C1784.77 158.225 1795.14 164.643 1804.25 170.35C1812.84 175.674 1820.23 180.293 1829.74 180.332C1839.22 180.368 1846.84 175.821 1855.62 170.531C1859.1 168.449 1862.75 166.272 1866.67 164.343L1865.21 180.014C1864.58 180.362 1863.98 180.751 1863.34 181.136C1853.97 186.741 1843.36 193.119 1829.84 193.075C1816.32 193.03 1805.95 186.576 1796.83 180.906C1788.25 175.582 1780.86 170.962 1771.35 170.923C1761.87 170.887 1754.25 175.434 1745.47 180.724C1736.09 186.329 1725.48 192.707 1711.96 192.663C1698.44 192.619 1688.07 186.164 1678.96 180.494C1670.37 175.17 1662.98 170.551 1653.47 170.512C1643.99 170.476 1636.38 175.022 1627.59 180.312C1618.22 185.917 1607.61 192.295 1594.09 192.251C1580.57 192.207 1570.2 185.752 1561.08 180.082C1552.5 174.758 1545.11 170.139 1535.6 170.1C1526.12 170.064 1518.5 174.611 1509.68 179.897C1500.31 185.502 1489.7 191.88 1476.18 191.836C1465.57 191.806 1456.93 187.847 1449.29 183.389C1447.21 182.195 1445.18 180.929 1443.17 179.667C1434.59 174.343 1427.2 169.724 1417.69 169.685C1417.39 169.694 1417.09 169.703 1416.79 169.675C1414.43 169.75 1412.21 170.098 1410.04 170.636C1409.5 170.77 1408.98 170.944 1408.44 171.078C1408.17 171.164 1407.89 171.249 1407.62 171.335C1402.31 173.135 1397.29 176.147 1391.78 179.446C1389.15 181.014 1386.4 182.684 1383.54 184.194C1380.68 185.741 1377.66 187.163 1374.5 188.348C1373.44 188.73 1372.38 189.112 1371.25 189.451C1370.87 189.564 1370.53 189.681 1370.16 189.757C1369.62 189.891 1369.04 190.059 1368.49 190.194C1368.29 190.249 1368.12 190.27 1367.92 190.325C1367.55 190.401 1367.18 190.478 1366.8 190.554C1366.03 190.703 1365.25 190.853 1364.44 190.963C1364.11 191.005 1363.74 191.045 1363.41 191.088C1363.1 191.133 1362.77 191.139 1362.47 191.185C1362.2 191.197 1361.93 191.246 1361.67 191.258C1360.9 191.334 1360.1 191.37 1359.33 191.373C1359 191.379 1358.67 191.385 1358.34 191.391C1344.82 191.346 1334.45 184.892 1325.33 179.222C1316.75 173.898 1309.36 169.278 1299.85 169.239C1299.25 169.221 1298.69 169.242 1298.12 169.3C1298.09 169.297 1298.09 169.297 1298.05 169.294C1297.49 169.315 1296.92 169.373 1296.38 169.433C1296.11 169.482 1295.81 169.491 1295.54 169.54C1295.27 169.589 1295.04 169.604 1294.77 169.653C1294.57 169.708 1294.33 169.723 1294.13 169.778C1293.25 169.955 1292.37 170.169 1291.48 170.419C1285.56 172.087 1280.05 175.386 1273.97 179.04C1264.59 184.645 1253.98 191.023 1240.43 190.976C1235.9 190.885 1231.79 190.166 1227.92 189.025Z" fill="#FFF7E1"/>
</svg>
