<svg width="1440" height="99" viewBox="0 0 1440 99" fill="none" xmlns="http://www.w3.org/2000/svg">
<path d="M679.016 0L633.281 91.3232C638.732 93.6465 644.711 95.2792 651.579 95.2189C665.039 95.2629 675.614 88.9492 684.959 83.3694L685.085 83.2942C693.868 78.0106 701.488 73.4692 710.965 73.5051C720.418 73.5438 727.777 78.1025 736.295 83.3794L736.45 83.4758L736.467 83.4861C745.578 89.147 755.942 95.586 769.455 95.6302C776.578 95.6678 783.433 93.9781 791.032 90.3599L791.006 90.2834C793.674 89.053 796.192 87.6604 798.611 86.2586L800.4 85.205C800.716 85.0126 800.997 84.8538 801.313 84.6614C801.611 84.4859 801.901 84.3097 802.19 84.1335C802.481 83.957 802.771 83.7805 803.07 83.6047C803.353 83.4093 803.633 83.2504 803.913 83.0916C804.161 82.9298 804.441 82.7709 804.721 82.6121C804.95 82.467 805.186 82.3319 805.423 82.1967C805.659 82.0616 805.896 81.9265 806.125 81.7814C806.385 81.6318 806.641 81.4817 806.894 81.3336C807.286 81.1037 807.67 80.8784 808.052 80.6667C808.153 80.6085 808.256 80.5478 808.362 80.4862C808.658 80.312 808.969 80.1296 809.278 79.9673C813.789 77.4662 818.295 75.3716 823.092 74.4144C824.984 74.0364 826.925 73.8481 828.979 73.8553C838.432 73.8941 845.791 78.4528 854.309 83.7299L854.464 83.826C863.576 89.5261 873.948 95.9361 887.469 95.9803C900.929 96.0244 911.504 89.7106 920.849 84.1309L920.975 84.0557C929.758 78.7721 937.377 74.2307 946.855 74.2666C956.308 74.3053 963.667 78.864 972.185 84.1411L972.34 84.2372C981.452 89.9373 991.823 96.3474 1005.34 96.3917C1018.8 96.4357 1029.38 90.122 1038.72 84.5423L1038.85 84.467C1047.63 79.1835 1055.25 74.642 1064.73 74.6779C1074.18 74.7166 1081.54 79.2753 1090.06 84.5522L1090.22 84.6485C1099.33 90.3486 1109.7 96.7587 1123.22 96.8029C1136.68 96.847 1147.25 90.5333 1156.6 84.9536L1156.73 84.8782C1165.51 79.5947 1173.13 75.0533 1182.61 75.0892C1192.06 75.1279 1199.42 79.6866 1207.94 84.9637L1208.09 85.0598L1208.11 85.0701C1217.22 90.7311 1227.58 97.17 1241.1 97.2142C1243.55 97.2209 1245.9 97.0181 1248.17 96.6481C1259.01 95.2426 1267.91 89.9301 1275.9 85.1552L1276.03 85.0798C1284.81 79.7963 1292.43 75.2548 1301.91 75.2907C1311.36 75.3294 1318.72 79.888 1327.24 85.1649L1327.4 85.2614L1327.41 85.2715C1336.52 90.9325 1346.89 97.3716 1360.4 97.4158C1367.52 97.4534 1374.38 95.7637 1381.98 92.1455L1381.95 92.069C1384.62 90.8385 1387.14 89.446 1389.56 88.0442L1391.35 86.9907C1391.47 86.9162 1391.58 86.8467 1391.7 86.7784C1391.88 86.6703 1392.06 86.5649 1392.26 86.447C1392.56 86.2714 1392.85 86.095 1393.14 85.9186C1393.43 85.7423 1393.72 85.5659 1394.01 85.3903C1394.16 85.2879 1394.31 85.1954 1394.46 85.1078C1394.59 85.0283 1394.73 84.9528 1394.86 84.8773C1395.11 84.7154 1395.39 84.5565 1395.67 84.3976C1395.9 84.2526 1396.13 84.1175 1396.37 83.9824C1396.6 83.8473 1396.84 83.7121 1397.07 83.567C1397.33 83.4174 1397.59 83.2673 1397.84 83.119C1398.23 82.8892 1398.62 82.664 1399 82.4523C1399.38 82.2294 1399.81 81.9728 1400.22 81.753C1404.73 79.2519 1409.24 77.1573 1414.04 76.2001C1415.93 75.8221 1417.87 75.6337 1419.92 75.6409C1429.38 75.6796 1436.74 80.2383 1445.25 85.5154L1445.41 85.6116C1454.52 91.3118 1464.89 97.7218 1478.41 97.766C1491.87 97.81 1502.45 91.4965 1511.79 85.9167L1511.92 85.8412C1520.7 80.5577 1528.32 76.0163 1537.8 76.0522C1547.25 76.0909 1554.61 80.6496 1563.13 85.9268L1563.29 86.0228C1572.4 91.723 1582.77 98.133 1596.29 98.1773C1609.75 98.2214 1620.32 91.9077 1629.67 86.3279L1629.8 86.2526C1638.58 80.969 1646.2 76.4276 1655.68 76.4635C1665.13 76.5022 1672.49 81.0609 1681.01 86.338L1681.16 86.4342C1690.27 92.1343 1700.64 98.5443 1714.17 98.5885C1727.63 98.6325 1738.2 92.3188 1747.55 86.739L1747.67 86.6639C1756.45 81.3803 1764.07 76.8389 1773.55 76.8748C1783 76.9134 1790.36 81.4722 1798.88 86.7491L1799.04 86.8455L1799.05 86.8557C1808.16 92.5167 1818.53 98.9556 1832.04 98.9998C1843.44 99.0306 1852.75 94.5361 1861.02 89.7597V0H679.016Z" fill="#2F2C96"/>
<path d="M-427.361 0V91.3376C-421.91 93.6609 -415.93 95.2936 -409.063 95.2333C-395.602 95.2773 -385.028 88.9636 -375.683 83.3839L-375.557 83.3085C-366.773 78.025 -359.154 73.4837 -349.676 73.5195C-340.223 73.5582 -332.865 78.1169 -324.347 83.3938L-324.191 83.4901L-324.175 83.5005C-315.063 89.1614 -304.7 95.6003 -291.187 95.6445C-284.063 95.6821 -277.208 93.9924 -269.609 90.3742L-269.635 90.2977C-266.967 89.0672 -264.45 87.6748 -262.031 86.273L-260.241 85.2194C-259.925 85.0269 -259.645 84.8682 -259.329 84.6758C-259.031 84.5004 -258.741 84.3242 -258.451 84.1481C-258.161 83.9715 -257.871 83.7949 -257.572 83.6191C-257.288 83.4236 -257.008 83.2648 -256.728 83.106C-256.481 82.9441 -256.201 82.7853 -255.921 82.6265C-255.692 82.4814 -255.455 82.3464 -255.219 82.2112C-254.982 82.0761 -254.746 81.9409 -254.517 81.7958C-253.851 81.4141 -253.218 81.0293 -252.589 80.6811C-252.488 80.6225 -252.384 80.5616 -252.278 80.4998C-251.982 80.3259 -251.672 80.1439 -251.363 79.9817C-246.852 77.4806 -242.346 75.386 -237.549 74.4288C-235.657 74.0508 -233.717 73.8625 -231.662 73.8698C-222.209 73.9085 -214.851 78.4672 -206.332 83.7443L-206.177 83.8404C-197.065 89.5405 -186.694 95.9505 -173.173 95.9948C-159.712 96.0388 -149.138 89.7252 -139.793 84.1454L-139.667 84.0701C-130.884 78.7865 -123.264 74.2452 -113.787 74.281C-104.334 74.3197 -96.9748 78.8784 -88.4566 84.1555L-88.3014 84.2516C-79.1895 89.9518 -68.8181 96.3618 -55.2971 96.4061C-41.8365 96.4501 -31.2621 90.1364 -21.9169 84.5566L-21.791 84.4814C-13.0079 79.1979 -5.38831 74.6565 4.0892 74.6924C13.5421 74.7311 20.9008 79.2897 29.4189 84.5667L29.5743 84.6629C38.6862 90.363 49.0576 96.7731 62.5787 96.8173C76.0392 96.8613 86.6136 90.5476 95.9588 84.9679L96.0848 84.8927C104.868 79.6091 112.487 75.0677 121.965 75.1035C131.418 75.1423 138.777 79.701 147.295 84.9782L147.45 85.0742L147.467 85.0846C156.578 90.7455 166.942 97.1844 180.454 97.2286C182.907 97.2352 185.263 97.0324 187.532 96.6624C198.368 95.2567 207.265 89.9444 215.263 85.1695L215.389 85.0942C224.172 79.8106 231.791 75.2692 241.269 75.3051C250.722 75.3438 258.08 79.9025 266.599 85.1794L266.754 85.2758L266.771 85.2859C275.882 90.9469 286.245 97.3859 299.758 97.4301C306.882 97.4677 313.737 95.7781 321.336 92.1599L321.31 92.0833C323.978 90.8529 326.495 89.4604 328.914 88.0586L330.704 87.0049C330.859 86.9105 331.006 86.8242 331.152 86.738C331.304 86.6486 331.456 86.5593 331.617 86.4613C331.915 86.2855 332.206 86.1088 332.496 85.9323C332.786 85.7561 333.075 85.5801 333.373 85.4047C333.656 85.2095 333.936 85.051 334.216 84.8924L334.217 84.8916C334.464 84.7298 334.744 84.5709 335.024 84.412C335.254 84.2669 335.49 84.1318 335.727 83.9966C335.963 83.8615 336.199 83.7265 336.428 83.5814C336.689 83.4319 336.945 83.2819 337.197 83.1338C337.589 82.9038 337.973 82.6785 338.356 82.4667C338.544 82.358 338.741 82.2413 338.941 82.1248C339.152 82.0023 339.368 81.88 339.582 81.7673C344.093 79.2662 348.599 77.1716 353.396 76.2144C355.288 75.8364 357.228 75.6481 359.283 75.6553C368.736 75.694 376.094 80.2526 384.612 85.5295L384.768 85.6259C393.88 91.3261 404.251 97.7361 417.772 97.7803C431.233 97.8243 441.807 91.5107 451.152 85.931L451.278 85.8557C460.062 80.5721 467.681 76.0307 477.159 76.0665C486.612 76.1053 493.97 80.6639 502.488 85.9409L502.644 86.0372C511.756 91.7373 522.127 98.1474 535.648 98.1917C549.109 98.2357 559.683 91.9219 569.028 86.342L569.154 86.267C577.937 80.9834 585.557 76.4421 595.034 76.4779C604.487 76.5166 611.846 81.0753 620.364 86.3524L620.52 86.4485C629.631 92.1486 640.003 98.5586 653.524 98.6028C666.984 98.6469 677.559 92.3332 686.904 86.7533L687.03 86.6782C695.813 81.3947 703.432 76.8533 712.91 76.8892C722.363 76.9279 729.722 81.4867 738.24 86.7639L738.395 86.8598C740.696 88.2893 742.619 89.7259 744.426 91.0756C749.777 95.0733 754.108 98.3088 764.216 98.3419C775.616 98.3727 784.922 93.8782 793.194 89.1018L837.354 0H-427.361Z" fill="#2F2C96"/>
<path d="M-419.443 41.1496L-418.223 28.1387C-414.704 29.5041 -411.068 30.3253 -407.058 30.3306C-397.58 30.3665 -389.961 25.8251 -381.145 20.5446C-374.824 16.7698 -367.939 12.6407 -360.003 10.3861C-355.846 9.184 -351.784 8.63906 -347.642 8.65666C-334.121 8.7009 -323.753 15.1476 -314.638 20.8111C-306.054 26.1288 -298.663 30.7427 -289.153 30.7817C-288.853 30.7727 -288.554 30.7637 -288.258 30.7914C-287.959 30.7824 -287.66 30.7733 -287.394 30.7613C-286.828 30.7402 -286.259 30.6824 -285.69 30.6246C-285.121 30.5669 -284.582 30.4694 -284.009 30.3749C-282.897 30.183 -281.811 29.9145 -280.722 29.6095C-280.245 29.4691 -279.735 29.3318 -279.254 29.1548C-278.944 29.0358 -278.638 28.9534 -278.329 28.8344C-276.271 28.1019 -274.229 27.1829 -272.206 26.1141C-271.125 25.5491 -270.009 24.9506 -268.921 24.3123C-268.397 24.0283 -267.87 23.7076 -267.346 23.4236C-266.015 22.6601 -264.68 21.86 -263.309 21.0262C-256.879 17.1506 -249.823 12.9635 -241.657 10.7304C-241.147 10.5931 -240.637 10.4558 -240.094 10.3216C-240.025 10.2911 -239.959 10.2972 -239.857 10.2698C-238.571 9.98315 -237.251 9.6996 -235.909 9.52916C-235.508 9.4927 -235.136 9.4165 -234.735 9.38004C-234.534 9.36181 -234.334 9.34356 -234.1 9.32841C-233.699 9.29195 -233.298 9.2555 -232.897 9.21904C-232.495 9.18259 -232.065 9.18588 -231.664 9.14942C-231.032 9.13449 -230.401 9.11957 -229.77 9.10464C-216.249 9.14887 -205.877 15.5589 -196.766 21.259C-188.181 26.5768 -180.791 31.1907 -171.28 31.2297C-161.803 31.2655 -154.183 26.7241 -145.4 21.4406C-136.024 15.8425 -125.415 9.47165 -111.894 9.51589C-98.3731 9.56013 -88.0052 16.0068 -78.8899 21.6703C-70.3056 26.988 -62.915 31.602 -53.4047 31.6409C-43.9272 31.6768 -36.3076 27.1354 -27.5245 21.8518C-18.1483 16.2537 -7.53949 9.88296 5.98154 9.92719C19.5026 9.97143 29.8705 16.4181 38.9858 22.0816C47.5701 27.3993 54.9606 32.0133 64.471 32.0522C73.9485 32.0881 81.568 27.5467 90.384 22.2662C99.7602 16.6681 110.369 10.2973 123.89 10.3416C137.411 10.3858 147.782 16.7958 156.894 22.496C165.479 27.8137 172.892 32.1832 182.402 32.2221C191.88 32.258 199.591 26.7387 208.374 21.4551C211.851 19.3753 215.48 17.4453 219.407 15.5186L217.984 30.6815C217.355 31.0297 216.755 31.4176 216.122 31.8024C206.746 37.4005 196 45.2381 182.479 45.1939C168.958 45.1496 158.59 38.7029 149.474 33.0395C140.89 27.7218 133.499 23.1078 123.989 23.0689C114.512 23.033 106.892 27.5744 98.1089 32.8579C88.7328 38.456 78.1239 44.8268 64.6028 44.7826C51.0818 44.7383 40.7139 38.2916 31.5985 32.6282C23.0143 27.3105 15.6237 22.6965 6.11337 22.6576C-3.36414 22.6217 -10.9837 27.1631 -19.7668 32.4466C-29.1429 38.0447 -39.7518 44.4156 -53.2729 44.3713C-66.7939 44.3271 -77.1618 37.8804 -86.2771 32.2169C-94.8614 26.8992 -102.252 22.2852 -111.762 22.2463C-121.24 22.2104 -128.859 26.7518 -137.675 32.0323C-147.051 37.6304 -157.66 44.0012 -171.181 43.957C-181.787 43.9266 -190.432 39.9722 -198.07 35.5201C-200.146 34.3268 -202.182 33.0631 -204.186 31.8025C-212.77 26.4848 -220.16 21.8709 -229.671 21.8319C-229.97 21.8409 -230.269 21.85 -230.565 21.8223C-232.926 21.8974 -235.146 22.2446 -237.318 22.7814C-237.861 22.9156 -238.375 23.0896 -238.918 23.2238C-239.191 23.3092 -239.464 23.3947 -239.737 23.4801C-245.044 25.2777 -250.067 28.2859 -255.58 31.5813C-258.214 33.148 -260.956 34.8155 -263.816 36.3241C-266.679 37.8693 -269.696 39.289 -272.857 40.4734C-273.92 40.8549 -274.984 41.2364 -276.11 41.5751C-276.485 41.688 -276.827 41.804 -277.199 41.8802C-277.742 42.0144 -278.321 42.1822 -278.864 42.3164C-279.068 42.3713 -279.236 42.3926 -279.44 42.4475C-279.812 42.5237 -280.184 42.6 -280.555 42.6762C-281.332 42.8255 -282.108 42.9749 -282.914 43.0845C-283.25 43.1271 -283.618 43.1666 -283.954 43.2092C-284.256 43.2549 -284.588 43.2608 -284.891 43.3065C-285.157 43.3186 -285.427 43.3673 -285.693 43.3794C-286.463 43.4554 -287.262 43.4917 -288.025 43.4943C-288.357 43.5002 -288.689 43.5061 -289.021 43.5121C-302.542 43.4678 -312.91 37.0211 -322.025 31.3577C-330.609 26.0399 -338 21.426 -347.51 21.387C-348.105 21.3684 -348.671 21.3895 -349.24 21.4472C-349.273 21.4442 -349.273 21.4442 -349.305 21.4411C-349.871 21.4622 -350.44 21.5199 -350.976 21.5807C-351.246 21.6295 -351.545 21.6385 -351.815 21.6873C-352.085 21.736 -352.318 21.7512 -352.588 21.7999C-352.792 21.8549 -353.025 21.87 -353.229 21.9249C-354.108 22.1017 -354.99 22.3152 -355.875 22.5654C-361.799 24.2312 -367.313 27.5265 -373.39 31.1761C-382.767 36.7742 -393.375 43.145 -406.929 43.0977C-411.462 43.0065 -415.572 42.2889 -419.443 41.1496Z" fill="#FFF7E1"/>
<path d="M-421.109 72.0667L-419.888 59.0559C-416.37 60.4212 -412.734 61.2425 -408.723 61.2478C-399.246 61.2836 -391.626 56.7423 -382.81 51.4618C-376.489 47.687 -369.605 43.5579 -361.669 41.3032C-357.512 40.1011 -353.45 39.5562 -349.308 39.5738C-335.787 39.618 -325.419 46.0648 -316.303 51.7282C-307.719 57.0459 -300.329 61.6599 -290.818 61.6988C-290.519 61.6898 -290.22 61.6808 -289.924 61.7085C-289.625 61.6995 -289.326 61.6905 -289.059 61.6784C-288.494 61.6573 -287.925 61.5995 -287.356 61.5418C-286.787 61.484 -286.247 61.3865 -285.675 61.2921C-284.563 61.1001 -283.477 60.8317 -282.388 60.5266C-281.91 60.3863 -281.4 60.249 -280.92 60.072C-280.61 59.9529 -280.304 59.8706 -279.994 59.7515C-277.937 59.019 -275.895 58.1 -273.872 57.0312C-272.791 56.4663 -271.674 55.8678 -270.587 55.2295C-270.063 54.9455 -269.535 54.6248 -269.012 54.3408C-267.68 53.5773 -266.345 52.7771 -264.974 51.9433C-258.544 48.0677 -251.488 43.8806 -243.323 41.6475C-242.813 41.5103 -242.303 41.373 -241.76 41.2388C-241.691 41.2083 -241.625 41.2144 -241.523 41.1869C-240.236 40.9003 -238.917 40.6167 -237.575 40.4463C-237.174 40.4098 -236.802 40.3336 -236.401 40.2972C-236.2 40.279 -235.999 40.2607 -235.766 40.2456C-235.365 40.2091 -234.963 40.1726 -234.562 40.1362C-234.161 40.0997 -233.73 40.103 -233.329 40.0666C-232.698 40.0516 -232.067 40.0367 -231.435 40.0218C-217.914 40.066 -207.543 46.476 -198.431 52.1762C-189.847 57.4939 -182.456 62.1079 -172.946 62.1468C-163.468 62.1827 -155.849 57.6413 -147.066 52.3577C-137.69 46.7596 -127.081 40.3888 -113.56 40.433C-100.039 40.4773 -89.6708 46.924 -80.5555 52.5874C-71.9712 57.9052 -64.5807 62.5191 -55.0703 62.5581C-45.5928 62.5939 -37.9732 58.0525 -29.1901 52.769C-19.814 47.1709 -9.20511 40.8001 4.31592 40.8443C17.8369 40.8886 28.2049 47.3353 37.3202 52.9987C45.9045 58.3165 53.295 62.9304 62.8054 62.9694C72.2829 63.0052 79.9024 58.4638 88.7184 53.1834C98.0945 47.5853 108.703 41.2145 122.224 41.2587C135.745 41.3029 146.117 47.713 155.229 53.4131C163.813 58.7308 171.204 63.3448 180.714 63.3837C190.191 63.4196 197.857 58.3893 206.64 53.1057C210.117 51.0259 213.768 48.8514 217.695 46.9247L216.25 62.3321C215.621 62.6802 215.021 63.0681 214.388 63.453C205.012 69.0511 194.334 76.1553 180.813 76.111C167.292 76.0668 156.924 69.6201 147.809 63.9566C139.224 58.6389 131.834 54.0249 122.323 53.986C112.846 53.9501 105.226 58.4915 96.4433 63.7751C87.0671 69.3732 76.4583 75.744 62.9372 75.6997C49.4162 75.6555 39.0483 69.2088 29.9329 63.5453C21.3487 58.2276 13.9581 53.6136 4.44775 53.5747C-5.02975 53.5388 -12.6493 58.0802 -21.4324 63.3638C-30.8086 68.9619 -41.4174 75.3327 -54.9385 75.2885C-68.4595 75.2442 -78.8274 68.7975 -87.9427 63.1341C-96.527 57.8163 -103.918 53.2024 -113.428 53.1634C-122.905 53.1276 -130.525 57.669 -139.341 62.9495C-148.717 68.5475 -159.326 74.9183 -172.847 74.8741C-183.452 74.8437 -192.098 70.8893 -199.736 66.4373C-201.812 65.2439 -203.848 63.9803 -205.851 62.7197C-214.436 57.402 -221.826 52.788 -231.336 52.7491C-231.636 52.7581 -231.935 52.7671 -232.231 52.7394C-234.591 52.8145 -236.812 53.1618 -238.984 53.6986C-239.527 53.8328 -240.04 54.0067 -240.583 54.1409C-240.856 54.2263 -241.13 54.3118 -241.403 54.3972C-246.71 56.1948 -251.732 59.2031 -257.246 62.4984C-259.879 64.0651 -262.621 65.7327 -265.481 67.2412C-268.344 68.7864 -271.362 70.2062 -274.523 71.3905C-275.586 71.772 -276.649 72.1535 -277.775 72.4922C-278.15 72.6051 -278.493 72.7211 -278.865 72.7973C-279.408 72.9315 -279.987 73.0993 -280.53 73.2335C-280.734 73.2884 -280.902 73.3097 -281.106 73.3647C-281.477 73.4409 -281.849 73.5171 -282.221 73.5933C-282.998 73.7427 -283.774 73.892 -284.58 74.0016C-284.915 74.0442 -285.284 74.0837 -285.619 74.1264C-285.922 74.172 -286.254 74.1779 -286.557 74.2236C-286.823 74.2357 -287.093 74.2845 -287.359 74.2966C-288.129 74.3726 -288.928 74.4088 -289.69 74.4114C-290.022 74.4174 -290.354 74.4233 -290.686 74.4292C-304.207 74.385 -314.575 67.9382 -323.691 62.2748C-332.275 56.9571 -339.666 52.3431 -349.176 52.3042C-349.771 52.2855 -350.336 52.3066 -350.905 52.3644C-350.938 52.3613 -350.938 52.3613 -350.971 52.3582C-351.537 52.3793 -352.106 52.437 -352.642 52.4979C-352.911 52.5466 -353.211 52.5557 -353.48 52.6044C-353.75 52.6532 -353.984 52.6683 -354.253 52.7171C-354.457 52.772 -354.691 52.7871 -354.895 52.8421C-355.773 53.0189 -356.655 53.2324 -357.541 53.4825C-363.465 55.1483 -368.979 58.4436 -375.056 62.0933C-384.432 67.6913 -395.041 74.0622 -408.595 74.0149C-413.128 73.9237 -417.238 73.2061 -421.109 72.0667Z" fill="#FFF7E1"/>
<path d="M168.366 42.1499L169.518 29.8724C173.036 31.2378 176.672 32.0591 180.683 32.0644C190.16 32.1002 197.78 27.5588 206.596 22.2784C212.917 18.5035 219.802 14.3745 227.737 12.1198C231.894 10.9177 235.956 10.3728 240.098 10.3904C253.619 10.4346 263.987 16.8813 273.103 22.5448C281.687 27.8625 289.077 32.4765 298.588 32.5154C298.887 32.5064 299.186 32.4974 299.482 32.5251C299.781 32.5161 300.08 32.5071 300.347 32.495C300.912 32.4739 301.481 32.4161 302.05 32.3584C302.619 32.3006 303.159 32.2031 303.731 32.1086C304.843 31.9167 305.929 31.6483 307.018 31.3432C307.496 31.2028 308.006 31.0656 308.487 30.8885C308.796 30.7695 309.102 30.6871 309.412 30.5681C311.469 29.8356 313.511 28.9166 315.534 27.8478C316.615 27.2829 317.732 26.6843 318.819 26.0461C319.343 25.7621 319.871 25.4414 320.395 25.1574C321.726 24.3939 323.061 23.5937 324.432 22.7599C330.862 18.8843 337.918 14.6972 346.083 12.4641C346.593 12.3268 347.103 12.1896 347.646 12.0554C347.715 12.0248 347.781 12.031 347.883 12.0035C349.17 11.7169 350.489 11.4333 351.831 11.2629C352.232 11.2264 352.604 11.1502 353.005 11.1138C353.206 11.0955 353.407 11.0773 353.64 11.0621C354.041 11.0257 354.443 10.9892 354.844 10.9528C355.245 10.9163 355.676 10.9196 356.077 10.8831C356.708 10.8682 357.339 10.8533 357.971 10.8384C371.492 10.8826 381.863 17.2926 390.975 22.9928C399.559 28.3105 406.95 32.9244 416.46 32.9634C425.938 32.9992 433.557 28.4579 442.34 23.1743C451.716 17.5762 462.325 11.2054 475.846 11.2496C489.367 11.2939 499.735 17.7406 508.851 23.404C517.435 28.7217 524.825 33.3357 534.336 33.3746C543.813 33.4105 551.433 28.8691 560.216 23.5856C569.592 17.9875 580.201 11.6167 593.722 11.6609C607.243 11.7052 617.611 18.1519 626.726 23.8153C635.311 29.133 642.701 34.2464 652.211 34.2853C661.689 34.3212 669.308 29.2804 678.124 23.9999C687.501 18.4018 698.11 12.0311 711.631 12.0753C725.152 12.1195 735.523 18.5296 744.635 24.2297C753.219 29.5474 760.61 34.1614 770.12 34.2003C779.598 34.2362 787.217 29.6948 796 24.4112C799.477 22.3314 803.129 20.1569 807.055 18.2302L805.587 33.8821C804.958 34.2303 804.358 34.6181 803.725 35.003C794.349 40.6011 783.74 46.9718 770.219 46.9276C756.698 46.8834 746.33 40.4367 737.215 34.7732C728.63 29.4555 721.24 24.8415 711.729 24.8026C702.252 24.7667 694.632 29.3081 685.849 34.5917C676.473 40.1898 665.864 46.5605 652.343 46.5163C638.822 46.4721 628.454 40.0254 619.339 34.3619C610.755 29.0442 603.364 24.4302 593.854 24.3913C584.376 24.3554 576.757 28.8968 567.974 34.1804C558.597 39.7785 547.989 46.1493 534.468 46.105C520.947 46.0608 510.579 39.6141 501.463 33.9507C492.879 28.6329 485.488 24.019 475.978 23.98C466.501 23.9442 458.881 28.4855 450.065 33.766C440.689 39.3641 430.08 45.7349 416.559 45.6907C405.954 45.6603 397.308 41.7059 389.67 37.2538C387.594 36.0605 385.558 34.7968 383.555 33.5363C374.971 28.2186 367.58 23.6046 358.07 23.5657C357.77 23.5747 357.471 23.5837 357.175 23.556C354.815 23.6311 352.594 23.9783 350.422 24.5151C349.879 24.6493 349.366 24.8233 348.823 24.9575C348.55 25.0429 348.276 25.1284 348.003 25.2138C342.696 27.0114 337.674 30.0196 332.16 33.315C329.527 34.8817 326.785 36.5493 323.925 38.0578C321.062 39.603 318.044 41.0228 314.883 42.2071C313.82 42.5886 312.757 42.9701 311.631 43.3088C311.256 43.4217 310.913 43.5377 310.542 43.6139C309.999 43.7481 309.419 43.9159 308.876 44.0501C308.672 44.105 308.504 44.1263 308.3 44.1812C307.929 44.2575 307.557 44.3337 307.185 44.4099C306.409 44.5592 305.632 44.7086 304.826 44.8182C304.491 44.8608 304.122 44.9003 303.787 44.9429C303.484 44.9886 303.152 44.9945 302.849 45.0402C302.583 45.0523 302.313 45.1011 302.047 45.1131C301.277 45.1891 300.479 45.2254 299.716 45.228C299.384 45.2339 299.052 45.2399 298.72 45.2458C285.199 45.2015 274.831 38.7548 265.715 33.0914C257.131 27.7737 249.741 23.1597 240.23 23.1208C239.635 23.1021 239.07 23.1232 238.501 23.181C238.468 23.1779 238.468 23.1779 238.435 23.1748C237.869 23.1959 237.301 23.2536 236.764 23.3145C236.495 23.3632 236.195 23.3722 235.926 23.421C235.656 23.4698 235.422 23.4849 235.153 23.5337C234.949 23.5886 234.715 23.6037 234.511 23.6586C233.633 23.8355 232.751 24.049 231.865 24.2991C225.941 25.9649 220.427 29.2602 214.35 32.9098C204.974 38.5079 194.365 44.8788 180.811 44.8314C176.278 44.7403 172.237 43.2892 168.366 42.1499Z" fill="#FFF7E1"/>
<path d="M167.611 73.8934L168.831 60.8825C172.35 62.2479 175.985 63.0691 179.996 63.0744C189.473 63.1103 197.093 58.5689 205.909 53.2884C212.23 49.5136 219.115 45.3845 227.05 43.1299C231.207 41.9278 235.269 41.3829 239.412 41.4005C252.933 41.4447 263.3 47.8914 272.416 53.5549C281 58.8726 288.391 63.4865 297.901 63.5255C298.2 63.5165 298.499 63.5075 298.795 63.5352C299.094 63.5262 299.394 63.5171 299.66 63.5051C300.225 63.484 300.794 63.4262 301.363 63.3684C301.932 63.3107 302.472 63.2132 303.044 63.1187C304.156 62.9268 305.242 62.6583 306.332 62.3533C306.809 62.2129 307.319 62.0756 307.8 61.8986C308.109 61.7796 308.415 61.6972 308.725 61.5782C310.783 60.8457 312.825 59.9267 314.848 58.8579C315.928 58.2929 317.045 57.6944 318.133 57.0561C318.656 56.7721 319.184 56.4514 319.708 56.1674C321.039 55.4039 322.374 54.6038 323.745 53.77C330.175 49.8944 337.231 45.7073 345.396 43.4742C345.906 43.3369 346.417 43.1996 346.959 43.0654C347.029 43.0349 347.094 43.041 347.196 43.0136C348.483 42.7269 349.802 42.4434 351.144 42.273C351.546 42.2365 351.917 42.1603 352.319 42.1238C352.519 42.1056 352.72 42.0874 352.953 42.0722C353.355 42.0358 353.756 41.9993 354.157 41.9628C354.558 41.9264 354.989 41.9297 355.39 41.8932C356.021 41.8783 356.653 41.8634 357.284 41.8484C370.805 41.8927 381.176 48.3027 390.288 54.0028C398.872 59.3206 406.263 63.9345 415.773 63.9735C425.251 64.0093 432.87 59.4679 441.653 54.1844C451.03 48.5863 461.638 42.2155 475.159 42.2597C488.68 42.3039 499.048 48.7507 508.164 54.4141C516.748 59.7318 524.139 64.3458 533.649 64.3847C543.127 64.4206 550.746 59.8792 559.529 54.5956C568.905 48.9975 579.514 42.6268 593.035 42.671C606.556 42.7152 616.924 49.162 626.039 54.8254C634.624 60.1431 642.014 64.7571 651.525 64.796C661.002 64.8319 668.622 60.2905 677.438 55.01C686.814 49.4119 697.423 43.0411 710.944 43.0854C724.465 43.1296 734.836 49.5396 743.948 55.2398C752.532 60.5575 759.923 65.1715 769.433 65.2104C778.911 65.2463 786.53 60.7049 795.313 55.4213C798.79 53.3415 802.442 51.167 806.369 49.2403L804.9 64.8922C804.271 65.2403 803.671 65.6282 803.038 66.013C793.662 71.6111 783.053 77.9819 769.532 77.9377C756.011 77.8935 745.643 71.4467 736.528 65.7833C727.944 60.4656 720.553 55.8516 711.043 55.8127C701.565 55.7768 693.946 60.3182 685.163 65.6017C675.786 71.1998 665.177 77.5706 651.656 77.5264C638.135 77.4822 627.768 71.0354 618.652 65.372C610.068 60.0543 602.677 55.4403 593.167 55.4014C583.69 55.3655 576.07 59.9069 567.287 65.1904C557.911 70.7885 547.302 77.1594 533.781 77.1151C520.26 77.0709 509.892 70.6242 500.776 64.9607C492.192 59.643 484.802 55.029 475.291 54.9901C465.814 54.9542 458.194 59.4956 449.378 64.7761C440.002 70.3742 429.393 76.745 415.872 76.7008C405.267 76.6704 396.621 72.716 388.983 68.2639C386.908 67.0706 384.871 65.8069 382.868 64.5463C374.284 59.2286 366.893 54.6147 357.383 54.5757C357.084 54.5847 356.784 54.5938 356.489 54.5661C354.128 54.6412 351.907 54.9884 349.736 55.5252C349.193 55.6594 348.679 55.8334 348.136 55.9676C347.863 56.053 347.59 56.1385 347.316 56.2239C342.009 58.0215 336.987 61.0297 331.473 64.3251C328.84 65.8918 326.098 67.5593 323.238 69.0679C320.375 70.6131 317.358 72.0328 314.197 73.2172C313.133 73.5987 312.07 73.9802 310.944 74.3189C310.569 74.4318 310.227 74.5478 309.855 74.624C309.312 74.7582 308.732 74.926 308.189 75.0602C307.985 75.1151 307.818 75.1364 307.614 75.1913C307.242 75.2675 306.87 75.3438 306.498 75.42C305.722 75.5693 304.945 75.7187 304.139 75.8283C303.804 75.8709 303.436 75.9104 303.1 75.953C302.797 75.9987 302.465 76.0046 302.163 76.0503C301.896 76.0624 301.627 76.1111 301.36 76.1232C300.591 76.1992 299.792 76.2355 299.029 76.2381C298.697 76.244 298.365 76.2499 298.033 76.2559C284.512 76.2116 274.144 69.7649 265.029 64.1015C256.444 58.7837 249.054 54.1698 239.543 54.1308C238.948 54.1122 238.383 54.1333 237.814 54.191C237.781 54.188 237.781 54.188 237.748 54.1849C237.183 54.206 236.614 54.2637 236.078 54.3245C235.808 54.3733 235.509 54.3823 235.239 54.4311C234.969 54.4798 234.736 54.495 234.466 54.5437C234.262 54.5987 234.028 54.6138 233.824 54.6687C232.946 54.8455 232.064 55.059 231.179 55.3092C225.254 56.975 219.74 60.2703 213.663 63.9199C204.287 69.518 193.678 75.8888 180.124 75.8415C175.591 75.7503 171.482 75.0327 167.611 73.8934Z" fill="#FFF7E1"/>
<path d="M640.896 44.8678L642.116 32.3564C645.635 33.7217 649.271 34.0436 653.281 34.0489C662.759 34.0847 670.378 29.044 679.194 23.7635C685.515 19.9887 692.4 15.8596 700.335 13.6049C704.493 12.4028 708.555 11.8579 712.697 11.8755C726.218 11.9197 736.586 18.3665 745.701 24.0299C754.285 29.3476 761.676 33.9616 771.186 34.0005C771.485 33.9915 771.785 33.9825 772.08 34.0102C772.38 34.0012 772.679 33.9922 772.945 33.9801C773.511 33.959 774.08 33.9012 774.649 33.8435C775.218 33.7857 775.757 33.6882 776.329 33.5938C777.441 33.4018 778.527 33.1334 779.617 32.8283C780.094 32.688 780.604 32.5507 781.085 32.3736C781.395 32.2546 781.7 32.1722 782.01 32.0532C784.068 31.3207 786.11 30.4017 788.133 29.3329C789.214 28.768 790.33 28.1695 791.418 27.5312C791.942 27.2472 792.469 26.9265 792.993 26.6425C794.324 25.879 795.659 25.0788 797.03 24.245C803.46 20.3694 810.516 16.1823 818.682 13.9492C819.192 13.812 819.702 13.6747 820.245 13.5405C820.314 13.51 820.38 13.5161 820.482 13.4886C821.768 13.202 823.088 12.9184 824.43 12.748C824.831 12.7115 825.203 12.6353 825.604 12.5989C825.804 12.5806 826.005 12.5624 826.239 12.5472C826.64 12.5108 827.041 12.4743 827.442 12.4379C827.844 12.4014 828.274 12.4047 828.675 12.3683C829.307 12.3533 829.938 12.3384 830.569 12.3235C844.09 12.3677 854.461 18.7777 863.573 24.4779C872.158 29.7956 879.548 34.4096 889.058 34.4485C898.536 34.4844 906.156 29.943 914.939 24.6594C924.315 19.0613 934.924 12.6905 948.445 12.7347C961.966 12.779 972.334 19.2257 981.449 24.8891C990.033 30.2069 997.424 34.8208 1006.93 34.8598C1016.41 34.8956 1024.03 30.3542 1032.81 25.0707C1042.19 19.4726 1052.8 13.1018 1066.32 13.146C1079.84 13.1903 1090.21 19.637 1099.32 25.3004C1107.91 30.6182 1115.3 35.2321 1124.81 35.2711C1134.29 35.3069 1141.91 30.7655 1150.72 25.485C1160.1 19.887 1170.71 13.5162 1184.23 13.5604C1197.75 13.6046 1208.12 20.0147 1217.23 25.7148C1225.82 31.0325 1233.23 35.402 1242.74 35.441C1252.22 35.4768 1259.93 29.9575 1268.71 24.674C1272.19 22.5942 1275.82 20.6641 1279.75 18.7374L1278.32 33.9004C1277.69 34.2485 1277.09 34.6364 1276.46 35.0212C1267.08 40.6193 1256.34 48.457 1242.82 48.4127C1229.3 48.3685 1218.93 41.9218 1209.81 36.2583C1201.23 30.9406 1193.84 26.3266 1184.33 26.2877C1174.85 26.2518 1167.23 30.7932 1158.45 36.0768C1149.07 41.6749 1138.46 48.0457 1124.94 48.0014C1111.42 47.9572 1101.05 41.5105 1091.94 35.847C1083.35 30.5293 1075.96 25.9153 1066.45 25.8764C1056.97 25.8405 1049.36 30.3819 1040.57 35.6655C1031.2 41.2636 1020.59 47.6344 1007.07 47.5902C993.545 47.5459 983.177 41.0992 974.062 35.4358C965.478 30.118 958.087 25.5041 948.577 25.4651C939.099 25.4293 931.479 29.9707 922.664 35.2511C913.287 40.8492 902.678 47.22 889.157 47.1758C878.552 47.1454 869.906 43.191 862.269 38.739C860.193 37.5456 858.156 36.282 856.153 35.0214C847.569 29.7037 840.178 25.0897 830.668 25.0508C830.369 25.0598 830.07 25.0688 829.774 25.0411C827.413 25.1162 825.193 25.4634 823.021 26.0003C822.478 26.1345 821.964 26.3084 821.421 26.4426C821.148 26.528 820.875 26.6135 820.602 26.6989C815.295 28.4965 810.272 31.5048 804.758 34.8001C802.125 36.3668 799.383 38.0344 796.523 39.5429C793.66 41.0881 790.643 42.5079 787.482 43.6922C786.418 44.0737 785.355 44.4552 784.229 44.7939C783.854 44.9068 783.512 45.0228 783.14 45.099C782.597 45.2332 782.018 45.401 781.475 45.5352C781.271 45.5901 781.103 45.6114 780.899 45.6664C780.527 45.7426 780.155 45.8188 779.783 45.895C779.007 46.0444 778.23 46.1937 777.425 46.3033C777.089 46.3459 776.721 46.3854 776.385 46.428C776.083 46.4737 775.751 46.4797 775.448 46.5253C775.182 46.5374 774.912 46.5862 774.646 46.5983C773.876 46.6743 773.077 46.7105 772.314 46.7131C771.982 46.7191 771.65 46.725 771.318 46.7309C757.797 46.6867 747.429 40.2399 738.314 34.5765C729.73 29.2588 722.339 24.6448 712.829 24.6059C712.234 24.5872 711.668 24.6083 711.099 24.6661C711.066 24.663 711.066 24.663 711.033 24.6599C710.468 24.681 709.899 24.7387 709.363 24.7996C709.093 24.8483 708.794 24.8573 708.524 24.9061C708.254 24.9549 708.021 24.97 707.751 25.0188C707.547 25.0737 707.314 25.0888 707.109 25.1438C706.231 25.3206 705.349 25.5341 704.464 25.7842C698.539 27.45 693.026 30.7453 686.948 34.395C677.572 39.993 666.963 46.3639 653.41 46.3166C648.877 46.2254 644.767 46.0072 640.896 44.8678Z" fill="#FFF7E1"/>
<path d="M639.23 75.2836L640.451 62.7721C643.969 64.1375 647.605 64.9588 651.615 64.9641C661.093 64.9999 668.713 59.9591 677.528 54.6787C683.849 50.9038 690.734 46.7748 698.67 44.5201C702.827 43.318 706.889 42.7731 711.031 42.7907C724.552 42.8349 734.92 49.2816 744.035 54.9451C752.62 60.2628 760.01 64.8768 769.521 64.9157C769.82 64.9067 770.119 64.8977 770.415 64.9254C770.714 64.9164 771.013 64.9074 771.279 64.8953C771.845 64.8742 772.414 64.8164 772.983 64.7587C773.552 64.7009 774.091 64.6034 774.664 64.5089C775.776 64.317 776.862 64.0486 777.951 63.7435C778.428 63.6031 778.939 63.4659 779.419 63.2888C779.729 63.1698 780.035 63.0874 780.344 62.9684C782.402 62.2359 784.444 61.3169 786.467 60.2481C787.548 59.6832 788.665 59.0846 789.752 58.4464C790.276 58.1624 790.803 57.8417 791.327 57.5577C792.659 56.7942 793.993 55.994 795.364 55.1602C801.794 51.2846 808.85 47.0975 817.016 44.8644C817.526 44.7271 818.036 44.5899 818.579 44.4557C818.648 44.4251 818.714 44.4313 818.816 44.4038C820.103 44.1172 821.422 43.8336 822.764 43.6632C823.165 43.6267 823.537 43.5505 823.938 43.5141C824.139 43.4958 824.339 43.4776 824.573 43.4624C824.974 43.426 825.375 43.3895 825.776 43.3531C826.178 43.3166 826.608 43.3199 827.01 43.2835C827.641 43.2685 828.272 43.2536 828.903 43.2387C842.424 43.2829 852.796 49.6929 861.908 55.3931C870.492 60.7108 877.882 65.3247 887.393 65.3637C896.87 65.3995 904.49 60.8582 913.273 55.5746C922.649 49.9765 933.258 43.6057 946.779 43.6499C960.3 43.6942 970.668 50.1409 979.783 55.8043C988.368 61.122 995.758 65.736 1005.27 65.7749C1014.75 65.8108 1022.37 61.2694 1031.15 55.9859C1040.52 50.3878 1051.13 44.017 1064.65 44.0612C1078.18 44.1055 1088.54 50.5522 1097.66 56.2156C1106.24 61.5333 1113.63 66.1473 1123.14 66.1862C1132.62 66.2221 1140.24 61.6807 1149.06 56.4002C1158.43 50.8021 1169.04 44.4314 1182.56 44.4756C1196.08 44.5198 1206.46 50.9299 1215.57 56.63C1224.15 61.9477 1231.54 66.5617 1241.05 66.6006C1250.53 66.6365 1258.2 61.6062 1266.98 56.3226C1270.46 54.2428 1274.11 52.0683 1278.03 50.1416L1276.59 65.549C1275.96 65.8971 1275.36 66.285 1274.73 66.6698C1265.35 72.2679 1254.67 79.3722 1241.15 79.3279C1227.63 79.2837 1217.26 72.837 1208.15 67.1735C1199.56 61.8558 1192.17 57.2418 1182.66 57.2029C1173.18 57.167 1165.57 61.7084 1156.78 66.992C1147.41 72.5901 1136.8 78.9609 1123.28 78.9166C1109.76 78.8724 1099.39 72.4257 1090.27 66.7622C1081.69 61.4445 1074.3 56.8305 1064.79 56.7916C1055.31 56.7557 1047.69 61.2971 1038.91 66.5807C1029.53 72.1788 1018.92 78.5496 1005.4 78.5054C991.879 78.4611 981.511 72.0144 972.396 66.351C963.812 61.0332 956.421 56.4193 946.911 56.3803C937.433 56.3445 929.814 60.8858 920.998 66.1663C911.622 71.7644 901.013 78.1352 887.492 78.091C876.887 78.0606 868.241 74.1062 860.603 69.6541C858.527 68.4608 856.491 67.1971 854.488 65.9366C845.903 60.6189 838.513 56.0049 829.002 55.966C828.703 55.975 828.404 55.984 828.108 55.9563C825.747 56.0314 823.527 56.3786 821.355 56.9154C820.812 57.0496 820.298 57.2236 819.755 57.3578C819.482 57.4432 819.209 57.5287 818.936 57.6141C813.629 59.4117 808.606 62.4199 803.093 65.7153C800.46 67.282 797.717 68.9496 794.858 70.4581C791.994 72.0033 788.977 73.4231 785.816 74.6074C784.753 74.9889 783.689 75.3704 782.564 75.7091C782.188 75.822 781.846 75.938 781.474 76.0142C780.931 76.1484 780.352 76.3162 779.809 76.4504C779.605 76.5053 779.437 76.5266 779.233 76.5815C778.861 76.6578 778.49 76.734 778.118 76.8102C777.341 76.9595 776.565 77.1089 775.759 77.2185C775.423 77.2611 775.055 77.3006 774.72 77.3432C774.417 77.3889 774.085 77.3948 773.782 77.4405C773.516 77.4526 773.246 77.5014 772.98 77.5135C772.21 77.5894 771.411 77.6257 770.649 77.6283C770.317 77.6342 769.984 77.6402 769.652 77.6461C756.131 77.6018 745.763 71.1551 736.648 65.4917C728.064 60.174 720.673 55.56 711.163 55.5211C710.568 55.5024 710.002 55.5235 709.433 55.5813C709.401 55.5782 709.401 55.5782 709.368 55.5751C708.802 55.5962 708.233 55.6539 707.697 55.7148C707.427 55.7635 707.128 55.7725 706.858 55.8213C706.589 55.8701 706.355 55.8852 706.085 55.934C705.881 55.9889 705.648 56.004 705.444 56.0589C704.565 56.2358 703.683 56.4493 702.798 56.6994C696.874 58.3652 691.36 61.6605 685.283 65.3101C675.907 70.9082 665.298 77.2791 651.744 77.2318C647.211 77.1406 643.101 76.423 639.23 75.2836Z" fill="#FFF7E1"/>
<path d="M1228.67 45.7238L1229.82 33.4463C1233.34 34.8117 1236.98 35.633 1240.99 35.6383C1250.47 35.6741 1258.09 31.1327 1266.9 25.8522C1273.22 22.0774 1280.11 17.9483 1288.04 15.6937C1292.2 14.4916 1296.26 13.9467 1300.4 13.9643C1313.92 14.0085 1324.29 20.4552 1333.41 26.1187C1341.99 31.4364 1349.38 36.0504 1358.89 36.0893C1359.19 36.0803 1359.49 36.0713 1359.79 36.099C1360.09 36.09 1360.39 36.081 1360.65 36.0689C1361.22 36.0478 1361.79 35.99 1362.36 35.9323C1362.92 35.8745 1363.46 35.777 1364.04 35.6825C1365.15 35.4906 1366.23 35.2222 1367.32 34.9171C1367.8 34.7767 1368.31 34.6395 1368.79 34.4624C1369.1 34.3434 1369.41 34.261 1369.72 34.142C1371.77 33.4095 1373.82 32.4905 1375.84 31.4217C1376.92 30.8567 1378.04 30.2582 1379.12 29.6199C1379.65 29.3359 1380.18 29.0152 1380.7 28.7312C1382.03 27.9678 1383.37 27.1676 1384.74 26.3338C1391.17 22.4582 1398.22 18.2711 1406.39 16.038C1406.9 15.9007 1407.41 15.7635 1407.95 15.6293C1408.02 15.5987 1408.09 15.6048 1408.19 15.5774C1409.48 15.2908 1410.79 15.0072 1412.14 14.8368C1412.54 14.8003 1412.91 14.7241 1413.31 14.6876C1413.51 14.6694 1413.71 14.6512 1413.95 14.636C1414.35 14.5996 1414.75 14.5631 1415.15 14.5267C1415.55 14.4902 1415.98 14.4935 1416.38 14.457C1417.01 14.4421 1417.64 14.4272 1418.28 14.4122C1431.8 14.4565 1442.17 20.8665 1451.28 26.5666C1459.86 31.8844 1467.26 36.4983 1476.77 36.5373C1486.24 36.5731 1493.86 32.0318 1502.65 26.7482C1512.02 21.1501 1522.63 14.7793 1536.15 14.8235C1549.67 14.8677 1560.04 21.3145 1569.16 26.9779C1577.74 32.2956 1585.13 36.9096 1594.64 36.9485C1604.12 36.9844 1611.74 32.443 1620.52 27.1594C1629.9 21.5614 1640.51 15.1906 1654.03 15.2348C1667.55 15.279 1677.92 21.7258 1687.03 27.3892C1695.62 32.7069 1703.01 37.3209 1712.52 37.3598C1721.99 37.3957 1729.61 32.8543 1738.43 27.5738C1747.81 21.9757 1758.41 15.6049 1771.94 15.6492C1785.46 15.6934 1795.83 22.1035 1804.94 27.8036C1813.52 33.1213 1820.91 37.7353 1830.43 37.7742C1839.9 37.8101 1847.52 33.2687 1856.31 27.9851C1859.78 25.9053 1863.43 23.7308 1867.36 21.8041L1865.89 37.456C1865.26 37.8041 1864.66 38.192 1864.03 38.5769C1854.65 44.1749 1844.05 50.5457 1830.52 50.5015C1817 50.4573 1806.64 44.0105 1797.52 38.3471C1788.94 33.0294 1781.55 28.4154 1772.03 28.3765C1762.56 28.3406 1754.94 32.882 1746.15 38.1656C1736.78 43.7636 1726.17 50.1344 1712.65 50.0902C1699.13 50.046 1688.76 43.5992 1679.64 37.9358C1671.06 32.6181 1663.67 28.0041 1654.16 27.9652C1644.68 27.9293 1637.06 32.4707 1628.28 37.7542C1618.9 43.3523 1608.29 49.7232 1594.77 49.6789C1581.25 49.6347 1570.88 43.188 1561.77 37.5245C1553.18 32.2068 1545.79 27.5929 1536.28 27.5539C1526.81 27.5181 1519.19 32.0594 1510.37 37.3399C1500.99 42.938 1490.39 49.3088 1476.86 49.2646C1466.26 49.2342 1457.61 45.2798 1449.98 40.8277C1447.9 39.6344 1445.86 38.3707 1443.86 37.1102C1435.28 31.7924 1427.89 27.1785 1418.37 27.1395C1418.08 27.1485 1417.78 27.1576 1417.48 27.1299C1415.12 27.205 1412.9 27.5522 1410.73 28.089C1410.18 28.2232 1409.67 28.3972 1409.13 28.5314C1408.85 28.6168 1408.58 28.7023 1408.31 28.7877C1403 30.5853 1397.98 33.5935 1392.47 36.8889C1389.83 38.4556 1387.09 40.1232 1384.23 41.6317C1381.37 43.1769 1378.35 44.5967 1375.19 45.781C1374.13 46.1625 1373.06 46.544 1371.94 46.8827C1371.56 46.9956 1371.22 47.1116 1370.85 47.1878C1370.3 47.322 1369.72 47.4898 1369.18 47.624C1368.98 47.6789 1368.81 47.7002 1368.61 47.7551C1368.23 47.8313 1367.86 47.9076 1367.49 47.9838C1366.71 48.1331 1365.94 48.2825 1365.13 48.3921C1364.8 48.4347 1364.43 48.4742 1364.09 48.5168C1363.79 48.5625 1363.46 48.5684 1363.15 48.6141C1362.89 48.6262 1362.62 48.675 1362.35 48.687C1361.58 48.763 1360.78 48.7993 1360.02 48.8019C1359.69 48.8078 1359.36 48.8137 1359.02 48.8197C1345.5 48.7754 1335.14 42.3287 1326.02 36.6653C1317.44 31.3475 1310.05 26.7336 1300.54 26.6946C1299.94 26.676 1299.38 26.6971 1298.81 26.7548C1298.77 26.7518 1298.77 26.7518 1298.74 26.7487C1298.17 26.7698 1297.61 26.8275 1297.07 26.8884C1296.8 26.9371 1296.5 26.9461 1296.23 26.9949C1295.96 27.0436 1295.73 27.0588 1295.46 27.1075C1295.25 27.1625 1295.02 27.1776 1294.82 27.2325C1293.94 27.4093 1293.06 27.6228 1292.17 27.873C1286.25 29.5388 1280.73 32.8341 1274.66 36.4837C1265.28 42.0818 1254.67 48.4526 1241.12 48.4053C1236.58 48.3141 1232.54 46.8631 1228.67 45.7238Z" fill="#FFF7E1"/>
<path d="M1227.92 77.4673L1229.14 64.4564C1232.65 65.8218 1236.29 66.643 1240.3 66.6483C1249.78 66.6842 1257.4 62.1428 1266.21 56.8623C1272.54 53.0875 1279.42 48.9584 1287.36 46.7038C1291.51 45.5017 1295.57 44.9567 1299.72 44.9743C1313.24 45.0186 1323.61 51.4653 1332.72 57.1287C1341.31 62.4465 1348.7 67.0604 1358.21 67.0994C1358.51 67.0904 1358.8 67.0814 1359.1 67.1091C1359.4 67.1001 1359.7 67.091 1359.97 67.079C1360.53 67.0579 1361.1 67.0001 1361.67 66.9423C1362.24 66.8846 1362.78 66.7871 1363.35 66.6926C1364.46 66.5006 1365.55 66.2322 1366.64 65.9272C1367.11 65.7868 1367.62 65.6495 1368.1 65.4725C1368.41 65.3535 1368.72 65.2711 1369.03 65.1521C1371.09 64.4195 1373.13 63.5005 1375.15 62.4317C1376.23 61.8668 1377.35 61.2683 1378.44 60.63C1378.96 60.346 1379.49 60.0253 1380.01 59.7413C1381.34 58.9778 1382.68 58.1777 1384.05 57.3439C1390.48 53.4683 1397.54 49.2812 1405.7 47.0481C1406.21 46.9108 1406.72 46.7735 1407.26 46.6393C1407.33 46.6088 1407.4 46.6149 1407.5 46.5875C1408.79 46.3008 1410.11 46.0173 1411.45 45.8468C1411.85 45.8104 1412.22 45.7342 1412.62 45.6977C1412.82 45.6795 1413.03 45.6613 1413.26 45.6461C1413.66 45.6096 1414.06 45.5732 1414.46 45.5367C1414.86 45.5003 1415.29 45.5036 1415.7 45.4671C1416.33 45.4522 1416.96 45.4373 1417.59 45.4223C1431.11 45.4666 1441.48 51.8766 1450.59 57.5767C1459.18 62.8944 1466.57 67.5084 1476.08 67.5473C1485.56 67.5832 1493.18 63.0418 1501.96 57.7583C1511.33 52.1602 1521.94 45.7893 1535.46 45.8336C1548.99 45.8778 1559.35 52.3245 1568.47 57.988C1577.05 63.3057 1584.44 67.9197 1593.95 67.9586C1603.43 67.9945 1611.05 63.4531 1619.83 58.1695C1629.21 52.5714 1639.82 46.2006 1653.34 46.2449C1666.86 46.2891 1677.23 52.7358 1686.34 58.3993C1694.93 63.717 1702.32 68.331 1711.83 68.3699C1721.31 68.4058 1728.93 63.8644 1737.74 58.5839C1747.12 52.9858 1757.73 46.615 1771.25 46.6593C1784.77 46.7035 1795.14 53.1135 1804.25 58.8137C1812.84 64.1314 1820.23 68.7453 1829.74 68.7843C1839.22 68.8201 1846.84 64.2788 1855.62 58.9952C1859.1 56.9154 1862.75 54.7409 1866.67 52.8142L1865.21 68.4661C1864.58 68.8142 1863.98 69.2021 1863.34 69.5869C1853.97 75.185 1843.36 81.5558 1829.84 81.5116C1816.32 81.4673 1805.95 75.0206 1796.83 69.3572C1788.25 64.0395 1780.86 59.4255 1771.35 59.3865C1761.87 59.3507 1754.25 63.8921 1745.47 69.1756C1736.09 74.7737 1725.48 81.1445 1711.96 81.1003C1698.44 81.056 1688.07 74.6093 1678.96 68.9459C1670.37 63.6281 1662.98 59.0142 1653.47 58.9752C1643.99 58.9394 1636.38 63.4808 1627.59 68.7643C1618.22 74.3624 1607.61 80.7332 1594.09 80.689C1580.57 80.6448 1570.2 74.1981 1561.08 68.5346C1552.5 63.2169 1545.11 58.6029 1535.6 58.564C1526.12 58.5281 1518.5 63.0695 1509.68 68.35C1500.31 73.9481 1489.7 80.3189 1476.18 80.2746C1465.57 80.2443 1456.93 76.2899 1449.29 71.8378C1447.21 70.6444 1445.18 69.3808 1443.17 68.1202C1434.59 62.8025 1427.2 58.1886 1417.69 58.1496C1417.39 58.1586 1417.09 58.1676 1416.79 58.14C1414.43 58.2151 1412.21 58.5623 1410.04 59.0991C1409.5 59.2333 1408.98 59.4072 1408.44 59.5415C1408.17 59.6269 1407.89 59.7123 1407.62 59.7978C1402.31 61.5953 1397.29 64.6036 1391.78 67.8989C1389.15 69.4657 1386.4 71.1332 1383.54 72.6418C1380.68 74.187 1377.66 75.6067 1374.5 76.791C1373.44 77.1726 1372.38 77.5541 1371.25 77.8928C1370.87 78.0056 1370.53 78.1217 1370.16 78.1979C1369.62 78.3321 1369.04 78.4999 1368.49 78.6341C1368.29 78.689 1368.12 78.7103 1367.92 78.7652C1367.55 78.8414 1367.18 78.9176 1366.8 78.9939C1366.03 79.1432 1365.25 79.2925 1364.44 79.4021C1364.11 79.4448 1363.74 79.4843 1363.41 79.5269C1363.1 79.5726 1362.77 79.5785 1362.47 79.6242C1362.2 79.6363 1361.93 79.685 1361.67 79.6971C1360.9 79.7731 1360.1 79.8093 1359.33 79.812C1359 79.8179 1358.67 79.8238 1358.34 79.8297C1344.82 79.7855 1334.45 73.3388 1325.33 67.6753C1316.75 62.3576 1309.36 57.7437 1299.85 57.7047C1299.25 57.686 1298.69 57.7072 1298.12 57.7649C1298.09 57.7618 1298.09 57.7619 1298.05 57.7588C1297.49 57.7799 1296.92 57.8376 1296.38 57.8984C1296.11 57.9472 1295.81 57.9562 1295.54 58.005C1295.27 58.0537 1295.04 58.0689 1294.77 58.1176C1294.57 58.1725 1294.33 58.1877 1294.13 58.2426C1293.25 58.4194 1292.37 58.6329 1291.48 58.8831C1285.56 60.5489 1280.05 63.8442 1273.97 67.4938C1264.59 73.0919 1253.98 79.4627 1240.43 79.4154C1235.9 79.3242 1231.79 78.6066 1227.92 77.4673Z" fill="#FFF7E1"/>
</svg>
