<svg width="411" height="408" viewBox="0 0 411 408" fill="none" xmlns="http://www.w3.org/2000/svg">
<path d="M66.227 306.746C51.0126 315.493 42.7444 328.673 35.4744 340.34C28.5433 351.425 22.5364 360.994 11.6118 367.13C0.687088 373.267 -10.6007 373.399 -23.6707 373.531L-23.7769 373.532C-37.679 373.697 -53.4148 373.883 -68.9536 382.604C-69.4324 382.901 -69.9194 383.198 -70.4064 383.495C-70.893 383.792 -71.3797 384.089 -71.8581 384.386V412.001C-68.1945 407.58 -64.0359 403.786 -58.722 400.784C-47.7974 394.647 -36.5097 394.515 -23.4396 394.383L-23.3333 394.382C-9.43118 394.217 6.30461 394.031 21.8433 385.31C37.4217 376.566 45.805 363.204 53.1652 351.392C60.0962 340.307 66.1031 330.738 77.0278 324.602C77.3867 324.402 77.7457 324.208 78.1047 324.021C88.5928 318.63 99.4691 318.504 111.978 318.378L112.084 318.376C125.987 318.212 141.722 318.025 157.261 309.304C172.839 300.561 181.223 287.199 188.583 275.387C195.514 264.301 201.521 254.733 212.446 248.596C215.053 247.145 217.66 246.023 220.301 245.165L208.188 227.48C206.208 228.338 204.194 229.295 202.214 230.417C186.636 239.16 178.252 252.523 170.892 264.334C163.961 275.42 157.954 284.988 147.03 291.125C136.105 297.262 124.817 297.394 111.747 297.526L111.641 297.527C99.6213 297.669 86.2312 297.828 72.7828 303.504L72.7701 303.486C71.0617 304.226 69.3288 305.04 67.6136 305.969C67.2303 306.174 66.8472 306.384 66.4641 306.599C66.3853 306.648 66.3063 306.697 66.227 306.746Z" fill="#2F2C96"/>
<path d="M125.095 247.72C124.617 248.015 124.128 248.302 123.63 248.582C112.705 254.719 101.417 254.851 88.3472 254.983L88.2409 254.984C74.3389 255.148 58.603 255.335 43.0643 264.056C27.5066 272.787 19.1579 286.126 11.772 297.926L11.7425 297.973C4.81143 309.059 -1.19556 318.627 -12.1202 324.764C-23.0449 330.901 -34.3326 331.033 -47.4026 331.165C-55.1258 331.231 -63.3771 331.33 -71.8594 332.847V354.161C-64.1692 352.181 -56.116 352.082 -47.2046 352.016L-47.0983 352.015C-33.1962 351.851 -17.4604 351.664 -1.92163 342.943C13.6568 334.2 22.0401 320.838 29.4002 309.026C36.3313 297.94 42.3382 288.372 53.2628 282.235C56.4874 280.424 59.7437 279.136 63.068 278.216V278.497C70.7582 276.518 78.8114 276.419 87.7228 276.353L87.8291 276.352C101.731 276.187 117.467 276.001 133.006 267.28C134.099 266.666 135.156 266.03 136.18 265.374C150.268 256.645 158.169 244.047 165.15 232.844L165.257 232.673C170.165 224.855 174.601 217.791 180.662 212.157L180.567 212.018C182.844 209.993 185.351 208.166 188.19 206.572C199.115 200.435 210.403 200.303 223.473 200.171L223.579 200.17C237.481 200.005 253.217 199.819 268.756 191.098C284.334 182.354 292.717 168.992 300.077 157.18L300.185 157.009C305.093 149.192 309.528 142.127 315.59 136.493L303.741 119.172C294.236 127.222 288.031 137.12 282.42 146.128C275.489 157.213 269.482 166.781 258.557 172.918C247.632 179.055 236.345 179.187 223.275 179.319L223.168 179.32C209.266 179.485 193.53 179.671 177.992 188.392C162.434 197.124 154.085 210.462 146.699 222.262L146.67 222.31C140.238 232.596 134.603 241.576 125.095 247.72Z" fill="#2F2C96"/>
<path d="M-71.8565 288.771V309.623C-71.5925 309.623 -71.2954 309.623 -71.0314 309.623C-57.1032 309.458 -41.3268 309.293 -25.7484 300.55C-10.17 291.807 -1.82016 278.444 5.57297 266.633C12.504 255.547 18.511 245.979 29.4027 239.842C40.3274 233.705 51.6151 233.606 64.7181 233.441C78.6462 233.276 94.4227 233.111 110.001 224.368C125.579 215.625 133.963 202.262 141.323 190.45C148.254 179.365 154.261 169.797 165.186 163.66C176.11 157.523 187.398 157.391 200.501 157.259C214.429 157.094 230.206 156.929 245.784 148.186C261.363 139.443 269.713 126.08 277.106 114.268C284.037 103.183 290.044 93.6145 300.969 87.4777C310.705 82.0008 321.168 81.3409 331.003 81.1429L330.574 60.291C318.626 60.555 304.698 61.4458 290.737 69.2653C275.159 78.0085 266.808 91.371 259.415 103.183C252.484 114.268 246.51 123.837 235.553 129.973C224.628 136.11 213.34 136.242 200.237 136.374C186.309 136.539 170.532 136.704 154.954 145.447C139.376 154.191 130.992 167.553 123.632 179.365C116.701 190.45 110.694 200.019 99.7695 206.155C88.8448 212.292 77.557 212.391 64.454 212.556C50.5259 212.721 34.7495 212.886 19.1711 221.629C3.59268 230.373 -4.75739 243.735 -12.1505 255.547C-19.0816 266.632 -25.0553 276.201 -36.013 282.337C-46.9377 288.474 -58.2255 288.606 -71.2955 288.738C-71.4605 288.738 -71.6585 288.771 -71.8565 288.771Z" fill="#2F2C96"/>
<path d="M63.0007 212.506V233.358C63.2647 233.358 63.5618 233.358 63.8258 233.358C77.7539 233.193 93.5304 233.028 109.109 224.285C124.687 215.542 133.037 202.179 140.431 190.368C147.362 179.282 153.369 169.714 164.26 163.577C175.185 157.44 186.473 157.341 199.576 157.176C213.504 157.011 229.28 156.846 244.859 148.103C260.437 139.36 268.821 125.997 276.181 114.186C283.112 103.1 289.119 93.5316 300.043 87.3948C310.968 81.258 322.256 81.126 335.359 80.9941C349.287 80.8291 365.063 80.6641 380.642 71.9209C396.22 63.1776 404.57 49.8152 411.963 38.0035C418.895 26.9177 424.901 17.3496 435.826 11.2128L425.595 -7C410.016 1.74328 401.666 15.1061 394.273 26.9177C387.342 38.0035 381.368 47.5717 370.41 53.7084C359.485 59.8452 348.198 59.9772 335.095 60.1092C321.167 60.2741 305.39 60.4391 289.812 69.1824C274.233 77.9257 265.85 91.2881 258.49 103.1C251.559 114.186 245.552 123.754 234.627 129.891C223.703 136.027 212.415 136.126 199.312 136.291C185.383 136.456 169.607 136.621 154.029 145.364C138.45 154.108 130.1 167.47 122.707 179.282C115.776 190.368 109.802 199.936 98.8442 206.073C87.9195 212.209 76.6318 212.341 63.5618 212.473C63.3967 212.473 63.1987 212.506 63.0007 212.506Z" fill="#2F2C96"/>
<path d="M258.051 33.2258L257.928 33.0473C248.103 41.1882 241.769 51.3045 236.031 60.469L235.989 60.5364C229.068 71.6059 223.095 81.159 212.15 87.2886C202.875 92.4987 193.339 93.3806 182.672 93.6089C180.886 93.6448 179.067 93.6635 177.213 93.6822L177.107 93.6835C175.354 93.7043 173.571 93.7253 171.763 93.7639C159.146 94.0183 145.289 95.0714 131.585 102.763C127.943 104.806 124.697 107.103 121.765 109.573L121.748 109.548C111.923 117.689 105.589 127.806 99.851 136.97L99.8088 137.038C93.976 146.367 88.8166 154.619 80.7865 160.652C79.4137 161.657 77.9574 162.599 76.4005 163.471C75.1813 164.141 73.959 164.802 72.7307 165.424C70.0813 166.559 67.4027 167.404 64.666 168.017V168.198C57.1783 170.016 49.3219 170.103 40.6878 170.19L40.5816 170.192C26.6795 170.356 10.9437 170.543 -4.59515 179.264C-20.1528 187.995 -28.5016 201.334 -35.8875 213.134L-35.9409 213.219C-42.8618 224.289 -48.8347 233.842 -59.7797 239.972C-63.7403 242.149 -67.7339 243.601 -71.8595 244.525V265.74C-64.5324 264.552 -57.0072 262.341 -49.5481 258.151C-33.9904 249.419 -25.6416 236.081 -18.2557 224.281L-18.2263 224.234C-11.2952 213.148 -5.28824 203.58 5.63644 197.443C16.5611 191.306 27.8488 191.174 40.9189 191.042L41.0251 191.041C53.1676 190.897 66.7088 190.737 80.296 184.888C82.5243 183.965 84.7538 182.892 86.9774 181.643C102.535 172.911 110.884 159.573 118.27 147.773L118.299 147.726C125.23 136.64 131.237 127.072 142.162 120.935C151.437 115.725 160.974 114.843 171.642 114.615C173.428 114.579 175.245 114.56 177.099 114.541L177.205 114.54C178.958 114.519 180.741 114.498 182.548 114.46C195.166 114.205 209.023 113.152 222.727 105.461C225.252 104.044 227.588 102.506 229.761 100.872C241.226 92.3995 248.184 81.282 254.45 71.2715L254.479 71.2245C261.41 60.1387 267.417 50.5706 278.342 44.4338C289.267 38.297 300.554 38.165 313.624 38.033L313.731 38.0318C327.633 37.8672 343.369 37.6808 358.907 28.9598C374.486 20.2165 382.869 6.85417 390.229 -4.95751C395.312 -13.1069 399.9 -20.4315 406.303 -26.1724L394.454 -43.4609C384.629 -35.3201 378.295 -25.2038 372.557 -16.0392L372.514 -15.9719C365.594 -4.90237 359.621 4.65069 348.676 10.7804C337.751 16.9172 326.463 17.0492 313.393 17.1811L313.287 17.1824C299.385 17.347 283.649 17.5333 268.11 26.2543C264.469 28.2982 261.222 30.5945 258.29 33.0643L258.274 33.0402C258.199 33.1019 258.125 33.1638 258.051 33.2258Z" fill="#2F2C96"/>
<path d="M-71.8568 188.01V214.867C-57.2356 206.123 -49.1823 193.256 -42.0202 181.84C-35.0891 170.754 -29.0822 161.186 -18.1576 155.049C-7.23288 148.913 4.05487 148.781 17.1249 148.649C31.053 148.484 46.8295 148.319 62.4079 139.576C77.9863 130.832 86.3365 117.47 93.7297 105.658C100.661 94.5723 106.668 85.0042 117.592 78.8674C128.517 72.7307 139.805 72.5987 152.875 72.4667C166.803 72.3017 182.579 72.1368 198.158 63.3935C213.736 54.6502 222.119 41.2878 229.48 29.4762C236.411 18.3903 242.418 8.82223 253.342 2.68543C264.267 -3.45136 275.555 -3.58333 288.658 -3.71531C302.586 -3.88027 318.362 -4.04524 333.941 -12.7885C349.519 -21.5318 357.902 -34.8942 365.262 -46.7058C366.814 -49.1803 368.365 -51.6549 369.949 -54.0634L352.556 -65.5781C350.839 -63.0046 349.189 -60.3652 347.539 -57.7257C340.608 -46.6399 334.601 -37.0717 323.676 -30.9349C312.751 -24.7982 301.464 -24.6662 288.394 -24.5342C274.466 -24.3692 258.689 -24.2043 243.111 -15.461C227.532 -6.71772 219.149 6.64466 211.789 18.4563C204.858 29.5422 198.851 39.1103 187.926 45.2471C177.002 51.3838 165.714 51.4828 152.644 51.6478C138.716 51.7798 122.939 51.9777 107.361 60.721C91.7824 69.4643 83.4321 82.8267 76.039 94.6383C69.1079 105.724 63.101 115.292 52.1763 121.429C41.2516 127.566 29.9639 127.698 16.8939 127.83C2.96573 127.962 -12.8107 128.16 -28.3891 136.903C-43.9675 145.646 -52.3178 159.009 -59.7109 170.82C-63.7045 177.122 -67.3681 182.995 -71.8568 188.01Z" fill="#2F2C96"/>
<path d="M-71.8577 111.36V148.741C-69.7124 145.607 -67.7321 142.44 -65.8508 139.404C-58.9198 128.318 -52.9128 118.75 -41.9881 112.614C-31.0634 106.477 -19.7757 106.345 -6.70569 106.213C7.22244 106.048 22.9989 105.883 38.5773 97.1395C54.1557 88.3963 62.506 75.0339 69.8991 63.2222C76.8302 52.1364 82.8371 42.5683 93.7618 36.4315C104.686 30.2947 115.974 30.1627 129.044 30.0308C142.972 29.8658 158.749 29.7008 174.327 20.9576C189.906 12.2143 198.289 -1.1481 205.649 -12.9598C212.58 -24.0456 218.587 -33.6137 229.512 -39.7505C240.436 -45.8873 251.724 -46.0193 264.794 -46.1512C278.722 -46.3162 294.499 -46.4812 310.077 -55.2245C314.863 -57.9299 319.186 -61.1303 323.246 -65.0565L308.79 -80.1016C306.017 -77.4291 303.08 -75.2515 299.878 -73.4369C288.954 -67.3001 277.666 -67.1681 264.596 -67.0361C250.668 -66.8712 234.891 -66.7062 219.313 -57.9629C203.735 -49.2196 195.384 -35.8573 187.991 -24.0456C181.06 -12.9598 175.053 -3.39165 164.129 2.74514C153.204 8.88193 141.916 9.0139 128.846 9.14587C114.918 9.31084 99.1416 9.47581 83.5632 18.2191C67.9848 26.9624 59.6345 40.3247 52.2414 52.1364C45.3103 63.2222 39.3033 72.7904 28.3787 78.9272C17.454 85.0639 6.16629 85.1959 -6.90372 85.3279C-20.8319 85.4928 -36.6083 85.6578 -52.1867 94.4011C-60.471 99.0862 -66.709 105.025 -71.8577 111.36Z" fill="#2F2C96"/>
<path d="M-71.8569 49.8967V74.3118C-70.0086 72.7941 -67.9953 71.4084 -65.7839 70.1877C-54.8592 64.0509 -43.5715 63.9189 -30.5015 63.7869C-16.5733 63.6219 -0.796921 63.457 14.7815 54.7137C30.3599 45.9704 38.7432 32.608 46.1033 20.7964C53.0344 9.71056 59.0413 0.142441 69.966 -5.99435C80.8906 -12.1311 92.1784 -12.2631 105.248 -12.3951C119.177 -12.56 134.953 -12.725 150.531 -21.4683C166.11 -30.2116 174.493 -43.5739 181.853 -55.3856C188.784 -66.4714 194.758 -76.0396 205.716 -82.1763C211.393 -85.3767 217.466 -87.1584 225.42 -87.9502L223.308 -108.703C212.515 -107.614 203.703 -104.975 195.484 -100.356C179.906 -91.6125 171.556 -78.2501 164.162 -66.4384C157.231 -55.3526 151.224 -45.7845 140.3 -39.6477C129.375 -33.5109 118.087 -33.379 104.984 -33.247C91.0562 -33.082 75.2798 -32.917 59.7014 -24.1738C44.123 -15.4305 35.7727 -2.06812 28.3796 9.74355C21.4485 20.8294 15.4416 30.3975 4.51691 36.5343C-6.40778 42.6711 -17.6955 42.803 -30.7655 42.935C-43.4065 43.1 -57.6317 43.265 -71.8569 49.8967Z" fill="#2F2C96"/>
</svg>
