<svg width="508" height="521" viewBox="0 0 508 521" fill="none" xmlns="http://www.w3.org/2000/svg">
<path d="M369.773 415.746C384.987 424.493 393.256 437.673 400.526 449.34C407.457 460.425 413.464 469.994 424.388 476.13C435.313 482.267 446.601 482.399 459.671 482.531L459.777 482.532C473.679 482.697 489.415 482.883 504.954 491.604C505.432 491.901 505.919 492.198 506.406 492.495C506.893 492.792 507.38 493.089 507.858 493.386V521.001C504.195 516.58 500.036 512.786 494.722 509.784C483.797 503.647 472.51 503.515 459.44 503.383L459.333 503.382C445.431 503.217 429.695 503.031 414.157 494.31C398.578 485.566 390.195 472.204 382.835 460.392C375.904 449.307 369.897 439.738 358.972 433.602C358.613 433.402 358.254 433.208 357.895 433.021C347.407 427.63 336.531 427.504 324.022 427.378L323.916 427.376C310.013 427.212 294.278 427.025 278.739 418.304C263.161 409.561 254.777 396.199 247.417 384.387C240.486 373.301 234.479 363.733 223.554 357.596C220.947 356.145 218.34 355.023 215.699 354.165L227.812 336.48C229.792 337.338 231.806 338.295 233.786 339.417C249.364 348.16 257.748 361.523 265.108 373.334C272.039 384.42 278.046 393.988 288.97 400.125C299.895 406.262 311.183 406.394 324.253 406.526L324.359 406.527C336.379 406.669 349.769 406.828 363.217 412.504L363.23 412.486C364.938 413.226 366.671 414.04 368.386 414.969C368.77 415.174 369.153 415.384 369.536 415.599C369.615 415.648 369.694 415.697 369.773 415.746Z" fill="#2F2C96"/>
<path d="M310.905 356.72C311.383 357.015 311.872 357.302 312.37 357.582C323.295 363.719 334.583 363.851 347.653 363.983L347.759 363.984C361.661 364.148 377.397 364.335 392.936 373.056C408.493 381.787 416.842 395.126 424.228 406.926L424.258 406.973C431.189 418.059 437.196 427.627 448.12 433.764C459.045 439.901 470.333 440.033 483.403 440.165C491.126 440.231 499.377 440.33 507.859 441.847V463.161C500.169 461.181 492.116 461.082 483.205 461.016L483.098 461.015C469.196 460.851 453.46 460.664 437.922 451.943C422.343 443.2 413.96 429.838 406.6 418.026C399.669 406.94 393.662 397.372 382.737 391.235C379.513 389.424 376.256 388.136 372.932 387.216V387.497C365.242 385.518 357.189 385.419 348.277 385.353L348.171 385.352C334.269 385.187 318.533 385.001 302.994 376.28C301.901 375.666 300.844 375.03 299.82 374.374C285.732 365.645 277.831 353.047 270.85 341.844L270.743 341.673C265.835 333.855 261.399 326.791 255.338 321.157L255.433 321.018C253.156 318.993 250.649 317.166 247.81 315.572C236.885 309.435 225.597 309.303 212.527 309.171L212.421 309.17C198.519 309.005 182.783 308.819 167.244 300.098C151.666 291.354 143.283 277.992 135.923 266.18L135.815 266.009C130.907 258.192 126.472 251.127 120.41 245.493L132.259 228.172C141.764 236.222 147.969 246.12 153.58 255.128C160.511 266.213 166.518 275.781 177.443 281.918C188.368 288.055 199.655 288.187 212.725 288.319L212.832 288.32C226.734 288.485 242.47 288.671 258.008 297.392C273.566 306.124 281.915 319.462 289.301 331.262L289.33 331.31C295.762 341.596 301.397 350.576 310.905 356.72Z" fill="#2F2C96"/>
<path d="M507.857 397.771V418.623C507.592 418.623 507.295 418.623 507.031 418.623C493.103 418.458 477.327 418.293 461.748 409.55C446.17 400.807 437.82 387.444 430.427 375.633C423.496 364.547 417.489 354.979 406.597 348.842C395.673 342.705 384.385 342.606 371.282 342.441C357.354 342.276 341.577 342.111 325.999 333.368C310.421 324.625 302.037 311.262 294.677 299.45C287.746 288.365 281.739 278.797 270.814 272.66C259.89 266.523 248.602 266.391 235.499 266.259C221.571 266.094 205.794 265.929 190.216 257.186C174.637 248.443 166.287 235.08 158.894 223.268C151.963 212.183 145.956 202.614 135.031 196.478C125.295 191.001 114.832 190.341 104.997 190.143L105.426 169.291C117.374 169.555 131.302 170.446 145.263 178.265C160.841 187.009 169.192 200.371 176.585 212.183C183.516 223.268 189.49 232.837 200.447 238.973C211.372 245.11 222.66 245.242 235.763 245.374C249.691 245.539 265.468 245.704 281.046 254.447C296.624 263.191 305.008 276.553 312.368 288.365C319.299 299.45 325.306 309.019 336.231 315.155C347.155 321.292 358.443 321.391 371.546 321.556C385.474 321.721 401.251 321.886 416.829 330.629C432.407 339.373 440.757 352.735 448.151 364.547C455.082 375.632 461.055 385.201 472.013 391.337C482.938 397.474 494.225 397.606 507.295 397.738C507.46 397.738 507.658 397.771 507.857 397.771Z" fill="#2F2C96"/>
<path d="M372.999 321.506V342.358C372.735 342.358 372.438 342.358 372.174 342.358C358.246 342.193 342.47 342.028 326.891 333.285C311.313 324.542 302.963 311.179 295.569 299.368C288.638 288.282 282.631 278.714 271.74 272.577C260.815 266.44 249.527 266.341 236.424 266.176C222.496 266.011 206.72 265.846 191.141 257.103C175.563 248.36 167.179 234.997 159.819 223.186C152.888 212.1 146.881 202.532 135.957 196.395C125.032 190.258 113.744 190.126 100.641 189.994C86.7131 189.829 70.9367 189.664 55.3583 180.921C39.7799 172.178 31.4297 158.815 24.0365 147.004C17.1055 135.918 11.0985 126.35 0.173828 120.213L10.4054 102C25.9838 110.743 34.3341 124.106 41.7272 135.918C48.6583 147.004 54.6322 156.572 65.5899 162.708C76.5146 168.845 87.8022 168.977 100.905 169.109C114.833 169.274 130.61 169.439 146.188 178.182C161.767 186.926 170.15 200.288 177.51 212.1C184.441 223.186 190.448 232.754 201.373 238.891C212.297 245.027 223.585 245.126 236.688 245.291C250.617 245.456 266.393 245.621 281.971 254.364C297.55 263.108 305.9 276.47 313.293 288.282C320.224 299.368 326.198 308.936 337.156 315.073C348.08 321.209 359.368 321.341 372.438 321.473C372.603 321.473 372.801 321.506 372.999 321.506Z" fill="#2F2C96"/>
<path d="M177.949 142.226L178.072 142.047C187.897 150.188 194.231 160.304 199.969 169.469L200.011 169.536C206.932 180.606 212.905 190.159 223.85 196.289C233.125 201.499 242.661 202.381 253.328 202.609C255.114 202.645 256.933 202.664 258.787 202.682L258.893 202.683C260.646 202.704 262.429 202.725 264.237 202.764C276.854 203.018 290.711 204.071 304.415 211.763C308.057 213.806 311.303 216.103 314.235 218.573L314.252 218.548C324.077 226.689 330.411 236.806 336.149 245.97L336.191 246.038C342.024 255.367 347.183 263.619 355.214 269.652C356.586 270.657 358.043 271.599 359.6 272.471C360.819 273.141 362.041 273.802 363.269 274.424C365.919 275.559 368.597 276.404 371.334 277.017V277.198C378.822 279.016 386.678 279.103 395.312 279.19L395.418 279.192C409.321 279.356 425.056 279.543 440.595 288.264C456.153 296.995 464.502 310.334 471.888 322.134L471.941 322.219C478.862 333.289 484.835 342.842 495.78 348.972C499.74 351.149 503.734 352.601 507.86 353.525V374.74C500.532 373.552 493.007 371.341 485.548 367.151C469.99 358.419 461.642 345.081 454.256 333.281L454.226 333.234C447.295 322.148 441.288 312.58 430.364 306.443C419.439 300.306 408.151 300.174 395.081 300.042L394.975 300.041C382.832 299.897 369.291 299.737 355.704 293.888C353.476 292.965 351.246 291.892 349.023 290.643C333.465 281.911 325.116 268.573 317.73 256.773L317.701 256.726C310.77 245.64 304.763 236.072 293.838 229.935C284.563 224.725 275.026 223.843 264.358 223.615C262.572 223.579 260.755 223.56 258.901 223.541L258.795 223.54C257.042 223.519 255.259 223.498 253.452 223.46C240.834 223.205 226.977 222.152 213.273 214.461C210.748 213.044 208.412 211.506 206.239 209.872C194.774 201.4 187.816 190.282 181.55 180.271L181.521 180.225C174.59 169.139 168.583 159.571 157.658 153.434C146.733 147.297 135.446 147.165 122.376 147.033L122.269 147.032C108.367 146.867 92.6313 146.681 77.0926 137.96C61.5142 129.217 53.1309 115.854 45.7707 104.042C40.6879 95.8931 36.1003 88.5685 29.6973 82.8276L41.5461 65.5391C51.3713 73.6799 57.7053 83.7962 63.4434 92.9608L63.4855 93.0281C70.4064 104.098 76.3791 113.651 87.3241 119.78C98.2488 125.917 109.537 126.049 122.607 126.181L122.713 126.182C136.615 126.347 152.351 126.533 167.89 135.254C171.531 137.298 174.778 139.594 177.71 142.064L177.726 142.04C177.801 142.102 177.875 142.164 177.949 142.226Z" fill="#2F2C96"/>
<path d="M507.857 297.01V323.867C493.236 315.123 485.182 302.256 478.02 290.84C471.089 279.754 465.082 270.186 454.158 264.049C443.233 257.913 431.945 257.781 418.875 257.649C404.947 257.484 389.171 257.319 373.592 248.576C358.014 239.832 349.663 226.47 342.27 214.658C335.339 203.572 329.332 194.004 318.408 187.867C307.483 181.731 296.195 181.599 283.125 181.467C269.197 181.302 253.421 181.137 237.842 172.393C222.264 163.65 213.881 150.288 206.52 138.476C199.589 127.39 193.582 117.822 182.658 111.685C171.733 105.549 160.445 105.417 147.342 105.285C133.414 105.12 117.638 104.955 102.059 96.2115C86.4809 87.4682 78.0976 74.1058 70.7375 62.2942C69.1863 59.8197 67.635 57.3451 66.0508 54.9366L83.4445 43.4219C85.1607 45.9954 86.811 48.6348 88.4612 51.2743C95.3923 62.3601 101.399 71.9283 112.324 78.0651C123.249 84.2018 134.536 84.3338 147.606 84.4658C161.534 84.6308 177.311 84.7957 192.889 93.539C208.468 102.282 216.851 115.645 224.211 127.456C231.142 138.542 237.149 148.11 248.074 154.247C258.998 160.384 270.286 160.483 283.356 160.648C297.284 160.78 313.061 160.978 328.639 169.721C344.218 178.464 352.568 191.827 359.961 203.638C366.892 214.724 372.899 224.292 383.824 230.429C394.748 236.566 406.036 236.698 419.106 236.83C433.034 236.962 448.811 237.16 464.389 245.903C479.968 254.646 488.318 268.009 495.711 279.82C499.705 286.122 503.368 291.995 507.857 297.01Z" fill="#2F2C96"/>
<path d="M507.858 220.36V257.741C505.712 254.607 503.732 251.44 501.851 248.404C494.92 237.318 488.913 227.75 477.988 221.614C467.063 215.477 455.776 215.345 442.706 215.213C428.778 215.048 413.001 214.883 397.423 206.14C381.844 197.396 373.494 184.034 366.101 172.222C359.17 161.136 353.163 151.568 342.238 145.432C331.314 139.295 320.026 139.163 306.956 139.031C293.028 138.866 277.251 138.701 261.673 129.958C246.094 121.214 237.711 107.852 230.351 96.0402C223.42 84.9544 217.413 75.3863 206.488 69.2495C195.564 63.1127 184.276 62.9807 171.206 62.8488C157.278 62.6838 141.501 62.5188 125.923 53.7755C121.137 51.0701 116.814 47.8697 112.754 43.9435L127.21 28.8984C129.983 31.5709 132.92 33.7485 136.122 35.5631C147.046 41.6999 158.334 41.8319 171.404 41.9639C185.332 42.1288 201.109 42.2938 216.687 51.0371C232.265 59.7804 240.616 73.1427 248.009 84.9544C254.94 96.0402 260.947 105.608 271.871 111.745C282.796 117.882 294.084 118.014 307.154 118.146C321.082 118.311 336.858 118.476 352.437 127.219C368.015 135.962 376.365 149.325 383.759 161.136C390.69 172.222 396.697 181.79 407.621 187.927C418.546 194.064 429.834 194.196 442.904 194.328C456.832 194.493 472.608 194.658 488.187 203.401C496.471 208.086 502.709 214.025 507.858 220.36Z" fill="#2F2C96"/>
<path d="M507.857 158.897V183.312C506.009 181.794 503.995 180.408 501.784 179.188C490.859 173.051 479.572 172.919 466.501 172.787C452.573 172.622 436.797 172.457 421.219 163.714C405.64 154.97 397.257 141.608 389.897 129.796C382.966 118.711 376.959 109.142 366.034 103.006C355.109 96.8689 343.822 96.7369 330.752 96.6049C316.823 96.44 301.047 96.275 285.469 87.5317C269.89 78.7884 261.507 65.4261 254.147 53.6144C247.216 42.5286 241.242 32.9604 230.284 26.8237C224.607 23.6233 218.534 21.8416 210.58 21.0498L212.692 0.296875C223.485 1.38566 232.297 4.02514 240.516 8.64423C256.094 17.3875 264.444 30.7499 271.838 42.5616C278.769 53.6474 284.776 63.2155 295.7 69.3523C306.625 75.4891 317.913 75.621 331.016 75.753C344.944 75.918 360.72 76.083 376.299 84.8262C391.877 93.5695 400.227 106.932 407.62 118.744C414.552 129.829 420.558 139.397 431.483 145.534C442.408 151.671 453.696 151.803 466.766 151.935C479.406 152.1 493.632 152.265 507.857 158.897Z" fill="#2F2C96"/>
</svg>
