<svg width="2259" height="111" viewBox="0 0 2259 111" fill="none" xmlns="http://www.w3.org/2000/svg">
<path d="M1069.88 0.000415802L1024.14 103.302C1029.59 105.632 1035.57 107.269 1042.44 107.209C1055.9 107.253 1066.47 100.922 1075.82 95.3271L1075.95 95.2516C1084.73 89.9537 1092.35 85.4 1101.83 85.436C1111.28 85.4748 1118.64 90.0458 1127.15 95.337L1127.31 95.4337L1127.33 95.4441C1136.44 101.12 1146.8 107.577 1160.31 107.621C1167.44 107.659 1174.29 105.965 1181.89 102.336L1181.87 102.26C1184.53 101.026 1187.05 99.6297 1189.47 98.2241L1191.26 97.1677C1191.58 96.9747 1191.86 96.8154 1192.17 96.6225C1192.47 96.4466 1192.76 96.2699 1193.05 96.0933C1193.34 95.9162 1193.63 95.7392 1193.93 95.563C1194.21 95.367 1194.49 95.2077 1194.77 95.0485C1195.02 94.8862 1195.3 94.7269 1195.58 94.5677C1195.81 94.4222 1196.05 94.2867 1196.28 94.1512C1196.52 94.0157 1196.76 93.8802 1196.98 93.7347C1197.25 93.5847 1197.5 93.4342 1197.75 93.2856C1198.15 93.0552 1198.53 92.8293 1198.91 92.617C1199.01 92.5586 1199.12 92.4978 1199.22 92.436C1199.52 92.2614 1199.83 92.0785 1200.14 91.9157C1204.65 89.4078 1209.16 87.3076 1213.95 86.3478C1215.84 85.9688 1217.78 85.7799 1219.84 85.7872C1229.29 85.826 1236.65 90.3971 1245.17 95.6885L1245.32 95.7849C1254.44 101.5 1264.81 107.928 1278.33 107.972C1291.79 108.016 1302.36 101.685 1311.71 96.0906L1311.83 96.0151C1320.62 90.7173 1328.24 86.1636 1337.71 86.1995C1347.17 86.2383 1354.53 90.8094 1363.05 96.1008L1363.2 96.1972C1372.31 101.913 1382.68 108.34 1396.2 108.385C1409.66 108.429 1420.24 102.098 1429.58 96.5031L1429.71 96.4276C1438.49 91.1297 1446.11 86.576 1455.59 86.612C1465.04 86.6508 1472.4 91.2218 1480.92 96.5131L1481.08 96.6096C1490.19 102.325 1500.56 108.753 1514.08 108.797C1527.54 108.841 1538.12 102.51 1547.46 96.9155L1547.59 96.84C1556.37 91.5421 1563.99 86.9884 1573.47 87.0244C1582.92 87.0632 1590.28 91.6342 1598.8 96.9257L1598.95 97.022L1598.97 97.0323C1608.08 102.709 1618.44 109.165 1631.96 109.209C1634.41 109.216 1636.76 109.013 1639.03 108.642C1649.87 107.232 1658.77 101.906 1666.76 97.1177L1666.89 97.0421C1675.67 91.7442 1683.29 87.1905 1692.77 87.2264C1702.22 87.2652 1709.58 91.8362 1718.1 97.1274L1718.26 97.2241L1718.27 97.2343C1727.38 102.911 1737.75 109.367 1751.26 109.411C1758.38 109.449 1765.24 107.755 1772.84 104.127L1772.81 104.05C1775.48 102.816 1778 101.42 1780.42 100.015L1782.21 98.9581C1782.33 98.8834 1782.44 98.8138 1782.56 98.7453C1782.74 98.6368 1782.92 98.5312 1783.12 98.413C1783.42 98.2369 1783.71 98.06 1784 97.8832C1784.29 97.7063 1784.58 97.5295 1784.87 97.3534C1785.02 97.2507 1785.17 97.158 1785.32 97.0702C1785.45 96.9905 1785.59 96.9148 1785.72 96.839C1785.97 96.6767 1786.25 96.5173 1786.53 96.3581C1786.76 96.2126 1786.99 96.0771 1787.23 95.9417C1787.46 95.8062 1787.7 95.6707 1787.93 95.5252C1788.19 95.3751 1788.45 95.2246 1788.7 95.076C1789.09 94.8455 1789.48 94.6197 1789.86 94.4075C1790.24 94.1839 1790.67 93.9267 1791.08 93.7062C1795.59 91.1983 1800.1 89.0981 1804.9 88.1383C1806.79 87.7593 1808.73 87.5704 1810.78 87.5776C1820.24 87.6165 1827.6 92.1875 1836.11 97.4789L1836.27 97.5753C1845.38 103.291 1855.75 109.718 1869.27 109.763C1882.73 109.807 1893.31 103.476 1902.65 97.8813L1902.78 97.8056C1911.56 92.5077 1919.18 87.954 1928.66 87.99C1938.11 88.0288 1945.47 92.5999 1953.99 97.8914L1954.15 97.9876C1963.26 103.703 1973.63 110.131 1987.15 110.175C2000.61 110.219 2011.18 103.888 2020.53 98.2935L2020.66 98.2181C2029.44 92.9202 2037.06 88.3664 2046.54 88.4024C2055.99 88.4412 2063.35 93.0123 2071.87 98.3036L2072.02 98.4001C2081.13 104.116 2091.51 110.543 2105.03 110.587C2118.49 110.632 2129.06 104.301 2138.41 98.7057L2138.53 98.6304C2147.32 93.3326 2154.94 88.7788 2164.41 88.8148C2173.87 88.8536 2181.22 93.4247 2189.74 98.7159L2189.9 98.8125L2189.91 98.8228C2199.03 104.499 2209.39 110.955 2222.9 111C2234.3 111.031 2243.61 106.524 2251.88 101.735V0.00018692L1069.88 0.000415802Z" fill="#FA492D"/>
<path d="M0 0V103.317L9.49999 98.3985C18.5 93.3909 31.7067 85.4145 41.1842 85.4504C50.6371 85.4892 57.9957 90.0603 66.5139 95.3515L66.6694 95.4481L66.686 95.4584C75.7974 101.135 86.1609 107.591 99.6737 107.635C106.797 107.673 113.652 105.979 121.251 102.351L121.225 102.274C123.893 101.04 126.411 99.6441 128.83 98.2385L130.619 97.182C130.936 96.9891 131.216 96.8299 131.532 96.637C131.83 96.4611 132.12 96.2844 132.409 96.1078C132.7 95.9308 132.99 95.7537 133.289 95.5774C133.572 95.3814 133.852 95.2221 134.132 95.0629C134.38 94.9006 134.66 94.7413 134.94 94.582C135.169 94.4366 135.405 94.3012 135.642 94.1657C135.878 94.0302 136.115 93.8947 136.344 93.7492C137.009 93.3664 137.642 92.9806 138.272 92.6315C138.373 92.5728 138.477 92.5116 138.582 92.4496C138.878 92.2753 139.189 92.0927 139.497 91.9301C144.008 89.4222 148.514 87.3221 153.311 86.3622C155.203 85.9832 157.144 85.7944 159.198 85.8016C168.651 85.8405 176.01 90.4115 184.528 95.7029L184.683 95.7993C193.795 101.515 204.167 107.942 217.688 107.987C231.148 108.031 241.722 101.7 251.068 96.1052L251.194 96.0295C259.977 90.7317 267.597 86.1781 277.074 86.214C286.527 86.2528 293.886 90.8239 302.404 96.1152L302.559 96.2116C311.671 101.927 322.043 108.355 335.564 108.399C349.024 108.443 359.599 102.112 368.944 96.5175L369.07 96.4421C377.853 91.1442 385.472 86.5905 394.95 86.6265C404.403 86.6653 411.761 91.2362 420.28 96.5275L420.435 96.624C429.547 102.34 439.918 108.767 453.439 108.811C466.9 108.856 477.474 102.525 486.819 96.9299L486.945 96.8544C495.729 91.5565 503.348 87.0028 512.825 87.0387C522.278 87.0776 529.637 91.6487 538.156 96.9402L538.311 97.0365L538.327 97.0469C547.439 102.723 557.802 109.179 571.315 109.224C573.768 109.23 576.123 109.027 578.393 108.656C589.229 107.247 598.126 101.92 606.123 97.132L606.249 97.0565C615.032 91.7585 622.652 87.2048 632.129 87.2408C641.582 87.2796 648.941 91.8507 657.459 97.142L657.615 97.2386L657.631 97.2487C666.742 102.925 677.106 109.382 690.619 109.426C697.743 109.464 704.597 107.769 712.197 104.141L712.171 104.065C714.839 102.831 717.356 101.435 719.775 100.029L721.564 98.9725C721.72 98.8778 721.866 98.7912 722.013 98.7047C722.164 98.6151 722.316 98.5255 722.477 98.4273C722.776 98.251 723.066 98.0739 723.357 97.8969C723.646 97.7203 723.936 97.5437 724.234 97.3678C724.517 97.1721 724.797 97.0131 725.076 96.8541L725.078 96.8533C725.325 96.6911 725.605 96.5317 725.885 96.3725C726.114 96.227 726.351 96.0915 726.587 95.9559C726.824 95.8205 727.06 95.6851 727.289 95.5396C727.55 95.3897 727.805 95.2392 728.058 95.0908C728.45 94.8602 728.834 94.6342 729.217 94.4219C729.405 94.3129 729.601 94.1959 729.802 94.0791C730.013 93.9563 730.228 93.8336 730.443 93.7206C734.954 91.2127 739.46 89.1125 744.257 88.1526C746.148 87.7736 748.089 87.5848 750.143 87.592C759.596 87.6308 766.955 92.2018 775.473 97.493L775.629 97.5897C784.741 103.305 795.112 109.733 808.633 109.777C822.093 109.821 832.668 103.49 842.013 97.8956L842.139 97.82C850.922 92.5221 858.542 87.9684 868.019 88.0043C877.472 88.0432 884.831 92.6142 893.349 97.9055L893.504 98.0021C902.616 103.718 912.988 110.145 926.509 110.189C939.969 110.234 950.544 103.903 959.889 98.3077L960.015 98.2324C968.798 92.9346 976.417 88.3809 985.895 88.4169C995.348 88.4557 1002.71 93.0267 1011.22 98.3181L1011.38 98.4145C1020.49 104.13 1030.86 110.557 1044.38 110.602C1057.84 110.646 1068.42 104.315 1077.76 98.7201L1077.89 98.6448C1086.67 93.347 1094.29 88.7933 1103.77 88.8292C1113.22 88.8681 1120.58 93.4392 1129.1 98.7308L1129.26 98.8269C1131.56 100.26 1133.48 101.701 1135.29 103.054C1140.64 107.063 1144.97 110.307 1155.08 110.34C1166.48 110.371 1175.78 105.864 1184.05 101.075L1228.21 0.00018692L0 0Z" fill="#FA492D"/>
<path d="M5.72205e-06 37.8077C2.9771 36.5109 6.48236 34.2767 9.71583 32.3347C16.0369 28.5496 22.9216 24.4093 30.8571 22.1486C35.0141 20.9432 39.0764 20.3968 43.2185 20.4145C56.7395 20.4588 67.1074 26.923 76.2227 32.6018C84.807 37.934 92.1975 42.5604 101.708 42.5995C102.007 42.5905 102.306 42.5815 102.602 42.6092C102.901 42.6002 103.2 42.5911 103.467 42.579C104.032 42.5579 104.601 42.5 105.17 42.442C105.739 42.3841 106.279 42.2863 106.851 42.1916C107.963 41.9991 109.049 41.73 110.139 41.4241C110.616 41.2834 111.126 41.1457 111.607 40.9682C111.916 40.8488 112.222 40.7663 112.532 40.6469C114.589 39.9124 116.631 38.9909 118.654 37.9192C119.735 37.3528 120.852 36.7526 121.94 36.1126C122.463 35.8278 122.991 35.5063 123.515 35.2215C124.846 34.4559 126.181 33.6536 127.552 32.8176C133.982 28.9314 141.038 24.733 149.203 22.4938C149.713 22.3562 150.223 22.2185 150.766 22.084C150.836 22.0534 150.901 22.0595 151.003 22.032C152.29 21.7446 153.609 21.4602 154.951 21.2893C155.353 21.2528 155.724 21.1764 156.126 21.1398C156.326 21.1215 156.527 21.1032 156.76 21.088C157.161 21.0515 157.563 21.0149 157.964 20.9784C158.365 20.9418 158.796 20.9451 159.197 20.9086C159.828 20.8936 160.459 20.8786 161.091 20.8637C174.612 20.908 184.983 27.3354 194.095 33.051C202.679 38.3832 210.07 43.0096 219.58 43.0487C229.058 43.0846 236.677 38.531 245.46 33.2331C254.836 27.6198 265.445 21.2317 278.966 21.276C292.487 21.3204 302.855 27.7846 311.971 33.4634C320.555 38.7955 327.945 43.422 337.456 43.4611C346.933 43.497 354.553 38.9433 363.336 33.6454C372.712 28.0322 383.321 21.6441 396.842 21.6885C410.363 21.7328 420.731 28.197 429.846 33.8758C438.431 39.208 445.821 43.8344 455.331 43.8735C464.809 43.9094 472.429 39.3557 481.245 34.0609C490.621 28.4477 501.23 22.0596 514.751 22.104C528.272 22.1483 538.643 28.5757 547.755 34.2913C556.339 39.6235 563.753 44.0048 573.263 44.0438C582.741 44.0798 590.452 38.5455 599.235 33.2477C602.712 31.1622 606.341 29.227 610.267 27.295L608.845 42.4991C608.216 42.8482 607.616 43.2371 606.983 43.623C597.607 49.2362 586.86 57.0951 573.339 57.0508C559.818 57.0064 549.45 50.5422 540.335 44.8634C531.751 39.5313 524.36 34.9048 514.85 34.8658C505.372 34.8298 497.753 39.3835 488.969 44.6814C479.593 50.2947 468.984 56.6827 455.463 56.6384C441.942 56.594 431.574 50.1298 422.459 44.451C413.875 39.1189 406.484 34.4924 396.974 34.4533C387.496 34.4174 379.877 38.9711 371.094 44.269C361.718 49.8822 351.109 56.2703 337.588 56.226C324.067 56.1816 313.699 49.7174 304.583 44.0386C295.999 38.7065 288.609 34.08 279.098 34.041C269.621 34.005 262.001 38.5587 253.185 43.8535C243.809 49.4668 233.2 55.8549 219.679 55.8105C209.074 55.78 200.428 51.8149 192.79 47.3508C190.714 46.1542 188.678 44.8871 186.675 43.6231C178.091 38.291 170.7 33.6645 161.19 33.6255C160.89 33.6345 160.591 33.6436 160.296 33.6158C157.935 33.6911 155.714 34.0393 153.542 34.5775C152.999 34.7121 152.486 34.8865 151.943 35.0211C151.67 35.1068 151.396 35.1924 151.123 35.2781C145.816 37.0805 140.794 40.097 135.28 43.4012C132.647 44.9722 129.905 46.6443 127.045 48.1569C124.182 49.7063 121.165 51.1299 118.004 52.3175C116.94 52.7 115.877 53.0825 114.751 53.4222C114.376 53.5354 114.033 53.6517 113.662 53.7281C113.119 53.8627 112.539 54.0309 111.996 54.1655C111.792 54.2205 111.625 54.2419 111.421 54.297C111.049 54.3734 110.677 54.4498 110.305 54.5262C109.529 54.676 108.752 54.8257 107.946 54.9356C107.611 54.9784 107.242 55.018 106.907 55.0607C106.604 55.1065 106.272 55.1125 105.97 55.1583C105.703 55.1704 105.434 55.2193 105.167 55.2314C104.398 55.3076 103.599 55.3439 102.836 55.3466C102.504 55.3525 102.172 55.3584 101.84 55.3644C88.3187 55.32 77.9508 48.8558 68.8355 43.177C60.2512 37.8449 52.8607 33.2184 43.3503 33.1794C42.7553 33.1606 42.1898 33.1818 41.6208 33.2397C41.588 33.2367 41.588 33.2367 41.5551 33.2336C40.9896 33.2547 40.4206 33.3126 39.8845 33.3736C39.6147 33.4225 39.3155 33.4315 39.0458 33.4804C38.776 33.5293 38.5425 33.5445 38.2728 33.5934C38.0687 33.6485 37.8352 33.6637 37.6312 33.7187C36.7527 33.896 35.8708 34.1101 34.9854 34.3609C29.0611 36.0312 23.5474 39.3355 17.4701 42.995C8.09396 48.6083 5.72205e-06 51.4155 5.72205e-06 51.4155V37.8077Z" fill="#FFF7E1"/>
<path d="M0 82.342L5.72205e-06 67.218C5.72205e-06 67.218 2.86102e-06 67.218 8.05021 63.3357C14.3713 59.5506 21.256 55.4103 29.1914 53.1496C33.3485 51.9442 37.4108 51.3978 41.5528 51.4155C55.0739 51.4598 65.4417 57.924 74.5571 63.6028C83.1414 68.935 90.5319 73.5614 100.042 73.6005C100.341 73.5914 100.641 73.5824 100.936 73.6102C101.236 73.6012 101.535 73.5921 101.801 73.58C102.367 73.5589 102.936 73.5009 103.505 73.443C104.074 73.3851 104.613 73.2873 105.186 73.1926C106.298 73.0001 107.383 72.731 108.473 72.4251C108.95 72.2843 109.46 72.1467 109.941 71.9692C110.251 71.8498 110.557 71.7672 110.866 71.6479C112.924 70.9134 114.966 69.9919 116.989 68.9202C118.069 68.3537 119.186 67.7536 120.274 67.1136C120.798 66.8288 121.325 66.5072 121.849 66.2225C123.18 65.4569 124.515 64.6546 125.886 63.8185C132.316 59.9324 139.372 55.734 147.538 53.4948C148.048 53.3572 148.558 53.2195 149.101 53.085C149.17 53.0543 149.236 53.0605 149.338 53.0329C150.624 52.7455 151.944 52.4612 153.286 52.2903C153.687 52.2538 154.059 52.1774 154.46 52.1408C154.661 52.1225 154.861 52.1042 155.095 52.089C155.496 52.0525 155.897 52.0159 156.298 51.9794C156.699 51.9428 157.13 51.9461 157.531 51.9096C158.163 51.8946 158.794 51.8796 159.425 51.8646C172.946 51.909 183.317 58.3364 192.429 64.052C201.014 69.3841 208.404 74.0106 217.915 74.0497C227.392 74.0856 235.012 69.5319 243.795 64.234C253.171 58.6208 263.78 52.2327 277.301 52.277C290.822 52.3214 301.19 58.7856 310.305 64.4644C318.889 69.7965 326.28 74.423 335.79 74.462C345.268 74.498 352.887 69.9443 361.67 64.6464C371.047 59.0331 381.655 52.6451 395.176 52.6894C408.697 52.7338 419.065 59.198 428.181 64.8768C436.765 70.2089 444.156 74.8354 453.666 74.8745C463.143 74.9104 470.763 70.3567 479.579 65.0619C488.955 59.4486 499.564 53.0606 513.085 53.1049C526.606 53.1493 536.977 59.5767 546.089 65.2923C554.674 70.6244 562.064 75.2509 571.575 75.29C581.052 75.3259 588.718 70.2819 597.501 64.9841C600.978 62.8986 604.629 60.7182 608.556 58.7863L607.111 74.2355C606.481 74.5846 605.881 74.9735 605.248 75.3594C595.872 80.9726 585.195 88.0961 571.674 88.0518C558.153 88.0074 547.785 81.5432 538.669 75.8644C530.085 70.5323 522.694 65.9058 513.184 65.8667C503.707 65.8308 496.087 70.3845 487.304 75.6824C477.928 81.2956 467.319 87.6837 453.798 87.6394C440.277 87.595 429.909 81.1308 420.793 75.452C412.209 70.1198 404.819 65.4934 395.308 65.4543C385.831 65.4184 378.211 69.9721 369.428 75.2699C360.052 80.8832 349.443 87.2713 335.922 87.227C322.401 87.1826 312.033 80.7184 302.918 75.0396C294.333 69.7075 286.943 65.081 277.433 65.042C267.955 65.006 260.336 69.5597 251.52 74.8545C242.143 80.4678 231.535 86.8558 218.014 86.8115C207.408 86.781 198.763 82.8159 191.125 78.3518C189.049 77.1552 187.013 75.8881 185.009 74.6241C176.425 69.292 169.034 64.6655 159.524 64.6264C159.225 64.6355 158.926 64.6445 158.63 64.6168C156.269 64.6921 154.049 65.0403 151.877 65.5785C151.334 65.7131 150.82 65.8875 150.277 66.0221C150.004 66.1077 149.731 66.1934 149.458 66.2791C144.151 68.0815 139.128 71.0979 133.614 74.4022C130.981 75.9732 128.239 77.6453 125.379 79.1579C122.516 80.7073 119.499 82.1309 116.338 83.3184C115.275 83.701 114.211 84.0835 113.085 84.4231C112.71 84.5363 112.368 84.6527 111.996 84.7291C111.453 84.8636 110.874 85.0319 110.331 85.1665C110.127 85.2215 109.959 85.2429 109.755 85.2979C109.383 85.3744 109.011 85.4508 108.639 85.5272C107.863 85.677 107.087 85.8267 106.281 85.9366C105.945 85.9793 105.577 86.019 105.241 86.0617C104.939 86.1075 104.607 86.1134 104.304 86.1592C104.038 86.1714 103.768 86.2203 103.502 86.2324C102.732 86.3086 101.933 86.3449 101.17 86.3476C100.838 86.3535 100.506 86.3594 100.174 86.3654C86.6531 86.321 76.2852 79.8568 67.1699 74.178C58.5856 68.8459 51.195 64.2194 41.6847 64.1803C41.0897 64.1616 40.5242 64.1828 39.9552 64.2407C39.9224 64.2376 39.9224 64.2376 39.8895 64.2346C39.324 64.2557 38.755 64.3136 38.2189 64.3746C37.9491 64.4235 37.6499 64.4325 37.3802 64.4814C37.1104 64.5303 36.8769 64.5455 36.6071 64.5944C36.4031 64.6494 36.1696 64.6646 35.9656 64.7197C35.0871 64.897 34.2052 65.1111 33.3198 65.3619C27.3954 67.0322 21.8818 70.3365 15.8045 73.996C6.42834 79.6092 0 82.342 0 82.342Z" fill="#FFF7E1"/>
<path d="M559.227 53.9985L560.379 41.6878C563.897 43.0568 567.533 43.8803 571.543 43.8857C581.021 43.9216 588.64 39.3679 597.456 34.0731C603.777 30.2881 610.662 26.1478 618.598 23.887C622.755 22.6817 626.817 22.1353 630.959 22.1529C644.48 22.1973 654.848 28.6615 663.963 34.3403C672.547 39.6724 679.938 44.2989 689.448 44.3379C689.748 44.3289 690.047 44.3199 690.343 44.3476C690.642 44.3386 690.941 44.3296 691.207 44.3175C691.773 44.2963 692.342 44.2384 692.911 44.1805C693.48 44.1225 694.019 44.0248 694.592 43.9301C695.704 43.7376 696.79 43.4684 697.879 43.1625C698.356 43.0218 698.866 42.8842 699.347 42.7066C699.657 42.5873 699.963 42.5047 700.272 42.3853C702.33 41.6508 704.372 40.7293 706.395 39.6576C707.476 39.0912 708.593 38.491 709.68 37.851C710.204 37.5663 710.731 37.2447 711.255 36.9599C712.586 36.1944 713.921 35.392 715.292 34.556C721.722 30.6698 728.778 26.4714 736.944 24.2323C737.454 24.0946 737.964 23.957 738.507 23.8224C738.576 23.7918 738.642 23.7979 738.744 23.7704C740.03 23.483 741.35 23.1987 742.692 23.0278C743.093 22.9912 743.465 22.9148 743.866 22.8782C744.067 22.86 744.267 22.8417 744.501 22.8265C744.902 22.7899 745.303 22.7534 745.704 22.7168C746.106 22.6803 746.536 22.6836 746.938 22.647C747.569 22.632 748.2 22.6171 748.831 22.6021C762.352 22.6464 772.724 29.0739 781.836 34.7895C790.42 40.1216 797.81 44.7481 807.321 44.7871C816.798 44.8231 824.418 40.2694 833.201 34.9715C842.577 29.3582 853.186 22.9701 866.707 23.0145C880.228 23.0588 890.596 29.523 899.711 35.2018C908.295 40.534 915.686 45.1604 925.196 45.1995C934.674 45.2354 942.294 40.6818 951.077 35.3839C960.453 29.7706 971.062 23.3825 984.583 23.4269C998.104 23.4712 1008.47 29.9354 1017.59 35.6142C1026.17 40.9464 1033.56 46.0736 1043.07 46.1127C1052.55 46.1486 1060.17 41.0942 1068.98 35.7994C1078.36 30.1861 1088.97 23.798 1102.49 23.8424C1116.01 23.8867 1126.38 30.3142 1135.5 36.0297C1144.08 41.3619 1151.47 45.9884 1160.98 46.0274C1170.46 46.0634 1178.08 41.5097 1186.86 36.2118C1190.34 34.1263 1193.99 31.9459 1197.92 30.014L1196.45 45.7083C1195.82 46.0574 1195.22 46.4464 1194.59 46.8322C1185.21 52.4455 1174.6 58.8336 1161.08 58.7892C1147.56 58.7449 1137.19 52.2807 1128.08 46.6018C1119.49 41.2697 1112.1 36.6432 1102.59 36.6042C1093.11 36.5682 1085.49 41.1219 1076.71 46.4198C1067.33 52.0331 1056.72 58.4211 1043.2 58.3768C1029.68 58.3324 1019.31 51.8682 1010.2 46.1894C1001.62 40.8573 994.225 36.2308 984.714 36.1918C975.237 36.1558 967.617 40.7095 958.834 46.0074C949.458 51.6207 938.849 58.0088 925.328 57.9644C911.807 57.9201 901.439 51.4559 892.324 45.7771C883.74 40.4449 876.349 35.8184 866.839 35.7794C857.361 35.7434 849.742 40.2971 840.926 45.5919C831.55 51.2052 820.941 57.5933 807.42 57.5489C796.815 57.5185 788.169 53.5534 780.531 49.0892C778.455 47.8926 776.419 46.6255 774.415 45.3616C765.831 40.0294 758.441 35.4029 748.93 35.3639C748.631 35.3729 748.332 35.382 748.036 35.3542C745.675 35.4295 743.455 35.7777 741.283 36.316C740.74 36.4505 740.226 36.6249 739.683 36.7595C739.41 36.8452 739.137 36.9309 738.864 37.0165C733.557 38.819 728.534 41.8354 723.021 45.1397C720.387 46.7106 717.645 48.3827 714.786 49.8953C711.922 51.4447 708.905 52.8684 705.744 54.0559C704.681 54.4384 703.617 54.821 702.492 55.1606C702.116 55.2738 701.774 55.3901 701.402 55.4665C700.859 55.6011 700.28 55.7693 699.737 55.9039C699.533 55.959 699.365 55.9803 699.161 56.0354C698.789 56.1118 698.417 56.1882 698.046 56.2647C697.269 56.4144 696.493 56.5642 695.687 56.6741C695.351 56.7168 694.983 56.7564 694.648 56.7991C694.345 56.845 694.013 56.8509 693.71 56.8967C693.444 56.9088 693.174 56.9577 692.908 56.9698C692.138 57.046 691.339 57.0824 690.576 57.085C690.244 57.091 689.912 57.0969 689.58 57.1028C676.059 57.0585 665.691 50.5943 656.576 44.9155C647.992 39.5833 640.601 34.9568 631.091 34.9178C630.496 34.8991 629.93 34.9202 629.361 34.9782C629.329 34.9751 629.328 34.9751 629.296 34.972C628.73 34.9931 628.161 35.051 627.625 35.112C627.355 35.1609 627.056 35.17 626.786 35.2188C626.517 35.2677 626.283 35.2829 626.013 35.3318C625.809 35.3869 625.576 35.4021 625.372 35.4571C624.493 35.6344 623.611 35.8485 622.726 36.0994C616.802 37.7696 611.288 41.0739 605.211 44.7334C595.835 50.3467 585.226 56.7348 571.672 56.6874C567.139 56.5959 563.098 55.141 559.227 53.9985Z" fill="#FFF7E1"/>
<path d="M558.471 85.8281L559.692 72.782C563.21 74.151 566.846 74.9745 570.857 74.9798C580.334 75.0158 587.954 70.4621 596.77 65.1673C603.091 61.3822 609.975 57.2419 617.911 54.9812C622.068 53.7758 626.13 53.2294 630.272 53.2471C643.793 53.2914 654.161 59.7556 663.276 65.4344C671.861 70.7666 679.251 75.393 688.762 75.4321C689.061 75.4231 689.36 75.4141 689.656 75.4418C689.955 75.4328 690.254 75.4237 690.521 75.4116C691.086 75.3905 691.655 75.3325 692.224 75.2746C692.793 75.2167 693.333 75.1189 693.905 75.0242C695.017 74.8317 696.103 74.5626 697.192 74.2567C697.67 74.116 698.18 73.9783 698.66 73.8008C698.97 73.6814 699.276 73.5989 699.586 73.4795C701.643 72.745 703.685 71.8235 705.708 70.7518C706.789 70.1853 707.906 69.5852 708.993 68.9452C709.517 68.6604 710.045 68.3389 710.568 68.0541C711.9 67.2885 713.234 66.4862 714.606 65.6502C721.036 61.764 728.091 57.5656 736.257 55.3264C736.767 55.1888 737.277 55.0511 737.82 54.9166C737.889 54.886 737.955 54.8921 738.057 54.8646C739.344 54.5772 740.663 54.2928 742.005 54.1219C742.406 54.0854 742.778 54.009 743.179 53.9724C743.38 53.9541 743.581 53.9358 743.814 53.9206C744.215 53.8841 744.616 53.8475 745.018 53.811C745.419 53.7744 745.849 53.7777 746.251 53.7412C746.882 53.7262 747.513 53.7112 748.144 53.6963C761.665 53.7406 772.037 60.168 781.149 65.8836C789.733 71.2158 797.124 75.8422 806.634 75.8813C816.111 75.9172 823.731 71.3635 832.514 66.0657C841.89 60.4524 852.499 54.0643 866.02 54.1086C879.541 54.153 889.909 60.6172 899.024 66.296C907.609 71.6281 914.999 76.2546 924.51 76.2937C933.987 76.3296 941.607 71.7759 950.39 66.478C959.766 60.8648 970.375 54.4767 983.896 54.521C997.417 54.5654 1007.78 61.0296 1016.9 66.7084C1025.48 72.0406 1032.88 76.667 1042.39 76.7061C1051.86 76.742 1059.48 72.1883 1068.3 66.8935C1077.67 61.2803 1088.28 54.8922 1101.8 54.9366C1115.33 54.9809 1125.7 61.4083 1134.81 67.1239C1143.39 72.456 1150.78 77.0825 1160.29 77.1216C1169.77 77.1575 1177.39 72.6038 1186.17 67.3059C1189.65 65.2205 1193.3 63.0401 1197.23 61.1082L1195.76 76.8025C1195.13 77.1516 1194.53 77.5405 1193.9 77.9264C1184.52 83.5397 1173.91 89.9277 1160.39 89.8834C1146.87 89.839 1136.5 83.3748 1127.39 77.696C1118.8 72.3639 1111.41 67.7374 1101.9 67.6984C1092.43 67.6624 1084.81 72.2161 1076.02 77.514C1066.65 83.1273 1056.04 89.5153 1042.52 89.471C1029 89.4266 1018.63 82.9624 1009.51 77.2836C1000.93 71.9515 993.538 67.325 984.028 67.2859C974.55 67.25 966.931 71.8037 958.148 77.1016C948.771 82.7148 938.162 89.1029 924.641 89.0586C911.12 89.0142 900.753 82.55 891.637 76.8712C883.053 71.5391 875.662 66.9126 866.152 66.8736C856.674 66.8376 849.055 71.3913 840.239 76.6861C830.863 82.2994 820.254 88.6874 806.733 88.6431C796.128 88.6126 787.482 84.6475 779.844 80.1834C777.768 78.9868 775.732 77.7197 773.729 76.4557C765.144 71.1236 757.754 66.4971 748.243 66.4581C747.944 66.4671 747.645 66.4761 747.349 66.4484C744.989 66.5237 742.768 66.8719 740.596 67.4101C740.053 67.5447 739.54 67.7191 738.997 67.8537C738.723 67.9394 738.45 68.025 738.177 68.1107C732.87 69.9131 727.848 72.9296 722.334 76.2338C719.701 77.8048 716.959 79.4769 714.099 80.9895C711.236 82.5389 708.218 83.9625 705.057 85.15C703.994 85.5326 702.931 85.9151 701.805 86.2547C701.43 86.3679 701.087 86.4843 700.715 86.5607C700.172 86.6953 699.593 86.8635 699.05 86.9981C698.846 87.0531 698.678 87.0745 698.474 87.1296C698.102 87.206 697.731 87.2824 697.359 87.3588C696.582 87.5086 695.806 87.6583 695 87.7682C694.665 87.811 694.296 87.8506 693.961 87.8933C693.658 87.9391 693.326 87.9451 693.023 87.9909C692.757 88.003 692.487 88.0519 692.221 88.064C691.451 88.1402 690.652 88.1765 689.89 88.1792C689.558 88.1851 689.226 88.191 688.893 88.197C675.372 88.1526 665.005 81.6884 655.889 76.0096C647.305 70.6775 639.914 66.051 630.404 66.012C629.809 65.9932 629.244 66.0144 628.675 66.0723C628.642 66.0692 628.642 66.0693 628.609 66.0662C628.043 66.0873 627.474 66.1452 626.938 66.2062C626.669 66.2551 626.369 66.2641 626.1 66.313C625.83 66.3619 625.596 66.3771 625.327 66.426C625.122 66.481 624.889 66.4962 624.685 66.5513C623.806 66.7286 622.925 66.9427 622.039 67.1935C616.115 68.8638 610.601 72.1681 604.524 75.8276C595.148 81.4409 584.539 87.829 570.985 87.7815C566.452 87.6901 562.342 86.9706 558.471 85.8281Z" fill="#FFF7E1"/>
<path d="M1031.76 56.7239L1032.98 44.1784C1036.5 45.5475 1040.13 45.8702 1044.14 45.8756C1053.62 45.9115 1061.24 40.8571 1070.05 35.5623C1076.38 31.7772 1083.26 27.6369 1091.2 25.3762C1095.35 24.1708 1099.42 23.6244 1103.56 23.642C1117.08 23.6864 1127.45 30.1506 1136.56 35.8294C1145.15 41.1615 1152.54 45.788 1162.05 45.8271C1162.35 45.818 1162.65 45.809 1162.94 45.8368C1163.24 45.8278 1163.54 45.8187 1163.81 45.8066C1164.37 45.7855 1164.94 45.7275 1165.51 45.6696C1166.08 45.6117 1166.62 45.5139 1167.19 45.4192C1168.3 45.2267 1169.39 44.9576 1170.48 44.6517C1170.95 44.5109 1171.46 44.3733 1171.95 44.1958C1172.26 44.0764 1172.56 43.9938 1172.87 43.8745C1174.93 43.14 1176.97 42.2185 1178.99 41.1468C1180.07 40.5803 1181.19 39.9802 1182.28 39.3402C1182.8 39.0554 1183.33 38.7338 1183.85 38.4491C1185.18 37.6835 1186.52 36.8812 1187.89 36.0451C1194.32 32.159 1201.38 27.9606 1209.54 25.7214C1210.05 25.5838 1210.56 25.4461 1211.11 25.3115C1211.17 25.2809 1211.24 25.2871 1211.34 25.2595C1212.63 24.9721 1213.95 24.6878 1215.29 24.5169C1215.69 24.4803 1216.06 24.4039 1216.46 24.3674C1216.67 24.3491 1216.87 24.3308 1217.1 24.3156C1217.5 24.2791 1217.9 24.2425 1218.3 24.2059C1218.7 24.1694 1219.13 24.1727 1219.54 24.1361C1220.17 24.1212 1220.8 24.1062 1221.43 24.0912C1234.95 24.1356 1245.32 30.563 1254.43 36.2786C1263.02 41.6107 1270.41 46.2372 1279.92 46.2763C1289.4 46.3122 1297.02 41.7585 1305.8 36.4606C1315.18 30.8474 1325.78 24.4592 1339.31 24.5036C1352.83 24.548 1363.19 31.0122 1372.31 36.691C1380.89 42.0231 1388.28 46.6496 1397.79 46.6886C1407.27 46.7246 1414.89 42.1709 1423.67 36.873C1433.05 31.2597 1443.66 24.8717 1457.18 24.916C1470.7 24.9604 1481.07 31.4246 1490.19 37.1034C1498.77 42.4355 1506.16 47.062 1515.67 47.101C1525.15 47.137 1532.77 42.5833 1541.58 37.2885C1550.96 31.6752 1561.57 25.2872 1575.09 25.3315C1588.61 25.3759 1598.98 31.8033 1608.09 37.5189C1616.68 42.851 1624.09 47.2324 1633.6 47.2714C1643.08 47.3074 1650.79 41.7731 1659.57 36.4752C1663.05 34.3898 1666.68 32.4545 1670.61 30.5226L1669.18 45.7266C1668.55 46.0757 1667.95 46.4647 1667.32 46.8505C1657.95 52.4638 1647.2 60.3227 1633.68 60.2783C1620.16 60.234 1609.79 53.7698 1600.67 48.091C1592.09 42.7588 1584.7 38.1324 1575.19 38.0933C1565.71 38.0574 1558.09 42.6111 1549.31 47.9089C1539.93 53.5222 1529.32 59.9103 1515.8 59.8659C1502.28 59.8216 1491.91 53.3574 1482.8 47.6786C1474.21 42.3464 1466.82 37.72 1457.31 37.6809C1447.84 37.6449 1440.22 42.1986 1431.43 47.4965C1422.06 53.1098 1411.45 59.4979 1397.93 59.4536C1384.41 59.4092 1374.04 52.945 1364.92 47.2662C1356.34 41.9341 1348.95 37.3076 1339.44 37.2685C1329.96 37.2326 1322.34 41.7863 1313.52 47.0811C1304.15 52.6944 1293.54 59.0824 1280.02 59.0381C1269.41 59.0076 1260.77 55.0425 1253.13 50.5783C1251.05 49.3818 1249.02 48.1147 1247.01 46.8507C1238.43 41.5186 1231.04 36.8921 1221.53 36.853C1221.23 36.8621 1220.93 36.8711 1220.63 36.8434C1218.27 36.9187 1216.05 37.2668 1213.88 37.8051C1213.34 37.9397 1212.82 38.1141 1212.28 38.2486C1212.01 38.3343 1211.74 38.42 1211.46 38.5057C1206.16 40.3081 1201.13 43.3245 1195.62 46.6288C1192.99 48.1998 1190.24 49.8719 1187.38 51.3845C1184.52 52.9339 1181.5 54.3575 1178.34 55.545C1177.28 55.9276 1176.22 56.3101 1175.09 56.6497C1174.71 56.7629 1174.37 56.8792 1174 56.9557C1173.46 57.0902 1172.88 57.2585 1172.34 57.393C1172.13 57.4481 1171.96 57.4695 1171.76 57.5245C1171.39 57.601 1171.02 57.6774 1170.64 57.7538C1169.87 57.9036 1169.09 58.0533 1168.29 58.1632C1167.95 58.2059 1167.58 58.2456 1167.25 58.2883C1166.94 58.3341 1166.61 58.34 1166.31 58.3858C1166.04 58.398 1165.77 58.4469 1165.51 58.459C1164.74 58.5352 1163.94 58.5715 1163.17 58.5741C1162.84 58.5801 1162.51 58.586 1162.18 58.592C1148.66 58.5476 1138.29 52.0834 1129.17 46.4046C1120.59 41.0725 1113.2 36.446 1103.69 36.4069C1103.09 36.3882 1102.53 36.4094 1101.96 36.4673C1101.93 36.4642 1101.93 36.4642 1101.89 36.4611C1101.33 36.4823 1100.76 36.5402 1100.22 36.6012C1099.95 36.6501 1099.65 36.6591 1099.38 36.708C1099.11 36.7569 1098.88 36.7721 1098.61 36.821C1098.41 36.876 1098.17 36.8912 1097.97 36.9463C1097.09 37.1236 1096.21 37.3376 1095.32 37.5885C1089.4 39.2588 1083.89 42.563 1077.81 46.2226C1068.43 51.8358 1057.82 58.2239 1044.27 58.1765C1039.74 58.0851 1035.63 57.8663 1031.76 56.7239Z" fill="#FFF7E1"/>
<path d="M1030.09 87.2221L1031.31 74.6767C1034.83 76.0458 1038.47 76.8693 1042.48 76.8746C1051.95 76.9105 1059.57 71.8561 1068.39 66.5613C1074.71 62.7762 1081.59 58.6359 1089.53 56.3752C1093.69 55.1698 1097.75 54.6234 1101.89 54.6411C1115.41 54.6854 1125.78 61.1496 1134.9 66.8284C1143.48 72.1606 1150.87 76.787 1160.38 76.8261C1160.68 76.8171 1160.98 76.808 1161.28 76.8358C1161.57 76.8268 1161.87 76.8177 1162.14 76.8056C1162.71 76.7845 1163.27 76.7265 1163.84 76.6686C1164.41 76.6107 1164.95 76.5129 1165.52 76.4182C1166.64 76.2257 1167.72 75.9566 1168.81 75.6507C1169.29 75.51 1169.8 75.3723 1170.28 75.1948C1170.59 75.0754 1170.9 74.9929 1171.2 74.8735C1173.26 74.139 1175.3 73.2175 1177.33 72.1458C1178.41 71.5793 1179.53 70.9792 1180.61 70.3392C1181.14 70.0544 1181.66 69.7328 1182.19 69.4481C1183.52 68.6825 1184.85 67.8802 1186.22 67.0441C1192.65 63.158 1199.71 58.9596 1207.88 56.7204C1208.39 56.5828 1208.9 56.4451 1209.44 56.3106C1209.51 56.2799 1209.57 56.2861 1209.68 56.2586C1210.96 55.9711 1212.28 55.6868 1213.62 55.5159C1214.03 55.4794 1214.4 55.403 1214.8 55.3664C1215 55.3481 1215.2 55.3298 1215.43 55.3146C1215.83 55.2781 1216.24 55.2415 1216.64 55.205C1217.04 55.1684 1217.47 55.1717 1217.87 55.1352C1218.5 55.1202 1219.13 55.1052 1219.76 55.0903C1233.29 55.1346 1243.66 61.562 1252.77 67.2776C1261.35 72.6098 1268.74 77.2362 1278.25 77.2753C1287.73 77.3112 1295.35 72.7575 1304.13 67.4597C1313.51 61.8464 1324.12 55.4583 1337.64 55.5026C1351.16 55.547 1361.53 62.0112 1370.64 67.69C1379.23 73.0221 1386.62 77.6486 1396.13 77.6876C1405.61 77.7236 1413.23 73.1699 1422.01 67.872C1431.39 62.2588 1441.99 55.8707 1455.52 55.915C1469.04 55.9594 1479.4 62.4236 1488.52 68.1024C1497.1 73.4345 1504.49 78.061 1514 78.1001C1523.48 78.136 1531.1 73.5823 1539.92 68.2875C1549.29 62.6742 1559.9 56.2862 1573.42 56.3305C1586.94 56.3749 1597.32 62.8023 1606.43 68.5179C1615.01 73.85 1622.4 78.4765 1631.91 78.5156C1641.39 78.5515 1649.06 73.5076 1657.84 68.2097C1661.32 66.1242 1664.97 63.9438 1668.89 62.0119L1667.45 77.4611C1666.82 77.8102 1666.22 78.1991 1665.59 78.585C1656.21 84.1982 1645.53 91.3217 1632.01 91.2774C1618.49 91.233 1608.12 84.7688 1599.01 79.09C1590.42 73.7579 1583.03 69.1314 1573.52 69.0923C1564.05 69.0564 1556.43 73.6101 1547.64 78.908C1538.27 84.5212 1527.66 90.9093 1514.14 90.865C1500.62 90.8206 1490.25 84.3564 1481.13 78.6776C1472.55 73.3454 1465.16 68.719 1455.65 68.6799C1446.17 68.644 1438.55 73.1977 1429.77 78.4956C1420.39 84.1088 1409.78 90.4969 1396.26 90.4526C1382.74 90.4082 1372.37 83.944 1363.26 78.2652C1354.67 72.9331 1347.28 68.3066 1337.77 68.2676C1328.29 68.2316 1320.67 72.7853 1311.86 78.0801C1302.48 83.6934 1291.87 90.0814 1278.35 90.0371C1267.75 90.0066 1259.1 86.0415 1251.46 81.5774C1249.39 80.3808 1247.35 79.1137 1245.35 77.8497C1236.76 72.5176 1229.37 67.8911 1219.86 67.8521C1219.56 67.8611 1219.26 67.8701 1218.97 67.8424C1216.61 67.9177 1214.39 68.2659 1212.22 68.8041C1211.67 68.9387 1211.16 69.1131 1210.62 69.2477C1210.34 69.3333 1210.07 69.419 1209.8 69.5047C1204.49 71.3071 1199.47 74.3236 1193.95 77.6278C1191.32 79.1988 1188.58 80.8709 1185.72 82.3835C1182.86 83.9329 1179.84 85.3565 1176.68 86.544C1175.61 86.9266 1174.55 87.3091 1173.42 87.6487C1173.05 87.7619 1172.71 87.8783 1172.33 87.9547C1171.79 88.0892 1171.21 88.2575 1170.67 88.3921C1170.47 88.4471 1170.3 88.4685 1170.09 88.5236C1169.72 88.6 1169.35 88.6764 1168.98 88.7528C1168.2 88.9026 1167.43 89.0523 1166.62 89.1622C1166.28 89.2049 1165.92 89.2446 1165.58 89.2873C1165.28 89.3331 1164.95 89.3391 1164.64 89.3849C1164.38 89.397 1164.11 89.4459 1163.84 89.458C1163.07 89.5342 1162.27 89.5705 1161.51 89.5732C1161.18 89.5791 1160.85 89.585 1160.51 89.591C1146.99 89.5466 1136.62 83.0824 1127.51 77.4036C1118.92 72.0715 1111.53 67.445 1102.02 67.406C1101.43 67.3872 1100.86 67.4084 1100.29 67.4663C1100.26 67.4632 1100.26 67.4632 1100.23 67.4602C1099.66 67.4813 1099.09 67.5392 1098.56 67.6002C1098.29 67.6491 1097.99 67.6581 1097.72 67.707C1097.45 67.7559 1097.22 67.7711 1096.95 67.82C1096.74 67.875 1096.51 67.8902 1096.3 67.9453C1095.43 68.1226 1094.54 68.3367 1093.66 68.5875C1087.73 70.2578 1082.22 73.5621 1076.14 77.2216C1066.77 82.8349 1056.16 89.223 1042.6 89.1755C1038.07 89.0841 1033.96 88.3645 1030.09 87.2221Z" fill="#FFF7E1"/>
<path d="M1619.53 57.5821L1620.68 45.2714C1624.2 46.6404 1627.84 47.4639 1631.85 47.4692C1641.33 47.5052 1648.95 42.9515 1657.76 37.6567C1664.08 33.8716 1670.97 29.7314 1678.9 27.4706C1683.06 26.2652 1687.12 25.7188 1691.26 25.7365C1704.79 25.7808 1715.15 32.245 1724.27 37.9238C1732.85 43.256 1740.24 47.8825 1749.75 47.9215C1750.05 47.9125 1750.35 47.9035 1750.65 47.9312C1750.95 47.9222 1751.25 47.9131 1751.51 47.901C1752.08 47.8799 1752.65 47.822 1753.22 47.764C1753.79 47.7061 1754.32 47.6083 1754.9 47.5136C1756.01 47.3211 1757.1 47.052 1758.18 46.7461C1758.66 46.6054 1759.17 46.4677 1759.65 46.2902C1759.96 46.1708 1760.27 46.0883 1760.58 45.9689C1762.64 45.2344 1764.68 44.3129 1766.7 43.2412C1767.78 42.6748 1768.9 42.0746 1769.99 41.4346C1770.51 41.1498 1771.04 40.8283 1771.56 40.5435C1772.89 39.7779 1774.23 38.9756 1775.6 38.1396C1782.03 34.2534 1789.08 30.055 1797.25 27.8158C1797.76 27.6782 1798.27 27.5405 1798.81 27.406C1798.88 27.3754 1798.95 27.3815 1799.05 27.354C1800.34 27.0666 1801.66 26.7822 1803 26.6113C1803.4 26.5748 1803.77 26.4984 1804.17 26.4618C1804.37 26.4435 1804.57 26.4252 1804.81 26.41C1805.21 26.3735 1805.61 26.3369 1806.01 26.3004C1806.41 26.2638 1806.84 26.2671 1807.24 26.2306C1807.87 26.2156 1808.51 26.2006 1809.14 26.1857C1822.66 26.23 1833.03 32.6574 1842.14 38.373C1850.72 43.7052 1858.12 48.3316 1867.63 48.3707C1877.1 48.4066 1884.72 43.853 1893.51 38.5551C1902.88 32.9418 1913.49 26.5537 1927.01 26.598C1940.53 26.6424 1950.9 33.1066 1960.02 38.7854C1968.6 44.1175 1975.99 48.744 1985.5 48.7831C1994.98 48.819 2002.6 44.2653 2011.38 38.9674C2020.76 33.3542 2031.37 26.9661 2044.89 27.0105C2058.41 27.0548 2068.78 33.519 2077.89 39.1978C2086.48 44.53 2093.87 49.1564 2103.38 49.1955C2112.85 49.2314 2120.47 44.6777 2129.29 39.3829C2138.67 33.7697 2149.28 27.3816 2162.8 27.426C2176.32 27.4703 2186.69 33.8977 2195.8 39.6133C2204.39 44.9455 2211.78 49.5719 2221.29 49.611C2230.76 49.6469 2238.38 45.0932 2247.17 39.7954C2250.64 37.7099 2254.29 35.5295 2258.22 33.5976L2256.75 49.2919C2256.12 49.641 2255.52 50.0299 2254.89 50.4158C2245.51 56.0291 2234.91 62.4171 2221.38 62.3728C2207.86 62.3284 2197.5 55.8642 2188.38 50.1854C2179.8 44.8533 2172.41 40.2268 2162.9 40.1878C2153.42 40.1518 2145.8 44.7055 2137.02 50.0034C2127.64 55.6167 2117.03 62.0047 2103.51 61.9604C2089.99 61.916 2079.62 55.4518 2070.5 49.773C2061.92 44.4409 2054.53 39.8144 2045.02 39.7753C2035.54 39.7394 2027.92 44.2931 2019.14 49.591C2009.76 55.2042 1999.15 61.5923 1985.63 61.548C1972.11 61.5036 1961.74 55.0394 1952.63 49.3606C1944.05 44.0285 1936.65 39.402 1927.14 39.363C1917.67 39.327 1910.05 43.8807 1901.23 49.1755C1891.85 54.7888 1881.25 61.1769 1867.72 61.1325C1857.12 61.102 1848.47 57.1369 1840.84 52.6728C1838.76 51.4762 1836.72 50.2091 1834.72 48.9451C1826.14 43.613 1818.75 38.9865 1809.24 38.9475C1808.94 38.9565 1808.64 38.9656 1808.34 38.9378C1805.98 39.0131 1803.76 39.3613 1801.59 39.8995C1801.05 40.0341 1800.53 40.2085 1799.99 40.3431C1799.72 40.4288 1799.44 40.5144 1799.17 40.6001C1793.86 42.4025 1788.84 45.419 1783.33 48.7232C1780.69 50.2942 1777.95 51.9663 1775.09 53.4789C1772.23 55.0283 1769.21 56.4519 1766.05 57.6395C1764.99 58.022 1763.92 58.4045 1762.8 58.7442C1762.42 58.8574 1762.08 58.9737 1761.71 59.0501C1761.16 59.1847 1760.59 59.3529 1760.04 59.4875C1759.84 59.5425 1759.67 59.5639 1759.47 59.619C1759.09 59.6954 1758.72 59.7718 1758.35 59.8482C1757.57 59.998 1756.8 60.1477 1755.99 60.2576C1755.66 60.3004 1755.29 60.34 1754.95 60.3827C1754.65 60.4285 1754.32 60.4345 1754.02 60.4803C1753.75 60.4924 1753.48 60.5413 1753.21 60.5534C1752.44 60.6296 1751.64 60.6659 1750.88 60.6686C1750.55 60.6745 1750.22 60.6804 1749.89 60.6864C1736.36 60.642 1726 54.1778 1716.88 48.499C1708.3 43.1669 1700.91 38.5404 1691.4 38.5014C1690.8 38.4826 1690.24 38.5038 1689.67 38.5617C1689.63 38.5587 1689.63 38.5587 1689.6 38.5556C1689.04 38.5767 1688.47 38.6346 1687.93 38.6956C1687.66 38.7445 1687.36 38.7535 1687.09 38.8024C1686.82 38.8513 1686.59 38.8665 1686.32 38.9154C1686.11 38.9705 1685.88 38.9857 1685.68 39.0407C1684.8 39.218 1683.92 39.4321 1683.03 39.6829C1677.11 41.3532 1671.59 44.6575 1665.52 48.317C1656.14 53.9303 1645.53 60.3184 1631.98 60.2709C1627.44 60.1795 1623.4 58.7245 1619.53 57.5821Z" fill="#FFF7E1"/>
<path d="M1618.78 89.4117L1620 76.3655C1623.52 77.7346 1627.15 78.5581 1631.16 78.5634C1640.64 78.5994 1648.26 74.0457 1657.07 68.7509C1663.4 64.9658 1670.28 60.8255 1678.22 58.5648C1682.37 57.3594 1686.44 56.813 1690.58 56.8306C1704.1 56.875 1714.47 63.3392 1723.58 69.018C1732.17 74.3501 1739.56 78.9766 1749.07 79.0157C1749.37 79.0066 1749.67 78.9976 1749.96 79.0254C1750.26 79.0164 1750.56 79.0073 1750.83 78.9952C1751.39 78.9741 1751.96 78.9161 1752.53 78.8582C1753.1 78.8003 1753.64 78.7025 1754.21 78.6078C1755.32 78.4153 1756.41 78.1462 1757.5 77.8403C1757.97 77.6995 1758.48 77.5619 1758.97 77.3844C1759.28 77.265 1759.58 77.1824 1759.89 77.0631C1761.95 76.3286 1763.99 75.4071 1766.01 74.3354C1767.09 73.7689 1768.21 73.1688 1769.3 72.5288C1769.82 72.244 1770.35 71.9224 1770.87 71.6377C1772.2 70.8721 1773.54 70.0698 1774.91 69.2337C1781.34 65.3476 1788.4 61.1492 1796.56 58.91C1797.07 58.7724 1797.58 58.6347 1798.13 58.5001C1798.19 58.4695 1798.26 58.4757 1798.36 58.4481C1799.65 58.1607 1800.97 57.8764 1802.31 57.7055C1802.71 57.6689 1803.08 57.5925 1803.48 57.556C1803.69 57.5377 1803.89 57.5194 1804.12 57.5042C1804.52 57.4677 1804.92 57.4311 1805.32 57.3946C1805.72 57.358 1806.15 57.3613 1806.56 57.3247C1807.19 57.3098 1807.82 57.2948 1808.45 57.2798C1821.97 57.3242 1832.34 63.7516 1841.45 69.4672C1850.04 74.7993 1857.43 79.4258 1866.94 79.4649C1876.42 79.5008 1884.04 74.9471 1892.82 69.6492C1902.2 64.036 1912.8 57.6478 1926.33 57.6922C1939.85 57.7366 1950.21 64.2008 1959.33 69.8796C1967.91 75.2117 1975.3 79.8382 1984.81 79.8772C1994.29 79.9132 2001.91 75.3595 2010.7 70.0616C2020.07 64.4483 2030.68 58.0603 2044.2 58.1046C2057.72 58.149 2068.09 64.6132 2077.21 70.292C2085.79 75.6241 2093.18 80.2506 2102.69 80.2896C2112.17 80.3256 2119.79 75.7719 2128.6 70.4771C2137.98 64.8638 2148.59 58.4758 2162.11 58.5201C2175.63 58.5645 2186 64.9919 2195.11 70.7075C2203.7 76.0396 2211.09 80.6661 2220.6 80.7051C2230.08 80.7411 2237.7 76.1874 2246.48 70.8895C2249.96 68.8041 2253.61 66.6237 2257.53 64.6917L2256.07 80.3861C2255.44 80.7352 2254.84 81.1241 2254.2 81.51C2244.83 87.1232 2234.22 93.5113 2220.7 93.4669C2207.18 93.4226 2196.81 86.9584 2187.69 81.2796C2179.11 75.9475 2171.72 71.321 2162.21 71.2819C2152.73 71.246 2145.11 75.7997 2136.33 81.0976C2126.95 86.7108 2116.34 93.0989 2102.82 93.0545C2089.3 93.0102 2078.93 86.546 2069.82 80.8672C2061.23 75.535 2053.84 70.9086 2044.33 70.8695C2034.86 70.8335 2027.24 75.3872 2018.45 80.6851C2009.08 86.2984 1998.47 92.6865 1984.95 92.6422C1971.43 92.5978 1961.06 86.1336 1951.94 80.4548C1943.36 75.1227 1935.97 70.4962 1926.46 70.4571C1916.98 70.4212 1909.36 74.9749 1900.54 80.2697C1891.17 85.883 1880.56 92.271 1867.04 92.2267C1856.43 92.1962 1847.79 88.2311 1840.15 83.767C1838.07 82.5704 1836.04 81.3033 1834.03 80.0393C1825.45 74.7072 1818.06 70.0807 1808.55 70.0416C1808.25 70.0507 1807.95 70.0597 1807.65 70.032C1805.29 70.1073 1803.07 70.4554 1800.9 70.9937C1800.36 71.1283 1799.84 71.3027 1799.3 71.4373C1799.03 71.5229 1798.76 71.6086 1798.48 71.6943C1793.18 73.4967 1788.15 76.5131 1782.64 79.8174C1780.01 81.3884 1777.26 83.0605 1774.4 84.5731C1771.54 86.1225 1768.52 87.5461 1765.36 88.7336C1764.3 89.1162 1763.24 89.4987 1762.11 89.8383C1761.73 89.9515 1761.39 90.0678 1761.02 90.1443C1760.48 90.2788 1759.9 90.4471 1759.36 90.5816C1759.15 90.6367 1758.98 90.6581 1758.78 90.7131C1758.41 90.7896 1758.04 90.866 1757.66 90.9424C1756.89 91.0922 1756.11 91.2419 1755.31 91.3518C1754.97 91.3945 1754.6 91.4342 1754.27 91.4769C1753.96 91.5227 1753.63 91.5286 1753.33 91.5744C1753.06 91.5866 1752.79 91.6355 1752.53 91.6476C1751.76 91.7238 1750.96 91.7601 1750.19 91.7627C1749.86 91.7687 1749.53 91.7746 1749.2 91.7806C1735.68 91.7362 1725.31 85.272 1716.19 79.5932C1707.61 74.2611 1700.22 69.6346 1690.71 69.5955C1690.11 69.5768 1689.55 69.598 1688.98 69.6559C1688.95 69.6528 1688.95 69.6528 1688.91 69.6497C1688.35 69.6709 1687.78 69.7288 1687.24 69.7898C1686.97 69.8387 1686.67 69.8477 1686.4 69.8966C1686.14 69.9455 1685.9 69.9607 1685.63 70.0096C1685.43 70.0646 1685.19 70.0798 1684.99 70.1349C1684.11 70.3122 1683.23 70.5262 1682.34 70.7771C1676.42 72.4474 1670.91 75.7516 1664.83 79.4112C1655.45 85.0244 1644.84 91.4125 1631.29 91.3651C1626.76 91.2737 1622.65 90.5541 1618.78 89.4117Z" fill="#FFF7E1"/>
</svg>
