<svg width="146" height="97" viewBox="0 0 146 97" fill="none" xmlns="http://www.w3.org/2000/svg">
<g clip-path="url(#clip0_1945_500)">
<path fill-rule="evenodd" clip-rule="evenodd" d="M64.1378 12.7589C69.2688 7.49705 77.7314 7.49705 82.8624 12.7589L131.197 62.3233C139.269 70.5996 133.4 84.5023 121.835 84.5023H25.1652C13.6003 84.5023 7.73134 70.5996 15.8024 62.3233L64.1378 12.7589Z" fill="#FA492D"/>
<g filter="url(#filter0_d_1945_500)">
<path fill-rule="evenodd" clip-rule="evenodd" d="M68.5472 31.5334C71.2616 28.8222 75.7385 28.8222 78.4529 31.5334L104.023 57.0721C108.293 61.3365 105.189 68.5 99.0705 68.5H47.9296C41.8115 68.5 38.7066 61.3365 42.9764 57.0721L68.5472 31.5334Z" fill="#FFF7E1"/>
</g>
</g>
<defs>
<filter id="filter0_d_1945_500" x="30" y="20.5" width="87" height="61" filterUnits="userSpaceOnUse" color-interpolation-filters="sRGB">
<feFlood flood-opacity="0" result="BackgroundImageFix"/>
<feColorMatrix in="SourceAlpha" type="matrix" values="0 0 0 0 0 0 0 0 0 0 0 0 0 0 0 0 0 0 127 0" result="hardAlpha"/>
<feOffset dy="2"/>
<feGaussianBlur stdDeviation="5.5"/>
<feComposite in2="hardAlpha" operator="out"/>
<feColorMatrix type="matrix" values="0 0 0 0 0 0 0 0 0 0 0 0 0 0 0 0 0 0 0.25 0"/>
<feBlend mode="normal" in2="BackgroundImageFix" result="effect1_dropShadow_1945_500"/>
<feBlend mode="normal" in="SourceGraphic" in2="effect1_dropShadow_1945_500" result="shape"/>
</filter>
<clipPath id="clip0_1945_500">
<rect width="146" height="96" fill="white" transform="translate(0 0.5)"/>
</clipPath>
</defs>
</svg>
