<svg width="508" height="412" viewBox="0 0 508 412" fill="none" xmlns="http://www.w3.org/2000/svg">
<path d="M369.773 306.746C384.987 315.493 393.256 328.673 400.526 340.34C407.457 351.425 413.464 360.994 424.388 367.13C435.313 373.267 446.601 373.399 459.671 373.531L459.777 373.532C473.679 373.697 489.415 373.883 504.954 382.604C505.432 382.901 505.919 383.198 506.406 383.495C506.893 383.792 507.38 384.089 507.858 384.386V412.001C504.195 407.58 500.036 403.786 494.722 400.784C483.797 394.647 472.51 394.515 459.44 394.383L459.333 394.382C445.431 394.217 429.695 394.031 414.157 385.31C398.578 376.566 390.195 363.204 382.835 351.392C375.904 340.307 369.897 330.738 358.972 324.602C358.613 324.402 358.254 324.208 357.895 324.021C347.407 318.63 336.531 318.504 324.022 318.378L323.916 318.376C310.013 318.212 294.278 318.025 278.739 309.304C263.161 300.561 254.777 287.199 247.417 275.387C240.486 264.301 234.479 254.733 223.554 248.596C220.947 247.145 218.34 246.023 215.699 245.165L227.812 227.48C229.792 228.338 231.806 229.295 233.786 230.417C249.364 239.16 257.748 252.523 265.108 264.334C272.039 275.42 278.046 284.988 288.97 291.125C299.895 297.262 311.183 297.394 324.253 297.526L324.359 297.527C336.379 297.669 349.769 297.828 363.217 303.504L363.23 303.486C364.938 304.226 366.671 305.04 368.386 305.969C368.77 306.174 369.153 306.384 369.536 306.599C369.615 306.648 369.694 306.697 369.773 306.746Z" fill="#2F2C96"/>
<path d="M310.905 247.722C311.383 248.016 311.872 248.304 312.37 248.584C323.295 254.721 334.583 254.853 347.653 254.985L347.759 254.986C361.661 255.15 377.397 255.337 392.936 264.058C408.493 272.789 416.842 286.128 424.228 297.928L424.258 297.975C431.189 309.061 437.196 318.629 448.12 324.766C459.045 330.903 470.333 331.035 483.403 331.167C491.126 331.233 499.377 331.332 507.859 332.849V354.163C500.169 352.183 492.116 352.084 483.205 352.018L483.098 352.017C469.196 351.853 453.46 351.666 437.922 342.945C422.343 334.202 413.96 320.84 406.6 309.028C399.669 297.942 393.662 288.374 382.737 282.237C379.513 280.426 376.256 279.138 372.932 278.218V278.499C365.242 276.52 357.189 276.421 348.277 276.355L348.171 276.354C334.269 276.189 318.533 276.003 302.994 267.282C301.901 266.668 300.844 266.032 299.82 265.376C285.732 256.647 277.831 244.049 270.85 232.846L270.743 232.675C265.835 224.857 261.399 217.793 255.338 212.159L255.433 212.02C253.156 209.995 250.649 208.168 247.81 206.574C236.885 200.437 225.597 200.305 212.527 200.173L212.421 200.172C198.519 200.007 182.783 199.821 167.244 191.1C151.666 182.356 143.283 168.994 135.923 157.182L135.815 157.011C130.907 149.194 126.472 142.129 120.41 136.495L132.259 119.174C141.764 127.224 147.969 137.122 153.58 146.13C160.511 157.215 166.518 166.783 177.443 172.92C188.368 179.057 199.655 179.189 212.725 179.321L212.832 179.322C226.734 179.487 242.47 179.673 258.008 188.394C273.566 197.126 281.915 210.464 289.301 222.264L289.33 222.312C295.762 232.598 301.397 241.578 310.905 247.722Z" fill="#2F2C96"/>
<path d="M507.857 288.771V309.623C507.592 309.623 507.295 309.623 507.031 309.623C493.103 309.458 477.327 309.293 461.748 300.55C446.17 291.807 437.82 278.444 430.427 266.633C423.496 255.547 417.489 245.979 406.597 239.842C395.673 233.705 384.385 233.606 371.282 233.441C357.354 233.276 341.577 233.111 325.999 224.368C310.421 215.625 302.037 202.262 294.677 190.45C287.746 179.365 281.739 169.797 270.814 163.66C259.89 157.523 248.602 157.391 235.499 157.259C221.571 157.094 205.794 156.929 190.216 148.186C174.637 139.443 166.287 126.08 158.894 114.268C151.963 103.183 145.956 93.6145 135.031 87.4777C125.295 82.0008 114.832 81.3409 104.997 81.1429L105.426 60.291C117.374 60.555 131.302 61.4458 145.263 69.2653C160.841 78.0085 169.192 91.371 176.585 103.183C183.516 114.268 189.49 123.837 200.447 129.973C211.372 136.11 222.66 136.242 235.763 136.374C249.691 136.539 265.468 136.704 281.046 145.447C296.624 154.191 305.008 167.553 312.368 179.365C319.299 190.45 325.306 200.019 336.231 206.155C347.155 212.292 358.443 212.391 371.546 212.556C385.474 212.721 401.251 212.886 416.829 221.629C432.407 230.373 440.757 243.735 448.151 255.547C455.082 266.632 461.055 276.201 472.013 282.337C482.938 288.474 494.225 288.606 507.295 288.738C507.46 288.738 507.658 288.771 507.857 288.771Z" fill="#2F2C96"/>
<path d="M372.999 212.506V233.358C372.735 233.358 372.438 233.358 372.174 233.358C358.246 233.193 342.47 233.028 326.891 224.285C311.313 215.542 302.963 202.179 295.569 190.368C288.638 179.282 282.631 169.714 271.74 163.577C260.815 157.44 249.527 157.341 236.424 157.176C222.496 157.011 206.72 156.846 191.141 148.103C175.563 139.36 167.179 125.997 159.819 114.186C152.888 103.1 146.881 93.5316 135.957 87.3948C125.032 81.258 113.744 81.126 100.641 80.9941C86.7131 80.8291 70.9367 80.6641 55.3583 71.9209C39.7799 63.1776 31.4297 49.8152 24.0365 38.0035C17.1055 26.9177 11.0985 17.3496 0.173828 11.2128L10.4054 -7C25.9838 1.74328 34.3341 15.1061 41.7272 26.9177C48.6583 38.0035 54.6322 47.5717 65.5899 53.7084C76.5146 59.8452 87.8022 59.9772 100.905 60.1092C114.833 60.2741 130.61 60.4391 146.188 69.1824C161.767 77.9257 170.15 91.2881 177.51 103.1C184.441 114.186 190.448 123.754 201.373 129.891C212.297 136.027 223.585 136.126 236.688 136.291C250.617 136.456 266.393 136.621 281.971 145.364C297.55 154.108 305.9 167.47 313.293 179.282C320.224 190.368 326.198 199.936 337.156 206.073C348.08 212.209 359.368 212.341 372.438 212.473C372.603 212.473 372.801 212.506 372.999 212.506Z" fill="#2F2C96"/>
<path d="M177.949 33.2258L178.072 33.0473C187.897 41.1882 194.231 51.3045 199.969 60.469L200.011 60.5364C206.932 71.6059 212.905 81.159 223.85 87.2886C233.125 92.4987 242.661 93.3806 253.328 93.6089C255.114 93.6448 256.933 93.6635 258.787 93.6822L258.893 93.6835C260.646 93.7043 262.429 93.7253 264.237 93.7639C276.854 94.0183 290.711 95.0714 304.415 102.763C308.057 104.806 311.303 107.103 314.235 109.573L314.252 109.548C324.077 117.689 330.411 127.806 336.149 136.97L336.191 137.038C342.024 146.367 347.183 154.619 355.214 160.652C356.586 161.657 358.043 162.599 359.6 163.471C360.819 164.141 362.041 164.802 363.269 165.424C365.919 166.559 368.597 167.404 371.334 168.017V168.198C378.822 170.016 386.678 170.103 395.312 170.19L395.418 170.192C409.321 170.356 425.056 170.543 440.595 179.264C456.153 187.995 464.502 201.334 471.888 213.134L471.941 213.219C478.862 224.289 484.835 233.842 495.78 239.972C499.74 242.149 503.734 243.601 507.86 244.525V265.74C500.532 264.552 493.007 262.341 485.548 258.151C469.99 249.419 461.642 236.081 454.256 224.281L454.226 224.234C447.295 213.148 441.288 203.58 430.364 197.443C419.439 191.306 408.151 191.174 395.081 191.042L394.975 191.041C382.832 190.897 369.291 190.737 355.704 184.888C353.476 183.965 351.246 182.892 349.023 181.643C333.465 172.911 325.116 159.573 317.73 147.773L317.701 147.726C310.77 136.64 304.763 127.072 293.838 120.935C284.563 115.725 275.026 114.843 264.358 114.615C262.572 114.579 260.755 114.56 258.901 114.541L258.795 114.54C257.042 114.519 255.259 114.498 253.452 114.46C240.834 114.205 226.977 113.152 213.273 105.461C210.748 104.044 208.412 102.506 206.239 100.872C194.774 92.3995 187.816 81.282 181.55 71.2715L181.521 71.2245C174.59 60.1387 168.583 50.5706 157.658 44.4338C146.733 38.297 135.446 38.165 122.376 38.033L122.269 38.0318C108.367 37.8672 92.6313 37.6808 77.0926 28.9598C61.5142 20.2165 53.1309 6.85417 45.7707 -4.95751C40.6879 -13.1069 36.1003 -20.4315 29.6973 -26.1724L41.5461 -43.4609C51.3713 -35.3201 57.7053 -25.2038 63.4434 -16.0392L63.4855 -15.9719C70.4064 -4.90237 76.3791 4.65069 87.3241 10.7804C98.2488 16.9172 109.537 17.0492 122.607 17.1811L122.713 17.1824C136.615 17.347 152.351 17.5333 167.89 26.2543C171.531 28.2982 174.778 30.5945 177.71 33.0643L177.726 33.0402C177.801 33.1019 177.875 33.1638 177.949 33.2258Z" fill="#2F2C96"/>
<path d="M507.857 188.008V214.865C493.236 206.121 485.182 193.254 478.02 181.838C471.089 170.752 465.082 161.184 454.158 155.047C443.233 148.911 431.945 148.779 418.875 148.647C404.947 148.482 389.171 148.317 373.592 139.574C358.014 130.83 349.663 117.468 342.27 105.656C335.339 94.5704 329.332 85.0023 318.408 78.8655C307.483 72.7287 296.195 72.5967 283.125 72.4647C269.197 72.2998 253.421 72.1348 237.842 63.3915C222.264 54.6482 213.881 41.2859 206.52 29.4742C199.589 18.3884 193.582 8.82027 182.658 2.68348C171.733 -3.45331 160.445 -3.58529 147.342 -3.71726C133.414 -3.88223 117.638 -4.04719 102.059 -12.7905C86.4809 -21.5337 78.0976 -34.8961 70.7375 -46.7078C69.1863 -49.1823 67.635 -51.6568 66.0508 -54.0653L83.4445 -65.5801C85.1607 -63.0066 86.811 -60.3671 88.4612 -57.7276C95.3923 -46.6418 101.399 -37.0737 112.324 -30.9369C123.249 -24.8001 134.536 -24.6681 147.606 -24.5362C161.534 -24.3712 177.311 -24.2062 192.889 -15.4629C208.468 -6.71967 216.851 6.64271 224.211 18.4544C231.142 29.5402 237.149 39.1083 248.074 45.2451C258.998 51.3819 270.286 51.4809 283.356 51.6459C297.284 51.7778 313.061 51.9758 328.639 60.7191C344.218 69.4623 352.568 82.8247 359.961 94.6364C366.892 105.722 372.899 115.29 383.824 121.427C394.748 127.564 406.036 127.696 419.106 127.828C433.034 127.96 448.811 128.158 464.389 136.901C479.968 145.644 488.318 159.007 495.711 170.818C499.705 177.12 503.368 182.993 507.857 188.008Z" fill="#2F2C96"/>
<path d="M507.858 111.362V148.743C505.712 145.609 503.732 142.442 501.851 139.406C494.92 128.32 488.913 118.752 477.988 112.615C467.063 106.479 455.776 106.347 442.706 106.215C428.778 106.05 413.001 105.885 397.423 97.1415C381.844 88.3982 373.494 75.0359 366.101 63.2242C359.17 52.1384 353.163 42.5702 342.238 36.4335C331.314 30.2967 320.026 30.1647 306.956 30.0327C293.028 29.8678 277.251 29.7028 261.673 20.9595C246.094 12.2162 237.711 -1.14615 230.351 -12.9578C223.42 -24.0436 217.413 -33.6118 206.488 -39.7485C195.564 -45.8853 184.276 -46.0173 171.206 -46.1493C157.278 -46.3143 141.501 -46.4792 125.923 -55.2225C121.137 -57.928 116.814 -61.1283 112.754 -65.0546L127.21 -80.0996C129.983 -77.4271 132.92 -75.2496 136.122 -73.4349C147.046 -67.2981 158.334 -67.1662 171.404 -67.0342C185.332 -66.8692 201.109 -66.7042 216.687 -57.961C232.265 -49.2177 240.616 -35.8553 248.009 -24.0436C254.94 -12.9578 260.947 -3.3897 271.871 2.74709C282.796 8.88388 294.084 9.01585 307.154 9.14783C321.082 9.3128 336.858 9.47776 352.437 18.221C368.015 26.9643 376.365 40.3267 383.759 52.1384C390.69 63.2242 396.697 72.7923 407.621 78.9291C418.546 85.0659 429.834 85.1979 442.904 85.3298C456.832 85.4948 472.608 85.6598 488.187 94.4031C496.471 99.0881 502.709 105.027 507.858 111.362Z" fill="#2F2C96"/>
<path d="M507.857 49.8967V74.3118C506.009 72.7941 503.995 71.4084 501.784 70.1877C490.859 64.0509 479.572 63.9189 466.501 63.7869C452.573 63.6219 436.797 63.457 421.219 54.7137C405.64 45.9704 397.257 32.608 389.897 20.7964C382.966 9.71056 376.959 0.142441 366.034 -5.99435C355.109 -12.1311 343.822 -12.2631 330.752 -12.3951C316.823 -12.56 301.047 -12.725 285.469 -21.4683C269.89 -30.2116 261.507 -43.5739 254.147 -55.3856C247.216 -66.4714 241.242 -76.0396 230.284 -82.1763C224.607 -85.3767 218.534 -87.1584 210.58 -87.9502L212.692 -108.703C223.485 -107.614 232.297 -104.975 240.516 -100.356C256.094 -91.6125 264.444 -78.2501 271.838 -66.4384C278.769 -55.3526 284.776 -45.7845 295.7 -39.6477C306.625 -33.5109 317.913 -33.379 331.016 -33.247C344.944 -33.082 360.72 -32.917 376.299 -24.1738C391.877 -15.4305 400.227 -2.06812 407.62 9.74355C414.552 20.8294 420.558 30.3975 431.483 36.5343C442.408 42.6711 453.696 42.803 466.766 42.935C479.406 43.1 493.632 43.265 507.857 49.8967Z" fill="#2F2C96"/>
</svg>
