<svg width="328" height="263" viewBox="0 0 328 263" fill="none" xmlns="http://www.w3.org/2000/svg">
<path d="M328.997 214.227V244.094C322.546 246.946 316.028 249.047 309.913 251.073C296.81 255.351 285.319 259.103 275.642 268.108H243.992C246.949 262.63 250.578 257.302 255.08 252.274C269.796 235.839 287.469 230.061 303.059 224.958C312.601 221.806 321.27 218.954 328.997 214.227Z" fill="#FA492D"/>
<path d="M328.997 86.5781V162.747C325.973 168.301 322.345 173.779 317.775 178.882C303.059 195.316 285.386 201.095 269.796 206.198C255.147 211 242.514 215.128 232.165 226.685C221.951 238.091 218.188 251.974 214.022 268.109H188.621C189.226 265.782 189.898 263.456 190.503 261.055C195.072 243.644 200.246 223.908 214.963 207.473C229.679 191.039 247.352 185.261 262.942 180.158C277.591 175.355 290.224 171.227 300.573 159.671C310.921 148.114 314.617 134.006 318.918 117.646C321.538 107.74 324.294 97.0092 328.997 86.5781Z" fill="#FA492D"/>
<path d="M328.999 0.351562V30.8193C325.975 32.9956 323.152 35.472 320.464 38.4738C310.116 50.0305 306.42 64.1387 302.119 80.4982C297.55 97.9083 292.376 117.645 277.659 134.079C262.943 150.514 245.27 156.292 229.68 161.395C215.031 166.198 202.398 170.325 192.049 181.882C181.701 193.439 178.005 207.547 173.704 223.907C169.941 238.09 165.842 253.849 156.434 268.107H120.215C124.448 265.556 128.413 262.329 132.042 258.277C142.39 246.72 146.086 232.612 150.387 216.252C154.956 198.842 160.13 179.105 174.847 162.671C189.563 146.236 207.236 140.458 222.826 135.355C237.475 130.552 250.108 126.425 260.457 114.868C270.805 103.311 274.501 89.2033 278.802 72.8438C283.371 55.4337 288.545 35.6972 303.262 19.2626C311.258 10.4075 320.061 4.62905 328.999 0.351562Z" fill="#FA492D"/>
<path d="M161.676 128.602C158.249 130.928 155.023 133.705 151.932 137.082C141.583 148.638 137.888 162.747 133.587 179.106C129.017 196.516 123.843 216.253 109.127 232.687C94.4106 249.122 76.7375 254.9 61.1476 260.003C53.4871 262.479 46.4313 264.806 39.9131 268.108H0.871094C2.55104 265.781 4.36545 263.455 6.31419 261.279C21.0305 244.844 38.7035 239.066 54.2934 233.963C68.9425 229.16 81.5757 225.033 91.9242 213.476C102.273 201.919 105.969 187.811 110.269 171.452C114.839 154.041 120.013 134.305 134.729 117.87C139.232 112.843 144.003 108.79 148.908 105.488L161.676 128.602Z" fill="#FA492D"/>
</svg>
