<svg width="134" height="145" viewBox="0 0 134 145" fill="none" xmlns="http://www.w3.org/2000/svg">
<rect x="26" y="9" width="82" height="136" rx="41" fill="#00A979"/>
<rect x="44" y="61" width="46" height="69" rx="23" fill="#FFF7E1"/>
<path d="M67 110.287L67.813 111.145L67 112L66.187 111.145L67 110.287ZM66.187 109.429L75.3739 99.7374L77 101.453L67.813 111.145L66.187 109.429ZM66.187 111.145L57 101.453L58.6261 99.7374L67.813 109.429L66.187 111.145ZM65.8516 110.287V80H68.1484V110.287H65.8516Z" fill="#00A979"/>
<path d="M108.043 101.5C108.043 87.5 120.535 87 128.543 87C130.043 86.1667 132.343 85 133.543 85C134.743 85 119.043 84 111.043 83.5C107.377 84.8333 99.9433 87.5 99.5433 87.5C99.0433 87.5 103.043 109.5 104.543 109.5C105.743 109.5 107.043 106.5 108.043 101.5Z" fill="#00A97A"/>
<path d="M26 102.5C26 88.5 13.5075 87 5.5 87C4 86.1667 1.69962 86 0.499622 86C-0.700379 86 14.9996 85 22.9996 84.5C26.6663 85.8333 34.0996 88.5 34.4996 88.5C34.9996 88.5 31 110.5 29.5 110.5C28.3 110.5 27 107.5 26 102.5Z" fill="#00A97A"/>
<path d="M36.3233 49.168C35.95 49.168 35.586 49.112 35.2313 49C34.8953 48.888 34.5873 48.7107 34.3073 48.468C34.046 48.2253 33.8313 47.9173 33.6633 47.544C33.4953 47.152 33.4113 46.6947 33.4113 46.172V32.256C33.4113 31.7333 33.4953 31.2853 33.6633 30.912C33.8313 30.52 34.046 30.2027 34.3073 29.96C34.5873 29.7173 34.8953 29.54 35.2313 29.428C35.586 29.316 35.95 29.26 36.3233 29.26H36.8833C37.238 29.26 37.5926 29.316 37.9473 29.428C38.302 29.54 38.61 29.7173 38.8713 29.96C39.1513 30.2027 39.3753 30.52 39.5433 30.912C39.7113 31.2853 39.7953 31.7333 39.7953 32.256V46.172C39.7953 46.6947 39.7113 47.152 39.5433 47.544C39.3753 47.9173 39.1513 48.2253 38.8713 48.468C38.61 48.7107 38.302 48.888 37.9473 49C37.5926 49.112 37.238 49.168 36.8833 49.168H36.3233ZM36.5753 31.584C36.314 31.584 36.1833 31.948 36.1833 32.676V45.752C36.1833 46.144 36.2113 46.424 36.2673 46.592C36.3233 46.76 36.426 46.844 36.5753 46.844H36.6313C36.7806 46.844 36.8833 46.76 36.9393 46.592C36.9953 46.424 37.0233 46.144 37.0233 45.752V32.676C37.0233 31.948 36.8926 31.584 36.6313 31.584H36.5753ZM45.226 49.168C44.8713 49.168 44.5167 49.112 44.162 49C43.8073 48.888 43.49 48.7107 43.21 48.468C42.93 48.2253 42.706 47.9173 42.538 47.544C42.37 47.152 42.286 46.6947 42.286 46.172V29.428H45.058V45.752C45.058 46.144 45.086 46.424 45.142 46.592C45.198 46.76 45.3007 46.844 45.45 46.844H45.534C45.6833 46.844 45.7767 46.76 45.814 46.592C45.87 46.424 45.898 46.144 45.898 45.752V29.428H48.698V46.172C48.698 46.6947 48.614 47.152 48.446 47.544C48.278 47.9173 48.054 48.2253 47.774 48.468C47.5127 48.7107 47.2047 48.888 46.85 49C46.4953 49.112 46.1313 49.168 45.758 49.168H45.226ZM57.5727 37.324C57.5727 37.9213 57.4794 38.3693 57.2927 38.668C57.106 38.948 56.8727 39.1347 56.5927 39.228C56.8727 39.3027 57.106 39.4893 57.2927 39.788C57.4794 40.068 57.5727 40.5067 57.5727 41.104V45.164C57.5727 45.892 57.5914 46.4987 57.6287 46.984C57.666 47.4693 57.7034 47.8613 57.7407 48.16C57.7967 48.44 57.8434 48.6453 57.8807 48.776C57.918 48.9067 57.946 48.9813 57.9647 49H55.1647C55.0154 48.776 54.9127 48.3653 54.8567 47.768C54.8007 47.152 54.7727 46.284 54.7727 45.164V41.356C54.7727 40.9827 54.7447 40.712 54.6887 40.544C54.6514 40.3573 54.558 40.264 54.4087 40.264H53.9327V49H51.1607V29.428H54.6607C55.5007 29.428 56.1914 29.6893 56.7327 30.212C57.2927 30.7347 57.5727 31.4627 57.5727 32.396V37.324ZM54.4087 38.192C54.558 38.192 54.6514 38.108 54.6887 37.94C54.7447 37.772 54.7727 37.5107 54.7727 37.156V32.816C54.7727 32.1067 54.642 31.752 54.3807 31.752H53.9327V38.192H54.4087ZM65.9305 49L64.5025 29.428H67.1625L67.7785 39.228H67.8625L68.7025 29.428H70.8865L71.8105 39.228H71.8665L72.5385 29.428H74.9465L73.4905 49H70.8025L69.8225 40.628H69.7945L68.9545 49H65.9305ZM80.1225 49.168C79.7492 49.168 79.3852 49.112 79.0305 49C78.6945 48.888 78.3865 48.7107 78.1065 48.468C77.8452 48.2253 77.6305 47.9173 77.4625 47.544C77.2945 47.152 77.2105 46.6947 77.2105 46.172V32.256C77.2105 31.7333 77.2945 31.2853 77.4625 30.912C77.6305 30.52 77.8452 30.2027 78.1065 29.96C78.3865 29.7173 78.6945 29.54 79.0305 29.428C79.3852 29.316 79.7492 29.26 80.1225 29.26H80.6825C81.0372 29.26 81.3919 29.316 81.7465 29.428C82.1012 29.54 82.4092 29.7173 82.6705 29.96C82.9505 30.2027 83.1745 30.52 83.3425 30.912C83.5105 31.2853 83.5945 31.7333 83.5945 32.256V46.172C83.5945 46.6947 83.5105 47.152 83.3425 47.544C83.1745 47.9173 82.9505 48.2253 82.6705 48.468C82.4092 48.7107 82.1012 48.888 81.7465 49C81.3919 49.112 81.0372 49.168 80.6825 49.168H80.1225ZM80.3745 31.584C80.1132 31.584 79.9825 31.948 79.9825 32.676V45.752C79.9825 46.144 80.0105 46.424 80.0665 46.592C80.1225 46.76 80.2252 46.844 80.3745 46.844H80.4305C80.5799 46.844 80.6825 46.76 80.7385 46.592C80.7945 46.424 80.8225 46.144 80.8225 45.752V32.676C80.8225 31.948 80.6919 31.584 80.4305 31.584H80.3745ZM92.4972 37.324C92.4972 37.9213 92.4039 38.3693 92.2172 38.668C92.0306 38.948 91.7972 39.1347 91.5172 39.228C91.7972 39.3027 92.0306 39.4893 92.2172 39.788C92.4039 40.068 92.4972 40.5067 92.4972 41.104V45.164C92.4972 45.892 92.5159 46.4987 92.5532 46.984C92.5906 47.4693 92.6279 47.8613 92.6652 48.16C92.7212 48.44 92.7679 48.6453 92.8052 48.776C92.8426 48.9067 92.8706 48.9813 92.8892 49H90.0892C89.9399 48.776 89.8372 48.3653 89.7812 47.768C89.7252 47.152 89.6972 46.284 89.6972 45.164V41.356C89.6972 40.9827 89.6692 40.712 89.6132 40.544C89.5759 40.3573 89.4826 40.264 89.3332 40.264H88.8572V49H86.0852V29.428H89.5852C90.4252 29.428 91.1159 29.6893 91.6572 30.212C92.2172 30.7347 92.4972 31.4627 92.4972 32.396V37.324ZM89.3332 38.192C89.4826 38.192 89.5759 38.108 89.6132 37.94C89.6692 37.772 89.6972 37.5107 89.6972 37.156V32.816C89.6972 32.1067 89.5666 31.752 89.3052 31.752H88.8572V38.192H89.3332ZM99.9113 38.892L101.843 49H99.2673L97.9793 42.616H97.9233V49H95.1513V29.428H97.9233V36.316H97.9793L99.3233 29.428H101.871L99.9113 38.892Z" fill="#FFF7E1"/>
</svg>
