<svg width="104" height="97" viewBox="0 0 104 97" fill="none" xmlns="http://www.w3.org/2000/svg">
<path id="&#226;&#128;&#156;" d="M63.7236 79.499C72.4218 77.8855 78.5358 71.6795 82.0655 60.881C83.8303 55.5438 84.7127 50.2687 84.7127 45.0557C84.7127 44.4351 84.7127 43.8765 84.7127 43.38C84.5867 43.0077 84.4606 42.0768 84.3345 40.5873H63.7236V0H104V37.4223C104 55.7921 100.281 69.9418 92.8436 79.8714C85.4061 89.801 75.6994 95.5106 63.7236 97V79.499ZM0 79.499C6.93333 78.382 12.2279 74.5342 15.8836 67.9559C19.4133 61.3775 21.1782 53.8061 21.1782 45.2418C21.1782 44.4971 21.1782 43.7524 21.1782 43.0077C21.0521 42.263 20.863 41.4562 20.6109 40.5873H0V0H40.4655V37.4223C40.4655 52.1926 37.3139 65.3493 31.0109 76.8925C24.7079 88.5598 14.3709 95.2623 0 97V79.499Z" fill="#2F2C96"/>
</svg>
