<svg width="104" height="97" viewBox="0 0 104 97" fill="none" xmlns="http://www.w3.org/2000/svg">
<path id="&#226;&#128;&#156;" d="M40.2764 17.501C31.5782 19.1145 25.4642 25.3205 21.9345 36.119C20.1697 41.4562 19.2873 46.7313 19.2873 51.9443C19.2873 52.5649 19.2873 53.1235 19.2873 53.62C19.4133 53.9923 19.5394 54.9232 19.6655 56.4127H40.2764V97H0V59.5777C0 41.2079 3.71879 27.0582 11.1564 17.1286C18.5939 7.19898 28.3006 1.48944 40.2764 0V17.501ZM104 17.501C97.0667 18.618 91.7721 22.4658 88.1164 29.0441C84.5867 35.6225 82.8218 43.1939 82.8218 51.7582C82.8218 52.5029 82.8218 53.2476 82.8218 53.9923C82.9479 54.737 83.137 55.5438 83.3891 56.4127H104V97H63.5345V59.5777C63.5345 44.8074 66.6861 31.6507 72.9891 20.1075C79.2921 8.44018 89.6291 1.73768 104 0V17.501Z" fill="#2F2C96"/>
</svg>
