<svg xmlns="http://www.w3.org/2000/svg" width="1440" height="284" viewBox="0 0 1440 284" fill="none">
<path fill-rule="evenodd" clip-rule="evenodd" d="M733.799 223.051L752.876 -100.034L2179.02 -100.034L2179.02 160.864C2160.76 171.179 2140.12 180.993 2114.24 181.743C2083.58 182.616 2059.38 170.244 2038.1 159.367L2037.7 159.163C2017.81 149.026 2000.63 140.268 1979.17 140.863C1957.66 141.466 1940.85 151.255 1921.48 162.639L1921.2 162.801C1900.59 174.828 1877.26 188.436 1846.71 189.306C1816.02 190.179 1791.81 177.867 1770.52 166.911L1770.16 166.726C1750.27 156.589 1733.09 147.831 1711.64 148.426C1690.12 149.029 1673.31 158.818 1653.94 170.202L1653.67 170.364C1633.05 182.391 1609.72 195.999 1579.17 196.869C1548.49 197.742 1524.27 185.43 1502.99 174.474L1502.63 174.289C1482.74 164.152 1465.56 155.395 1444.1 155.989C1422.59 156.592 1405.78 166.381 1386.41 177.765L1386.13 177.927C1365.51 189.954 1342.19 203.562 1311.64 204.432C1280.95 205.305 1256.73 192.993 1235.45 182.037L1235.09 181.853C1215.2 171.715 1198.02 162.958 1176.56 163.552C1171.9 163.684 1167.52 164.206 1163.26 165.111C1152.48 167.401 1142.48 171.987 1132.5 177.401C1131.82 177.753 1131.14 178.146 1130.48 178.521L1130.48 178.522C1130.25 178.655 1130.02 178.786 1129.8 178.912C1128.95 179.37 1128.1 179.856 1127.24 180.352C1126.68 180.672 1126.12 180.996 1125.54 181.319C1125.04 181.63 1124.52 181.922 1123.99 182.213L1123.99 182.215C1123.47 182.507 1122.95 182.799 1122.44 183.111L1122.44 183.112C1121.82 183.455 1121.2 183.798 1120.66 184.144C1120.04 184.488 1119.42 184.831 1118.8 185.249C1118.14 185.628 1117.5 186.008 1116.86 186.387C1116.22 186.767 1115.58 187.147 1114.93 187.526C1114.58 187.733 1114.25 187.922 1113.92 188.112C1113.59 188.301 1113.26 188.491 1112.91 188.698L1108.96 190.97C1103.62 193.997 1098.06 197.012 1092.13 199.707L1092.2 199.861C1075.34 207.769 1059.96 211.698 1043.79 212.129C1013.12 213.002 988.924 200.631 967.648 189.754L967.247 189.549C947.358 179.412 930.176 170.655 908.72 171.25C887.209 171.852 870.4 181.642 851.028 193.025C845.775 196.09 840.313 199.906 834.584 203.908C817.756 215.664 798.628 229.027 775.735 229.679C760.157 230.291 746.414 227.393 733.799 223.051Z" fill="#2F2C96"/>
<path fill-rule="evenodd" clip-rule="evenodd" d="M-625.859 276.568L-625.859 -100.035L834.584 -100.034L819.365 214.381C801.101 224.695 780.46 234.51 754.586 235.259C723.917 236.132 699.717 223.761 678.441 212.884L678.04 212.68C658.15 202.543 640.968 193.785 619.512 194.38C598.002 194.982 581.192 204.772 561.821 216.155L561.543 216.318C540.927 228.344 517.6 241.953 487.05 242.823C456.362 243.696 432.147 231.384 410.866 220.428L410.504 220.243C390.614 210.106 373.432 201.348 351.976 201.943C330.466 202.545 313.656 212.335 294.284 223.719L294.006 223.881C273.391 235.908 250.064 249.516 219.514 250.386C188.826 251.259 164.611 238.947 143.33 227.991L142.967 227.806C123.078 217.669 105.896 208.911 84.4406 209.506C62.9297 210.109 46.1201 219.898 26.7487 231.282L26.4703 231.444C5.8548 243.471 -17.472 257.079 -48.0221 257.949C-78.7097 258.822 -102.924 246.51 -124.206 235.554L-124.568 235.369C-144.458 225.232 -161.639 216.474 -183.095 217.069C-187.758 217.201 -192.142 217.723 -196.395 218.627C-207.179 220.918 -217.182 225.504 -227.154 230.918C-227.837 231.27 -228.523 231.663 -229.177 232.038L-229.178 232.039C-229.411 232.172 -229.639 232.303 -229.862 232.429C-230.707 232.887 -231.554 233.373 -232.418 233.868C-232.976 234.188 -233.542 234.512 -234.118 234.836C-234.622 235.147 -235.143 235.438 -235.664 235.73L-235.667 235.732C-236.189 236.024 -236.712 236.316 -237.216 236.627L-237.219 236.629C-237.837 236.972 -238.455 237.314 -238.998 237.661C-239.616 238.004 -240.235 238.348 -240.858 238.766C-241.516 239.145 -242.155 239.524 -242.795 239.904C-243.434 240.284 -244.074 240.664 -244.732 241.043C-245.081 241.25 -245.41 241.439 -245.739 241.629C-246.068 241.818 -246.397 242.007 -246.746 242.214L-250.695 244.487C-256.036 247.514 -261.601 250.528 -267.525 253.224L-267.458 253.378C-284.319 261.286 -299.695 265.215 -315.865 265.646C-346.534 266.519 -370.734 254.147 -392.01 243.271L-392.411 243.066C-412.301 232.929 -429.483 224.172 -450.938 224.766C-472.449 225.369 -489.259 235.158 -508.63 246.542C-513.883 249.607 -519.346 253.423 -525.075 257.425C-541.902 269.181 -561.03 282.544 -583.924 283.195C-599.502 283.808 -613.244 280.91 -625.859 276.568Z" fill="#2F2C96"/>
</svg>