<svg width="30" height="30" viewBox="0 0 30 30" fill="none" xmlns="http://www.w3.org/2000/svg">
<g id="Shirt icon">
<path id="Union" fill-rule="evenodd" clip-rule="evenodd" d="M11.23 1.49986L11.0669 1L10.5759 1.18807L1.40879 4.69915L1.00006 4.85569L1.10114 5.28154L2.62899 11.7185L2.72026 12.103H3.11547H6.68973V28.5733V29.0733H7.18973H14.829H15.3383H22.9776H23.4776V28.5733V12.103H27.0518H27.447L27.5383 11.7185L29.0661 5.28154L29.1672 4.85569L28.7585 4.69915L19.5914 1.18807L19.1004 1L18.9372 1.49986C17.9193 4.61883 16.1548 5.26584 15.2488 5.28433L15.2442 5.26017C15.1966 5.2693 15.1428 5.27633 15.0836 5.28049C15.0245 5.27633 14.9707 5.2693 14.9231 5.26017L14.9184 5.28433C14.0125 5.26584 12.248 4.61883 11.23 1.49986ZM15.0836 6.28293C13.771 6.34581 11.6688 5.50626 10.4539 2.30561L2.17518 5.47645L3.51068 11.103H7.18973H7.68973V11.603V28.0733H14.829H15.3383H22.4776V11.603V11.103H22.9776H26.6566L27.9921 5.47645L19.7133 2.30561C18.4985 5.50626 16.3963 6.34581 15.0836 6.28293Z" fill="#FFF7E1"/>
</g>
</svg>
