<svg width="30" height="30" viewBox="0 0 30 30" fill="none" xmlns="http://www.w3.org/2000/svg">
<g id="Star icon">
<path id="Union" fill-rule="evenodd" clip-rule="evenodd" d="M15.2389 2.68969L11.564 10.6783C11.4157 11.0007 11.1075 11.2204 10.7543 11.2555L1.95599 12.1288L8.48721 17.9414C8.75775 18.1821 8.87697 18.5504 8.79888 18.904L6.9313 27.3617L14.8762 22.916C14.9654 22.8661 15.0634 22.8464 15.1582 22.8537C15.2522 22.8478 15.3489 22.8683 15.4369 22.9185L23.3453 27.4288L21.5467 18.9561C21.4715 18.6018 21.5937 18.2346 21.8662 17.996L28.4445 12.2368L19.6536 11.2919C19.3007 11.2539 18.9943 11.0318 18.8486 10.7081L15.2389 2.68969ZM15.1523 23.9074L7.41962 28.2344C6.66629 28.656 5.76869 27.9891 5.95482 27.1461L7.8224 18.6884L1.29117 12.8758C0.640249 12.2965 0.9901 11.2198 1.85721 11.1337L10.6555 10.2603L14.7548 1.34901C14.8447 1.15375 15.0445 1.04394 15.2469 1.05927C15.4485 1.04679 15.646 1.1581 15.7338 1.35319L19.7605 10.2976L28.5514 11.2426C29.4178 11.3357 29.7588 12.4153 29.1032 12.9892L22.5249 18.7484L24.3235 27.2211C24.5028 28.0655 23.5998 28.7251 22.8499 28.2974L15.1523 23.9074Z" fill="#FFF7E1"/>
</g>
</svg>
