<svg width="1440" height="761" viewBox="0 0 1440 761" fill="none" xmlns="http://www.w3.org/2000/svg">
<path d="M663.376 0.238697L617.641 752.541C623.092 754.87 629.071 756.507 635.939 756.447C649.399 756.491 659.974 750.16 669.319 744.565L669.445 744.49C678.228 739.192 685.848 734.638 695.325 734.674C704.778 734.713 712.137 739.284 720.655 744.575L720.81 744.672L720.827 744.682C729.938 750.359 740.302 756.815 753.815 756.859C760.938 756.897 767.793 755.203 775.392 751.575L775.366 751.498C778.034 750.264 780.552 748.868 782.971 747.462L784.76 746.406C785.077 746.213 785.357 746.054 785.673 745.861C785.971 745.685 786.261 745.508 786.551 745.331C786.841 745.154 787.131 744.977 787.43 744.801C787.713 744.605 787.993 744.446 788.273 744.287C788.521 744.124 788.801 743.965 789.081 743.806C789.31 743.66 789.546 743.525 789.783 743.389C790.019 743.254 790.256 743.118 790.485 742.973C790.746 742.823 791.001 742.672 791.254 742.524C791.646 742.293 792.03 742.068 792.413 741.855C792.513 741.797 792.617 741.736 792.722 741.674C793.018 741.5 793.329 741.317 793.638 741.154C798.149 738.646 802.655 736.546 807.452 735.586C809.344 735.207 811.285 735.018 813.339 735.025C822.792 735.064 830.151 739.635 838.669 744.927L838.824 745.023C847.936 750.739 858.308 757.166 871.829 757.21C885.289 757.255 895.864 750.924 905.209 745.329L905.335 745.253C914.118 739.956 921.737 735.402 931.215 735.438C940.668 735.477 948.027 740.048 956.545 745.339L956.7 745.435C965.812 751.151 976.183 757.578 989.704 757.623C1003.16 757.667 1013.74 751.336 1023.08 745.741L1023.21 745.666C1031.99 740.368 1039.61 735.814 1049.09 735.85C1058.54 735.889 1065.9 740.46 1074.42 745.751L1074.58 745.848C1083.69 751.563 1094.06 757.991 1107.58 758.035C1121.04 758.079 1131.61 751.749 1140.96 746.154L1141.09 746.078C1149.87 740.78 1157.49 736.227 1166.97 736.263C1176.42 736.301 1183.78 740.872 1192.3 746.164L1192.45 746.26L1192.47 746.271C1201.58 751.947 1211.94 758.403 1225.46 758.448C1227.91 758.454 1230.26 758.251 1232.53 757.88C1243.37 756.471 1252.27 751.144 1260.26 746.356L1260.39 746.28C1269.17 740.982 1276.79 736.429 1286.27 736.465C1295.72 736.503 1303.08 741.074 1311.6 746.366L1311.76 746.462L1311.77 746.473C1320.88 752.149 1331.25 758.605 1344.76 758.65C1351.88 758.687 1358.74 756.993 1366.34 753.365L1366.31 753.288C1368.98 752.055 1371.5 750.658 1373.92 749.253L1375.71 748.196C1375.83 748.122 1375.94 748.052 1376.06 747.984C1376.24 747.875 1376.42 747.769 1376.62 747.651C1376.92 747.475 1377.21 747.298 1377.5 747.121C1377.79 746.945 1378.08 746.768 1378.37 746.592C1378.52 746.489 1378.67 746.396 1378.82 746.308C1378.95 746.229 1379.09 746.153 1379.22 746.077C1379.47 745.915 1379.75 745.756 1380.03 745.596C1380.26 745.451 1380.49 745.315 1380.73 745.18C1380.96 745.044 1381.2 744.909 1381.43 744.763C1381.69 744.613 1381.95 744.463 1382.2 744.314C1382.59 744.084 1382.98 743.858 1383.36 743.646C1383.74 743.422 1384.17 743.165 1384.58 742.944C1389.09 740.437 1393.6 738.336 1398.4 737.377C1400.29 736.997 1402.23 736.809 1404.28 736.816C1413.74 736.855 1421.1 741.426 1429.61 746.717L1429.77 746.814C1438.88 752.529 1449.25 758.957 1462.77 759.001C1476.23 759.045 1486.81 752.714 1496.15 747.12L1496.28 747.044C1505.06 741.746 1512.68 737.192 1522.16 737.228C1531.61 737.267 1538.97 741.838 1547.49 747.13L1547.65 747.226C1556.76 752.941 1567.13 759.369 1580.65 759.413C1594.11 759.458 1604.68 753.127 1614.03 747.532L1614.16 747.456C1622.94 742.158 1630.56 737.605 1640.04 737.641C1649.49 737.68 1656.85 742.25 1665.37 747.542L1665.52 747.638C1674.63 753.354 1685.01 759.781 1698.53 759.826C1711.99 759.87 1722.56 753.539 1731.91 747.944L1732.03 747.869C1740.82 742.571 1748.44 738.017 1757.91 738.053C1767.37 738.092 1774.72 742.663 1783.24 747.954L1783.4 748.051L1783.41 748.061C1792.53 753.737 1802.89 760.194 1816.4 760.238C1827.8 760.269 1837.11 755.762 1845.38 750.973V0.238468L663.376 0.238697Z" fill="#FA492D"/>
<path d="M-406.5 0.238281V752.555L-397 747.637C-388 742.629 -374.793 734.653 -365.316 734.689C-355.863 734.727 -348.504 739.298 -339.986 744.59L-339.831 744.686L-339.814 744.697C-330.703 750.373 -320.339 756.829 -306.826 756.874C-299.703 756.911 -292.848 755.217 -285.249 751.589L-285.275 751.512C-282.607 750.279 -280.089 748.882 -277.67 747.477L-275.881 746.42C-275.564 746.227 -275.284 746.068 -274.968 745.875C-274.67 745.699 -274.38 745.523 -274.091 745.346C-273.8 745.169 -273.51 744.992 -273.211 744.816C-272.928 744.62 -272.648 744.46 -272.368 744.301C-272.12 744.139 -271.84 743.98 -271.56 743.82C-271.331 743.675 -271.095 743.539 -270.858 743.404C-270.622 743.268 -270.385 743.133 -270.156 742.987C-269.491 742.605 -268.858 742.219 -268.228 741.87C-268.127 741.811 -268.023 741.75 -267.918 741.688C-267.622 741.513 -267.311 741.331 -267.003 741.168C-262.492 738.66 -257.986 736.56 -253.189 735.6C-251.297 735.221 -249.356 735.033 -247.302 735.04C-237.849 735.079 -230.49 739.65 -221.972 744.941L-221.817 745.038C-212.705 750.753 -202.333 757.18 -188.812 757.225C-175.352 757.269 -164.778 750.938 -155.432 745.343L-155.306 745.268C-146.523 739.97 -138.903 735.416 -129.426 735.452C-119.973 735.491 -112.614 740.062 -104.096 745.353L-103.941 745.45C-94.8288 751.165 -84.4575 757.593 -70.9364 757.637C-57.4758 757.681 -46.9015 751.351 -37.5562 745.756L-37.4303 745.68C-28.6472 740.382 -21.0276 735.829 -11.5501 735.865C-2.0972 735.904 5.26147 740.474 13.7796 745.766L13.935 745.862C23.0469 751.578 33.4183 758.005 46.9394 758.05C60.3998 758.094 70.9743 751.763 80.3195 746.168L80.4455 746.093C89.2286 740.795 96.8479 736.241 106.325 736.277C115.778 736.316 123.137 740.887 131.656 746.178L131.811 746.275L131.827 746.285C140.939 751.961 151.302 758.418 164.815 758.462C167.268 758.469 169.623 758.265 171.893 757.894C182.729 756.485 191.626 751.158 199.623 746.37L199.749 746.295C208.532 740.997 216.152 736.443 225.629 736.479C235.082 736.518 242.441 741.089 250.959 746.38L251.115 746.477L251.131 746.487C260.242 752.163 270.606 758.62 284.119 758.664C291.242 758.702 298.097 757.008 305.697 753.38L305.671 753.303C308.339 752.069 310.856 750.673 313.275 749.267L315.064 748.211C315.22 748.116 315.366 748.029 315.513 747.943C315.664 747.853 315.816 747.764 315.977 747.666C316.276 747.489 316.566 747.312 316.857 747.135C317.146 746.958 317.436 746.782 317.734 746.606C318.017 746.41 318.297 746.251 318.576 746.092L318.578 746.092C318.825 745.929 319.105 745.77 319.385 745.611C319.614 745.465 319.851 745.33 320.087 745.194C320.324 745.059 320.56 744.923 320.789 744.778C321.05 744.628 321.305 744.477 321.558 744.329C321.95 744.098 322.334 743.872 322.717 743.66C322.905 743.551 323.101 743.434 323.302 743.317C323.513 743.194 323.728 743.072 323.943 742.959C328.453 740.451 332.96 738.351 337.757 737.391C339.648 737.012 341.589 736.823 343.643 736.83C353.096 736.869 360.455 741.44 368.973 746.731L369.129 746.828C378.241 752.544 388.612 758.971 402.133 759.015C415.593 759.059 426.168 752.729 435.513 747.134L435.639 747.058C444.422 741.76 452.042 737.207 461.519 737.243C470.972 737.281 478.331 741.852 486.849 747.144L487.004 747.24C496.116 752.956 506.488 759.383 520.009 759.428C533.469 759.472 544.044 753.141 553.389 747.546L553.515 747.471C562.298 742.173 569.917 737.619 579.395 737.655C588.848 737.694 596.207 742.265 604.725 747.556L604.88 747.653C613.992 753.368 624.363 759.796 637.884 759.84C651.345 759.884 661.919 753.553 671.264 747.958L671.39 747.883C680.173 742.585 687.793 738.031 697.27 738.067C706.723 738.106 714.082 742.677 722.6 747.969L722.755 748.065C725.056 749.499 726.979 750.939 728.786 752.292C734.137 756.301 738.468 759.545 748.576 759.578C759.977 759.609 769.282 755.103 777.554 750.313L821.715 0.238468L-406.5 0.238281Z" fill="#FA492D"/>
<path d="M-406.5 687.046C-403.523 685.749 -400.018 683.515 -396.784 681.573C-390.463 677.788 -383.578 673.648 -375.643 671.387C-371.486 670.182 -367.424 669.635 -363.282 669.653C-349.761 669.697 -339.393 676.161 -330.277 681.84C-321.693 687.172 -314.302 691.799 -304.792 691.838C-304.493 691.829 -304.194 691.82 -303.898 691.847C-303.599 691.838 -303.3 691.829 -303.033 691.817C-302.468 691.796 -301.899 691.738 -301.33 691.68C-300.761 691.622 -300.221 691.525 -299.649 691.43C-298.537 691.237 -297.451 690.968 -296.361 690.662C-295.884 690.522 -295.374 690.384 -294.893 690.206C-294.584 690.087 -294.278 690.005 -293.968 689.885C-291.911 689.151 -289.869 688.229 -287.846 687.157C-286.765 686.591 -285.648 685.991 -284.56 685.351C-284.037 685.066 -283.509 684.745 -282.985 684.46C-281.654 683.694 -280.319 682.892 -278.948 682.056C-272.518 678.17 -265.462 673.971 -257.297 671.732C-256.787 671.594 -256.277 671.457 -255.734 671.322C-255.664 671.292 -255.599 671.298 -255.497 671.27C-254.21 670.983 -252.891 670.699 -251.549 670.528C-251.147 670.491 -250.776 670.415 -250.374 670.378C-250.174 670.36 -249.973 670.342 -249.74 670.326C-249.339 670.29 -248.937 670.253 -248.536 670.217C-248.135 670.18 -247.704 670.183 -247.303 670.147C-246.672 670.132 -246.041 670.117 -245.409 670.102C-231.888 670.146 -221.517 676.574 -212.405 682.289C-203.821 687.621 -196.43 692.248 -186.92 692.287C-177.442 692.323 -169.823 687.769 -161.04 682.471C-151.664 676.858 -141.055 670.47 -127.534 670.514C-114.013 670.559 -103.645 677.023 -94.5294 682.702C-85.9451 688.034 -78.5546 692.66 -69.0442 692.699C-59.5667 692.735 -51.9471 688.182 -43.164 682.884C-33.7878 677.27 -23.179 670.882 -9.65796 670.927C3.86307 670.971 14.231 677.435 23.3463 683.114C31.9306 688.446 39.3211 693.073 48.8315 693.112C58.309 693.148 65.9285 688.594 74.7445 683.299C84.1207 677.686 94.7298 671.298 108.251 671.342C121.772 671.387 132.143 677.814 141.255 683.53C149.839 688.862 157.253 693.243 166.763 693.282C176.241 693.318 183.952 687.784 192.735 682.486C196.212 680.4 199.841 678.465 203.767 676.533L202.345 691.737C201.716 692.086 201.116 692.475 200.483 692.861C191.107 698.475 180.36 706.333 166.839 706.289C153.318 706.245 142.95 699.781 133.835 694.102C125.251 688.77 117.86 684.143 108.35 684.104C98.8722 684.068 91.2525 688.622 82.4694 693.92C73.0933 699.533 62.4843 705.921 48.9633 705.877C35.4423 705.832 25.0744 699.368 15.959 693.689C7.37479 688.357 -0.0157471 683.731 -9.52612 683.692C-19.0036 683.656 -26.6232 688.209 -35.4063 693.507C-44.7825 699.121 -55.3913 705.509 -68.9124 705.464C-82.4334 705.42 -92.8013 698.956 -101.917 693.277C-110.501 687.945 -117.891 683.318 -127.402 683.279C-136.879 683.243 -144.499 687.797 -153.315 693.092C-162.691 698.705 -173.3 705.093 -186.821 705.049C-197.426 705.018 -206.072 701.053 -213.71 696.589C-215.786 695.392 -217.822 694.125 -219.825 692.861C-228.409 687.529 -235.8 682.903 -245.31 682.864C-245.61 682.873 -245.909 682.882 -246.204 682.854C-248.565 682.929 -250.786 683.278 -252.958 683.816C-253.501 683.95 -254.014 684.125 -254.557 684.259C-254.83 684.345 -255.104 684.431 -255.377 684.516C-260.684 686.319 -265.706 689.335 -271.22 692.64C-273.853 694.21 -276.595 695.883 -279.455 697.395C-282.318 698.945 -285.335 700.368 -288.496 701.556C-289.56 701.938 -290.623 702.321 -291.749 702.66C-292.124 702.774 -292.467 702.89 -292.838 702.966C-293.381 703.101 -293.961 703.269 -294.504 703.404C-294.708 703.459 -294.875 703.48 -295.079 703.535C-295.451 703.612 -295.823 703.688 -296.195 703.765C-296.971 703.914 -297.748 704.064 -298.554 704.174C-298.889 704.217 -299.258 704.256 -299.593 704.299C-299.896 704.345 -300.228 704.351 -300.53 704.397C-300.797 704.409 -301.066 704.458 -301.333 704.47C-302.102 704.546 -302.901 704.582 -303.664 704.585C-303.996 704.591 -304.328 704.597 -304.66 704.603C-318.181 704.558 -328.549 698.094 -337.665 692.415C-346.249 687.083 -353.639 682.457 -363.15 682.418C-363.745 682.399 -364.31 682.42 -364.879 682.478C-364.912 682.475 -364.912 682.475 -364.945 682.472C-365.51 682.493 -366.079 682.551 -366.615 682.612C-366.885 682.661 -367.184 682.67 -367.454 682.719C-367.724 682.768 -367.957 682.783 -368.227 682.832C-368.431 682.887 -368.665 682.902 -368.869 682.957C-369.747 683.134 -370.629 683.348 -371.515 683.599C-377.439 685.269 -382.953 688.574 -389.03 692.233C-398.406 697.847 -406.5 700.654 -406.5 700.654V687.046Z" fill="#FFF7E1"/>
<path d="M-406.5 731.58L-406.5 716.456C-406.5 716.456 -406.5 716.456 -398.45 712.574C-392.129 708.789 -385.244 704.649 -377.309 702.388C-373.152 701.183 -369.089 700.636 -364.947 700.654C-351.426 700.698 -341.058 707.162 -331.943 712.841C-323.359 718.173 -315.968 722.8 -306.458 722.839C-306.159 722.83 -305.859 722.821 -305.564 722.848C-305.264 722.839 -304.965 722.83 -304.699 722.818C-304.133 722.797 -303.564 722.739 -302.995 722.681C-302.426 722.623 -301.887 722.526 -301.314 722.431C-300.202 722.238 -299.117 721.969 -298.027 721.663C-297.55 721.523 -297.04 721.385 -296.559 721.207C-296.249 721.088 -295.943 721.006 -295.634 720.886C-293.576 720.152 -291.534 719.23 -289.511 718.158C-288.431 717.592 -287.314 716.992 -286.226 716.352C-285.702 716.067 -285.175 715.746 -284.651 715.461C-283.32 714.695 -281.985 713.893 -280.614 713.057C-274.184 709.171 -267.128 704.972 -258.962 702.733C-258.452 702.595 -257.942 702.458 -257.399 702.323C-257.33 702.293 -257.264 702.299 -257.162 702.271C-255.876 701.984 -254.556 701.7 -253.214 701.529C-252.813 701.492 -252.441 701.416 -252.04 701.379C-251.839 701.361 -251.639 701.343 -251.405 701.327C-251.004 701.291 -250.603 701.254 -250.202 701.218C-249.801 701.181 -249.37 701.184 -248.969 701.148C-248.337 701.133 -247.706 701.118 -247.075 701.103C-233.554 701.147 -223.183 707.575 -214.071 713.29C-205.486 718.622 -198.096 723.249 -188.585 723.288C-179.108 723.324 -171.488 718.77 -162.705 713.472C-153.329 707.859 -142.72 701.471 -129.199 701.515C-115.678 701.56 -105.31 708.024 -96.195 713.703C-87.6107 719.035 -80.2202 723.661 -70.7098 723.7C-61.2323 723.736 -53.6128 719.183 -44.8297 713.885C-35.4535 708.271 -24.8446 701.883 -11.3236 701.928C2.19742 701.972 12.5654 708.436 21.6807 714.115C30.265 719.447 37.6555 724.074 47.1659 724.113C56.6434 724.149 64.2629 719.595 73.0789 714.3C82.455 708.687 93.0641 702.299 106.585 702.343C120.106 702.388 130.477 708.815 139.589 714.531C148.174 719.863 155.564 724.489 165.075 724.528C174.552 724.564 182.218 719.52 191.001 714.222C194.478 712.137 198.129 709.956 202.056 708.025L200.611 723.474C199.981 723.823 199.381 724.212 198.748 724.598C189.372 730.211 178.695 737.334 165.174 737.29C151.653 737.246 141.285 730.781 132.169 725.103C123.585 719.771 116.194 715.144 106.684 715.105C97.2066 715.069 89.5869 719.623 80.8038 724.921C71.4276 730.534 60.8188 736.922 47.2977 736.878C33.7767 736.833 23.4088 730.369 14.2934 724.69C5.70914 719.358 -1.6814 714.732 -11.1918 714.693C-20.6693 714.657 -28.2888 719.21 -37.0719 724.508C-46.4481 730.122 -57.057 736.51 -70.578 736.465C-84.099 736.421 -94.4669 729.957 -103.582 724.278C-112.167 718.946 -119.557 714.319 -129.067 714.28C-138.545 714.244 -146.164 718.798 -154.98 724.093C-164.357 729.706 -174.965 736.094 -188.486 736.05C-199.092 736.019 -207.737 732.054 -215.375 727.59C-217.451 726.393 -219.487 725.126 -221.491 723.862C-230.075 718.53 -237.466 713.904 -246.976 713.865C-247.275 713.874 -247.574 713.883 -247.87 713.855C-250.231 713.93 -252.451 714.279 -254.623 714.817C-255.166 714.951 -255.68 715.126 -256.223 715.26C-256.496 715.346 -256.769 715.432 -257.042 715.517C-262.349 717.32 -267.372 720.336 -272.886 723.64C-275.519 725.211 -278.261 726.884 -281.121 728.396C-283.984 729.946 -287.001 731.369 -290.162 732.557C-291.225 732.939 -292.289 733.322 -293.415 733.661C-293.79 733.775 -294.132 733.891 -294.504 733.967C-295.047 734.102 -295.626 734.27 -296.169 734.405C-296.373 734.46 -296.541 734.481 -296.745 734.536C-297.117 734.613 -297.489 734.689 -297.861 734.765C-298.637 734.915 -299.413 735.065 -300.219 735.175C-300.555 735.218 -300.923 735.257 -301.259 735.3C-301.561 735.346 -301.893 735.352 -302.196 735.398C-302.462 735.41 -302.732 735.459 -302.998 735.471C-303.768 735.547 -304.567 735.583 -305.33 735.586C-305.662 735.592 -305.994 735.598 -306.326 735.604C-319.847 735.559 -330.215 729.095 -339.33 723.416C-347.914 718.084 -355.305 713.458 -364.815 713.419C-365.41 713.4 -365.976 713.421 -366.545 713.479C-366.578 713.476 -366.578 713.476 -366.611 713.473C-367.176 713.494 -367.745 713.552 -368.281 713.613C-368.551 713.662 -368.85 713.671 -369.12 713.72C-369.39 713.769 -369.623 713.784 -369.893 713.833C-370.097 713.888 -370.33 713.903 -370.534 713.958C-371.413 714.135 -372.295 714.349 -373.18 714.6C-379.105 716.27 -384.618 719.575 -390.695 723.234C-400.072 728.848 -406.5 731.58 -406.5 731.58Z" fill="#FFF7E1"/>
<path d="M152.727 703.237L153.879 690.926C157.397 692.295 161.033 693.119 165.043 693.124C174.521 693.16 182.14 688.606 190.956 683.311C197.277 679.526 204.162 675.386 212.098 673.125C216.255 671.92 220.317 671.374 224.459 671.391C237.98 671.436 248.348 677.9 257.463 683.579C266.047 688.911 273.438 693.537 282.948 693.576C283.248 693.567 283.547 693.558 283.843 693.586C284.142 693.577 284.441 693.568 284.707 693.556C285.273 693.535 285.842 693.477 286.411 693.419C286.98 693.361 287.519 693.263 288.092 693.168C289.204 692.976 290.29 692.707 291.379 692.401C291.856 692.26 292.366 692.122 292.847 691.945C293.157 691.826 293.463 691.743 293.772 691.624C295.83 690.889 297.872 689.968 299.895 688.896C300.976 688.329 302.093 687.729 303.18 687.089C303.704 686.805 304.231 686.483 304.755 686.198C306.086 685.433 307.421 684.63 308.792 683.794C315.222 679.908 322.278 675.71 330.444 673.471C330.954 673.333 331.464 673.195 332.007 673.061C332.076 673.03 332.142 673.036 332.244 673.009C333.53 672.721 334.85 672.437 336.192 672.266C336.593 672.229 336.965 672.153 337.366 672.117C337.567 672.098 337.767 672.08 338.001 672.065C338.402 672.028 338.803 671.992 339.204 671.955C339.606 671.919 340.036 671.922 340.438 671.885C341.069 671.87 341.7 671.855 342.331 671.84C355.852 671.885 366.224 678.312 375.336 684.028C383.92 689.36 391.31 693.986 400.821 694.025C410.298 694.061 417.918 689.508 426.701 684.21C436.077 678.596 446.686 672.208 460.207 672.253C473.728 672.297 484.096 678.761 493.211 684.44C501.795 689.772 509.186 694.399 518.696 694.438C528.174 694.474 535.794 689.92 544.577 684.622C553.953 679.009 564.562 672.621 578.083 672.665C591.604 672.71 601.972 679.174 611.087 684.853C619.671 690.185 627.062 695.312 636.572 695.351C646.05 695.387 653.669 690.332 662.485 685.038C671.861 679.424 682.47 673.036 695.991 673.081C709.512 673.125 719.884 679.552 728.995 685.268C737.58 690.6 744.97 695.227 754.481 695.266C763.958 695.302 771.578 690.748 780.361 685.45C783.838 683.365 787.49 681.184 791.416 679.252L789.948 694.947C789.318 695.296 788.718 695.685 788.086 696.071C778.709 701.684 768.101 708.072 754.58 708.027C741.059 707.983 730.691 701.519 721.575 695.84C712.991 690.508 705.601 685.882 696.09 685.842C686.613 685.807 678.993 690.36 670.21 695.658C660.834 701.271 650.225 707.659 636.704 707.615C623.183 707.571 612.815 701.107 603.7 695.428C595.115 690.096 587.725 685.469 578.214 685.43C568.737 685.394 561.117 689.948 552.334 695.246C542.958 700.859 532.349 707.247 518.828 707.203C505.307 707.158 494.939 700.694 485.824 695.015C477.24 689.683 469.849 685.057 460.339 685.018C450.861 684.982 443.242 689.535 434.426 694.83C425.05 700.443 414.441 706.832 400.92 706.787C390.315 706.757 381.669 702.792 374.031 698.327C371.955 697.131 369.919 695.864 367.915 694.6C359.331 689.268 351.941 684.641 342.43 684.602C342.131 684.611 341.832 684.62 341.536 684.593C339.175 684.668 336.955 685.016 334.783 685.554C334.24 685.689 333.726 685.863 333.183 685.998C332.91 686.083 332.637 686.169 332.364 686.255C327.057 688.057 322.034 691.074 316.521 694.378C313.887 695.949 311.145 697.621 308.286 699.134C305.422 700.683 302.405 702.107 299.244 703.294C298.181 703.677 297.117 704.059 295.992 704.399C295.616 704.512 295.274 704.628 294.902 704.705C294.359 704.839 293.78 705.008 293.237 705.142C293.033 705.197 292.865 705.219 292.661 705.274C292.289 705.35 291.917 705.427 291.546 705.503C290.769 705.653 289.993 705.802 289.187 705.912C288.851 705.955 288.483 705.995 288.148 706.037C287.845 706.083 287.513 706.089 287.21 706.135C286.944 706.147 286.674 706.196 286.408 706.208C285.638 706.284 284.839 706.321 284.076 706.323C283.744 706.329 283.412 706.335 283.08 706.341C269.559 706.297 259.191 699.833 250.076 694.154C241.492 688.822 234.101 684.195 224.591 684.156C223.996 684.137 223.43 684.159 222.861 684.216C222.829 684.213 222.828 684.213 222.796 684.21C222.23 684.231 221.661 684.289 221.125 684.35C220.855 684.399 220.556 684.408 220.286 684.457C220.017 684.506 219.783 684.521 219.513 684.57C219.309 684.625 219.076 684.64 218.872 684.695C217.993 684.873 217.111 685.087 216.226 685.338C210.302 687.008 204.788 690.312 198.711 693.972C189.335 699.585 178.726 705.973 165.172 705.926C160.639 705.834 156.598 704.379 152.727 703.237Z" fill="#FFF7E1"/>
<path d="M151.971 735.066L153.192 722.02C156.71 723.389 160.346 724.213 164.357 724.218C173.834 724.254 181.454 719.7 190.27 714.406C196.591 710.621 203.475 706.48 211.411 704.219C215.568 703.014 219.63 702.468 223.772 702.485C237.293 702.53 247.661 708.994 256.776 714.673C265.361 720.005 272.751 724.631 282.262 724.67C282.561 724.661 282.86 724.652 283.156 724.68C283.455 724.671 283.754 724.662 284.021 724.65C284.586 724.629 285.155 724.571 285.724 724.513C286.293 724.455 286.833 724.357 287.405 724.263C288.517 724.07 289.603 723.801 290.692 723.495C291.17 723.354 291.68 723.217 292.16 723.039C292.47 722.92 292.776 722.837 293.086 722.718C295.143 721.983 297.185 721.062 299.208 719.99C300.289 719.424 301.406 718.823 302.493 718.183C303.017 717.899 303.545 717.577 304.068 717.292C305.4 716.527 306.734 715.724 308.106 714.888C314.536 711.002 321.591 706.804 329.757 704.565C330.267 704.427 330.777 704.289 331.32 704.155C331.389 704.124 331.455 704.13 331.557 704.103C332.844 703.815 334.163 703.531 335.505 703.36C335.906 703.324 336.278 703.247 336.679 703.211C336.88 703.192 337.081 703.174 337.314 703.159C337.715 703.122 338.116 703.086 338.518 703.049C338.919 703.013 339.349 703.016 339.751 702.979C340.382 702.964 341.013 702.95 341.644 702.935C355.165 702.979 365.537 709.406 374.649 715.122C383.233 720.454 390.624 725.081 400.134 725.12C409.611 725.156 417.231 720.602 426.014 715.304C435.39 709.691 445.999 703.303 459.52 703.347C473.041 703.391 483.409 709.855 492.524 715.534C501.109 720.866 508.499 725.493 518.01 725.532C527.487 725.568 535.107 721.014 543.89 715.716C553.266 710.103 563.875 703.715 577.396 703.759C590.917 703.804 601.285 710.268 610.4 715.947C618.984 721.279 626.375 725.905 635.885 725.944C645.363 725.98 652.982 721.427 661.798 716.132C671.174 710.519 681.783 704.13 695.304 704.175C708.825 704.219 719.197 710.647 728.309 716.362C736.893 721.694 744.283 726.321 753.794 726.36C763.271 726.396 770.891 721.842 779.674 716.544C783.151 714.459 786.803 712.278 790.729 710.346L789.261 726.041C788.632 726.39 788.032 726.779 787.399 727.165C778.023 732.778 767.414 739.166 753.893 739.122C740.372 739.077 730.004 732.613 720.889 726.934C712.304 721.602 704.914 716.976 695.403 716.937C685.926 716.901 678.306 721.454 669.523 726.752C660.147 732.366 649.538 738.754 636.017 738.709C622.496 738.665 612.128 732.201 603.013 726.522C594.429 721.19 587.038 716.563 577.528 716.524C568.05 716.488 560.431 721.042 551.648 726.34C542.271 731.953 531.662 738.341 518.141 738.297C504.62 738.253 494.253 731.788 485.137 726.11C476.553 720.777 469.162 716.151 459.652 716.112C450.174 716.076 442.555 720.63 433.739 725.924C424.363 731.538 413.754 737.926 400.233 737.881C389.628 737.851 380.982 733.886 373.344 729.422C371.268 728.225 369.232 726.958 367.229 725.694C358.644 720.362 351.254 715.735 341.743 715.696C341.444 715.705 341.145 715.714 340.849 715.687C338.489 715.762 336.268 716.11 334.096 716.648C333.553 716.783 333.04 716.957 332.497 717.092C332.223 717.178 331.95 717.263 331.677 717.349C326.37 719.151 321.348 722.168 315.834 725.472C313.201 727.043 310.459 728.715 307.599 730.228C304.736 731.777 301.718 733.201 298.557 734.388C297.494 734.771 296.431 735.153 295.305 735.493C294.93 735.606 294.587 735.723 294.215 735.799C293.672 735.934 293.093 736.102 292.55 736.236C292.346 736.291 292.178 736.313 291.974 736.368C291.602 736.444 291.231 736.521 290.859 736.597C290.082 736.747 289.306 736.897 288.5 737.007C288.165 737.049 287.796 737.089 287.461 737.132C287.158 737.177 286.826 737.183 286.523 737.229C286.257 737.241 285.987 737.29 285.721 737.302C284.951 737.378 284.152 737.415 283.39 737.417C283.058 737.423 282.726 737.429 282.393 737.435C268.872 737.391 258.505 730.927 249.389 725.248C240.805 719.916 233.414 715.289 223.904 715.25C223.309 715.232 222.744 715.253 222.175 715.311C222.142 715.308 222.142 715.308 222.109 715.304C221.543 715.326 220.974 715.383 220.438 715.444C220.169 715.493 219.869 715.502 219.6 715.551C219.33 715.6 219.096 715.615 218.827 715.664C218.622 715.719 218.389 715.735 218.185 715.79C217.306 715.967 216.425 716.181 215.539 716.432C209.615 718.102 204.101 721.406 198.024 725.066C188.648 730.679 178.039 737.067 164.485 737.02C159.952 736.928 155.842 736.209 151.971 735.066Z" fill="#FFF7E1"/>
<path d="M625.256 705.962L626.477 693.417C629.995 694.786 633.631 695.109 637.642 695.114C647.119 695.15 654.739 690.095 663.555 684.801C669.876 681.015 676.761 676.875 684.696 674.614C688.853 673.409 692.915 672.863 697.057 672.88C710.578 672.925 720.946 679.389 730.062 685.068C738.646 690.4 746.037 695.026 755.547 695.065C755.846 695.056 756.145 695.047 756.441 695.075C756.74 695.066 757.039 695.057 757.306 695.045C757.871 695.024 758.44 694.966 759.009 694.908C759.578 694.85 760.118 694.752 760.69 694.657C761.802 694.465 762.888 694.196 763.977 693.89C764.455 693.749 764.965 693.612 765.446 693.434C765.755 693.315 766.061 693.232 766.371 693.113C768.428 692.378 770.471 691.457 772.494 690.385C773.574 689.819 774.691 689.218 775.778 688.578C776.302 688.294 776.83 687.972 777.354 687.687C778.685 686.922 780.02 686.119 781.391 685.283C787.821 681.397 794.877 677.199 803.042 674.96C803.552 674.822 804.062 674.684 804.605 674.55C804.675 674.519 804.74 674.525 804.842 674.498C806.129 674.21 807.448 673.926 808.79 673.755C809.192 673.719 809.563 673.642 809.964 673.606C810.165 673.587 810.366 673.569 810.599 673.554C811 673.517 811.402 673.481 811.803 673.444C812.204 673.408 812.635 673.411 813.036 673.374C813.667 673.359 814.299 673.344 814.93 673.33C828.451 673.374 838.822 679.801 847.934 685.517C856.518 690.849 863.909 695.475 873.419 695.515C882.897 695.55 890.516 690.997 899.299 685.699C908.675 680.086 919.284 673.698 932.805 673.742C946.326 673.786 956.694 680.25 965.81 685.929C974.394 691.261 981.784 695.888 991.295 695.927C1000.77 695.963 1008.39 691.409 1017.17 686.111C1026.55 680.498 1037.16 674.11 1050.68 674.154C1064.2 674.199 1074.57 680.663 1083.69 686.342C1092.27 691.674 1099.66 696.3 1109.17 696.339C1118.65 696.375 1126.27 691.822 1135.08 686.527C1144.46 680.914 1155.07 674.525 1168.59 674.57C1182.11 674.614 1192.48 681.042 1201.59 686.757C1210.18 692.089 1217.59 696.471 1227.1 696.51C1236.58 696.546 1244.29 691.011 1253.07 685.714C1256.55 683.628 1260.18 681.693 1264.11 679.761L1262.68 694.965C1262.05 695.314 1261.45 695.703 1260.82 696.089C1251.45 701.702 1240.7 709.561 1227.18 709.517C1213.66 709.472 1203.29 703.008 1194.17 697.329C1185.59 691.997 1178.2 687.371 1168.69 687.332C1159.21 687.296 1151.59 691.849 1142.81 697.147C1133.43 702.761 1122.82 709.149 1109.3 709.104C1095.78 709.06 1085.41 702.596 1076.3 696.917C1067.71 691.585 1060.32 686.958 1050.81 686.919C1041.34 686.883 1033.72 691.437 1024.93 696.735C1015.56 702.348 1004.95 708.736 991.427 708.692C977.906 708.647 967.538 702.183 958.422 696.504C949.838 691.172 942.448 686.546 932.937 686.507C923.46 686.471 915.84 691.025 907.024 696.319C897.648 701.933 887.039 708.321 873.518 708.276C862.913 708.246 854.267 704.281 846.629 699.817C844.553 698.62 842.517 697.353 840.514 696.089C831.93 690.757 824.539 686.13 815.029 686.091C814.729 686.1 814.43 686.109 814.134 686.082C811.774 686.157 809.553 686.505 807.381 687.043C806.839 687.178 806.325 687.352 805.782 687.487C805.509 687.573 805.235 687.658 804.962 687.744C799.655 689.546 794.633 692.563 789.119 695.867C786.486 697.438 783.744 699.11 780.884 700.623C778.021 702.172 775.004 703.596 771.843 704.783C770.779 705.166 769.716 705.548 768.59 705.888C768.215 706.001 767.872 706.118 767.501 706.194C766.958 706.329 766.378 706.497 765.835 706.631C765.631 706.686 765.464 706.708 765.259 706.763C764.888 706.839 764.516 706.916 764.144 706.992C763.368 707.142 762.591 707.292 761.785 707.401C761.45 707.444 761.081 707.484 760.746 707.527C760.443 707.572 760.111 707.578 759.809 707.624C759.542 707.636 759.273 707.685 759.006 707.697C758.237 707.773 757.438 707.81 756.675 707.812C756.343 707.818 756.011 707.824 755.679 707.83C742.158 707.786 731.79 701.322 722.674 695.643C714.09 690.311 706.7 685.684 697.189 685.645C696.594 685.626 696.029 685.648 695.46 685.706C695.427 685.703 695.427 685.703 695.394 685.699C694.829 685.721 694.26 685.778 693.724 685.839C693.454 685.888 693.154 685.897 692.885 685.946C692.615 685.995 692.381 686.01 692.112 686.059C691.908 686.114 691.674 686.13 691.47 686.185C690.592 686.362 689.71 686.576 688.824 686.827C682.9 688.497 677.386 691.801 671.309 695.461C661.933 701.074 651.324 707.462 637.77 707.415C633.237 707.323 629.128 707.105 625.256 705.962Z" fill="#FFF7E1"/>
<path d="M623.591 736.46L624.811 723.915C628.33 725.284 631.966 726.108 635.976 726.113C645.454 726.149 653.073 721.094 661.889 715.8C668.21 712.014 675.095 707.874 683.03 705.613C687.188 704.408 691.25 703.862 695.392 703.879C708.913 703.924 719.281 710.388 728.396 716.067C736.98 721.399 744.371 726.025 753.881 726.064C754.18 726.055 754.479 726.046 754.775 726.074C755.074 726.065 755.374 726.056 755.64 726.044C756.206 726.023 756.775 725.965 757.344 725.907C757.913 725.849 758.452 725.751 759.025 725.657C760.136 725.464 761.223 725.195 762.312 724.889C762.789 724.748 763.299 724.611 763.78 724.433C764.089 724.314 764.395 724.231 764.705 724.112C766.763 723.377 768.805 722.456 770.828 721.384C771.908 720.818 773.025 720.217 774.113 719.577C774.637 719.293 775.164 718.971 775.688 718.686C777.019 717.921 778.354 717.118 779.725 716.282C786.155 712.396 793.211 708.198 801.376 705.959C801.886 705.821 802.397 705.683 802.94 705.549C803.009 705.518 803.075 705.524 803.177 705.497C804.463 705.209 805.783 704.925 807.125 704.754C807.526 704.718 807.898 704.641 808.299 704.605C808.5 704.586 808.7 704.568 808.933 704.553C809.335 704.516 809.736 704.48 810.137 704.443C810.538 704.407 810.969 704.41 811.37 704.373C812.001 704.358 812.633 704.344 813.264 704.329C826.785 704.373 837.156 710.8 846.268 716.516C854.852 721.848 862.243 726.475 871.754 726.514C881.231 726.55 888.851 721.996 897.634 716.698C907.01 711.085 917.619 704.697 931.14 704.741C944.661 704.785 955.029 711.249 964.144 716.928C972.728 722.26 980.119 726.887 989.629 726.926C999.107 726.962 1006.73 722.408 1015.51 717.11C1024.89 711.497 1035.49 705.109 1049.02 705.153C1062.54 705.198 1072.9 711.662 1082.02 717.341C1090.6 722.673 1097.99 727.299 1107.5 727.338C1116.98 727.374 1124.6 722.821 1133.42 717.526C1142.79 711.913 1153.4 705.524 1166.92 705.569C1180.44 705.613 1190.82 712.041 1199.93 717.756C1208.51 723.088 1215.9 727.715 1225.41 727.754C1234.89 727.79 1242.56 722.746 1251.34 717.448C1254.82 715.362 1258.47 713.182 1262.39 711.25L1260.95 726.699C1260.32 727.048 1259.72 727.437 1259.09 727.823C1249.71 733.437 1239.03 740.56 1225.51 740.516C1211.99 740.471 1201.62 734.007 1192.51 728.328C1183.92 722.996 1176.53 718.37 1167.02 718.331C1157.55 718.295 1149.93 722.848 1141.14 728.146C1131.77 733.76 1121.16 740.148 1107.64 740.103C1094.12 740.059 1083.75 733.595 1074.63 727.916C1066.05 722.584 1058.66 717.957 1049.15 717.918C1039.67 717.882 1032.05 722.436 1023.27 727.734C1013.89 733.347 1003.28 739.735 989.761 739.691C976.24 739.647 965.872 733.182 956.757 727.503C948.172 722.171 940.782 717.545 931.272 717.506C921.794 717.47 914.174 722.024 905.359 727.318C895.982 732.932 885.373 739.32 871.852 739.275C861.247 739.245 852.602 735.28 844.964 730.816C842.888 729.619 840.852 728.352 838.848 727.088C830.264 721.756 822.873 717.129 813.363 717.09C813.064 717.099 812.765 717.108 812.469 717.081C810.108 717.156 807.888 717.504 805.716 718.042C805.173 718.177 804.659 718.351 804.116 718.486C803.843 718.572 803.57 718.657 803.297 718.743C797.99 720.545 792.967 723.562 787.453 726.866C784.82 728.437 782.078 730.109 779.218 731.622C776.355 733.171 773.338 734.595 770.177 735.782C769.113 736.165 768.05 736.547 766.924 736.887C766.549 737 766.207 737.117 765.835 737.193C765.292 737.328 764.713 737.496 764.17 737.63C763.965 737.685 763.798 737.707 763.594 737.762C763.222 737.838 762.85 737.915 762.478 737.991C761.702 738.141 760.925 738.291 760.12 738.401C759.784 738.443 759.416 738.483 759.08 738.526C758.778 738.571 758.446 738.577 758.143 738.623C757.877 738.635 757.607 738.684 757.34 738.696C756.571 738.772 755.772 738.809 755.009 738.811C754.677 738.817 754.345 738.823 754.013 738.829C740.492 738.785 730.124 732.321 721.009 726.642C712.424 721.31 705.034 716.683 695.524 716.644C694.929 716.626 694.363 716.647 693.794 716.705C693.761 716.702 693.761 716.702 693.728 716.698C693.163 716.72 692.594 716.777 692.058 716.838C691.788 716.887 691.489 716.896 691.219 716.945C690.949 716.994 690.716 717.009 690.446 717.058C690.242 717.113 690.009 717.129 689.805 717.184C688.926 717.361 688.044 717.575 687.159 717.826C681.234 719.496 675.721 722.8 669.643 726.46C660.267 732.073 649.658 738.461 636.105 738.414C631.572 738.322 627.462 737.603 623.591 736.46Z" fill="#FFF7E1"/>
<path d="M1213.03 706.82L1214.18 694.51C1217.7 695.879 1221.34 696.702 1225.35 696.708C1234.83 696.743 1242.45 692.19 1251.26 686.895C1257.58 683.11 1264.47 678.97 1272.4 676.709C1276.56 675.504 1280.62 674.957 1284.76 674.975C1298.29 675.019 1308.65 681.483 1317.77 687.162C1326.35 692.494 1333.74 697.121 1343.25 697.16C1343.55 697.151 1343.85 697.142 1344.15 697.169C1344.45 697.16 1344.75 697.151 1345.01 697.139C1345.58 697.118 1346.15 697.06 1346.72 697.002C1347.29 696.944 1347.82 696.847 1348.4 696.752C1349.51 696.559 1350.6 696.29 1351.68 695.984C1352.16 695.844 1352.67 695.706 1353.15 695.528C1353.46 695.409 1353.77 695.327 1354.08 695.207C1356.14 694.473 1358.18 693.551 1360.2 692.479C1361.28 691.913 1362.4 691.313 1363.49 690.673C1364.01 690.388 1364.54 690.067 1365.06 689.782C1366.39 689.016 1367.73 688.214 1369.1 687.378C1375.53 683.492 1382.58 679.293 1390.75 677.054C1391.26 676.916 1391.77 676.779 1392.31 676.644C1392.38 676.614 1392.45 676.62 1392.55 676.592C1393.84 676.305 1395.16 676.021 1396.5 675.85C1396.9 675.813 1397.27 675.737 1397.67 675.7C1397.87 675.682 1398.07 675.664 1398.31 675.648C1398.71 675.612 1399.11 675.575 1399.51 675.539C1399.91 675.502 1400.34 675.505 1400.74 675.469C1401.37 675.454 1402.01 675.439 1402.64 675.424C1416.16 675.468 1426.53 681.896 1435.64 687.611C1444.22 692.943 1451.62 697.57 1461.13 697.609C1470.6 697.645 1478.22 693.091 1487.01 687.793C1496.38 682.18 1506.99 675.792 1520.51 675.836C1534.03 675.881 1544.4 682.345 1553.52 688.024C1562.1 693.356 1569.49 697.982 1579 698.021C1588.48 698.057 1596.1 693.504 1604.88 688.206C1614.26 682.592 1624.87 676.204 1638.39 676.249C1651.91 676.293 1662.28 682.757 1671.39 688.436C1679.98 693.768 1687.37 698.395 1696.88 698.434C1706.35 698.47 1713.97 693.916 1722.79 688.621C1732.17 683.008 1742.78 676.62 1756.3 676.664C1769.82 676.709 1780.19 683.136 1789.3 688.852C1797.89 694.184 1805.28 698.81 1814.79 698.849C1824.26 698.885 1831.88 694.332 1840.67 689.034C1844.14 686.948 1847.79 684.768 1851.72 682.836L1850.25 698.53C1849.62 698.879 1849.02 699.268 1848.39 699.654C1839.01 705.267 1828.41 711.655 1814.88 711.611C1801.36 711.567 1791 705.103 1781.88 699.424C1773.3 694.092 1765.91 689.465 1756.4 689.426C1746.92 689.39 1739.3 693.944 1730.52 699.242C1721.14 704.855 1710.53 711.243 1697.01 711.199C1683.49 711.154 1673.12 704.69 1664 699.011C1655.42 693.679 1648.03 689.053 1638.52 689.014C1629.04 688.978 1621.42 693.531 1612.64 698.829C1603.26 704.443 1592.65 710.831 1579.13 710.786C1565.61 710.742 1555.24 704.278 1546.13 698.599C1537.55 693.267 1530.15 688.64 1520.64 688.601C1511.17 688.565 1503.55 693.119 1494.73 698.414C1485.35 704.027 1474.75 710.415 1461.22 710.371C1450.62 710.34 1441.97 706.375 1434.34 701.911C1432.26 700.714 1430.22 699.447 1428.22 698.183C1419.64 692.851 1412.25 688.225 1402.74 688.186C1402.44 688.195 1402.14 688.204 1401.84 688.176C1399.48 688.251 1397.26 688.6 1395.09 689.138C1394.55 689.272 1394.03 689.447 1393.49 689.581C1393.22 689.667 1392.94 689.753 1392.67 689.838C1387.36 691.641 1382.34 694.657 1376.83 697.962C1374.19 699.532 1371.45 701.205 1368.59 702.717C1365.73 704.267 1362.71 705.69 1359.55 706.878C1358.49 707.26 1357.42 707.643 1356.3 707.982C1355.92 708.096 1355.58 708.212 1355.21 708.288C1354.66 708.423 1354.09 708.591 1353.54 708.726C1353.34 708.781 1353.17 708.802 1352.97 708.857C1352.59 708.934 1352.22 709.01 1351.85 709.087C1351.07 709.236 1350.3 709.386 1349.49 709.496C1349.16 709.539 1348.79 709.578 1348.45 709.621C1348.15 709.667 1347.82 709.673 1347.52 709.719C1347.25 709.731 1346.98 709.78 1346.71 709.792C1345.94 709.868 1345.14 709.904 1344.38 709.907C1344.05 709.913 1343.72 709.919 1343.39 709.925C1329.86 709.88 1319.5 703.416 1310.38 697.737C1301.8 692.405 1294.41 687.779 1284.9 687.74C1284.3 687.721 1283.74 687.742 1283.17 687.8C1283.13 687.797 1283.13 687.797 1283.1 687.794C1282.54 687.815 1281.97 687.873 1281.43 687.934C1281.16 687.983 1280.86 687.992 1280.59 688.041C1280.32 688.09 1280.09 688.105 1279.82 688.154C1279.61 688.209 1279.38 688.224 1279.18 688.279C1278.3 688.456 1277.42 688.67 1276.53 688.921C1270.61 690.591 1265.09 693.896 1259.02 697.555C1249.64 703.169 1239.03 709.557 1225.48 709.509C1220.94 709.418 1216.9 707.963 1213.03 706.82Z" fill="#FFF7E1"/>
<path d="M1212.28 738.65L1213.5 725.604C1217.02 726.973 1220.65 727.796 1224.66 727.802C1234.14 727.838 1241.76 723.284 1250.57 717.989C1256.9 714.204 1263.78 710.064 1271.72 707.803C1275.87 706.598 1279.94 706.051 1284.08 706.069C1297.6 706.113 1307.97 712.577 1317.08 718.256C1325.67 723.588 1333.06 728.215 1342.57 728.254C1342.87 728.245 1343.17 728.236 1343.46 728.264C1343.76 728.255 1344.06 728.246 1344.33 728.233C1344.89 728.212 1345.46 728.154 1346.03 728.096C1346.6 728.039 1347.14 727.941 1347.71 727.846C1348.82 727.654 1349.91 727.384 1351 727.079C1351.47 726.938 1351.98 726.8 1352.47 726.623C1352.78 726.503 1353.08 726.421 1353.39 726.301C1355.45 725.567 1357.49 724.645 1359.51 723.574C1360.59 723.007 1361.71 722.407 1362.8 721.767C1363.32 721.482 1363.85 721.161 1364.37 720.876C1365.7 720.11 1367.04 719.308 1368.41 718.472C1374.84 714.586 1381.9 710.387 1390.06 708.148C1390.57 708.011 1391.08 707.873 1391.63 707.738C1391.69 707.708 1391.76 707.714 1391.86 707.686C1393.15 707.399 1394.47 707.115 1395.81 706.944C1396.21 706.907 1396.58 706.831 1396.98 706.794C1397.19 706.776 1397.39 706.758 1397.62 706.742C1398.02 706.706 1398.42 706.669 1398.82 706.633C1399.22 706.596 1399.65 706.6 1400.06 706.563C1400.69 706.548 1401.32 706.533 1401.95 706.518C1415.47 706.562 1425.84 712.99 1434.95 718.705C1443.54 724.038 1450.93 728.664 1460.44 728.703C1469.92 728.739 1477.54 724.185 1486.32 718.888C1495.7 713.274 1506.3 706.886 1519.83 706.93C1533.35 706.975 1543.71 713.439 1552.83 719.118C1561.41 724.45 1568.8 729.076 1578.31 729.116C1587.79 729.151 1595.41 724.598 1604.2 719.3C1613.57 713.687 1624.18 707.299 1637.7 707.343C1651.22 707.387 1661.59 713.851 1670.71 719.53C1679.29 724.862 1686.68 729.489 1696.19 729.528C1705.67 729.564 1713.29 725.01 1722.1 719.715C1731.48 714.102 1742.09 707.714 1755.61 707.758C1769.13 707.803 1779.5 714.23 1788.61 719.946C1797.2 725.278 1804.59 729.904 1814.1 729.943C1823.58 729.979 1831.2 725.426 1839.98 720.128C1843.46 718.042 1847.11 715.862 1851.03 713.93L1849.57 729.624C1848.94 729.973 1848.34 730.362 1847.7 730.748C1838.33 736.362 1827.72 742.75 1814.2 742.705C1800.68 742.661 1790.31 736.197 1781.19 730.518C1772.61 725.186 1765.22 720.559 1755.71 720.52C1746.23 720.484 1738.61 725.038 1729.83 730.336C1720.45 735.949 1709.84 742.337 1696.32 742.293C1682.8 742.248 1672.43 735.784 1663.32 730.105C1654.73 724.773 1647.34 720.147 1637.83 720.108C1628.36 720.072 1620.74 724.626 1611.95 729.923C1602.58 735.537 1591.97 741.925 1578.45 741.88C1564.93 741.836 1554.56 735.372 1545.44 729.693C1536.86 724.361 1529.47 719.734 1519.96 719.695C1510.48 719.659 1502.86 724.213 1494.04 729.508C1484.67 735.121 1474.06 741.509 1460.54 741.465C1449.93 741.434 1441.29 737.469 1433.65 733.005C1431.57 731.809 1429.54 730.542 1427.53 729.278C1418.95 723.945 1411.56 719.319 1402.05 719.28C1401.75 719.289 1401.45 719.298 1401.15 719.27C1398.79 719.346 1396.57 719.694 1394.4 720.232C1393.86 720.367 1393.34 720.541 1392.8 720.676C1392.53 720.761 1392.26 720.847 1391.98 720.933C1386.68 722.735 1381.65 725.751 1376.14 729.056C1373.51 730.627 1370.76 732.299 1367.9 733.811C1365.04 735.361 1362.02 736.784 1358.86 737.972C1357.8 738.354 1356.74 738.737 1355.61 739.077C1355.23 739.19 1354.89 739.306 1354.52 739.383C1353.98 739.517 1353.4 739.685 1352.86 739.82C1352.65 739.875 1352.48 739.896 1352.28 739.951C1351.91 740.028 1351.54 740.104 1351.16 740.181C1350.39 740.33 1349.61 740.48 1348.81 740.59C1348.47 740.633 1348.1 740.672 1347.77 740.715C1347.46 740.761 1347.13 740.767 1346.83 740.813C1346.56 740.825 1346.29 740.874 1346.03 740.886C1345.26 740.962 1344.46 740.998 1343.69 741.001C1343.36 741.007 1343.03 741.013 1342.7 741.019C1329.18 740.974 1318.81 734.51 1309.69 728.831C1301.11 723.499 1293.72 718.873 1284.21 718.834C1283.61 718.815 1283.05 718.836 1282.48 718.894C1282.45 718.891 1282.45 718.891 1282.41 718.888C1281.85 718.909 1281.28 718.967 1280.74 719.028C1280.47 719.077 1280.17 719.086 1279.9 719.135C1279.64 719.184 1279.4 719.199 1279.13 719.248C1278.93 719.303 1278.69 719.318 1278.49 719.373C1277.61 719.55 1276.73 719.765 1275.84 720.015C1269.92 721.686 1264.41 724.99 1258.33 728.649C1248.95 734.263 1238.34 740.651 1224.79 740.603C1220.26 740.512 1216.15 739.792 1212.28 738.65Z" fill="#FFF7E1"/>
</svg>
