<svg width="302" height="310" viewBox="0 0 302 310" fill="none" xmlns="http://www.w3.org/2000/svg">
<path d="M219.999 247.25C229.025 252.45 233.93 260.286 238.243 267.222C242.355 273.813 245.918 279.501 252.399 283.15C258.88 286.798 265.576 286.877 273.33 286.955L273.393 286.956C281.64 287.054 290.975 287.165 300.193 292.35C300.477 292.526 300.766 292.703 301.055 292.879C301.344 293.056 301.632 293.232 301.916 293.409V309.827C299.743 307.198 297.276 304.943 294.123 303.158C287.643 299.509 280.946 299.431 273.193 299.352L273.13 299.351C264.882 299.254 255.547 299.143 246.329 293.958C237.088 288.76 232.114 280.816 227.748 273.793C223.636 267.203 220.073 261.514 213.592 257.866C213.379 257.747 213.166 257.632 212.953 257.52C206.731 254.316 200.279 254.24 192.858 254.165L192.795 254.165C184.548 254.067 175.213 253.956 165.995 248.771C156.753 243.573 151.78 235.629 147.414 228.607C143.302 222.016 139.739 216.327 133.258 212.679C131.711 211.816 130.164 211.149 128.598 210.639L135.783 200.125C136.958 200.635 138.153 201.204 139.327 201.871C148.569 207.069 153.542 215.013 157.909 222.035C162.02 228.626 165.584 234.315 172.065 237.963C178.546 241.612 185.242 241.69 192.995 241.768L193.058 241.769C200.189 241.854 208.132 241.948 216.11 245.323L216.118 245.312C217.131 245.752 218.159 246.236 219.177 246.788C219.404 246.91 219.632 247.035 219.859 247.163C219.906 247.192 219.952 247.221 219.999 247.25Z" fill="#2F2C96"/>
<path d="M185.078 212.159C185.362 212.334 185.652 212.505 185.948 212.671C192.428 216.32 199.125 216.398 206.878 216.477L206.941 216.478C215.189 216.575 224.524 216.686 233.742 221.871C242.971 227.062 247.924 234.992 252.305 242.008L252.323 242.036C256.435 248.626 259.998 254.315 266.479 257.963C272.96 261.612 279.656 261.69 287.41 261.769C291.991 261.808 296.886 261.867 301.918 262.769V275.441C297.356 274.264 292.579 274.205 287.292 274.166L287.229 274.165C278.982 274.067 269.647 273.956 260.429 268.771C251.187 263.573 246.214 255.629 241.848 248.607C237.736 242.016 234.172 236.328 227.692 232.679C225.779 231.602 223.847 230.836 221.875 230.29V230.457C217.313 229.28 212.535 229.221 207.249 229.182L207.186 229.181C198.938 229.083 189.603 228.973 180.385 223.788C179.737 223.423 179.11 223.045 178.502 222.655C170.145 217.465 165.458 209.975 161.316 203.315L161.253 203.213C158.341 198.566 155.71 194.366 152.114 191.016L152.17 190.933C150.819 189.729 149.332 188.644 147.648 187.695C141.167 184.047 134.471 183.969 126.717 183.89L126.654 183.889C118.407 183.791 109.072 183.681 99.8539 178.496C90.6123 173.298 85.6391 165.354 81.2728 158.331L81.2091 158.23C78.2975 153.582 75.6664 149.382 72.0703 146.032L79.0994 135.734C84.7384 140.521 88.4194 146.405 91.7479 151.76C95.8597 158.351 99.4232 164.039 105.904 167.688C112.385 171.336 119.081 171.415 126.835 171.493L126.898 171.494C135.145 171.592 144.48 171.703 153.698 176.887C162.927 182.079 167.88 190.009 172.262 197.024L172.279 197.052C176.095 203.168 179.438 208.506 185.078 212.159Z" fill="#2F2C96"/>
<path d="M301.916 236.565V248.962C301.759 248.962 301.583 248.962 301.426 248.962C293.164 248.864 283.804 248.766 274.563 243.568C265.321 238.37 260.368 230.426 255.982 223.403C251.87 216.812 248.307 211.124 241.845 207.476C235.364 203.827 228.668 203.768 220.895 203.67C212.632 203.572 203.273 203.474 194.032 198.276C184.79 193.078 179.817 185.134 175.45 178.111C171.339 171.521 167.775 165.832 161.294 162.184C154.813 158.535 148.117 158.457 140.344 158.378C132.081 158.28 122.722 158.182 113.481 152.984C104.239 147.786 99.2852 139.842 94.8994 132.819C90.7876 126.229 87.2241 120.54 80.7432 116.892C74.9672 113.636 68.7604 113.243 62.9257 113.126L63.1802 100.729C70.2681 100.886 78.5307 101.415 86.813 106.064C96.0546 111.262 101.008 119.206 105.394 126.229C109.506 132.819 113.05 138.508 119.55 142.156C126.031 145.805 132.728 145.883 140.501 145.962C148.763 146.06 158.122 146.158 167.364 151.356C176.606 156.554 181.579 164.498 185.945 171.521C190.057 178.111 193.62 183.8 200.101 187.448C206.582 191.097 213.279 191.156 221.052 191.254C229.314 191.352 238.673 191.45 247.915 196.648C257.157 201.846 262.11 209.79 266.496 216.812C270.608 223.403 274.152 229.092 280.652 232.74C287.133 236.389 293.829 236.467 301.583 236.546C301.681 236.546 301.798 236.565 301.916 236.565Z" fill="#2F2C96"/>
<path d="M221.914 191.224V203.621C221.757 203.621 221.581 203.621 221.424 203.621C213.162 203.523 203.803 203.425 194.561 198.227C185.319 193.029 180.366 185.084 175.98 178.062C171.868 171.471 168.305 165.783 161.843 162.134C155.362 158.486 148.666 158.427 140.893 158.329C132.63 158.231 123.271 158.133 114.029 152.935C104.788 147.737 99.8146 139.792 95.4483 132.77C91.3365 126.179 87.773 120.491 81.2921 116.842C74.8113 113.194 68.115 113.116 60.3418 113.037C52.0792 112.939 42.7201 112.841 33.4785 107.643C24.2369 102.445 19.2832 94.5006 14.8974 87.4783C10.7856 80.8875 7.2221 75.199 0.741211 71.5506L6.81094 60.7227C16.0526 65.9207 21.0062 73.8652 25.3921 80.8875C29.5038 87.4783 33.0478 93.1667 39.5482 96.8152C46.0291 100.464 52.7253 100.542 60.4985 100.621C68.7611 100.719 78.1202 100.817 87.3619 106.015C96.6035 111.213 101.577 119.157 105.943 126.179C110.055 132.77 113.618 138.459 120.099 142.107C126.58 145.756 133.276 145.814 141.05 145.912C149.312 146.011 158.671 146.109 167.913 151.307C177.155 156.505 182.108 164.449 186.494 171.471C190.606 178.062 194.15 183.751 200.65 187.399C207.131 191.047 213.827 191.126 221.581 191.204C221.679 191.204 221.796 191.224 221.914 191.224Z" fill="#2F2C96"/>
<path d="M106.203 84.6388L106.276 84.5327C112.104 89.3726 115.862 95.387 119.266 100.836L119.291 100.876C123.396 107.457 126.94 113.136 133.433 116.78C138.935 119.878 144.592 120.402 150.92 120.538C151.98 120.559 153.059 120.57 154.158 120.582L154.221 120.582C155.262 120.595 156.319 120.607 157.392 120.63C164.877 120.781 173.097 121.407 181.227 125.98C183.387 127.195 185.313 128.56 187.052 130.029L187.062 130.014C192.891 134.854 196.648 140.869 200.052 146.317L200.077 146.357C203.538 151.904 206.598 156.81 211.362 160.397C212.176 160.994 213.04 161.554 213.964 162.072C214.687 162.471 215.412 162.864 216.141 163.233C217.713 163.908 219.302 164.411 220.925 164.775V164.883C225.367 165.964 230.028 166.016 235.15 166.067L235.213 166.068C243.46 166.166 252.795 166.277 262.013 171.462C271.243 176.653 276.195 184.583 280.577 191.598L280.609 191.649C284.714 198.23 288.258 203.91 294.751 207.554C297.1 208.848 299.469 209.712 301.917 210.261V222.873C297.57 222.167 293.106 220.853 288.681 218.362C279.452 213.171 274.499 205.241 270.117 198.225L270.1 198.197C265.988 191.607 262.425 185.918 255.944 182.27C249.463 178.621 242.766 178.543 235.013 178.464L234.95 178.464C227.747 178.378 219.713 178.283 211.653 174.805C210.331 174.257 209.009 173.619 207.689 172.876C198.46 167.685 193.507 159.755 189.126 152.739L189.108 152.712C184.997 146.121 181.433 140.432 174.952 136.784C169.45 133.686 163.792 133.162 157.464 133.026C156.404 133.005 155.326 132.994 154.226 132.983L154.163 132.982C153.123 132.97 152.066 132.957 150.994 132.934C143.508 132.783 135.288 132.157 127.158 127.584C125.66 126.742 124.275 125.827 122.986 124.856C116.184 119.819 112.056 113.209 108.339 107.258L108.322 107.23C104.21 100.639 100.646 94.9507 94.1655 91.3022C87.6846 87.6538 80.9883 87.5753 73.2348 87.4968L73.1717 87.4961C64.9245 87.3982 55.5895 87.2875 46.3714 82.1026C37.1297 76.9045 32.1565 68.9603 27.7902 61.938C24.7749 57.093 22.0533 52.7384 18.2549 49.3253L25.284 39.0469C31.1126 43.8868 34.8702 49.9011 38.2742 55.3497L38.2992 55.3897C42.4049 61.9708 45.9481 67.6503 52.4411 71.2945C58.922 74.943 65.6182 75.0215 73.3718 75.0999L73.4349 75.1007C81.6821 75.1985 91.0171 75.3093 100.235 80.4942C102.396 81.7093 104.322 83.0745 106.061 84.5428L106.071 84.5285C106.115 84.5652 106.159 84.602 106.203 84.6388Z" fill="#2F2C96"/>
<path d="M301.916 176.658V192.625C293.242 187.427 288.464 179.777 284.215 172.99C280.104 166.399 276.54 160.711 270.059 157.062C263.578 153.414 256.882 153.336 249.129 153.257C240.866 153.159 231.507 153.061 222.265 147.863C213.024 142.665 208.07 134.721 203.684 127.698C199.572 121.108 196.009 115.419 189.528 111.771C183.047 108.122 176.351 108.044 168.597 107.965C160.335 107.867 150.975 107.769 141.734 102.571C132.492 97.3729 127.519 89.4287 123.153 82.4064C119.041 75.8156 115.477 70.1272 108.996 66.4787C102.516 62.8303 95.8193 62.7518 88.0462 62.6733C79.7835 62.5753 70.4244 62.4772 61.1828 57.2791C51.9411 52.081 46.9679 44.1368 42.6016 37.1145C41.6814 35.6434 40.7611 34.1722 39.8213 32.7403L50.1398 25.8945C51.158 27.4245 52.1369 28.9938 53.1159 30.563C57.2277 37.1538 60.7912 42.8422 67.2721 46.4907C73.753 50.1391 80.4492 50.2176 88.2028 50.296C96.4654 50.3941 105.825 50.4922 115.066 55.6903C124.308 60.8883 129.281 68.8326 133.647 75.8549C137.759 82.4456 141.323 88.1341 147.803 91.7826C154.284 95.431 160.981 95.4899 168.734 95.5879C176.997 95.6664 186.356 95.7841 195.598 100.982C204.839 106.18 209.793 114.124 214.179 121.147C218.291 127.738 221.854 133.426 228.335 137.074C234.816 140.723 241.512 140.801 249.266 140.88C257.528 140.958 266.887 141.076 276.129 146.274C285.371 151.472 290.324 159.416 294.71 166.439C297.079 170.185 299.253 173.677 301.916 176.658Z" fill="#2F2C96"/>
<path d="M301.916 131.09V153.314C300.644 151.45 299.469 149.567 298.353 147.763C294.241 141.172 290.678 135.484 284.197 131.835C277.716 128.187 271.019 128.108 263.266 128.03C255.003 127.932 245.644 127.834 236.402 122.635C227.161 117.437 222.207 109.493 217.821 102.471C213.71 95.8801 210.146 90.1917 203.665 86.5432C197.184 82.8947 190.488 82.8163 182.734 82.7378C174.472 82.6397 165.113 82.5417 155.871 77.3436C146.629 72.1455 141.656 64.2013 137.29 57.179C133.178 50.5882 129.615 44.8998 123.134 41.2513C116.653 37.6029 109.957 37.5244 102.203 37.4459C93.9404 37.3479 84.5813 37.2498 75.3397 32.0517C72.5006 30.4432 69.9357 28.5406 67.5273 26.2063L76.1033 17.2617C77.748 18.8506 79.4906 20.1452 81.3898 21.224C87.8707 24.8725 94.5669 24.9509 102.321 25.0294C110.583 25.1275 119.942 25.2256 129.184 30.4236C138.426 35.6217 143.379 43.5659 147.765 50.5882C151.877 57.179 155.44 62.8675 161.921 66.5159C168.402 70.1644 175.098 70.2428 182.852 70.3213C191.115 70.4194 200.474 70.5174 209.715 75.7155C218.957 80.9136 223.911 88.8578 228.296 95.8801C232.408 102.471 235.972 108.159 242.453 111.808C248.934 115.456 255.63 115.535 263.383 115.613C271.646 115.711 281.005 115.809 290.247 121.007C295.161 123.793 298.862 127.324 301.916 131.09Z" fill="#2F2C96"/>
<path d="M301.916 94.5489V109.064C300.82 108.162 299.625 107.338 298.313 106.612C291.833 102.964 285.136 102.885 277.383 102.807C269.12 102.709 259.761 102.611 250.519 97.4127C241.278 92.2146 236.304 84.2704 231.938 77.2481C227.826 70.6574 224.263 64.9689 217.782 61.3204C211.301 57.672 204.605 57.5935 196.851 57.5151C188.589 57.417 179.23 57.3189 169.988 52.1208C160.746 46.9228 155.773 38.9785 151.407 31.9562C147.295 25.3655 143.751 19.677 137.251 16.0286C133.883 14.1259 130.28 13.0666 125.562 12.5959L126.815 0.257812C133.217 0.90512 138.445 2.47435 143.32 5.2205C152.562 10.4186 157.516 18.3628 161.902 25.3851C166.013 31.9759 169.577 37.6643 176.058 41.3128C182.539 44.9612 189.235 45.0397 197.008 45.1182C205.271 45.2162 214.63 45.3143 223.871 50.5124C233.113 55.7105 238.067 63.6547 242.453 70.677C246.564 77.2677 250.128 82.9562 256.609 86.6047C263.09 90.2531 269.786 90.3316 277.539 90.41C285.038 90.5081 293.477 90.6062 301.916 94.5489Z" fill="#2F2C96"/>
</svg>
