<svg width="261" height="308" viewBox="0 0 261 308" fill="none" xmlns="http://www.w3.org/2000/svg">
<path d="M107.8 -0.00036705C111.472 2.31601 115.31 4.25879 119.316 5.97742C127.744 9.56409 137.006 12.1794 146.937 14.9441C167.047 20.5483 189.745 26.8997 208.52 44.31C227.296 61.7203 233.554 82.269 239.145 100.427C244.319 117.463 248.909 132.184 262.01 144.438C275.194 156.618 291.467 161.176 310.325 166.481C330.436 172.085 353.134 178.437 371.909 195.847C390.685 213.257 396.943 233.806 402.534 251.964C407.791 269 412.297 283.795 425.399 295.975C430.906 301.056 436.831 304.792 443.256 307.781L395.274 307.781C382.173 292.239 376.916 274.978 372.159 259.436C366.902 242.399 362.396 227.604 349.295 215.424C336.11 203.245 319.838 198.687 300.979 193.381C280.869 187.777 258.171 181.426 239.396 164.015C220.62 146.605 214.362 126.056 208.771 107.899C203.514 90.8621 199.007 76.067 185.906 63.8873C172.722 51.7075 156.45 47.1495 137.591 41.8442C132.584 40.4244 127.41 39.0047 122.153 37.3608C110.888 33.7742 99.372 29.2908 88.6074 22.2669L107.8 -0.00036705Z" fill="#2F2C96"/>
<path d="M29.7795 14.8688C34.0353 24.9563 38.9587 32.3538 45.8013 38.6305C58.9859 50.8103 75.258 55.3683 94.1169 60.6736C104.047 63.4384 114.645 66.4273 125.076 70.7612C135.757 75.2445 146.271 81.2223 155.784 90.0396C174.56 107.45 180.818 127.999 186.409 146.231C191.666 163.268 196.172 178.063 209.273 190.242C222.458 202.422 238.73 206.98 257.589 212.285C277.7 217.89 300.397 224.241 319.173 241.651C337.948 259.062 344.207 279.61 349.798 297.768C350.883 301.205 351.884 304.568 352.969 307.855L320.258 307.855C320.007 306.959 319.757 306.137 319.423 305.24C314.166 288.203 309.66 273.408 296.559 261.229C283.374 249.049 267.102 244.491 248.243 239.186C228.132 233.581 205.435 227.23 186.659 209.82C167.884 192.409 161.625 171.861 156.034 153.703C150.777 136.666 146.271 121.871 133.17 109.692C131.585 108.197 129.916 106.852 128.163 105.507C115.98 96.3162 101.377 92.2812 84.8544 87.6484C64.7437 82.0443 42.0462 75.6929 23.2707 58.2825C13.424 49.1664 6.16406 38.4811 0.406238 24.7322L29.7795 14.8688Z" fill="#2F2C96"/>
<path d="M41.2147 106.404C41.2147 106.404 84.0228 118.36 102.798 135.77C121.574 153.181 127.832 173.729 133.423 191.887C134.425 195.1 135.343 198.238 136.344 201.302C140.6 214.453 145.607 225.96 156.288 235.898C169.472 248.078 185.744 252.636 204.603 257.941C224.714 263.546 247.412 269.897 266.187 287.307C273.197 293.808 278.454 300.683 282.543 307.781L244.408 307.781C244.074 307.482 243.823 307.183 243.49 306.885C230.305 294.705 214.033 290.147 195.174 284.841C177.9 279.984 158.624 274.604 141.601 262.126C138.847 260.108 136.177 257.941 133.59 255.476C114.815 238.065 108.556 217.517 102.965 199.359C97.7081 182.322 93.202 167.527 80.1008 155.347C66.9163 143.168 31.7851 133.304 31.7851 133.304L41.2147 106.404Z" fill="#2F2C96"/>
</svg>
