<svg width="385" height="455" viewBox="0 0 385 455" fill="none" xmlns="http://www.w3.org/2000/svg">
<path d="M462.101 432.9L458.967 454.947C451.536 452.632 444.05 449.224 436.925 443.769C422.044 432.384 415.349 417.265 409.418 403.899C403.86 391.356 399.037 380.526 388.602 372.536C378.167 364.547 366.468 362.744 352.918 360.679C338.483 358.452 322.129 355.953 307.248 344.568C292.366 333.184 285.637 318.06 279.74 304.699C275.667 295.479 271.986 287.191 266.187 280.28L281.041 264.061C290.048 273.981 295.131 285.443 299.738 295.822C305.297 308.366 310.085 319.191 320.555 327.185C330.99 335.175 342.689 336.977 356.238 339.043C370.673 341.269 387.027 343.768 401.909 355.153C416.79 366.538 423.485 381.657 429.416 395.023C434.974 407.566 439.763 418.391 450.232 426.386C454.023 429.233 457.954 431.331 462.101 432.9Z" fill="#2F2C96"/>
<path d="M470.454 374.167L466.487 402.078C452.599 390.834 446.139 376.273 440.39 363.353C434.832 350.809 430.009 339.979 419.574 331.99C409.138 324 397.439 322.198 383.89 320.132C369.455 317.906 353.101 315.407 338.22 304.022C323.338 292.637 316.643 277.518 310.712 264.152C305.154 251.609 300.331 240.779 289.896 232.789C279.461 224.8 267.762 222.997 254.213 220.932C239.777 218.705 223.423 216.206 208.542 204.821C193.66 193.436 186.931 178.313 181.034 164.951C175.476 152.408 170.653 141.578 160.218 133.589C149.783 125.599 138.084 123.796 124.501 121.726C110.065 119.5 93.7113 117.001 78.8298 105.616C63.9484 94.2308 57.2188 79.1071 51.3223 65.7459C50.0774 62.9454 48.8324 60.1449 47.5435 57.4081L67.3015 48.0077C68.7031 50.9354 70.0265 53.922 71.3499 56.9085C76.9081 69.4521 81.7311 80.282 92.1662 88.2715C102.601 96.261 114.3 98.0635 127.849 100.129C142.285 102.355 158.639 104.855 173.52 116.239C188.402 127.624 195.131 142.748 201.028 156.109C206.586 168.653 211.409 179.483 221.844 187.472C232.279 195.462 243.983 197.23 257.527 199.33C271.967 201.522 288.316 204.055 303.198 215.44C318.079 226.825 324.775 241.944 330.705 255.31C336.264 267.853 341.087 278.683 351.522 286.673C361.957 294.662 373.656 296.465 387.205 298.53C401.645 300.723 417.994 303.256 432.876 314.641C447.757 326.026 454.452 341.145 460.383 354.511C463.598 361.649 466.534 368.293 470.454 374.167Z" fill="#2F2C96"/>
<path d="M481.772 294.516L476.251 333.365C474.487 329.791 472.899 326.207 471.394 322.775C465.836 310.231 461.013 299.401 450.578 291.412C440.143 283.422 428.444 281.62 414.895 279.554C400.459 277.328 384.105 274.829 369.224 263.444C354.342 252.059 347.647 236.94 341.716 223.574C336.158 211.031 331.335 200.201 320.9 192.211C310.465 184.222 298.766 182.419 285.217 180.354C270.782 178.127 254.428 175.628 239.546 164.243C224.665 152.858 217.935 137.735 212.039 124.373C206.48 111.83 201.657 101 191.222 93.0105C180.787 85.021 169.088 83.2185 155.539 81.153C141.104 78.9266 124.75 76.4275 109.868 65.0426C105.3 61.5248 101.284 57.5609 97.649 52.8817L114.879 39.379C117.362 42.5654 120.09 45.2618 123.146 47.62C133.581 55.6095 145.28 57.4121 158.829 59.4776C173.264 61.704 189.618 64.2031 204.5 75.588C219.381 86.9729 226.077 102.092 232.007 115.458C237.566 128.001 242.389 138.831 252.824 146.821C263.259 154.81 274.958 156.613 288.507 158.678C302.942 160.905 319.296 163.404 334.178 174.789C349.059 186.174 355.754 201.292 361.685 214.658C367.243 227.202 372.066 238.032 382.501 246.021C392.937 254.011 404.636 255.813 418.185 257.879C432.62 260.105 448.974 262.604 463.855 273.989C471.764 280.081 477.363 287.173 481.772 294.516Z" fill="#2F2C96"/>
<path d="M490.849 230.634L487.243 256.008C485.549 254.158 483.663 252.421 481.548 250.826C471.113 242.836 459.414 241.034 445.864 238.968C431.429 236.742 415.075 234.243 400.194 222.858C385.312 211.473 378.583 196.349 372.686 182.988C367.128 170.444 362.305 159.614 351.87 151.625C341.435 143.636 329.736 141.833 316.187 139.767C301.752 137.541 285.398 135.042 270.516 123.657C255.635 112.272 248.905 97.1485 243.009 83.7873C237.45 71.2437 232.662 60.4187 222.192 52.4243C216.771 48.2608 210.73 45.5132 202.589 43.5167L207.847 22.2609C218.891 24.9847 227.65 29.028 235.499 35.0409C250.381 46.4258 257.076 61.5446 263.007 74.9107C268.565 87.4543 273.388 98.2842 283.823 106.274C294.258 114.263 305.957 116.066 319.541 118.136C333.976 120.362 350.33 122.862 365.211 134.246C380.093 145.631 386.788 160.75 392.719 174.116C398.277 186.66 403.1 197.49 413.535 205.479C423.97 213.469 435.669 215.271 449.218 217.337C462.317 219.373 477.061 221.643 490.849 230.634Z" fill="#2F2C96"/>
</svg>
