<svg width="411" height="617" viewBox="0 0 411 617" fill="none" xmlns="http://www.w3.org/2000/svg">
<path d="M-51.8906 587.762L-47.7404 616.966C-44.5347 611.74 -40.7118 607.104 -35.5496 603.131C-24.9313 595.001 -13.0271 593.167 0.759961 591.065C15.4486 588.8 32.0897 586.257 47.2323 574.672C62.375 563.087 69.2227 547.698 75.2226 534.102C80.8784 521.339 85.786 510.319 96.4043 502.189C98.9405 500.262 101.526 498.684 104.187 497.381L88.7331 480.498C86.7701 481.703 84.7871 483.017 82.8637 484.5C67.7211 496.085 60.8733 511.474 54.8734 525.07C49.2177 537.834 44.3101 548.854 33.6918 556.983C23.0735 565.113 11.1692 566.947 -2.61787 569.049C-17.3065 571.315 -33.9475 573.858 -49.0902 585.442C-50.0121 586.214 -50.9688 586.991 -51.8906 587.762Z" fill="#2F2C96"/>
<path d="M-59.6384 533.264L-56.4352 555.803C-48.609 552.555 -40.1166 551.241 -30.7128 549.834C-16.0242 547.568 0.616917 545.025 15.7596 533.44C30.9023 521.856 37.75 506.466 43.7499 492.871C49.4057 480.107 54.3133 469.087 64.9315 460.957C75.5499 452.828 87.4541 450.993 101.241 448.892C115.93 446.626 132.571 444.083 147.714 432.498C162.856 420.914 169.704 405.525 175.704 391.929C179.749 382.847 183.384 374.641 188.982 367.724L173.862 351.185C165.03 361.125 159.963 372.524 155.389 382.891C149.734 395.655 144.826 406.675 134.208 414.805C123.59 422.935 111.685 424.769 97.8982 426.871C83.2096 429.136 66.5685 431.679 51.4258 443.264C36.2832 454.849 29.4704 470.233 23.4356 483.833C17.7798 496.597 12.8722 507.617 2.25389 515.747C-8.36442 523.877 -20.2687 525.711 -34.0557 527.813C-42.2044 529.042 -50.906 530.385 -59.6384 533.264Z" fill="#2F2C96"/>
<path d="M-66.2643 486.656L-63.1305 508.706C-62.8516 508.667 -62.5378 508.622 -62.2588 508.582C-47.5703 506.317 -30.9292 503.774 -15.7865 492.189C-0.643864 480.605 6.169 465.22 12.2038 451.62C17.8596 438.856 22.7672 427.836 33.3506 419.711C43.9689 411.581 55.8782 409.782 69.6951 407.64C84.3837 405.375 101.025 402.832 116.167 391.247C131.31 379.663 138.158 364.273 144.158 350.678C149.814 337.914 154.721 326.894 165.339 318.764C175.958 310.635 187.862 308.8 201.684 306.694C216.373 304.428 233.014 301.885 248.156 290.3C263.299 278.716 270.112 263.331 276.147 249.731C281.802 236.967 286.71 225.947 297.328 217.817C306.791 210.564 317.744 208.295 328.104 206.609L324.517 184.623C311.935 186.696 297.356 189.729 283.783 200.094C268.64 211.679 261.827 227.063 255.792 240.664C250.137 253.427 245.264 264.442 234.611 272.577C223.992 280.707 212.088 282.541 198.266 284.648C183.578 286.913 166.937 289.456 151.794 301.041C136.651 312.626 129.804 328.015 123.804 341.61C118.148 354.374 113.24 365.394 102.622 373.524C92.0036 381.654 80.0944 383.453 66.2774 385.595C51.5888 387.86 34.9478 390.403 19.8051 401.988C4.66244 413.572 -2.15042 428.957 -8.18522 442.557C-13.841 455.321 -18.7137 466.336 -29.3669 474.471C-39.9852 482.601 -51.8895 484.435 -65.6765 486.537C-65.8508 486.561 -66.0551 486.626 -66.2643 486.656Z" fill="#2F2C96"/>
<path d="M-72.9092 439.863L-69.7208 462.297C-62.1591 459.941 -54.5419 456.474 -47.292 450.923C-32.1493 439.338 -25.3365 423.954 -19.3017 410.353C-13.6459 397.59 -8.73829 386.57 1.88001 378.44C12.4983 370.31 24.4026 368.476 38.1896 366.374C52.8782 364.109 69.5193 361.566 84.662 349.981C99.8046 338.396 106.652 323.007 112.652 309.411C116.797 300.03 120.542 291.596 126.444 284.564L111.328 268.06C102.163 278.155 96.9912 289.817 92.3031 300.379C86.6473 313.143 81.7746 324.158 71.1214 332.293C60.5031 340.422 48.5988 342.256 34.8118 344.358C20.1232 346.624 3.48212 349.167 -11.6605 360.751C-26.8032 372.336 -33.6161 387.72 -39.6509 401.321C-45.3066 414.085 -50.1794 425.1 -60.8326 433.234C-64.6892 436.132 -68.6898 438.267 -72.9092 439.863Z" fill="#2F2C96"/>
<path d="M-81.408 380.097L-77.3717 408.498C-63.2402 397.057 -56.6667 382.241 -50.8165 369.093C-45.1607 356.33 -40.2531 345.31 -29.6348 337.18C-19.0165 329.05 -7.1122 327.216 6.67482 325.114C21.3634 322.849 38.0045 320.306 53.1472 308.721C68.2898 297.136 75.1027 281.752 81.1375 268.151C86.7932 255.388 91.7009 244.368 102.319 236.238C112.937 228.108 124.842 226.274 138.629 224.172C153.317 221.907 169.958 219.364 185.101 207.779C200.244 196.194 207.092 180.805 213.091 167.209C218.747 154.446 223.655 143.426 234.273 135.296C244.891 127.166 256.796 125.332 270.618 123.225C285.306 120.96 301.947 118.417 317.09 106.832C332.233 95.2474 339.08 79.8582 345.08 66.2625C346.347 63.4128 347.614 60.5631 348.925 57.7783L328.821 48.2129C327.394 51.192 326.048 54.231 324.701 57.2699C319.045 70.0337 314.138 81.0537 303.519 89.1834C292.901 97.3131 280.997 99.1473 267.21 101.249C252.521 103.515 235.88 106.058 220.738 117.642C205.595 129.227 198.747 144.616 192.747 158.212C187.091 170.976 182.184 181.996 171.566 190.125C160.947 198.255 149.038 200.054 135.256 202.191C120.562 204.422 103.926 206.999 88.7836 218.584C73.6409 230.169 66.828 245.553 60.7932 259.154C55.1375 271.918 50.2299 282.938 39.6116 291.067C28.9933 299.197 17.089 301.031 3.30194 303.133C-11.3916 305.364 -28.0277 307.941 -43.1704 319.526C-58.3131 331.111 -65.1259 346.495 -71.1607 360.096C-74.4324 367.359 -77.4199 374.12 -81.408 380.097Z" fill="#2F2C96"/>
<path d="M-92.9253 299.047L-87.3073 338.578C-85.5121 334.941 -83.8962 331.295 -82.365 327.802C-76.7093 315.039 -71.8017 304.019 -61.1833 295.889C-50.565 287.759 -38.6607 285.925 -24.8737 283.823C-10.1851 281.558 6.45596 279.015 21.5986 267.43C36.7413 255.845 43.5542 240.461 49.589 226.86C55.2447 214.097 60.1523 203.077 70.7707 194.947C81.389 186.817 93.2932 184.983 107.08 182.881C121.769 180.616 138.41 178.073 153.553 166.488C168.695 154.903 175.543 139.514 181.543 125.918C187.199 113.155 192.106 102.135 202.725 94.005C213.343 85.8752 225.247 84.0411 239.034 81.9393C253.723 79.6738 270.364 77.1309 285.507 65.5461C290.156 61.9666 294.242 57.9332 297.94 53.1717L280.408 39.432C277.881 42.6744 275.105 45.4181 271.996 47.8178C261.378 55.9475 249.473 57.7817 235.686 59.8834C220.998 62.1489 204.357 64.6919 189.214 76.2766C174.071 87.8613 167.258 103.246 161.224 116.846C155.568 129.61 150.66 140.63 140.042 148.76C129.424 156.889 117.519 158.724 103.732 160.825C89.0437 163.091 72.4027 165.634 57.26 177.219C42.1173 188.803 35.3045 204.188 29.2697 217.788C23.6139 230.552 18.7063 241.572 8.08798 249.702C-2.53033 257.831 -14.4346 259.666 -28.2216 261.767C-42.9102 264.033 -59.5513 266.576 -74.694 278.161C-82.7412 284.359 -88.4383 291.575 -92.9253 299.047Z" fill="#2F2C96"/>
<path d="M-102.162 234.047L-98.493 259.866C-96.7686 257.984 -94.8501 256.216 -92.6975 254.593C-82.0792 246.463 -70.1749 244.629 -56.3879 242.527C-41.6993 240.262 -25.0582 237.719 -9.91553 226.134C5.22714 214.55 12.0749 199.16 18.0748 185.565C23.7306 172.801 28.6381 161.781 39.2564 153.651C49.8747 145.521 61.779 143.687 75.5661 141.586C90.2547 139.32 106.896 136.777 122.038 125.192C137.181 113.608 144.029 98.2184 150.029 84.6227C155.685 71.859 160.557 60.8439 171.21 52.7092C176.726 48.4726 182.874 45.6768 191.158 43.6453L185.807 22.0163C174.57 24.788 165.657 28.9023 157.67 35.0207C142.527 46.6054 135.714 61.9897 129.68 75.5903C124.024 88.3541 119.116 99.3741 108.498 107.504C97.8796 115.634 85.9753 117.468 72.1534 119.574C57.4648 121.84 40.8237 124.383 25.681 135.968C10.5384 147.552 3.7255 162.937 -2.3093 176.537C-7.96506 189.301 -12.8726 200.321 -23.491 208.451C-34.1093 216.58 -46.0136 218.415 -59.8006 220.516C-73.1294 222.589 -88.1318 224.899 -102.162 234.047Z" fill="#2F2C96"/>
</svg>
