<svg width="277" height="400" viewBox="0 0 277 400" fill="none" xmlns="http://www.w3.org/2000/svg">
<path d="M276.854 97.4788C274.771 100.781 273.024 104.233 271.478 107.835C268.253 115.414 265.901 123.744 263.415 132.674C258.375 150.76 252.663 171.172 237.006 188.056C221.349 204.941 202.869 210.57 186.54 215.597C171.219 220.25 157.981 224.378 146.961 236.159C136.008 248.016 131.909 262.65 127.138 279.61C122.098 297.695 116.386 318.107 100.729 334.992C85.0717 351.877 66.5923 357.505 50.2632 362.533C34.9421 367.261 21.6369 371.313 10.6837 383.095C6.11421 388.048 2.75432 393.376 0.0664062 399.154V356.004C14.0436 344.222 29.5663 339.494 43.5434 335.217C58.8645 330.489 72.1697 326.437 83.1229 314.655C94.0762 302.798 98.1752 288.165 102.946 271.205C107.986 253.119 113.698 232.707 129.355 215.823C145.012 198.938 163.492 193.31 179.821 188.282C195.142 183.554 208.447 179.501 219.4 167.72C230.353 155.863 234.452 141.229 239.223 124.269C240.5 119.767 241.777 115.114 243.255 110.386C246.481 100.255 250.513 89.8994 256.829 80.2188L276.854 97.4788Z" fill="#FA492D"/>
<path d="M263.483 27.3138C254.411 31.141 247.758 35.5686 242.114 41.7222C231.161 53.5791 227.062 68.2126 222.29 85.1724C219.804 94.1026 217.116 103.633 213.219 113.014C209.187 122.619 203.811 132.075 195.882 140.63C180.225 157.514 161.745 163.143 145.349 168.171C130.028 172.898 116.723 176.951 105.769 188.733C94.8162 200.59 90.7171 215.223 85.946 232.183C80.9062 250.268 75.1944 270.68 59.5373 287.565C43.8802 304.45 25.4008 310.078 9.07171 315.106C5.98061 316.082 2.95671 316.982 0 317.958V288.541C0.806374 288.316 1.54555 288.09 2.35192 287.79C17.673 283.062 30.9782 279.01 41.9315 267.228C52.8847 255.371 56.9838 240.738 61.7548 223.778C66.7947 205.692 72.5065 185.281 88.1636 168.396C103.821 151.511 122.3 145.883 138.629 140.855C153.95 136.127 167.255 132.075 178.209 120.293C179.553 118.867 180.762 117.366 181.972 115.79C190.237 104.834 193.866 91.7012 198.032 76.8426C203.072 58.7571 208.784 38.3452 224.441 21.4604C232.639 12.6053 242.248 6.07645 254.613 0.898438L263.483 27.3138Z" fill="#FA492D"/>
<path d="M181.165 37.5972C181.165 37.5972 170.413 76.0945 154.756 92.9793C139.099 109.864 120.619 115.492 104.29 120.52C101.401 121.421 98.5785 122.246 95.8233 123.147C83.9965 126.974 73.648 131.477 64.7107 141.082C53.7575 152.939 49.6584 167.573 44.8874 184.533C39.8475 202.618 34.1357 223.03 18.4786 239.915C12.6324 246.218 6.4502 250.946 0.0664062 254.623V220.328C0.335198 220.028 0.603989 219.803 0.87278 219.503C11.826 207.646 15.9251 193.012 20.6961 176.053C25.064 160.519 29.9022 143.184 41.1243 127.875C42.9386 125.398 44.8874 122.997 47.1049 120.67C62.762 103.786 81.2414 98.1574 97.5705 93.1294C112.892 88.4017 126.197 84.3493 137.15 72.5675C148.103 60.7106 156.973 29.1172 156.973 29.1172L181.165 37.5972Z" fill="#FA492D"/>
</svg>
