<svg width="244" height="82" viewBox="0 0 244 82" fill="none" xmlns="http://www.w3.org/2000/svg">
<path d="M5.53125 5.375C6.1875 5.375 6.69792 5.28385 7.0625 5.10156C7.63542 4.8151 7.92188 4.29948 7.92188 3.55469C7.92188 2.80469 7.61719 2.29948 7.00781 2.03906C6.66406 1.89323 6.15365 1.82031 5.47656 1.82031H2.70312V5.375H5.53125ZM6.05469 10.6719C7.00781 10.6719 7.6875 10.3958 8.09375 9.84375C8.34896 9.49479 8.47656 9.07292 8.47656 8.57812C8.47656 7.74479 8.10417 7.17708 7.35938 6.875C6.96354 6.71354 6.4401 6.63281 5.78906 6.63281H2.70312V10.6719H6.05469ZM1.17969 0.523438H6.10938C7.45312 0.523438 8.40885 0.924479 8.97656 1.72656C9.3099 2.20052 9.47656 2.7474 9.47656 3.36719C9.47656 4.09115 9.27083 4.6849 8.85938 5.14844C8.64583 5.39323 8.33854 5.61719 7.9375 5.82031C8.52604 6.04427 8.96615 6.29688 9.25781 6.57812C9.77344 7.07812 10.0312 7.76823 10.0312 8.64844C10.0312 9.38802 9.79948 10.0573 9.33594 10.6562C8.64323 11.5521 7.54167 12 6.03125 12H1.17969V0.523438ZM16.8438 0.210938C18.8698 0.210938 20.3698 0.861979 21.3438 2.16406C22.1042 3.17969 22.4844 4.47917 22.4844 6.0625C22.4844 7.77604 22.0495 9.20052 21.1797 10.3359C20.1589 11.6693 18.7031 12.3359 16.8125 12.3359C15.0469 12.3359 13.6589 11.7526 12.6484 10.5859C11.7474 9.46094 11.2969 8.03906 11.2969 6.32031C11.2969 4.76823 11.6823 3.4401 12.4531 2.33594C13.4427 0.919271 14.9062 0.210938 16.8438 0.210938ZM17 10.9453C18.3698 10.9453 19.3594 10.4557 19.9688 9.47656C20.5833 8.49219 20.8906 7.36198 20.8906 6.08594C20.8906 4.73698 20.5365 3.65104 19.8281 2.82812C19.125 2.00521 18.1615 1.59375 16.9375 1.59375C15.75 1.59375 14.7812 2.0026 14.0312 2.82031C13.2812 3.63281 12.9062 4.83333 12.9062 6.42188C12.9062 7.69271 13.2266 8.76562 13.8672 9.64062C14.513 10.5104 15.5573 10.9453 17 10.9453ZM28.75 10.6719C29.276 10.6719 29.7083 10.6172 30.0469 10.5078C30.651 10.3047 31.1458 9.91406 31.5312 9.33594C31.8385 8.8724 32.0599 8.27865 32.1953 7.55469C32.2734 7.1224 32.3125 6.72135 32.3125 6.35156C32.3125 4.92969 32.0286 3.82552 31.4609 3.03906C30.8984 2.2526 29.9896 1.85938 28.7344 1.85938H25.9766V10.6719H28.75ZM24.4141 0.523438H29.0625C30.6406 0.523438 31.8646 1.08333 32.7344 2.20312C33.5104 3.21354 33.8984 4.50781 33.8984 6.08594C33.8984 7.30469 33.6693 8.40625 33.2109 9.39062C32.4036 11.1302 31.0156 12 29.0469 12H24.4141V0.523438ZM35.0156 0.523438H36.8281L40.125 6.03906L43.4219 0.523438H45.2422L40.9062 7.375V12H39.3516V7.375L35.0156 0.523438Z" fill="#232427"/>
<path d="M131.203 13V1.48438H133.586V5.875H138.086V1.48438H140.477V13H138.086V7.85938H133.586V13H131.203ZM145.961 6.09375C145.445 6.09375 145.044 6.25521 144.758 6.57812C144.477 6.90104 144.299 7.33854 144.227 7.89062H147.688C147.651 7.30208 147.471 6.85677 147.148 6.55469C146.831 6.2474 146.435 6.09375 145.961 6.09375ZM145.961 4.25781C146.669 4.25781 147.307 4.39062 147.875 4.65625C148.443 4.92188 148.911 5.34115 149.281 5.91406C149.615 6.41927 149.831 7.00521 149.93 7.67188C149.987 8.0625 150.01 8.625 150 9.35938H144.172C144.203 10.2135 144.471 10.8125 144.977 11.1562C145.284 11.3698 145.654 11.4766 146.086 11.4766C146.544 11.4766 146.917 11.3464 147.203 11.0859C147.359 10.9453 147.497 10.75 147.617 10.5H149.891C149.833 11.0052 149.57 11.5182 149.102 12.0391C148.372 12.8672 147.352 13.2812 146.039 13.2812C144.956 13.2812 144 12.9323 143.172 12.2344C142.344 11.5365 141.93 10.401 141.93 8.82812C141.93 7.35417 142.302 6.22396 143.047 5.4375C143.797 4.65104 144.768 4.25781 145.961 4.25781ZM153.781 13H151.555V1.48438H153.781V13ZM161.211 4.48438H163.602L160.531 13H158.18L155.125 4.48438H157.625L159.398 10.7656L161.211 4.48438ZM168.227 6.09375C167.711 6.09375 167.31 6.25521 167.023 6.57812C166.742 6.90104 166.565 7.33854 166.492 7.89062H169.953C169.917 7.30208 169.737 6.85677 169.414 6.55469C169.096 6.2474 168.701 6.09375 168.227 6.09375ZM168.227 4.25781C168.935 4.25781 169.573 4.39062 170.141 4.65625C170.708 4.92188 171.177 5.34115 171.547 5.91406C171.88 6.41927 172.096 7.00521 172.195 7.67188C172.253 8.0625 172.276 8.625 172.266 9.35938H166.438C166.469 10.2135 166.737 10.8125 167.242 11.1562C167.549 11.3698 167.919 11.4766 168.352 11.4766C168.81 11.4766 169.182 11.3464 169.469 11.0859C169.625 10.9453 169.763 10.75 169.883 10.5H172.156C172.099 11.0052 171.836 11.5182 171.367 12.0391C170.638 12.8672 169.617 13.2812 168.305 13.2812C167.221 13.2812 166.266 12.9323 165.438 12.2344C164.609 11.5365 164.195 10.401 164.195 8.82812C164.195 7.35417 164.568 6.22396 165.312 5.4375C166.062 4.65104 167.034 4.25781 168.227 4.25781ZM172.898 6.14844V4.5625H174.086V2.1875H176.289V4.5625H177.672V6.14844H176.289V10.6484C176.289 10.9974 176.333 11.2161 176.422 11.3047C176.51 11.388 176.781 11.4297 177.234 11.4297C177.302 11.4297 177.372 11.4297 177.445 11.4297C177.523 11.4245 177.599 11.4193 177.672 11.4141V13.0781L176.617 13.1172C175.565 13.1536 174.846 12.9714 174.461 12.5703C174.211 12.3151 174.086 11.9219 174.086 11.3906V6.14844H172.898ZM181.391 3.46875H179.133V1.41406H181.391V3.46875ZM179.133 4.48438H181.391V13H179.133V4.48438ZM188.641 7.53906C188.599 7.22135 188.492 6.9349 188.32 6.67969C188.07 6.33594 187.682 6.16406 187.156 6.16406C186.406 6.16406 185.893 6.53646 185.617 7.28125C185.471 7.67708 185.398 8.20312 185.398 8.85938C185.398 9.48438 185.471 9.98698 185.617 10.3672C185.883 11.0755 186.383 11.4297 187.117 11.4297C187.638 11.4297 188.008 11.2891 188.227 11.0078C188.445 10.7266 188.578 10.362 188.625 9.91406H190.898C190.846 10.5911 190.602 11.2318 190.164 11.8359C189.466 12.8099 188.432 13.2969 187.062 13.2969C185.693 13.2969 184.685 12.8906 184.039 12.0781C183.393 11.2656 183.07 10.2109 183.07 8.91406C183.07 7.45052 183.427 6.3125 184.141 5.5C184.854 4.6875 185.839 4.28125 187.094 4.28125C188.161 4.28125 189.034 4.52083 189.711 5C190.393 5.47917 190.797 6.32552 190.922 7.53906H188.641ZM197.156 8.85938C197.016 8.94792 196.872 9.02083 196.727 9.07812C196.586 9.13021 196.391 9.17969 196.141 9.22656L195.641 9.32031C195.172 9.40365 194.836 9.50521 194.633 9.625C194.289 9.82812 194.117 10.1432 194.117 10.5703C194.117 10.9505 194.221 11.2266 194.43 11.3984C194.643 11.5651 194.901 11.6484 195.203 11.6484C195.682 11.6484 196.122 11.5078 196.523 11.2266C196.93 10.9453 197.141 10.4323 197.156 9.6875V8.85938ZM195.805 7.82031C196.216 7.76823 196.51 7.70312 196.688 7.625C197.005 7.48958 197.164 7.27865 197.164 6.99219C197.164 6.64323 197.042 6.40365 196.797 6.27344C196.557 6.13802 196.203 6.07031 195.734 6.07031C195.208 6.07031 194.836 6.20052 194.617 6.46094C194.461 6.65365 194.357 6.91406 194.305 7.24219H192.156C192.203 6.4974 192.411 5.88542 192.781 5.40625C193.37 4.65625 194.38 4.28125 195.812 4.28125C196.745 4.28125 197.573 4.46615 198.297 4.83594C199.021 5.20573 199.383 5.90365 199.383 6.92969V10.8359C199.383 11.1068 199.388 11.4349 199.398 11.8203C199.414 12.112 199.458 12.3099 199.531 12.4141C199.604 12.5182 199.714 12.6042 199.859 12.6719V13H197.438C197.37 12.8281 197.323 12.6667 197.297 12.5156C197.271 12.3646 197.25 12.1927 197.234 12C196.927 12.3333 196.573 12.6172 196.172 12.8516C195.693 13.1276 195.151 13.2656 194.547 13.2656C193.776 13.2656 193.138 13.0469 192.633 12.6094C192.133 12.1667 191.883 11.5417 191.883 10.7344C191.883 9.6875 192.286 8.92969 193.094 8.46094C193.536 8.20573 194.188 8.02344 195.047 7.91406L195.805 7.82031ZM205.961 1.48438H208.484L213.07 9.52344V1.48438H215.312V13H212.906L208.203 4.82031V13H205.961V1.48438ZM220.742 6.09375C220.227 6.09375 219.826 6.25521 219.539 6.57812C219.258 6.90104 219.081 7.33854 219.008 7.89062H222.469C222.432 7.30208 222.253 6.85677 221.93 6.55469C221.612 6.2474 221.216 6.09375 220.742 6.09375ZM220.742 4.25781C221.451 4.25781 222.089 4.39062 222.656 4.65625C223.224 4.92188 223.693 5.34115 224.062 5.91406C224.396 6.41927 224.612 7.00521 224.711 7.67188C224.768 8.0625 224.792 8.625 224.781 9.35938H218.953C218.984 10.2135 219.253 10.8125 219.758 11.1562C220.065 11.3698 220.435 11.4766 220.867 11.4766C221.326 11.4766 221.698 11.3464 221.984 11.0859C222.141 10.9453 222.279 10.75 222.398 10.5H224.672C224.615 11.0052 224.352 11.5182 223.883 12.0391C223.154 12.8672 222.133 13.2812 220.82 13.2812C219.737 13.2812 218.781 12.9323 217.953 12.2344C217.125 11.5365 216.711 10.401 216.711 8.82812C216.711 7.35417 217.083 6.22396 217.828 5.4375C218.578 4.65104 219.549 4.25781 220.742 4.25781ZM228.508 4.48438V9.61719C228.508 10.1016 228.565 10.4661 228.68 10.7109C228.883 11.1432 229.281 11.3594 229.875 11.3594C230.635 11.3594 231.156 11.0521 231.438 10.4375C231.583 10.1042 231.656 9.66406 231.656 9.11719V4.48438H233.914V13H231.75V11.7969C231.729 11.8229 231.677 11.901 231.594 12.0312C231.51 12.1615 231.411 12.276 231.297 12.375C230.948 12.6875 230.609 12.901 230.281 13.0156C229.958 13.1302 229.578 13.1875 229.141 13.1875C227.88 13.1875 227.031 12.7344 226.594 11.8281C226.349 11.3281 226.227 10.5911 226.227 9.61719V4.48438H228.508ZM239.43 6.09375C238.914 6.09375 238.513 6.25521 238.227 6.57812C237.945 6.90104 237.768 7.33854 237.695 7.89062H241.156C241.12 7.30208 240.94 6.85677 240.617 6.55469C240.299 6.2474 239.904 6.09375 239.43 6.09375ZM239.43 4.25781C240.138 4.25781 240.776 4.39062 241.344 4.65625C241.911 4.92188 242.38 5.34115 242.75 5.91406C243.083 6.41927 243.299 7.00521 243.398 7.67188C243.456 8.0625 243.479 8.625 243.469 9.35938H237.641C237.672 10.2135 237.94 10.8125 238.445 11.1562C238.753 11.3698 239.122 11.4766 239.555 11.4766C240.013 11.4766 240.385 11.3464 240.672 11.0859C240.828 10.9453 240.966 10.75 241.086 10.5H243.359C243.302 11.0052 243.039 11.5182 242.57 12.0391C241.841 12.8672 240.82 13.2812 239.508 13.2812C238.424 13.2812 237.469 12.9323 236.641 12.2344C235.812 11.5365 235.398 10.401 235.398 8.82812C235.398 7.35417 235.771 6.22396 236.516 5.4375C237.266 4.65104 238.237 4.25781 239.43 4.25781ZM133.625 24.4844V27.5781H136.352C136.893 27.5781 137.299 27.5156 137.57 27.3906C138.049 27.1719 138.289 26.7396 138.289 26.0938C138.289 25.3958 138.057 24.9271 137.594 24.6875C137.333 24.5521 136.943 24.4844 136.422 24.4844H133.625ZM136.922 22.4844C137.729 22.5 138.349 22.599 138.781 22.7812C139.219 22.9635 139.589 23.2318 139.891 23.5859C140.141 23.8776 140.339 24.2005 140.484 24.5547C140.63 24.9089 140.703 25.3125 140.703 25.7656C140.703 26.3125 140.565 26.8516 140.289 27.3828C140.013 27.9089 139.557 28.2812 138.922 28.5C139.453 28.7135 139.828 29.0182 140.047 29.4141C140.271 29.8047 140.383 30.4036 140.383 31.2109V31.9844C140.383 32.5104 140.404 32.8672 140.445 33.0547C140.508 33.3516 140.654 33.5703 140.883 33.7109V34H138.234C138.161 33.7448 138.109 33.5391 138.078 33.3828C138.016 33.0599 137.982 32.7292 137.977 32.3906L137.961 31.3203C137.951 30.5859 137.815 30.0964 137.555 29.8516C137.299 29.6068 136.818 29.4844 136.109 29.4844H133.625V34H131.273V22.4844H136.922ZM145.961 27.0938C145.445 27.0938 145.044 27.2552 144.758 27.5781C144.477 27.901 144.299 28.3385 144.227 28.8906H147.688C147.651 28.3021 147.471 27.8568 147.148 27.5547C146.831 27.2474 146.435 27.0938 145.961 27.0938ZM145.961 25.2578C146.669 25.2578 147.307 25.3906 147.875 25.6562C148.443 25.9219 148.911 26.3411 149.281 26.9141C149.615 27.4193 149.831 28.0052 149.93 28.6719C149.987 29.0625 150.01 29.625 150 30.3594H144.172C144.203 31.2135 144.471 31.8125 144.977 32.1562C145.284 32.3698 145.654 32.4766 146.086 32.4766C146.544 32.4766 146.917 32.3464 147.203 32.0859C147.359 31.9453 147.497 31.75 147.617 31.5H149.891C149.833 32.0052 149.57 32.5182 149.102 33.0391C148.372 33.8672 147.352 34.2812 146.039 34.2812C144.956 34.2812 144 33.9323 143.172 33.2344C142.344 32.5365 141.93 31.401 141.93 29.8281C141.93 28.3542 142.302 27.224 143.047 26.4375C143.797 25.651 144.768 25.2578 145.961 25.2578ZM155.164 32.1719C155.685 32.1719 156.125 31.9766 156.484 31.5859C156.844 31.1901 157.023 30.5625 157.023 29.7031C157.023 28.8958 156.852 28.2812 156.508 27.8594C156.169 27.4375 155.714 27.2266 155.141 27.2266C154.359 27.2266 153.82 27.5938 153.523 28.3281C153.367 28.7188 153.289 29.2005 153.289 29.7734C153.289 30.2682 153.372 30.7083 153.539 31.0938C153.841 31.8125 154.383 32.1719 155.164 32.1719ZM154.609 25.2812C155.036 25.2812 155.409 25.3464 155.727 25.4766C156.268 25.7005 156.706 26.112 157.039 26.7109V25.4844H159.203V33.5625C159.203 34.6615 159.018 35.4896 158.648 36.0469C158.013 37.0052 156.794 37.4844 154.992 37.4844C153.904 37.4844 153.016 37.2708 152.328 36.8438C151.641 36.4167 151.26 35.7786 151.188 34.9297H153.609C153.672 35.1901 153.773 35.3776 153.914 35.4922C154.154 35.6953 154.557 35.7969 155.125 35.7969C155.927 35.7969 156.464 35.5286 156.734 34.9922C156.911 34.6484 157 34.0703 157 33.2578V32.7109C156.786 33.0755 156.557 33.349 156.312 33.5312C155.87 33.8698 155.294 34.0391 154.586 34.0391C153.492 34.0391 152.617 33.6562 151.961 32.8906C151.31 32.1198 150.984 31.0781 150.984 29.7656C150.984 28.5 151.299 27.4375 151.93 26.5781C152.56 25.7135 153.453 25.2812 154.609 25.2812ZM163.508 25.4844V30.6172C163.508 31.1016 163.565 31.4661 163.68 31.7109C163.883 32.1432 164.281 32.3594 164.875 32.3594C165.635 32.3594 166.156 32.0521 166.438 31.4375C166.583 31.1042 166.656 30.6641 166.656 30.1172V25.4844H168.914V34H166.75V32.7969C166.729 32.8229 166.677 32.901 166.594 33.0312C166.51 33.1615 166.411 33.276 166.297 33.375C165.948 33.6875 165.609 33.901 165.281 34.0156C164.958 34.1302 164.578 34.1875 164.141 34.1875C162.88 34.1875 162.031 33.7344 161.594 32.8281C161.349 32.3281 161.227 31.5911 161.227 30.6172V25.4844H163.508ZM173.344 34H171.117V22.4844H173.344V34ZM180.219 29.8594C180.078 29.9479 179.935 30.0208 179.789 30.0781C179.648 30.1302 179.453 30.1797 179.203 30.2266L178.703 30.3203C178.234 30.4036 177.898 30.5052 177.695 30.625C177.352 30.8281 177.18 31.1432 177.18 31.5703C177.18 31.9505 177.284 32.2266 177.492 32.3984C177.706 32.5651 177.964 32.6484 178.266 32.6484C178.745 32.6484 179.185 32.5078 179.586 32.2266C179.992 31.9453 180.203 31.4323 180.219 30.6875V29.8594ZM178.867 28.8203C179.279 28.7682 179.573 28.7031 179.75 28.625C180.068 28.4896 180.227 28.2786 180.227 27.9922C180.227 27.6432 180.104 27.4036 179.859 27.2734C179.62 27.138 179.266 27.0703 178.797 27.0703C178.271 27.0703 177.898 27.2005 177.68 27.4609C177.523 27.6536 177.419 27.9141 177.367 28.2422H175.219C175.266 27.4974 175.474 26.8854 175.844 26.4062C176.432 25.6562 177.443 25.2812 178.875 25.2812C179.807 25.2812 180.635 25.4661 181.359 25.8359C182.083 26.2057 182.445 26.9036 182.445 27.9297V31.8359C182.445 32.1068 182.451 32.4349 182.461 32.8203C182.477 33.112 182.521 33.3099 182.594 33.4141C182.667 33.5182 182.776 33.6042 182.922 33.6719V34H180.5C180.432 33.8281 180.385 33.6667 180.359 33.5156C180.333 33.3646 180.312 33.1927 180.297 33C179.99 33.3333 179.635 33.6172 179.234 33.8516C178.755 34.1276 178.214 34.2656 177.609 34.2656C176.839 34.2656 176.201 34.0469 175.695 33.6094C175.195 33.1667 174.945 32.5417 174.945 31.7344C174.945 30.6875 175.349 29.9297 176.156 29.4609C176.599 29.2057 177.25 29.0234 178.109 28.9141L178.867 28.8203ZM189.055 25.2812C189.096 25.2812 189.13 25.2839 189.156 25.2891C189.188 25.2891 189.253 25.2917 189.352 25.2969V27.5781C189.211 27.5625 189.086 27.5521 188.977 27.5469C188.867 27.5417 188.779 27.5391 188.711 27.5391C187.815 27.5391 187.214 27.8307 186.906 28.4141C186.734 28.7422 186.648 29.2474 186.648 29.9297V34H184.406V25.4844H186.531V26.9688C186.875 26.401 187.174 26.013 187.43 25.8047C187.846 25.4557 188.388 25.2812 189.055 25.2812Z" fill="#232427"/>
<line y1="45.5" x2="244" y2="45.5" stroke="#232427"/>
<path d="M218.219 71.5938L214.734 61.4531L211.031 71.5938H218.219ZM213.109 58.0469H216.625L224.953 81H221.547L219.219 74.125H210.141L207.656 81H204.469L213.109 58.0469ZM229.562 76.5469C229.562 77.3594 229.859 78 230.453 78.4688C231.047 78.9375 231.75 79.1719 232.562 79.1719C233.552 79.1719 234.51 78.9427 235.438 78.4844C237 77.724 237.781 76.4792 237.781 74.75V72.4844C237.438 72.7031 236.995 72.8854 236.453 73.0312C235.911 73.1771 235.38 73.2812 234.859 73.3438L233.156 73.5625C232.135 73.6979 231.37 73.9115 230.859 74.2031C229.995 74.6927 229.562 75.474 229.562 76.5469ZM236.375 70.8594C237.021 70.776 237.453 70.5052 237.672 70.0469C237.797 69.7969 237.859 69.4375 237.859 68.9688C237.859 68.0104 237.516 67.3177 236.828 66.8906C236.151 66.4531 235.177 66.2344 233.906 66.2344C232.438 66.2344 231.396 66.6302 230.781 67.4219C230.438 67.8594 230.214 68.5104 230.109 69.375H227.484C227.536 67.3125 228.203 65.8802 229.484 65.0781C230.776 64.2656 232.271 63.8594 233.969 63.8594C235.938 63.8594 237.536 64.2344 238.766 64.9844C239.984 65.7344 240.594 66.901 240.594 68.4844V78.125C240.594 78.4167 240.651 78.651 240.766 78.8281C240.891 79.0052 241.146 79.0938 241.531 79.0938C241.656 79.0938 241.797 79.0885 241.953 79.0781C242.109 79.0573 242.276 79.0312 242.453 79V81.0781C242.016 81.2031 241.682 81.2812 241.453 81.3125C241.224 81.3438 240.911 81.3594 240.516 81.3594C239.547 81.3594 238.844 81.0156 238.406 80.3281C238.177 79.9635 238.016 79.4479 237.922 78.7812C237.349 79.5312 236.526 80.1823 235.453 80.7344C234.38 81.2865 233.198 81.5625 231.906 81.5625C230.354 81.5625 229.083 81.0938 228.094 80.1562C227.115 79.2083 226.625 78.026 226.625 76.6094C226.625 75.0573 227.109 73.8542 228.078 73C229.047 72.1458 230.318 71.6198 231.891 71.4219L236.375 70.8594Z" fill="#232427"/>
</svg>
