<svg width="244" height="82" viewBox="0 0 244 82" fill="none" xmlns="http://www.w3.org/2000/svg">
<path d="M1.25781 0.523438H2.82812V5.26562H8.79688V0.523438H10.3672V12H8.79688V6.63281H2.82812V12H1.25781V0.523438ZM12.9297 0.523438H21.2969V1.92969H14.4453V5.41406H20.7812V6.74219H14.4453V10.6328H21.4141V12H12.9297V0.523438ZM29.3438 7.29688L27.6016 2.22656L25.75 7.29688H29.3438ZM26.7891 0.523438H28.5469L32.7109 12H31.0078L29.8438 8.5625H25.3047L24.0625 12H22.4688L26.7891 0.523438ZM38.5312 10.6719C39.0573 10.6719 39.4896 10.6172 39.8281 10.5078C40.4323 10.3047 40.9271 9.91406 41.3125 9.33594C41.6198 8.8724 41.8411 8.27865 41.9766 7.55469C42.0547 7.1224 42.0938 6.72135 42.0938 6.35156C42.0938 4.92969 41.8099 3.82552 41.2422 3.03906C40.6797 2.2526 39.7708 1.85938 38.5156 1.85938H35.7578V10.6719H38.5312ZM34.1953 0.523438H38.8438C40.4219 0.523438 41.6458 1.08333 42.5156 2.20312C43.2917 3.21354 43.6797 4.50781 43.6797 6.08594C43.6797 7.30469 43.4505 8.40625 42.9922 9.39062C42.1849 11.1302 40.7969 12 38.8281 12H34.1953V0.523438ZM45.6875 0.523438H47.2422V10.6328H53.0547V12H45.6875V0.523438ZM54.9453 0.523438H56.5156V12H54.9453V0.523438ZM59.0469 0.523438H60.8828L66.6797 9.82031V0.523438H68.1562V12H66.4141L60.5312 2.71094V12H59.0469V0.523438ZM70.7578 0.523438H79.125V1.92969H72.2734V5.41406H78.6094V6.74219H72.2734V10.6328H79.2422V12H70.7578V0.523438Z" fill="#232427"/>
<path d="M121.203 13V1.48438H123.586V5.875H128.086V1.48438H130.477V13H128.086V7.85938H123.586V13H121.203ZM135.961 6.09375C135.445 6.09375 135.044 6.25521 134.758 6.57812C134.477 6.90104 134.299 7.33854 134.227 7.89062H137.688C137.651 7.30208 137.471 6.85677 137.148 6.55469C136.831 6.2474 136.435 6.09375 135.961 6.09375ZM135.961 4.25781C136.669 4.25781 137.307 4.39062 137.875 4.65625C138.443 4.92188 138.911 5.34115 139.281 5.91406C139.615 6.41927 139.831 7.00521 139.93 7.67188C139.987 8.0625 140.01 8.625 140 9.35938H134.172C134.203 10.2135 134.471 10.8125 134.977 11.1562C135.284 11.3698 135.654 11.4766 136.086 11.4766C136.544 11.4766 136.917 11.3464 137.203 11.0859C137.359 10.9453 137.497 10.75 137.617 10.5H139.891C139.833 11.0052 139.57 11.5182 139.102 12.0391C138.372 12.8672 137.352 13.2812 136.039 13.2812C134.956 13.2812 134 12.9323 133.172 12.2344C132.344 11.5365 131.93 10.401 131.93 8.82812C131.93 7.35417 132.302 6.22396 133.047 5.4375C133.797 4.65104 134.768 4.25781 135.961 4.25781ZM143.781 13H141.555V1.48438H143.781V13ZM151.211 4.48438H153.602L150.531 13H148.18L145.125 4.48438H147.625L149.398 10.7656L151.211 4.48438ZM158.227 6.09375C157.711 6.09375 157.31 6.25521 157.023 6.57812C156.742 6.90104 156.565 7.33854 156.492 7.89062H159.953C159.917 7.30208 159.737 6.85677 159.414 6.55469C159.096 6.2474 158.701 6.09375 158.227 6.09375ZM158.227 4.25781C158.935 4.25781 159.573 4.39062 160.141 4.65625C160.708 4.92188 161.177 5.34115 161.547 5.91406C161.88 6.41927 162.096 7.00521 162.195 7.67188C162.253 8.0625 162.276 8.625 162.266 9.35938H156.438C156.469 10.2135 156.737 10.8125 157.242 11.1562C157.549 11.3698 157.919 11.4766 158.352 11.4766C158.81 11.4766 159.182 11.3464 159.469 11.0859C159.625 10.9453 159.763 10.75 159.883 10.5H162.156C162.099 11.0052 161.836 11.5182 161.367 12.0391C160.638 12.8672 159.617 13.2812 158.305 13.2812C157.221 13.2812 156.266 12.9323 155.438 12.2344C154.609 11.5365 154.195 10.401 154.195 8.82812C154.195 7.35417 154.568 6.22396 155.312 5.4375C156.062 4.65104 157.034 4.25781 158.227 4.25781ZM162.898 6.14844V4.5625H164.086V2.1875H166.289V4.5625H167.672V6.14844H166.289V10.6484C166.289 10.9974 166.333 11.2161 166.422 11.3047C166.51 11.388 166.781 11.4297 167.234 11.4297C167.302 11.4297 167.372 11.4297 167.445 11.4297C167.523 11.4245 167.599 11.4193 167.672 11.4141V13.0781L166.617 13.1172C165.565 13.1536 164.846 12.9714 164.461 12.5703C164.211 12.3151 164.086 11.9219 164.086 11.3906V6.14844H162.898ZM171.391 3.46875H169.133V1.41406H171.391V3.46875ZM169.133 4.48438H171.391V13H169.133V4.48438ZM178.641 7.53906C178.599 7.22135 178.492 6.9349 178.32 6.67969C178.07 6.33594 177.682 6.16406 177.156 6.16406C176.406 6.16406 175.893 6.53646 175.617 7.28125C175.471 7.67708 175.398 8.20312 175.398 8.85938C175.398 9.48438 175.471 9.98698 175.617 10.3672C175.883 11.0755 176.383 11.4297 177.117 11.4297C177.638 11.4297 178.008 11.2891 178.227 11.0078C178.445 10.7266 178.578 10.362 178.625 9.91406H180.898C180.846 10.5911 180.602 11.2318 180.164 11.8359C179.466 12.8099 178.432 13.2969 177.062 13.2969C175.693 13.2969 174.685 12.8906 174.039 12.0781C173.393 11.2656 173.07 10.2109 173.07 8.91406C173.07 7.45052 173.427 6.3125 174.141 5.5C174.854 4.6875 175.839 4.28125 177.094 4.28125C178.161 4.28125 179.034 4.52083 179.711 5C180.393 5.47917 180.797 6.32552 180.922 7.53906H178.641ZM187.156 8.85938C187.016 8.94792 186.872 9.02083 186.727 9.07812C186.586 9.13021 186.391 9.17969 186.141 9.22656L185.641 9.32031C185.172 9.40365 184.836 9.50521 184.633 9.625C184.289 9.82812 184.117 10.1432 184.117 10.5703C184.117 10.9505 184.221 11.2266 184.43 11.3984C184.643 11.5651 184.901 11.6484 185.203 11.6484C185.682 11.6484 186.122 11.5078 186.523 11.2266C186.93 10.9453 187.141 10.4323 187.156 9.6875V8.85938ZM185.805 7.82031C186.216 7.76823 186.51 7.70312 186.688 7.625C187.005 7.48958 187.164 7.27865 187.164 6.99219C187.164 6.64323 187.042 6.40365 186.797 6.27344C186.557 6.13802 186.203 6.07031 185.734 6.07031C185.208 6.07031 184.836 6.20052 184.617 6.46094C184.461 6.65365 184.357 6.91406 184.305 7.24219H182.156C182.203 6.4974 182.411 5.88542 182.781 5.40625C183.37 4.65625 184.38 4.28125 185.812 4.28125C186.745 4.28125 187.573 4.46615 188.297 4.83594C189.021 5.20573 189.383 5.90365 189.383 6.92969V10.8359C189.383 11.1068 189.388 11.4349 189.398 11.8203C189.414 12.112 189.458 12.3099 189.531 12.4141C189.604 12.5182 189.714 12.6042 189.859 12.6719V13H187.438C187.37 12.8281 187.323 12.6667 187.297 12.5156C187.271 12.3646 187.25 12.1927 187.234 12C186.927 12.3333 186.573 12.6172 186.172 12.8516C185.693 13.1276 185.151 13.2656 184.547 13.2656C183.776 13.2656 183.138 13.0469 182.633 12.6094C182.133 12.1667 181.883 11.5417 181.883 10.7344C181.883 9.6875 182.286 8.92969 183.094 8.46094C183.536 8.20573 184.188 8.02344 185.047 7.91406L185.805 7.82031ZM195.961 1.48438H198.484L203.07 9.52344V1.48438H205.312V13H202.906L198.203 4.82031V13H195.961V1.48438ZM210.742 6.09375C210.227 6.09375 209.826 6.25521 209.539 6.57812C209.258 6.90104 209.081 7.33854 209.008 7.89062H212.469C212.432 7.30208 212.253 6.85677 211.93 6.55469C211.612 6.2474 211.216 6.09375 210.742 6.09375ZM210.742 4.25781C211.451 4.25781 212.089 4.39062 212.656 4.65625C213.224 4.92188 213.693 5.34115 214.062 5.91406C214.396 6.41927 214.612 7.00521 214.711 7.67188C214.768 8.0625 214.792 8.625 214.781 9.35938H208.953C208.984 10.2135 209.253 10.8125 209.758 11.1562C210.065 11.3698 210.435 11.4766 210.867 11.4766C211.326 11.4766 211.698 11.3464 211.984 11.0859C212.141 10.9453 212.279 10.75 212.398 10.5H214.672C214.615 11.0052 214.352 11.5182 213.883 12.0391C213.154 12.8672 212.133 13.2812 210.82 13.2812C209.737 13.2812 208.781 12.9323 207.953 12.2344C207.125 11.5365 206.711 10.401 206.711 8.82812C206.711 7.35417 207.083 6.22396 207.828 5.4375C208.578 4.65104 209.549 4.25781 210.742 4.25781ZM218.508 4.48438V9.61719C218.508 10.1016 218.565 10.4661 218.68 10.7109C218.883 11.1432 219.281 11.3594 219.875 11.3594C220.635 11.3594 221.156 11.0521 221.438 10.4375C221.583 10.1042 221.656 9.66406 221.656 9.11719V4.48438H223.914V13H221.75V11.7969C221.729 11.8229 221.677 11.901 221.594 12.0312C221.51 12.1615 221.411 12.276 221.297 12.375C220.948 12.6875 220.609 12.901 220.281 13.0156C219.958 13.1302 219.578 13.1875 219.141 13.1875C217.88 13.1875 217.031 12.7344 216.594 11.8281C216.349 11.3281 216.227 10.5911 216.227 9.61719V4.48438H218.508ZM229.43 6.09375C228.914 6.09375 228.513 6.25521 228.227 6.57812C227.945 6.90104 227.768 7.33854 227.695 7.89062H231.156C231.12 7.30208 230.94 6.85677 230.617 6.55469C230.299 6.2474 229.904 6.09375 229.43 6.09375ZM229.43 4.25781C230.138 4.25781 230.776 4.39062 231.344 4.65625C231.911 4.92188 232.38 5.34115 232.75 5.91406C233.083 6.41927 233.299 7.00521 233.398 7.67188C233.456 8.0625 233.479 8.625 233.469 9.35938H227.641C227.672 10.2135 227.94 10.8125 228.445 11.1562C228.753 11.3698 229.122 11.4766 229.555 11.4766C230.013 11.4766 230.385 11.3464 230.672 11.0859C230.828 10.9453 230.966 10.75 231.086 10.5H233.359C233.302 11.0052 233.039 11.5182 232.57 12.0391C231.841 12.8672 230.82 13.2812 229.508 13.2812C228.424 13.2812 227.469 12.9323 226.641 12.2344C225.812 11.5365 225.398 10.401 225.398 8.82812C225.398 7.35417 225.771 6.22396 226.516 5.4375C227.266 4.65104 228.237 4.25781 229.43 4.25781ZM129.734 24.5234H123.641V26.9688H129.234V28.9688H123.641V31.9297H130.016V34H121.289V22.4844H129.734V24.5234ZM130.875 34L133.781 29.6875L131 25.5H133.727L135.148 27.9688L136.539 25.5H139.188L136.391 29.6484L139.297 34H136.523L135.055 31.4453L133.578 34H130.875ZM139.742 27.1484V25.5625H140.93V23.1875H143.133V25.5625H144.516V27.1484H143.133V31.6484C143.133 31.9974 143.177 32.2161 143.266 32.3047C143.354 32.388 143.625 32.4297 144.078 32.4297C144.146 32.4297 144.216 32.4297 144.289 32.4297C144.367 32.4245 144.443 32.4193 144.516 32.4141V34.0781L143.461 34.1172C142.409 34.1536 141.69 33.9714 141.305 33.5703C141.055 33.3151 140.93 32.9219 140.93 32.3906V27.1484H139.742ZM149.305 27.0938C148.789 27.0938 148.388 27.2552 148.102 27.5781C147.82 27.901 147.643 28.3385 147.57 28.8906H151.031C150.995 28.3021 150.815 27.8568 150.492 27.5547C150.174 27.2474 149.779 27.0938 149.305 27.0938ZM149.305 25.2578C150.013 25.2578 150.651 25.3906 151.219 25.6562C151.786 25.9219 152.255 26.3411 152.625 26.9141C152.958 27.4193 153.174 28.0052 153.273 28.6719C153.331 29.0625 153.354 29.625 153.344 30.3594H147.516C147.547 31.2135 147.815 31.8125 148.32 32.1562C148.628 32.3698 148.997 32.4766 149.43 32.4766C149.888 32.4766 150.26 32.3464 150.547 32.0859C150.703 31.9453 150.841 31.75 150.961 31.5H153.234C153.177 32.0052 152.914 32.5182 152.445 33.0391C151.716 33.8672 150.695 34.2812 149.383 34.2812C148.299 34.2812 147.344 33.9323 146.516 33.2344C145.688 32.5365 145.273 31.401 145.273 29.8281C145.273 28.3542 145.646 27.224 146.391 26.4375C147.141 25.651 148.112 25.2578 149.305 25.2578ZM159.57 25.2812C160.451 25.2812 161.169 25.513 161.727 25.9766C162.289 26.4349 162.57 27.1979 162.57 28.2656V34H160.289V28.8203C160.289 28.3724 160.229 28.0286 160.109 27.7891C159.891 27.3516 159.474 27.1328 158.859 27.1328C158.104 27.1328 157.586 27.4531 157.305 28.0938C157.159 28.4323 157.086 28.8646 157.086 29.3906V34H154.867V25.5H157.016V26.7422C157.302 26.3047 157.573 25.9896 157.828 25.7969C158.286 25.4531 158.867 25.2812 159.57 25.2812ZM167.773 25.2812C168.289 25.2812 168.747 25.3958 169.148 25.625C169.549 25.849 169.875 26.1615 170.125 26.5625V22.5H172.383V34H170.219V32.8203C169.901 33.3255 169.539 33.6927 169.133 33.9219C168.727 34.151 168.221 34.2656 167.617 34.2656C166.622 34.2656 165.784 33.8646 165.102 33.0625C164.424 32.2552 164.086 31.2214 164.086 29.9609C164.086 28.5078 164.419 27.3646 165.086 26.5312C165.758 25.6979 166.654 25.2812 167.773 25.2812ZM168.258 32.3906C168.888 32.3906 169.367 32.1562 169.695 31.6875C170.023 31.2188 170.188 30.612 170.188 29.8672C170.188 28.8255 169.924 28.0807 169.398 27.6328C169.076 27.362 168.701 27.2266 168.273 27.2266C167.622 27.2266 167.143 27.474 166.836 27.9688C166.534 28.4583 166.383 29.0677 166.383 29.7969C166.383 30.5833 166.536 31.2135 166.844 31.6875C167.156 32.1562 167.628 32.3906 168.258 32.3906ZM177.773 27.0938C177.258 27.0938 176.857 27.2552 176.57 27.5781C176.289 27.901 176.112 28.3385 176.039 28.8906H179.5C179.464 28.3021 179.284 27.8568 178.961 27.5547C178.643 27.2474 178.247 27.0938 177.773 27.0938ZM177.773 25.2578C178.482 25.2578 179.12 25.3906 179.688 25.6562C180.255 25.9219 180.724 26.3411 181.094 26.9141C181.427 27.4193 181.643 28.0052 181.742 28.6719C181.799 29.0625 181.823 29.625 181.812 30.3594H175.984C176.016 31.2135 176.284 31.8125 176.789 32.1562C177.096 32.3698 177.466 32.4766 177.898 32.4766C178.357 32.4766 178.729 32.3464 179.016 32.0859C179.172 31.9453 179.31 31.75 179.43 31.5H181.703C181.646 32.0052 181.383 32.5182 180.914 33.0391C180.185 33.8672 179.164 34.2812 177.852 34.2812C176.768 34.2812 175.812 33.9323 174.984 33.2344C174.156 32.5365 173.742 31.401 173.742 29.8281C173.742 28.3542 174.115 27.224 174.859 26.4375C175.609 25.651 176.581 25.2578 177.773 25.2578ZM186.461 25.2812C186.977 25.2812 187.435 25.3958 187.836 25.625C188.237 25.849 188.562 26.1615 188.812 26.5625V22.5H191.07V34H188.906V32.8203C188.589 33.3255 188.227 33.6927 187.82 33.9219C187.414 34.151 186.909 34.2656 186.305 34.2656C185.31 34.2656 184.471 33.8646 183.789 33.0625C183.112 32.2552 182.773 31.2214 182.773 29.9609C182.773 28.5078 183.107 27.3646 183.773 26.5312C184.445 25.6979 185.341 25.2812 186.461 25.2812ZM186.945 32.3906C187.576 32.3906 188.055 32.1562 188.383 31.6875C188.711 31.2188 188.875 30.612 188.875 29.8672C188.875 28.8255 188.612 28.0807 188.086 27.6328C187.763 27.362 187.388 27.2266 186.961 27.2266C186.31 27.2266 185.831 27.474 185.523 27.9688C185.221 28.4583 185.07 29.0677 185.07 29.7969C185.07 30.5833 185.224 31.2135 185.531 31.6875C185.844 32.1562 186.315 32.3906 186.945 32.3906ZM197.719 34V22.4844H200.102V26.875H204.602V22.4844H206.992V34H204.602V28.8594H200.102V34H197.719ZM212.477 27.0938C211.961 27.0938 211.56 27.2552 211.273 27.5781C210.992 27.901 210.815 28.3385 210.742 28.8906H214.203C214.167 28.3021 213.987 27.8568 213.664 27.5547C213.346 27.2474 212.951 27.0938 212.477 27.0938ZM212.477 25.2578C213.185 25.2578 213.823 25.3906 214.391 25.6562C214.958 25.9219 215.427 26.3411 215.797 26.9141C216.13 27.4193 216.346 28.0052 216.445 28.6719C216.503 29.0625 216.526 29.625 216.516 30.3594H210.688C210.719 31.2135 210.987 31.8125 211.492 32.1562C211.799 32.3698 212.169 32.4766 212.602 32.4766C213.06 32.4766 213.432 32.3464 213.719 32.0859C213.875 31.9453 214.013 31.75 214.133 31.5H216.406C216.349 32.0052 216.086 32.5182 215.617 33.0391C214.888 33.8672 213.867 34.2812 212.555 34.2812C211.471 34.2812 210.516 33.9323 209.688 33.2344C208.859 32.5365 208.445 31.401 208.445 29.8281C208.445 28.3542 208.818 27.224 209.562 26.4375C210.312 25.651 211.284 25.2578 212.477 25.2578ZM222.719 29.8594C222.578 29.9479 222.435 30.0208 222.289 30.0781C222.148 30.1302 221.953 30.1797 221.703 30.2266L221.203 30.3203C220.734 30.4036 220.398 30.5052 220.195 30.625C219.852 30.8281 219.68 31.1432 219.68 31.5703C219.68 31.9505 219.784 32.2266 219.992 32.3984C220.206 32.5651 220.464 32.6484 220.766 32.6484C221.245 32.6484 221.685 32.5078 222.086 32.2266C222.492 31.9453 222.703 31.4323 222.719 30.6875V29.8594ZM221.367 28.8203C221.779 28.7682 222.073 28.7031 222.25 28.625C222.568 28.4896 222.727 28.2786 222.727 27.9922C222.727 27.6432 222.604 27.4036 222.359 27.2734C222.12 27.138 221.766 27.0703 221.297 27.0703C220.771 27.0703 220.398 27.2005 220.18 27.4609C220.023 27.6536 219.919 27.9141 219.867 28.2422H217.719C217.766 27.4974 217.974 26.8854 218.344 26.4062C218.932 25.6562 219.943 25.2812 221.375 25.2812C222.307 25.2812 223.135 25.4661 223.859 25.8359C224.583 26.2057 224.945 26.9036 224.945 27.9297V31.8359C224.945 32.1068 224.951 32.4349 224.961 32.8203C224.977 33.112 225.021 33.3099 225.094 33.4141C225.167 33.5182 225.276 33.6042 225.422 33.6719V34H223C222.932 33.8281 222.885 33.6667 222.859 33.5156C222.833 33.3646 222.812 33.1927 222.797 33C222.49 33.3333 222.135 33.6172 221.734 33.8516C221.255 34.1276 220.714 34.2656 220.109 34.2656C219.339 34.2656 218.701 34.0469 218.195 33.6094C217.695 33.1667 217.445 32.5417 217.445 31.7344C217.445 30.6875 217.849 29.9297 218.656 29.4609C219.099 29.2057 219.75 29.0234 220.609 28.9141L221.367 28.8203ZM232.18 25.4844H234.57L231.5 34H229.148L226.094 25.4844H228.594L230.367 31.7656L232.18 25.4844ZM236.18 35.6328L236.461 35.6484C236.68 35.6589 236.888 35.651 237.086 35.625C237.284 35.599 237.451 35.5391 237.586 35.4453C237.716 35.3568 237.836 35.1719 237.945 34.8906C238.06 34.6094 238.107 34.4375 238.086 34.375L234.961 25.4844H237.438L239.297 31.7656L241.055 25.4844H243.422L240.5 33.8594C239.938 35.474 239.492 36.474 239.164 36.8594C238.836 37.25 238.18 37.4453 237.195 37.4453C236.997 37.4453 236.839 37.4427 236.719 37.4375C236.599 37.4375 236.419 37.4297 236.18 37.4141V35.6328Z" fill="#232427"/>
<line y1="45.5" x2="244" y2="45.5" stroke="#232427"/>
<path d="M204.704 71.752H212.576L208.672 62.12L204.704 71.752ZM195.712 81L205.888 58.152H211.584L221.76 81H216.416L214.016 75.336H203.264L200.896 81H195.712ZM241.469 69.096V77.128C241.469 78.056 242.141 78.088 242.429 78.088C242.845 78.088 243.517 78.056 243.869 77.992V81.096C243.005 81.256 242.237 81.48 240.733 81.48C237.853 81.48 237.533 79.944 237.405 79.304C236.541 80.136 234.397 81.64 229.437 81.64C225.021 81.64 222.525 79.656 222.525 76.328C222.525 71.656 227.325 71.24 230.141 70.984C236.477 70.376 237.149 70.152 237.149 68.84C237.149 66.888 234.909 66.408 232.349 66.408C229.437 66.408 227.869 67.336 227.709 69.224H223.389C224.029 64.776 227.325 63.4 232.349 63.4C241.213 63.4 241.469 66.888 241.469 69.096ZM237.053 74.184V72.552C235.773 73.096 234.397 73.256 231.261 73.608C227.933 73.992 227.133 74.728 227.133 76.168C227.133 78.408 229.181 78.824 230.685 78.824C233.053 78.824 237.053 77.928 237.053 74.184Z" fill="#232427"/>
</svg>
