<svg width="29" height="29" viewBox="0 0 29 29" fill="none" xmlns="http://www.w3.org/2000/svg">
<path fill-rule="evenodd" clip-rule="evenodd" d="M10.23 0.499862L10.0669 0L9.57587 0.188067L0.408786 3.69915L6.10352e-05 3.85569L0.101138 4.28154L1.62899 10.7185L1.72026 11.103H2.11547H5.68973V27.5733V28.0733H6.18973H13.829H14.3383H21.9776H22.4776V27.5733V11.103H26.0518H26.447L26.5383 10.7185L28.0661 4.28154L28.1672 3.85569L27.7585 3.69915L18.5914 0.188067L18.1004 0L17.9372 0.499862C16.9193 3.61883 15.1548 4.26584 14.2488 4.28433L14.2442 4.26017C14.1966 4.2693 14.1428 4.27633 14.0836 4.28049C14.0245 4.27633 13.9707 4.2693 13.9231 4.26017L13.9184 4.28433C13.0125 4.26584 11.248 3.61883 10.23 0.499862ZM14.0836 5.28293C12.771 5.34581 10.6688 4.50626 9.45394 1.30561L1.17518 4.47645L2.51068 10.103H6.18973H6.68973V10.603V27.0733H13.829H14.3383H21.4776V10.603V10.103H21.9776H25.6566L26.9921 4.47645L18.7133 1.30561C17.4985 4.50626 15.3963 5.34581 14.0836 5.28293Z" fill="#FFF7E1"/>
</svg>
