<svg width="30" height="28" viewBox="0 0 30 28" fill="none" xmlns="http://www.w3.org/2000/svg">
<path fill-rule="evenodd" clip-rule="evenodd" d="M15.2389 1.68969L11.564 9.67826C11.4157 10.0007 11.1075 10.2204 10.7543 10.2555L1.95599 11.1288L8.48721 16.9414C8.75775 17.1821 8.87697 17.5504 8.79888 17.904L6.9313 26.3617L14.8762 21.916C14.9654 21.8661 15.0634 21.8464 15.1582 21.8537C15.2522 21.8478 15.3489 21.8683 15.4369 21.9185L23.3453 26.4288L21.5467 17.9561C21.4715 17.6018 21.5937 17.2346 21.8662 16.996L28.4445 11.2368L19.6536 10.2919C19.3007 10.2539 18.9943 10.0318 18.8486 9.70811L15.2389 1.68969ZM15.1523 22.9074L7.41962 27.2344C6.66629 27.656 5.76869 26.9891 5.95482 26.1461L7.8224 17.6884L1.29117 11.8758C0.640249 11.2965 0.9901 10.2198 1.85721 10.1337L10.6555 9.26034L14.7548 0.349015C14.8447 0.15375 15.0445 0.0439389 15.2469 0.0592704C15.4485 0.0467873 15.646 0.158097 15.7338 0.353192L19.7605 9.2976L28.5514 10.2426C29.4178 10.3357 29.7588 11.4153 29.1032 11.9892L22.5249 17.7484L24.3235 26.2211C24.5028 27.0655 23.5998 27.7251 22.8499 27.2974L15.1523 22.9074Z" />
</svg>
