<svg width="30" height="30" viewBox="0 0 30 30" fill="none" xmlns="http://www.w3.org/2000/svg">
<path fill-rule="evenodd" clip-rule="evenodd" d="M19.0056 0.673853L19.7889 0L20.2351 0.939707L29.4586 20.3657L29.9999 21.5059L28.7704 21.24L23.4303 20.0853L27.5965 28.8599L28.1378 30L26.9083 29.7342L1.22949 24.1816L0 23.9157L0.950395 23.0982L8.26466 16.806L3.09159 15.6875L1.86209 15.4216L2.81249 14.604L19.0056 0.673853ZM9.49415 17.0719L2.17989 23.364L26.367 28.594L22.2008 19.8195L9.49415 17.0719ZM21.6595 18.6793L10.4445 16.2543L17.5897 10.1077L21.6595 18.6793ZM22.889 18.9452L18.373 9.43385L17.9268 8.49414L17.1435 9.16799L9.21505 15.9885L4.04198 14.8699L19.4517 1.61356L28.2291 20.0999L22.889 18.9452Z" fill="#FFF7E1"/>
</svg>
